<?xml version="1.0" encoding="UTF-8" standalone="no"?><!DOCTYPE svg PUBLIC "-//W3C//DTD SVG 1.1//EN" "http://www.w3.org/Graphics/SVG/1.1/DTD/svg11.dtd"><svg width="100%" height="100%" viewBox="0 0 250 250" version="1.1" xmlns="http://www.w3.org/2000/svg" xmlns:xlink="http://www.w3.org/1999/xlink" xml:space="preserve" xmlns:serif="http://www.serif.com/" style="fill-rule:evenodd;clip-rule:evenodd;stroke-linecap:round;stroke-linejoin:round;stroke-miterlimit:1.5;"><rect id="zeek-pirate" x="0" y="0" width="250" height="250" style="fill:none;"/><g id="Zeek"><path id="Tail" d="M210.383,232.628c-0,0 10.942,-8.89 9.871,-22.674c-1.07,-13.785 -7.155,-20.965 -9.406,-26.6c-2.25,-5.634 -5.796,-14.712 -5.135,-23.529c0.885,-11.807 6.345,-21.975 10.7,-28.195c2.455,-3.506 5.812,-10.421 0.762,-14.964c-3.35,-3.013 -8.734,-2.755 -11.776,0.25c-3.043,3.005 -12.513,15.301 -13.393,30.246c-1.149,19.514 1.701,32.339 4.955,36.608c3.254,4.268 12.381,20.821 11.964,26.053c-0.418,5.232 1.458,22.805 1.458,22.805Z" style="fill:#fd9203;"/><clipPath id="_clip1"><path id="Tail1" serif:id="Tail" d="M210.383,232.628c-0,0 10.942,-8.89 9.871,-22.674c-1.07,-13.785 -7.155,-20.965 -9.406,-26.6c-2.25,-5.634 -5.796,-14.712 -5.135,-23.529c0.885,-11.807 6.345,-21.975 10.7,-28.195c2.455,-3.506 5.812,-10.421 0.762,-14.964c-3.35,-3.013 -8.734,-2.755 -11.776,0.25c-3.043,3.005 -12.513,15.301 -13.393,30.246c-1.149,19.514 1.701,32.339 4.955,36.608c3.254,4.268 12.381,20.821 11.964,26.053c-0.418,5.232 1.458,22.805 1.458,22.805Z"/></clipPath><g clip-path="url(#_clip1)"><path d="M192.354,173.696c3.607,3.349 6.69,5.24 10.394,2.026c3.704,-3.214 5.573,-11.715 6.433,-14.698c0.859,-2.982 6.344,-19.594 10.199,-23.82c3.854,-4.227 8.843,-28.613 0.744,-29.921c-8.099,-1.308 -19.689,1.212 -26.033,10.295c-6.344,9.083 -5.343,52.769 -1.737,56.118Z" style="fill:#ffaf32;"/><path d="M196.342,127.299l18.82,11.093c-0,0 16.959,-22.497 6.176,-26.596c-10.784,-4.099 -17.988,1.938 -20.956,5.567c-2.968,3.628 -4.04,9.936 -4.04,9.936Z" style="fill:#e77f00;"/><path d="M211.741,143.199l-1.696,3.821l-21.102,-9.368l1.697,-3.82l21.101,9.367Z" style="fill:#e77f00;"/><g><path d="M215.111,128.79l-0.396,-5.231l-1.77,2.051l-4.567,-0.356l2.793,2.411l-1.292,1.498l5.232,-0.373Z" style="fill:#ffaf32;"/><path d="M205.195,120.232l0.397,5.231l1.759,-2.038l4.581,0.339l-2.793,-2.411l1.292,-1.498l-5.236,0.377Z" style="fill:#ffaf32;"/></g></g><path id="Tail2" serif:id="Tail" d="M210.383,232.628c-0,0 10.942,-8.89 9.871,-22.674c-1.07,-13.785 -7.155,-20.965 -9.406,-26.6c-2.25,-5.634 -5.796,-14.712 -5.135,-23.529c0.885,-11.807 6.345,-21.975 10.7,-28.195c2.455,-3.506 5.812,-10.421 0.762,-14.964c-3.35,-3.013 -8.734,-2.755 -11.776,0.25c-3.043,3.005 -12.513,15.301 -13.393,30.246c-1.149,19.514 1.701,32.339 4.955,36.608c3.254,4.268 12.381,20.821 11.964,26.053c-0.418,5.232 1.458,22.805 1.458,22.805Z" style="fill:none;stroke:#040200;stroke-width:2.14px;"/><path id="Body" d="M141.3,246.557c-16.574,-0.24 -46.625,-0.636 -51.486,-0.705c-6.627,-0.095 1.165,-30.429 -3.379,-42.027c-4.545,-11.597 -14.038,-33.459 -8.874,-48.646c5.165,-15.186 34.924,-2.848 49.874,-5.901c14.949,-3.053 28.729,-8.592 39.437,-7.763c3.042,0.236 4.76,8.19 6.973,11.733c2.556,4.092 9.889,12.272 16.666,18.758c11.295,10.809 22.291,27.672 21.519,43.553c-0.772,15.881 -2.522,31.445 -25.253,31.341c-17.946,-0.082 -35.422,-0.198 -45.477,-0.343Z" style="fill:#effdff;stroke:#000;stroke-width:2.14px;"/><g><path d="M121.842,160.608c-0,-0 -2.127,30.288 -1.613,36.676c0.514,6.387 0.984,16.675 0.319,19.378c-0.664,2.704 11.537,-4.474 14.487,-10.423c2.951,-5.949 0.355,-46.006 0.355,-46.006l-13.548,0.375Z" style="fill:#c62328;"/><path d="M111.271,161.374c1.391,4.481 1.061,14.199 3.409,15.627c3.306,2.009 6.577,-1.203 6.577,-1.203c0,-0 4.714,33.496 2.366,36.366c-2.348,2.871 -11.041,2.066 -12.928,-2.719c-1.887,-4.785 -9.038,-42.545 -6.194,-45.982c2.844,-3.437 5.379,-6.571 6.77,-2.089Z" style="fill:#c62328;"/><path d="M128.37,159.685c-4.776,9.028 -4.111,22.975 -3.943,32.569c0.169,9.594 -2.392,17.281 -2.667,21.779c-0.274,4.498 -4.944,16.675 -4.138,20.232c0.807,3.557 20.38,2.137 27.708,2.169c7.328,0.032 39.457,2.504 46.75,-1.228c7.292,-3.732 26.529,-16.404 26.21,-22.688c-0.319,-6.284 -20.159,-43.415 -23.57,-46.573c-3.411,-3.158 -20.708,-28.764 -25.705,-28.358c-4.998,0.407 -35.869,13.071 -40.645,22.098Z" style="fill:#914814;"/><clipPath id="_clip2"><path d="M128.37,159.685c-4.776,9.028 -4.111,22.975 -3.943,32.569c0.169,9.594 -2.392,17.281 -2.667,21.779c-0.274,4.498 -4.944,16.675 -4.138,20.232c0.807,3.557 20.38,2.137 27.708,2.169c7.328,0.032 39.457,2.504 46.75,-1.228c7.292,-3.732 26.529,-16.404 26.21,-22.688c-0.319,-6.284 -20.159,-43.415 -23.57,-46.573c-3.411,-3.158 -20.708,-28.764 -25.705,-28.358c-4.998,0.407 -35.869,13.071 -40.645,22.098Z"/></clipPath><g clip-path="url(#_clip2)"><path d="M186.286,140.904c7.975,14.115 17.456,20.309 17.337,29.294c-0.118,8.985 -1.506,9.171 -16.924,5.875c-15.417,-3.297 -17.692,-1.728 -24.692,2.286c-7,4.014 -11.932,7.363 -7.236,13.955c4.696,6.593 6.114,6.779 -1.713,14.488c-7.827,7.709 -16.511,18.926 -20.793,8.772c-4.283,-10.154 0.797,-21.106 -10.279,-26.29c-11.076,-5.183 -11.696,-16.375 2.067,-29.772c13.764,-13.398 42.237,-31.527 50.094,-31.421c7.856,0.107 4.164,-1.302 12.139,12.813Z" style="fill:#a55b26;"/></g><path d="M128.37,159.685c-4.776,9.028 -4.111,22.975 -3.943,32.569c0.169,9.594 -2.392,17.281 -2.667,21.779c-0.274,4.498 -4.944,16.675 -4.138,20.232c0.807,3.557 20.38,2.137 27.708,2.169c7.328,0.032 39.457,2.504 46.75,-1.228c7.292,-3.732 26.529,-16.404 26.21,-22.688c-0.319,-6.284 -20.159,-43.415 -23.57,-46.573c-3.411,-3.158 -20.708,-28.764 -25.705,-28.358c-4.998,0.407 -35.869,13.071 -40.645,22.098Z" style="fill:none;stroke:#000;stroke-width:2.02px;"/><path d="M133.184,184.628l0.196,2.095c0.055,0.579 -0.371,1.092 -0.949,1.147l-6.863,0.643c-0.578,0.054 -1.092,-0.371 -1.146,-0.949l-0.197,-2.096c-0.054,-0.578 0.371,-1.092 0.95,-1.146l6.863,-0.644c0.578,-0.054 1.092,0.371 1.146,0.95Z" style="fill:#fec131;stroke:#000;stroke-width:2.02px;"/><path d="M133.417,194.823l-0.196,2.096c-0.054,0.579 -0.567,1.004 -1.146,0.95l-6.863,-0.641c-0.578,-0.054 -1.004,-0.567 -0.95,-1.145l0.196,-2.096c0.054,-0.579 0.567,-1.004 1.146,-0.95l6.863,0.641c0.578,0.054 1.004,0.567 0.95,1.145Z" style="fill:#fec131;stroke:#000;stroke-width:2.02px;"/><path d="M132.807,203.634l-0.364,2.073c-0.1,0.573 -0.646,0.956 -1.218,0.855l-6.79,-1.19c-0.572,-0.1 -0.955,-0.646 -0.854,-1.218l0.363,-2.073c0.1,-0.573 0.646,-0.956 1.218,-0.855l6.79,1.19c0.572,0.1 0.955,0.646 0.855,1.218Z" style="fill:#fec131;stroke:#000;stroke-width:2.02px;"/><path d="M107.707,161.982c1.577,8.397 5.476,33.047 7.975,37.098c2.499,4.052 5.981,20.328 6.273,23.358c0.293,3.031 -4.466,14.69 -5.228,16.42c-0.762,1.731 -31.881,-2.281 -31.943,-6.531c-0.062,-4.251 4.112,-15.654 -0.585,-25.36c-4.696,-9.705 -11.917,-38.9 -9.995,-46.357c1.923,-7.456 1.214,-8.692 6.327,-8.365c5.113,0.327 25.599,1.34 27.176,9.737Z" style="fill:#914814;"/><clipPath id="_clip3"><path d="M107.707,161.982c1.577,8.397 5.476,33.047 7.975,37.098c2.499,4.052 5.981,20.328 6.273,23.358c0.293,3.031 -4.466,14.69 -5.228,16.42c-0.762,1.731 -31.881,-2.281 -31.943,-6.531c-0.062,-4.251 4.112,-15.654 -0.585,-25.36c-4.696,-9.705 -11.917,-38.9 -9.995,-46.357c1.923,-7.456 1.214,-8.692 6.327,-8.365c5.113,0.327 25.599,1.34 27.176,9.737Z"/></clipPath><g clip-path="url(#_clip3)"><path d="M69.441,143.961c0.65,12.387 -9.481,21.266 -0.443,31.527c9.038,10.261 3.663,19.113 10.456,27.911c6.793,8.799 14.916,18.289 13.853,2.233c-1.064,-16.056 -5.73,-21.664 2.215,-25.811c7.945,-4.147 -7.148,0.904 -11.017,-0.984c-3.869,-1.887 -3.426,-11.829 -2.038,-18.342c1.388,-6.512 -13.675,-28.921 -13.026,-16.534Z" style="fill:#a55b26;"/></g><path d="M107.707,161.982c1.577,8.397 5.476,33.047 7.975,37.098c2.499,4.052 5.981,20.328 6.273,23.358c0.293,3.031 -4.466,14.69 -5.228,16.42c-0.762,1.731 -31.881,-2.281 -31.943,-6.531c-0.062,-4.251 4.112,-15.654 -0.585,-25.36c-4.696,-9.705 -11.917,-38.9 -9.995,-46.357c1.923,-7.456 1.214,-8.692 6.327,-8.365c5.113,0.327 25.599,1.34 27.176,9.737Z" style="fill:none;stroke:#000;stroke-width:2.02px;"/><path d="M111.31,184.177l0.42,2.062c0.116,0.57 -0.251,1.126 -0.821,1.242l-6.754,1.377c-0.569,0.116 -1.125,-0.252 -1.241,-0.821l-0.421,-2.063c-0.116,-0.569 0.252,-1.125 0.821,-1.241l6.754,-1.377c0.57,-0.116 1.126,0.252 1.242,0.821Z" style="fill:#fec131;stroke:#000;stroke-width:2.02px;"/><path d="M113.479,193.545l0.715,1.98c0.198,0.546 -0.086,1.15 -0.632,1.347l-5.255,1.898c-0.546,0.197 -1.15,-0.086 -1.347,-0.633l-0.715,-1.98c-0.197,-0.546 0.086,-1.15 0.632,-1.347l5.255,-1.897c0.547,-0.197 1.15,0.086 1.347,0.632Z" style="fill:#fec131;stroke:#000;stroke-width:2.02px;"/><path d="M117.261,202.466l0.64,2.005c0.177,0.553 -0.129,1.146 -0.682,1.322l-6.567,2.097c-0.553,0.176 -1.146,-0.13 -1.322,-0.683l-0.64,-2.005c-0.177,-0.553 0.129,-1.146 0.682,-1.323l6.567,-2.096c0.553,-0.177 1.146,0.129 1.322,0.683Z" style="fill:#fec131;stroke:#000;stroke-width:2.02px;"/><path d="M84.945,214.15c8.019,1.117 49.063,2.345 58.092,1.404c9.029,-0.941 36.861,-1.356 41.371,-0.686c4.51,0.67 8.373,11.818 -0.55,10.04c-8.922,-1.778 -44.419,0.582 -50.32,1.061c-5.901,0.478 -44.339,1.339 -48.504,-3.254c-4.165,-4.593 -8.108,-9.681 -0.089,-8.565Z" style="fill:#5f402a;stroke:#000;stroke-width:2.02px;"/><path d="M130.673,212.613c1.206,0 2.362,0.48 3.215,1.332c0.853,0.853 1.332,2.01 1.332,3.216c-0,1.944 -0,4.209 -0,6.153c-0,1.206 -0.479,2.363 -1.332,3.215c-0.853,0.853 -2.009,1.332 -3.215,1.332c-3.763,0 -9.082,0 -12.845,0c-1.206,0 -2.363,-0.479 -3.216,-1.332c-0.852,-0.852 -1.331,-2.009 -1.331,-3.215c-0,-1.944 -0,-4.209 -0,-6.153c-0,-1.206 0.479,-2.363 1.331,-3.216c0.853,-0.852 2.01,-1.332 3.216,-1.332c3.763,0 9.082,0 12.845,0Z" style="fill:#fec131;stroke:#000;stroke-width:2.02px;"/><path d="M127.272,216.652c2.101,0 3.804,1.703 3.804,3.804c0,0.001 0,0.001 0,0.001c0,2.101 -1.703,3.804 -3.804,3.804c-1.788,0 -3.916,0 -5.705,0c-2.101,0 -3.804,-1.703 -3.804,-3.804c-0,-0 -0,-0 -0,-0.001c0,-2.101 1.703,-3.804 3.804,-3.804c1.789,0 3.917,0 5.705,0Z" style="fill:#5f402a;stroke:#000;stroke-width:2.02px;"/><path d="M134.463,219.056c0.806,-0 1.458,0.652 1.458,1.458c0,0.001 0,0.001 0,0.002c0,0.806 -0.652,1.458 -1.458,1.458c-1.743,0 -4.644,0 -6.387,0c-0.806,0 -1.458,-0.652 -1.458,-1.458c-0,-0.001 -0,-0.001 -0,-0.002c-0,-0.806 0.652,-1.458 1.458,-1.458c1.743,-0 4.644,-0 6.387,-0Z" style="fill:#fec131;stroke:#000;stroke-width:2.02px;"/><path d="M133.435,184.983c2.215,13.409 2.595,30.236 1.456,40.751c-1.14,10.515 -0.621,8.943 -1.013,11.256c-0.393,2.312 13.532,5.513 13.532,5.513l6.519,-1.116c-0,-0 -2.519,-7.382 -2.747,-18c-0.228,-10.618 9.105,-18.497 10.257,-22.758c1.152,-4.26 4.343,-14.223 1.647,-17.516" style="fill:none;stroke:#000;stroke-width:2.14px;"/><path d="M135.603,209.652c6.452,-6.785 20.698,-4.665 26.688,-6.539c5.99,-1.874 -6.371,16.524 -3.712,22.84c2.658,6.316 0.133,7.153 -4.298,8.102c-4.43,0.949 -18.483,0.805 -19.706,-1.667c-1.223,-2.472 0.301,-21.972 1.028,-22.736Z" style="fill:#5f402a;"/><clipPath id="_clip4"><path d="M135.603,209.652c6.452,-6.785 20.698,-4.665 26.688,-6.539c5.99,-1.874 -6.371,16.524 -3.712,22.84c2.658,6.316 0.133,7.153 -4.298,8.102c-4.43,0.949 -18.483,0.805 -19.706,-1.667c-1.223,-2.472 0.301,-21.972 1.028,-22.736Z"/></clipPath><g clip-path="url(#_clip4)"><path d="M131.766,204.892c-0.851,5.423 -7.727,31.357 -0.053,32.569c7.673,1.212 11.359,2.233 15.772,0.351c4.412,-1.882 -3.562,-13.031 0.248,-20.638c3.81,-7.608 8.985,-8.087 9.587,-14.929c0.603,-6.842 -24.704,-2.775 -25.554,2.647Z" style="fill:#8f6242;"/></g><path d="M135.603,209.652c6.452,-6.785 20.698,-4.665 26.688,-6.539c5.99,-1.874 -6.371,16.524 -3.712,22.84c2.658,6.316 0.133,7.153 -4.298,8.102c-4.43,0.949 -18.483,0.805 -19.706,-1.667c-1.223,-2.472 0.301,-21.972 1.028,-22.736Z" style="fill:none;stroke:#000;stroke-width:2.02px;"/><ellipse cx="148.136" cy="228.401" rx="3.566" ry="2.384" style="fill:#fec131;"/><path d="M108.958,211.75c-2.554,-3.822 -16.242,-4.466 -22.914,-4.171c-6.672,0.295 -9.685,-0.439 -9.685,-0.439c0,0 7.674,15.719 7.86,24.028c0.186,8.31 23.808,3.722 23.809,1.611c-0,-0.032 2.348,-18.908 0.93,-21.029Z" style="fill:#5f402a;"/><clipPath id="_clip5"><path d="M108.958,211.75c-2.554,-3.822 -16.242,-4.466 -22.914,-4.171c-6.672,0.295 -9.685,-0.439 -9.685,-0.439c0,0 7.674,15.719 7.86,24.028c0.186,8.31 23.808,3.722 23.809,1.611c-0,-0.032 2.348,-18.908 0.93,-21.029Z"/></clipPath><g clip-path="url(#_clip5)"><path d="M69.705,201.384c7.78,1.499 27.415,0.909 27.415,0.909c0,-0 -8.134,8.373 -5.6,16.922c2.534,8.549 6.787,14.562 8.843,16.524c2.056,1.961 -19.689,-1.101 -19.689,-1.101c0,0 -18.749,-34.754 -10.969,-33.254Z" style="fill:#8f6242;"/></g><path d="M108.958,211.75c-2.554,-3.822 -16.242,-4.466 -22.914,-4.171c-6.672,0.295 -9.685,-0.439 -9.685,-0.439c0,0 7.674,15.719 7.86,24.028c0.186,8.31 23.808,3.722 23.809,1.611c-0,-0.032 2.348,-18.908 0.93,-21.029Z" style="fill:none;stroke:#000;stroke-width:2.02px;"/><ellipse cx="92.973" cy="226.499" rx="3.438" ry="2.364" style="fill:#fec131;"/><path d="M106.675,196.307c2.215,9.536 2.553,9.052 2.161,15.102" style="fill:none;stroke:#000;stroke-width:2.14px;"/></g><path d="M124.326,180.811c11.829,-7.163 35.245,-8.209 38.807,-6.821c3.562,1.387 -4.12,-18.175 -6.592,-25.536c-2.473,-7.36 -31.722,10.152 -31.722,10.152c-0,0 -1.958,23.092 -0.493,22.205Z" style="fill:#5f402a;"/><clipPath id="_clip6"><path d="M124.326,180.811c11.829,-7.163 35.245,-8.209 38.807,-6.821c3.562,1.387 -4.12,-18.175 -6.592,-25.536c-2.473,-7.36 -31.722,10.152 -31.722,10.152c-0,0 -1.958,23.092 -0.493,22.205Z"/></clipPath><g clip-path="url(#_clip6)"><path d="M121.523,183.409c-0,-0 11.678,-5.232 20.025,-5.567c8.347,-0.335 10.899,-11.707 0.425,-19.155c-10.473,-7.448 -17.579,-2.185 -18.767,2.504c-1.187,4.689 -1.683,22.218 -1.683,22.218Z" style="fill:#8f6242;"/></g><path d="M124.326,180.811c11.829,-7.163 35.245,-8.209 38.807,-6.821c3.562,1.387 -4.12,-18.175 -6.592,-25.536c-2.473,-7.36 -31.722,10.152 -31.722,10.152c-0,0 -1.958,23.092 -0.493,22.205Z" style="fill:none;stroke:#000;stroke-width:2.02px;"/><path d="M111.005,179.803c-6.605,-3.646 -22.923,-7.688 -26.91,-4.434c-3.988,3.254 -4.945,-19.012 0.948,-20.941c5.892,-1.93 22.595,2.296 22.595,2.296c-0,0 5.148,24.062 3.367,23.079Z" style="fill:#5f402a;"/><clipPath id="_clip7"><path d="M111.005,179.803c-6.605,-3.646 -22.923,-7.688 -26.91,-4.434c-3.988,3.254 -4.945,-19.012 0.948,-20.941c5.892,-1.93 22.595,2.296 22.595,2.296c-0,0 5.148,24.062 3.367,23.079Z"/></clipPath><g clip-path="url(#_clip7)"><path d="M89.074,145.672c-6.627,7.305 -16.427,31.596 -10.136,34.547c6.291,2.95 4.802,-2.855 10.367,-2.664c5.564,0.192 12.671,-12.616 9.357,-18.055c-3.314,-5.438 -2.96,-21.133 -9.588,-13.828Z" style="fill:#8f6242;"/></g><path d="M111.005,179.803c-6.605,-3.646 -22.923,-7.688 -26.91,-4.434c-3.988,3.254 -4.945,-19.012 0.948,-20.941c5.892,-1.93 22.595,2.296 22.595,2.296c-0,0 5.148,24.062 3.367,23.079Z" style="fill:none;stroke:#000;stroke-width:2.02px;"/><path id="Left-Leg" serif:id="Left Leg" d="M136.053,232.53l-71.245,-1.224c0,-0 -5.994,1.529 -5.861,7.605c0.133,6.075 6.49,8.084 6.49,8.084l69.497,0.577l5.341,-13.005l-4.222,-2.037Z" style="fill:#fd9203;"/><clipPath id="_clip8"><path id="Left-Leg1" serif:id="Left Leg" d="M136.053,232.53l-71.245,-1.224c0,-0 -5.994,1.529 -5.861,7.605c0.133,6.075 6.49,8.084 6.49,8.084l69.497,0.577l5.341,-13.005l-4.222,-2.037Z"/></clipPath><g clip-path="url(#_clip8)"><path d="M57.12,244.023c-0,-0 48.416,1.383 53.303,0.152c4.888,-1.23 8.445,-2.738 9.243,-5.629c0.799,-2.891 0.212,-7.796 0.212,-7.796l-60.829,-3.397l-4.337,12.015l2.408,4.655Z" style="fill:#ffaf32;"/><path d="M68.353,240.631l-12.328,0.038" style="fill:none;stroke:#000;stroke-width:2.14px;"/><path d="M69.012,236.407l-12.328,0.038" style="fill:none;stroke:#000;stroke-width:2.14px;"/></g><path id="Left-Leg2" serif:id="Left Leg" d="M136.053,232.53l-71.245,-1.224c0,-0 -5.994,1.529 -5.861,7.605c0.133,6.075 6.49,8.084 6.49,8.084l69.497,0.577l5.341,-13.005l-4.222,-2.037Z" style="fill:none;stroke:#000;stroke-width:2.14px;"/><path id="Right-Lef" serif:id="Right Lef" d="M194.247,199.215c-5.399,-0.331 -17.144,2.695 -20.007,12.359c-2.863,9.665 -1.501,19.668 -4.958,21.416c-3.457,1.748 -28.405,0.486 -30.828,1.147c-2.422,0.662 -7.099,3.344 -8.138,6.064c-1.039,2.719 -1.212,7.145 -1.212,7.145c0,-0 64.445,1.519 65.492,1.102c1.048,-0.416 9.482,-1.155 12.721,-8.219c3.24,-7.063 6.71,-16.397 2.727,-26.723c-3.983,-10.326 -10.398,-13.96 -15.797,-14.291Z" style="fill:#fd9203;"/><clipPath id="_clip9"><path id="Right-Lef1" serif:id="Right Lef" d="M194.247,199.215c-5.399,-0.331 -17.144,2.695 -20.007,12.359c-2.863,9.665 -1.501,19.668 -4.958,21.416c-3.457,1.748 -28.405,0.486 -30.828,1.147c-2.422,0.662 -7.099,3.344 -8.138,6.064c-1.039,2.719 -1.212,7.145 -1.212,7.145c0,-0 64.445,1.519 65.492,1.102c1.048,-0.416 9.482,-1.155 12.721,-8.219c3.24,-7.063 6.71,-16.397 2.727,-26.723c-3.983,-10.326 -10.398,-13.96 -15.797,-14.291Z"/></clipPath><g clip-path="url(#_clip9)"><path d="M129.356,244.505c0.698,1.562 14.071,1.38 18.583,1.238c4.513,-0.141 44.133,0.207 45.809,-4.997c1.675,-5.205 -6.43,-7.154 -10.265,-6.789c-3.835,0.365 -20.385,0.517 -23.325,0.773c-2.94,0.256 -20.125,-1.818 -22.569,-0.833c-2.444,0.985 -10.048,6.544 -8.233,10.608Z" style="fill:#ffaf32;"/><path d="M154.297,233.972l21.702,0.187" style="fill:none;stroke:#000;stroke-width:2.14px;"/><path d="M133.669,247.452c-0,-0 -0.777,-3.025 1.025,-5.402c1.801,-2.376 6.433,-3.87 6.433,-3.87" style="fill:none;stroke:#000;stroke-width:2.14px;"/></g><path id="Right-Lef2" serif:id="Right Lef" d="M194.247,199.215c-5.399,-0.331 -17.144,2.695 -20.007,12.359c-2.863,9.665 -1.501,19.668 -4.958,21.416c-3.457,1.748 -28.405,0.486 -30.828,1.147c-2.422,0.662 -7.099,3.344 -8.138,6.064c-1.039,2.719 -1.212,7.145 -1.212,7.145c0,-0 64.445,1.519 65.492,1.102c1.048,-0.416 9.482,-1.155 12.721,-8.219c3.24,-7.063 6.71,-16.397 2.727,-26.723c-3.983,-10.326 -10.398,-13.96 -15.797,-14.291Z" style="fill:none;stroke:#000;stroke-width:2.14px;"/><g id="Head"><path d="M172.91,112.337c4.518,-3.561 5.502,-6.876 13.164,-4.973c7.661,1.904 9.153,5.32 12.952,7.306c3.799,1.986 0.003,1.19 -5.911,3.62c-5.914,2.43 -14.518,4.587 -16.747,1.906c-2.229,-2.682 -7.977,-4.297 -3.458,-7.859Z" style="fill:#c62328;stroke:#000;stroke-width:2.02px;"/><path d="M174.156,115.161c4.112,3.657 7.39,4.5 8.144,8.142c0.755,3.641 -2.329,4.595 -1.756,8.67c0.573,4.075 -1.83,-1.19 -4.858,-4.64c-3.027,-3.45 -5.642,-15.828 -1.53,-12.172Z" style="fill:#c62328;stroke:#000;stroke-width:2.02px;"/><path d="M163.008,117.187c3.397,2.886 3.309,4.75 7.728,2.606c4.418,-2.144 9.127,-5.26 6.334,-9.582c-2.793,-4.323 -5.184,-6.382 -8.208,-5.563c-3.023,0.818 -9.25,9.654 -5.854,12.539Z" style="fill:#c62328;stroke:#000;stroke-width:2.02px;"/><g id="Face"><path id="Face-Colors" serif:id="Face Colors" d="M114.422,164.956c31.609,0.439 55.661,-16.237 57.22,-40.827c1.042,-16.439 -3.361,-23.436 -3.131,-23.943c2.695,-5.946 6.148,-9.941 5.6,-20.806c-0.466,-9.226 -1.123,-24.128 -6.141,-25.686c-5.517,-1.714 -27.442,17.815 -27.442,17.815c0,0 -10.314,-3.612 -25.368,-4.051c-10.114,-0.295 -26.654,3.684 -26.654,3.684c0,0 -19.766,-20.486 -27.628,-17.608c-5.074,1.858 -3.987,18.135 -3.756,27.098c0.183,7.126 2.693,16.149 2.702,18.964c0.009,2.815 -3.136,7.666 -2.871,23.151c0.479,27.975 25.86,41.77 57.469,42.209Z" style="fill:#ffaf32;"/><clipPath id="_clip10"><path id="Face-Colors1" serif:id="Face Colors" d="M114.422,164.956c31.609,0.439 55.661,-16.237 57.22,-40.827c1.042,-16.439 -3.361,-23.436 -3.131,-23.943c2.695,-5.946 6.148,-9.941 5.6,-20.806c-0.466,-9.226 -1.123,-24.128 -6.141,-25.686c-5.517,-1.714 -27.442,17.815 -27.442,17.815c0,0 -10.314,-3.612 -25.368,-4.051c-10.114,-0.295 -26.654,3.684 -26.654,3.684c0,0 -19.766,-20.486 -27.628,-17.608c-5.074,1.858 -3.987,18.135 -3.756,27.098c0.183,7.126 2.693,16.149 2.702,18.964c0.009,2.815 -3.136,7.666 -2.871,23.151c0.479,27.975 25.86,41.77 57.469,42.209Z"/></clipPath><g clip-path="url(#_clip10)"><path d="M128.167,55.488l-0.39,26.739" style="fill:none;stroke:#e87f00;stroke-width:18.75px;"/><path d="M101.399,55.384l-0.39,26.739" style="fill:none;stroke:#e87f00;stroke-width:18.75px;"/><path d="M114.601,61.381l-0.389,26.739" style="fill:none;stroke:#e87f00;stroke-width:18.75px;"/><path d="M54.499,131.662c-0,0 11.864,8.541 21.948,7.584c10.083,-0.957 24.633,-8.349 38.473,-7.823c13.841,0.526 22.365,8.597 34.469,8.23c12.104,-0.367 27.876,-6.396 27.876,-6.396c-0,0 -13.911,21.046 -19.467,25.16c-5.556,4.115 -45.766,11.771 -53.147,9.929c-7.381,-1.842 -36.95,-12.393 -42.913,-20.264c-5.963,-7.871 -7.239,-16.42 -7.239,-16.42Z" style="fill:#fff;"/><path d="M113.981,72.96c26.786,-0.095 41.377,9.116 40.689,8.238c-3.095,-3.945 -8.595,-4.131 -8.994,-7.512c-0.364,-3.092 6.389,-8.939 9.871,-10.845c3.483,-1.906 9.472,-5.878 11.785,-4.737c2.313,1.14 3.296,9.713 4.865,11.706c1.568,1.994 4.731,-8.875 4.731,-8.875c0,-0 -0.815,-17.601 -10.952,-13.127c-10.136,4.474 -23.1,22.082 -26.148,21.006c-3.048,-1.077 -18.253,-4.514 -23.88,-4.139c-5.626,0.375 -25.253,3.453 -25.253,3.453c0,-0 -23.144,-17.465 -27.752,-17.074c-4.608,0.391 -6.654,0.423 -6.654,4.139c-0,3.716 1.612,16.077 1.612,16.077c0,-0 2.047,-14.171 4.05,-14.666c2.002,-0.494 10.987,3.764 12.892,5.615c1.905,1.85 10.119,8.301 9.499,10.662c-0.62,2.36 -8.427,5.742 -10.722,7.647c-2.295,1.906 -10.243,10.982 -11.802,15.216c-1.56,4.235 -5.202,13.812 -5.131,18.725c0.071,4.912 1.099,8.748 1.099,8.748c0,0 1.187,-24.179 14.036,-34.993c12.848,-10.814 23.312,-15.196 42.159,-15.264Z" style="fill:#ffc783;"/><clipPath id="_clip11"><path d="M113.981,72.96c26.786,-0.095 41.377,9.116 40.689,8.238c-3.095,-3.945 -8.595,-4.131 -8.994,-7.512c-0.364,-3.092 6.389,-8.939 9.871,-10.845c3.483,-1.906 9.472,-5.878 11.785,-4.737c2.313,1.14 3.296,9.713 4.865,11.706c1.568,1.994 4.731,-8.875 4.731,-8.875c0,-0 -0.815,-17.601 -10.952,-13.127c-10.136,4.474 -23.1,22.082 -26.148,21.006c-3.048,-1.077 -18.253,-4.514 -23.88,-4.139c-5.626,0.375 -25.253,3.453 -25.253,3.453c0,-0 -23.144,-17.465 -27.752,-17.074c-4.608,0.391 -6.654,0.423 -6.654,4.139c-0,3.716 1.612,16.077 1.612,16.077c0,-0 2.047,-14.171 4.05,-14.666c2.002,-0.494 10.987,3.764 12.892,5.615c1.905,1.85 10.119,8.301 9.499,10.662c-0.62,2.36 -8.427,5.742 -10.722,7.647c-2.295,1.906 -10.243,10.982 -11.802,15.216c-1.56,4.235 -5.202,13.812 -5.131,18.725c0.071,4.912 1.099,8.748 1.099,8.748c0,0 1.187,-24.179 14.036,-34.993c12.848,-10.814 23.312,-15.196 42.159,-15.264Z"/></clipPath><g clip-path="url(#_clip11)"><path d="M114.601,61.381l-0.389,26.739" style="fill:none;stroke:#ffaf32;stroke-width:18.75px;"/><path d="M101.399,55.384l-0.39,26.739" style="fill:none;stroke:#ffaf32;stroke-width:18.75px;"/><path d="M128.167,55.488l-0.39,26.739" style="fill:none;stroke:#ffaf32;stroke-width:18.75px;"/></g></g><path d="M149.805,76.685c1.459,-3.467 9.672,-12.293 15.338,-14.211c0,-0 4.325,9.346 3.793,13.692c-0.532,4.347 -3.279,17.066 -3.279,17.066c0,0 -6.69,-8.913 -8.816,-11.053c-3.225,-3.245 -7.036,-5.494 -7.036,-5.494Z" style="fill:#f66978;"/><clipPath id="_clip12"><path d="M149.805,76.685c1.459,-3.467 9.672,-12.293 15.338,-14.211c0,-0 4.325,9.346 3.793,13.692c-0.532,4.347 -3.279,17.066 -3.279,17.066c0,0 -6.69,-8.913 -8.816,-11.053c-3.225,-3.245 -7.036,-5.494 -7.036,-5.494Z"/></clipPath><g clip-path="url(#_clip12)"><path d="M165.25,62.665l-6.903,5.343c0,0 -1.825,6.372 0.417,7.959c2.241,1.587 4.66,3.222 4.66,3.222c0,-0 -0.859,2.097 1.135,3.381c1.993,1.284 3.943,0.359 3.943,0.359c-0,-0 0.815,-7.807 0.062,-11.476c-0.753,-3.668 -3.314,-8.788 -3.314,-8.788Z" style="fill:#ff969f;"/></g><path d="M79.505,75.624c-1.459,-3.467 -9.406,-11.536 -15.072,-13.453c-0,-0 -3.713,10.303 -3.775,13.947c-0.075,4.378 2.224,14.754 2.224,14.754c0,-0 7.461,-7.613 9.587,-9.753c3.226,-3.246 7.036,-5.495 7.036,-5.495Z" style="fill:#f66978;"/><clipPath id="_clip13"><path d="M79.505,75.624c-1.459,-3.467 -9.406,-11.536 -15.072,-13.453c-0,-0 -3.713,10.303 -3.775,13.947c-0.075,4.378 2.224,14.754 2.224,14.754c0,-0 7.461,-7.613 9.587,-9.753c3.226,-3.246 7.036,-5.495 7.036,-5.495Z"/></clipPath><g clip-path="url(#_clip13)"><path d="M71.972,65.249c0,-0 1.001,6.132 -0.611,8.469c-1.613,2.337 -4.581,4.259 -4.581,4.259c-0,-0 1.134,2.679 -1.462,3.971c-2.596,1.292 -4.67,3.286 -5.512,1.069c-0.841,-2.217 1.648,-18.558 4.041,-21.038c2.392,-2.48 8.125,3.27 8.125,3.27Z" style="fill:#ff969f;"/></g><g id="Face-Outline" serif:id="Face Outline"><path id="Face1" serif:id="Face" d="M149.13,76.077c14.875,9.153 21.051,24.656 22.646,40.284c2.827,27.691 -20.687,49.101 -57.354,48.595c-40.912,-0.565 -58.958,-20.773 -57.355,-48.595c1.169,-20.301 9.101,-33.941 23.309,-41.477" style="fill:none;stroke:#000;stroke-width:2.26px;"/><path d="M80.376,74.884c0,-0 -12.588,-12.605 -15.161,-12.676c-2.574,-0.07 -4.239,10.891 -4.105,15.816c0.135,4.925 2.05,12.963 2.05,12.963" style="fill:none;stroke:#000;stroke-width:2.26px;"/><path d="M149.13,76.077c0,-0 14.014,-14.494 15.659,-13.518c1.644,0.976 4.841,11.139 4.217,17.028c-0.623,5.888 -3.129,14.18 -3.129,14.18" style="fill:none;stroke:#000;stroke-width:2.26px;"/><path d="M141.221,72.163c-0,0 19.512,-20.742 27.707,-17.91c2.198,0.759 3.613,8.608 4.247,14.699c0.524,5.041 0.368,17.487 -0.376,21.353c-0.744,3.866 -4.048,10.239 -4.048,10.239" style="fill:none;stroke:#000;stroke-width:2.26px;"/><path d="M89.023,71.286c-0,-0 -18.544,-20.125 -28.338,-17.799c-3.573,0.849 -3.111,12.212 -3.785,19.452c-0.87,9.348 3.366,24.688 3.366,24.688" style="fill:none;stroke:#000;stroke-width:2.26px;"/><path d="M89.023,71.286c7.281,-2.319 15.762,-3.476 25.399,-3.519c10.685,-0.047 19.525,1.56 26.799,4.396" style="fill:none;stroke:#000;stroke-width:2.26px;"/></g></g><path d="M114.265,99.161c17.875,0.152 45.127,5.104 50.215,6.847c5.089,1.743 8.431,4.945 8.456,0.957c0.025,-3.987 -9.924,-42.619 -55.874,-42.414c-45.949,0.205 -61.738,23.666 -60.834,44.365c1.399,4.853 27.648,-10.011 58.037,-9.755Z" style="fill:#c62328;stroke:#000;stroke-width:2.02px;"/><g id="Grin"><path d="M128.275,139.176c-1.214,3.704 -2.357,4.507 -7.294,4.379c-4.936,-0.128 -6.529,-1.262 -6.619,-3.046l-0.001,-1.651" style="fill:none;stroke:#000;stroke-width:2.14px;"/><path d="M100.485,139.243c1.214,3.704 2.357,4.507 7.294,4.379c4.936,-0.128 6.402,-1.333 6.492,-3.117" style="fill:none;stroke:#000;stroke-width:2.14px;"/><path d="M118.086,134.96c0.587,0 1.15,0.234 1.565,0.649c0.415,0.415 0.649,0.978 0.649,1.565c-0,0.02 -0,0.04 -0,0.06c-0,0.587 -0.234,1.15 -0.649,1.566c-0.415,0.415 -0.978,0.648 -1.565,0.648c-2.174,-0 -5.47,-0 -7.644,-0c-0.587,-0 -1.15,-0.233 -1.565,-0.648c-0.415,-0.416 -0.648,-0.979 -0.648,-1.566c-0,-0.02 -0,-0.04 -0,-0.06c-0,-0.587 0.233,-1.15 0.648,-1.565c0.415,-0.415 0.978,-0.649 1.565,-0.649c2.174,0 5.47,0 7.644,0Z"/></g><g id="Glasses"><path d="M118.221,115.441c-1.067,-0.936 -2.755,-1.702 -4.592,-1.716c-1.837,-0.013 -3.536,0.729 -4.617,1.65c0.022,-3.096 2.104,-5.595 4.645,-5.576c2.542,0.018 4.587,2.547 4.564,5.642Z" style="fill:#575759;stroke:#000;stroke-width:2.14px;"/><g id="Left-Lens" serif:id="Left Lens"><ellipse cx="89.357" cy="117.711" rx="21.629" ry="19.733" style="fill:#575759;"/><clipPath id="_clip14"><ellipse cx="89.357" cy="117.711" rx="21.629" ry="19.733"/></clipPath><g clip-path="url(#_clip14)"><path d="M83.129,132.581c4.045,0.216 12.597,0.935 17.031,-3.184c3.657,-3.398 5.829,-9.189 6.637,-14.971c1.911,5.098 1.107,9.971 -3.841,15.182c-5.928,6.243 -17.039,5.112 -19.827,2.973Z" style="fill:#959a9e;"/><path d="M98.376,99.996c-7.3,0.268 -14.593,-2.045 -23.268,5.559c-3.754,3.291 -6.16,12.106 -5.857,17.936c-2.843,-4.643 -1.484,-11.208 2.77,-16.999c8.118,-11.049 23.212,-8.067 26.355,-6.496Z" style="fill:#959a9e;"/></g><ellipse cx="89.357" cy="117.711" rx="21.629" ry="19.733" style="fill:none;stroke:#000;stroke-width:2.14px;"/><ellipse cx="89.37" cy="118.113" rx="16.326" ry="14.518" style="fill:#404042;"/><clipPath id="_clip15"><ellipse cx="89.37" cy="118.113" rx="16.326" ry="14.518"/></clipPath><g clip-path="url(#_clip15)"><path d="M100.154,103.761l-12.365,33.45l-6.315,-2.334l12.365,-33.45l6.315,2.334Z" style="fill:#fff;"/><path d="M107.354,105.232l-12.365,33.451l-3.341,-1.235l12.365,-33.45l3.341,1.234Z" style="fill:#fff;"/></g><ellipse cx="89.37" cy="118.113" rx="16.326" ry="14.518" style="fill:none;stroke:#000;stroke-width:2.14px;"/></g><g id="Right-Lens" serif:id="Right Lens"><ellipse cx="138.091" cy="118.069" rx="21.629" ry="19.733" style="fill:#575759;"/><clipPath id="_clip16"><ellipse cx="138.091" cy="118.069" rx="21.629" ry="19.733"/></clipPath><g clip-path="url(#_clip16)"><path d="M131.863,132.94c4.046,0.216 12.598,0.935 17.031,-3.184c3.657,-3.398 5.829,-9.189 6.637,-14.971c1.911,5.098 1.107,9.971 -3.841,15.182c-5.928,6.243 -17.039,5.112 -19.827,2.973Z" style="fill:#959a9e;"/><path d="M147.11,100.355c-7.3,0.268 -14.592,-2.045 -23.268,5.559c-3.754,3.291 -6.16,12.106 -5.857,17.936c-2.842,-4.643 -1.484,-11.208 2.771,-16.999c8.118,-11.049 23.212,-8.068 26.354,-6.496Z" style="fill:#959a9e;"/></g><ellipse cx="138.091" cy="118.069" rx="21.629" ry="19.733" style="fill:none;stroke:#000;stroke-width:2.14px;"/><ellipse cx="138.14" cy="117.711" rx="16.326" ry="14.518" style="fill:#404042;"/><clipPath id="_clip17"><ellipse cx="138.14" cy="117.711" rx="16.326" ry="14.518"/></clipPath><g clip-path="url(#_clip17)"><path d="M148.924,103.359l-12.365,33.45l-6.315,-2.334l12.365,-33.451l6.315,2.335Z" style="fill:#fff;"/><path d="M156.123,104.83l-12.364,33.45l-3.341,-1.235l12.364,-33.45l3.341,1.235Z" style="fill:#fff;"/></g><ellipse cx="138.14" cy="117.711" rx="16.326" ry="14.518" style="fill:none;stroke:#000;stroke-width:2.14px;"/></g></g></g><path d="M114.039,94.255c28.846,0.07 57.418,12.948 66.111,12.31c8.694,-0.638 16.016,-11.956 9.734,-14.924c-6.281,-2.969 -4.03,3.108 -17.4,-1.163c-13.37,-4.271 -20.217,-41.683 -59.361,-42.269c-38.583,-0.579 -47.625,35.973 -55.776,41.219c-8.152,5.245 -12.708,-0.561 -17.66,2.824c-4.953,3.385 7.452,16.47 11.863,16.346c4.41,-0.124 33.642,-14.414 62.489,-14.343Z" style="fill:#402d20;"/><clipPath id="_clip18"><path d="M114.039,94.255c28.846,0.07 57.418,12.948 66.111,12.31c8.694,-0.638 16.016,-11.956 9.734,-14.924c-6.281,-2.969 -4.03,3.108 -17.4,-1.163c-13.37,-4.271 -20.217,-41.683 -59.361,-42.269c-38.583,-0.579 -47.625,35.973 -55.776,41.219c-8.152,5.245 -12.708,-0.561 -17.66,2.824c-4.953,3.385 7.452,16.47 11.863,16.346c4.41,-0.124 33.642,-14.414 62.489,-14.343Z"/></clipPath><g clip-path="url(#_clip18)"><path d="M36.353,93.603c-6.589,-10.549 1.134,-3.158 7.602,-9.06c6.469,-5.901 15.867,-13.017 21.556,-21.454c5.688,-8.438 16.617,-22.061 30.51,-22.619c13.894,-0.558 14.99,-2.852 19.775,1.39c4.784,4.243 6.294,11.46 4.344,27.074c-1.949,15.615 32.514,20.361 48.977,21.338c16.212,0.962 1.607,-10.614 8.483,-4.809c6.876,5.806 7.372,5.27 7.892,11.417c0.309,3.66 -5.299,5.474 -8.394,5.354c-11.482,-0.444 -37.641,-10.205 -53.041,-12.964c-15.4,-2.76 -36.075,0.72 -45.858,4.819c-9.782,4.099 -19.915,10.644 -26.024,9.179c-6.973,-1.672 -10.438,-1.045 -15.822,-9.665Z" style="fill:#543f32;"/><g><path d="M123.463,62.659l-22.037,10.114c-0,0 -2.275,-1.774 -4.25,0.558c-1.975,2.331 1.424,2.908 1.424,2.908c0,-0 -1.316,2.908 1.91,2.762c3.225,-0.145 2.471,-3.312 2.471,-3.312l21.799,-10.104c0,0 3.805,2.584 5.127,0.002c1.322,-2.581 -1.604,-3.386 -1.604,-3.386c-0,-0 0.556,-2.775 -1.986,-3.048c-2.542,-0.273 -2.854,3.506 -2.854,3.506Z" style="fill:#e0e4ff;"/><path d="M102.176,62.603l21.438,9.841c-0,-0 2.2,-2.46 4.106,-0.16c1.907,2.3 -1.381,3.58 -1.381,3.58c0,-0 1.436,3.077 -1.716,2.965c-3.151,-0.111 -2.56,-3.467 -2.56,-3.467l-21.205,-9.833c0,0 -3.755,2.326 -5.021,-0.23c-1.266,-2.555 1.613,-3.103 1.613,-3.103c-0,0 -0.998,-2.742 1.49,-3.04c2.487,-0.298 3.236,3.447 3.236,3.447Z" style="fill:#e0e4ff;"/><path d="M108.25,73.302l-2.265,-0c-0.57,-0 -1.116,-0.227 -1.519,-0.63c-0.403,-0.403 -0.63,-0.95 -0.63,-1.52l0,-6.579c0,-0.57 0.227,-1.117 0.63,-1.52c0.403,-0.403 0.949,-0.629 1.519,-0.629l12.949,-0c0.57,-0 1.116,0.226 1.519,0.629c0.403,0.403 0.63,0.95 0.63,1.52l-0,6.579c-0,0.57 -0.227,1.117 -0.63,1.52c-0.403,0.403 -0.949,0.63 -1.519,0.63l-2.265,-0l0,1.401c0,0.27 -0.107,0.529 -0.298,0.721c-0.191,0.191 -0.45,0.298 -0.72,0.298l-6.382,-0c-0.271,-0 -0.53,-0.107 -0.721,-0.298c-0.191,-0.192 -0.298,-0.451 -0.298,-0.721l-0,-1.401Zm3.805,0.004c-0,-0.094 -0.077,-0.171 -0.171,-0.171l-0.341,0c-0.094,0 -0.17,0.077 -0.17,0.171l-0,1.586c-0,0.095 0.076,0.171 0.17,0.171l0.341,0c0.094,0 0.171,-0.076 0.171,-0.171l-0,-1.586Zm3.815,-0c0,-0.094 -0.076,-0.171 -0.17,-0.171l-0.341,0c-0.095,0 -0.171,0.077 -0.171,0.171l-0,1.586c-0,0.095 0.076,0.171 0.171,0.171l0.341,0c0.094,0 0.17,-0.076 0.17,-0.171l0,-1.586Zm-5.723,-0c0,-0.094 -0.076,-0.171 -0.171,-0.171l-0.341,0c-0.094,0 -0.17,0.077 -0.17,0.171l-0,1.586c-0,0.095 0.076,0.171 0.17,0.171l0.341,0c0.095,0 0.171,-0.076 0.171,-0.171l0,-1.586Zm3.816,-0c-0,-0.094 -0.077,-0.171 -0.171,-0.171l-0.341,0c-0.094,0 -0.171,0.077 -0.171,0.171l0,1.586c0,0.095 0.077,0.171 0.171,0.171l0.341,0c0.094,0 0.171,-0.076 0.171,-0.171l-0,-1.586Z" style="fill:#e0e4ff;stroke:#543f32;stroke-width:2.02px;"/><path d="M108.25,73.302l-2.265,-0c-0.57,-0 -1.116,-0.227 -1.519,-0.63c-0.403,-0.403 -0.63,-0.95 -0.63,-1.52l0,-6.579c0,-0.57 0.227,-1.117 0.63,-1.52c0.403,-0.403 0.949,-0.629 1.519,-0.629l12.949,-0c0.57,-0 1.116,0.226 1.519,0.629c0.403,0.403 0.63,0.95 0.63,1.52l-0,6.579c-0,0.57 -0.227,1.117 -0.63,1.52c-0.403,0.403 -0.949,0.63 -1.519,0.63l-2.265,-0l0,1.401c0,0.27 -0.107,0.529 -0.298,0.721c-0.191,0.191 -0.45,0.298 -0.72,0.298l-6.382,-0c-0.271,-0 -0.53,-0.107 -0.721,-0.298c-0.191,-0.192 -0.298,-0.451 -0.298,-0.721l-0,-1.401Zm3.805,0.004c-0,-0.094 -0.077,-0.171 -0.171,-0.171l-0.341,0c-0.094,0 -0.17,0.077 -0.17,0.171l-0,1.586c-0,0.095 0.076,0.171 0.17,0.171l0.341,0c0.094,0 0.171,-0.076 0.171,-0.171l-0,-1.586Zm3.815,-0c0,-0.094 -0.076,-0.171 -0.17,-0.171l-0.341,0c-0.095,0 -0.171,0.077 -0.171,0.171l-0,1.586c-0,0.095 0.076,0.171 0.171,0.171l0.341,0c0.094,0 0.17,-0.076 0.17,-0.171l0,-1.586Zm-5.723,-0c0,-0.094 -0.076,-0.171 -0.171,-0.171l-0.341,0c-0.094,0 -0.17,0.077 -0.17,0.171l-0,1.586c-0,0.095 0.076,0.171 0.17,0.171l0.341,0c0.095,0 0.171,-0.076 0.171,-0.171l0,-1.586Zm3.816,-0c-0,-0.094 -0.077,-0.171 -0.171,-0.171l-0.341,0c-0.094,0 -0.171,0.077 -0.171,0.171l0,1.586c0,0.095 0.077,0.171 0.171,0.171l0.341,0c0.094,0 0.171,-0.076 0.171,-0.171l-0,-1.586Z" style="fill:#e0e4ff;"/><ellipse cx="108.971" cy="68.894" rx="1.593" ry="1.517" style="fill:#543f32;"/><ellipse cx="116.566" cy="68.894" rx="1.593" ry="1.517" style="fill:#543f32;"/></g></g><path d="M114.039,94.255c28.846,0.07 57.418,12.948 66.111,12.31c8.694,-0.638 16.016,-11.956 9.734,-14.924c-6.281,-2.969 -4.03,3.108 -17.4,-1.163c-13.37,-4.271 -20.217,-41.683 -59.361,-42.269c-38.583,-0.579 -47.625,35.973 -55.776,41.219c-8.152,5.245 -12.708,-0.561 -17.66,2.824c-4.953,3.385 7.452,16.47 11.863,16.346c4.41,-0.124 33.642,-14.414 62.489,-14.343Z" style="fill:none;stroke:#000;stroke-width:2.02px;"/></g></svg>