<?xml version="1.0" encoding="UTF-8" standalone="no"?><!DOCTYPE svg PUBLIC "-//W3C//DTD SVG 1.1//EN" "http://www.w3.org/Graphics/SVG/1.1/DTD/svg11.dtd"><svg width="100%" height="100%" viewBox="0 0 250 250" version="1.1" xmlns="http://www.w3.org/2000/svg" xmlns:xlink="http://www.w3.org/1999/xlink" xml:space="preserve" xmlns:serif="http://www.serif.com/" style="fill-rule:evenodd;clip-rule:evenodd;stroke-linecap:round;stroke-linejoin:round;stroke-miterlimit:1.5;"><rect id="zeek-indiana-jones" x="0" y="0" width="250" height="250" style="fill:none;"/><path id="Body" d="M134.242,244.407c-17.076,-0.247 -48.037,-0.655 -53.045,-0.727c-6.828,-0.097 1.2,-31.351 -3.482,-43.299c-4.682,-11.949 -14.463,-34.474 -9.142,-50.12c5.321,-15.646 35.982,-2.934 51.384,-6.08c15.402,-3.146 29.599,-8.852 40.632,-7.998c3.135,0.243 4.904,8.438 7.184,12.088c2.633,4.216 10.189,12.644 17.171,19.326c11.638,11.137 22.967,28.511 22.171,44.873c-0.795,16.362 -2.599,32.397 -26.018,32.29c-18.49,-0.084 -36.495,-0.203 -46.855,-0.353Z" style="fill:#fd9203;"/><clipPath id="_clip1"><path d="M134.242,244.407c-17.076,-0.247 -48.037,-0.655 -53.045,-0.727c-6.828,-0.097 1.2,-31.351 -3.482,-43.299c-4.682,-11.949 -14.463,-34.474 -9.142,-50.12c5.321,-15.646 35.982,-2.934 51.384,-6.08c15.402,-3.146 29.599,-8.852 40.632,-7.998c3.135,0.243 4.904,8.438 7.184,12.088c2.633,4.216 10.189,12.644 17.171,19.326c11.638,11.137 22.967,28.511 22.171,44.873c-0.795,16.362 -2.599,32.397 -26.018,32.29c-18.49,-0.084 -36.495,-0.203 -46.855,-0.353Z"/></clipPath><g clip-path="url(#_clip1)"><path d="M64.74,144.573c-2.556,5.555 -6.755,20.87 -3.761,28.544c2.994,7.674 4.199,13.244 10.316,19.242c6.117,5.998 6.683,19.391 6.956,24.222c0.274,4.831 -2.592,13.524 1.242,13.015c3.834,-0.51 8.746,3.319 10.389,-5.719c1.643,-9.038 2.921,-13.031 0.584,-24.534c-2.337,-11.503 -0.748,-14.51 3.689,-19.62c4.436,-5.111 21.252,7.411 26.164,4.831c4.911,-2.58 7.322,2.974 7.322,2.974c-0,0 1.971,21.823 1.15,26.029c-0.822,4.207 -0.511,14.445 3.451,11.06c3.962,-3.386 5.441,-13.081 7.76,-19.506c2.318,-6.425 1.314,-17.616 5.915,-21.132c4.601,-3.517 6.829,-2.843 7.742,-8.447c0.913,-5.603 2.757,10.611 9.71,9.474c9.48,-1.55 15.468,1.668 20.489,6.104c5.022,4.437 12.088,11.372 16.743,14.149c4.656,2.777 8.6,12.62 8.6,12.62c0,0 6.099,-24.583 -2.885,-37.187c-8.983,-12.604 -28.319,-42.429 -36.06,-47.244c-7.742,-4.814 -19.19,0.115 -19.19,0.115c0,0 -83.77,5.456 -86.326,11.01Z" style="fill:#ffaf32;"/><path d="M171.157,131.864c6.802,15.729 -3.62,22.503 -9.517,28.579" style="fill:none;stroke:#e87f00;stroke-width:14.67px;"/><path d="M182.902,152.527c5.296,16.298 -5.716,22.063 -12.157,27.559" style="fill:none;stroke:#e87f00;stroke-width:14.67px;"/><path d="M199.548,163.264c6.035,16.04 -4.703,22.302 -10.886,28.086" style="fill:none;stroke:#e87f00;stroke-width:14.67px;"/><path d="M82.984,137.163c-2.1,8.298 -6.678,18.076 -5.895,23.346c0.782,5.27 3.247,10.141 8.112,12.113c4.864,1.972 10.068,8.252 13.798,11.444c3.73,3.193 3.417,9.038 10.133,8.698c6.717,-0.341 15.064,-3.169 16.472,-12.759c1.409,-9.59 0.378,-18.158 5.008,-21.949c4.63,-3.791 12.52,-9.449 4.708,-11.632c-7.812,-2.183 -50.237,-17.56 -52.336,-9.261Z" style="fill:#fff;"/><path d="M97.951,160.528c0,0 6.428,12.525 10.012,12.515c3.585,-0.009 11.496,-12.57 11.496,-12.57l20.927,-5.289l-14.277,25.197c2.854,17.116 2.667,33.137 0.73,48.528l-26.502,0.344c1.332,-13.056 0.793,-25.386 -1.738,-36.94l-14.022,-26.136l0.765,-7.259l12.609,1.61Z" style="fill:#fefac6;stroke:#1e1c00;stroke-width:0.86px;"/><ellipse cx="113.66" cy="181.852" rx="1.215" ry="1.138" style="fill:#863c00;stroke:#1e1c00;stroke-width:0.6px;"/><ellipse cx="115.514" cy="190.529" rx="1.215" ry="1.138" style="fill:#863c00;stroke:#1e1c00;stroke-width:0.6px;"/><ellipse cx="116.529" cy="200.595" rx="1.215" ry="1.138" style="fill:#863c00;stroke:#1e1c00;stroke-width:0.6px;"/><ellipse cx="116.538" cy="208.855" rx="1.215" ry="1.138" style="fill:#863c00;stroke:#1e1c00;stroke-width:0.6px;"/><ellipse cx="115.847" cy="217.541" rx="1.215" ry="1.138" style="fill:#863c00;stroke:#1e1c00;stroke-width:0.6px;"/><path d="M110.227,230.866c1.484,-5.955 4.52,-23.716 2.747,-34.208c-1.773,-10.492 -4.67,-20.786 -4.624,-23.477" style="fill:none;stroke:#1e1c00;stroke-width:0.6px;"/><path d="M127.609,230.057l-1.607,-54.191c0,0 11.928,-19.454 17.83,-24.752c5.903,-5.298 17.182,-14.824 17.182,-14.824c-0,0 4.249,4.492 7.895,12.905c3.647,8.413 24.768,22.903 31.86,38.032c7.092,15.13 8.699,35.975 5.732,41.036c-2.966,5.062 -76.373,7.259 -76.373,7.259l-2.519,-5.465Z" style="fill:#7e551f;"/><clipPath id="_clip2"><path d="M127.609,230.057l-1.607,-54.191c0,0 11.928,-19.454 17.83,-24.752c5.903,-5.298 17.182,-14.824 17.182,-14.824c-0,0 4.249,4.492 7.895,12.905c3.647,8.413 24.768,22.903 31.86,38.032c7.092,15.13 8.699,35.975 5.732,41.036c-2.966,5.062 -76.373,7.259 -76.373,7.259l-2.519,-5.465Z"/></clipPath><g clip-path="url(#_clip2)"><path d="M127.183,237.569c-0.719,-1.62 -6.698,-49.824 -4.218,-60.796c2.48,-10.972 9.278,-22.2 17.923,-27.777c8.644,-5.576 14.686,-13.419 18.525,-17.152c3.84,-3.734 -2.379,5.451 -5.601,12.508c-3.221,7.057 -1.243,10.679 -7.725,17.326c-6.482,6.647 -8.367,11.688 -12.214,11.869c-3.847,0.181 -7.262,2.142 -6.922,3.629c0.34,1.488 7.455,-1.182 10.089,0.508c2.635,1.69 5.408,5.986 4.628,11.521c-0.78,5.534 -1.985,10.353 -4.504,16.763c-2.518,6.411 -3.832,14.588 -2.271,19.816c1.56,5.229 2.827,12.439 1.321,12.703c-1.507,0.264 -8.313,0.702 -9.031,-0.918Z" style="fill:#98713e;"/><path d="M155.427,138.275c1.267,5.618 3.059,20.747 9.402,22.826c6.342,2.079 15.605,10.576 20.38,13.19c4.774,2.614 5.786,13.461 10.537,12.703c4.751,-0.758 12.593,-2.51 6.598,-12.119c-5.995,-9.609 -33.042,-31.67 -34.989,-36.496c-1.947,-4.825 -13.195,-5.722 -11.928,-0.104Z" style="fill:#98713e;"/></g><path d="M66.532,149.348c-1.19,5.715 -3.724,34.459 0.896,44.248c4.62,9.79 8.838,38.631 8.838,38.631l23.964,0.486c0,0 4.095,-27.756 -0.912,-39.603c-5.006,-11.848 -10.073,-18.801 -11.31,-26.129c-1.236,-7.329 -1.452,-12.418 -1.452,-12.418c0,-0 -18.835,-10.93 -20.024,-5.215Z" style="fill:#7e551f;"/><clipPath id="_clip3"><path d="M66.532,149.348c-1.19,5.715 -3.724,34.459 0.896,44.248c4.62,9.79 8.838,38.631 8.838,38.631l23.964,0.486c0,0 4.095,-27.756 -0.912,-39.603c-5.006,-11.848 -10.073,-18.801 -11.31,-26.129c-1.236,-7.329 -1.452,-12.418 -1.452,-12.418c0,-0 -18.835,-10.93 -20.024,-5.215Z"/></clipPath><g clip-path="url(#_clip3)"><path d="M69.93,144.776c-1.584,4.825 -7.996,16.402 -6.922,20.963c1.073,4.561 10.908,33.27 12.414,37.128c1.507,3.859 -0.996,28.146 1.638,28.438c2.635,0.292 8.205,2.1 8.954,-1.843c0.749,-3.942 5.199,-21.742 2.279,-32.546c-2.92,-10.805 -16.301,-24.335 -15.32,-30.537c0.982,-6.202 5.509,-14.72 7.015,-17.633c1.507,-2.913 -8.475,-8.795 -10.058,-3.97Z" style="fill:#98713e;"/></g><path d="M126.139,180.968c2.282,13.815 2.673,31.151 1.5,41.985c-1.174,10.834 -0.639,9.214 -1.044,11.597c-0.404,2.382 13.942,5.681 13.942,5.681l6.717,-1.151c-0,0 -2.596,-7.606 -2.831,-18.545c-0.234,-10.939 5.921,-21.292 7.108,-25.682c1.187,-4.39 4.813,-16.832 2.035,-20.224" style="fill:#7e551f;"/><clipPath id="_clip4"><path d="M126.139,180.968c2.282,13.815 2.673,31.151 1.5,41.985c-1.174,10.834 -0.639,9.214 -1.044,11.597c-0.404,2.382 13.942,5.681 13.942,5.681l6.717,-1.151c-0,0 -2.596,-7.606 -2.831,-18.545c-0.234,-10.939 5.921,-21.292 7.108,-25.682c1.187,-4.39 4.813,-16.832 2.035,-20.224"/></clipPath><g clip-path="url(#_clip4)"><path d="M127.183,237.569c-0.719,-1.62 -6.698,-49.824 -4.218,-60.796c2.48,-10.972 9.278,-22.2 17.923,-27.777c8.644,-5.576 14.686,-13.419 18.525,-17.152c3.84,-3.734 -2.379,5.451 -5.601,12.508c-3.221,7.057 -1.243,10.679 -7.725,17.326c-6.482,6.647 -8.367,11.688 -12.214,11.869c-3.847,0.181 -7.262,2.142 -6.922,3.629c0.34,1.488 7.455,-1.182 10.089,0.508c2.635,1.69 5.408,5.986 4.628,11.521c-0.78,5.534 -1.985,10.353 -4.504,16.763c-2.518,6.411 -3.832,14.588 -2.271,19.816c1.56,5.229 2.827,12.439 1.321,12.703c-1.507,0.264 -8.313,0.702 -9.031,-0.918Z" style="fill:#98713e;"/></g><path d="M126.139,180.968c2.282,13.815 2.673,31.151 1.5,41.985c-1.174,10.834 -0.639,9.214 -1.044,11.597c-0.404,2.382 13.942,5.681 13.942,5.681l6.717,-1.151c-0,0 -2.596,-7.606 -2.831,-18.545c-0.234,-10.939 5.921,-21.292 7.108,-25.682c1.187,-4.39 4.813,-16.832 2.035,-20.224" style="fill:none;stroke:#000;stroke-width:2.2px;"/><path d="M98.569,192.635c2.282,9.824 2.712,25.036 2.308,31.269c-0.404,6.232 -2.843,9.883 -2.843,9.883" style="fill:#7e551f;stroke:#000;stroke-width:2.2px;"/><path d="M126.218,176.603c4.605,-2.795 4.589,-5.006 10.476,-1.682c5.887,3.323 23.207,-23.501 21.384,-33.096c-1.823,-9.595 -5.933,-5.062 -5.933,-5.062c0,0 -7.246,13.67 -11.495,17.146c-4.249,3.477 -19.036,25.489 -14.432,22.694Z" style="fill:#7e551f;"/><clipPath id="_clip5"><path d="M126.218,176.603c4.605,-2.795 4.589,-5.006 10.476,-1.682c5.887,3.323 23.207,-23.501 21.384,-33.096c-1.823,-9.595 -5.933,-5.062 -5.933,-5.062c0,0 -7.246,13.67 -11.495,17.146c-4.249,3.477 -19.036,25.489 -14.432,22.694Z"/></clipPath><g clip-path="url(#_clip5)"><path d="M127.183,237.569c-0.719,-1.62 -6.698,-49.824 -4.218,-60.796c2.48,-10.972 9.278,-22.2 17.923,-27.777c8.644,-5.576 14.686,-13.419 18.525,-17.152c3.84,-3.734 -2.379,5.451 -5.601,12.508c-3.221,7.057 -1.243,10.679 -7.725,17.326c-6.482,6.647 -8.367,11.688 -12.214,11.869c-3.847,0.181 -7.262,2.142 -6.922,3.629c0.34,1.488 7.455,-1.182 10.089,0.508c2.635,1.69 5.408,5.986 4.628,11.521c-0.78,5.534 -1.985,10.353 -4.504,16.763c-2.518,6.411 -3.832,14.588 -2.271,19.816c1.56,5.229 2.827,12.439 1.321,12.703c-1.507,0.264 -8.313,0.702 -9.031,-0.918Z" style="fill:#98713e;"/></g><path d="M126.218,176.603c4.605,-2.795 4.589,-5.006 10.476,-1.682c5.887,3.323 23.207,-23.501 21.384,-33.096c-1.823,-9.595 -5.933,-5.062 -5.933,-5.062c0,0 -7.246,13.67 -11.495,17.146c-4.249,3.477 -19.036,25.489 -14.432,22.694Z" style="fill:none;stroke:#000;stroke-width:1.64px;"/><path d="M91.794,177.021c-6.088,-2.865 -9.796,-6.522 -12.84,-3.435c-3.044,3.087 -6.783,-18.411 -9.301,-22.736c-2.519,-4.325 16.718,8.594 16.718,8.594c-0,-0 11.511,20.441 5.423,17.577Z" style="fill:#7e551f;"/><clipPath id="_clip6"><path d="M91.794,177.021c-6.088,-2.865 -9.796,-6.522 -12.84,-3.435c-3.044,3.087 -6.783,-18.411 -9.301,-22.736c-2.519,-4.325 16.718,8.594 16.718,8.594c-0,-0 11.511,20.441 5.423,17.577Z"/></clipPath><g clip-path="url(#_clip6)"><path d="M67.952,147.522c0.178,2.135 7.393,33.576 11.457,31.928c4.063,-1.648 -2.48,-10.513 3.522,-9.658c6.003,0.856 5.571,3.539 5.571,3.539l-4.79,-18.147c-0,0 -15.938,-9.796 -15.76,-7.662Z" style="fill:#98713e;"/></g><path d="M91.794,177.021c-6.088,-2.865 -9.796,-6.522 -12.84,-3.435c-3.044,3.087 -6.783,-18.411 -9.301,-22.736c-2.519,-4.325 16.718,8.594 16.718,8.594c-0,-0 11.511,20.441 5.423,17.577Z" style="fill:none;stroke:#000;stroke-width:1.64px;"/></g><path d="M134.242,244.407c-17.076,-0.247 -48.037,-0.655 -53.045,-0.727c-6.828,-0.097 1.2,-31.351 -3.482,-43.299c-4.682,-11.949 -14.463,-34.474 -9.142,-50.12c5.321,-15.646 35.982,-2.934 51.384,-6.08c15.402,-3.146 29.599,-8.852 40.632,-7.998c3.135,0.243 4.904,8.438 7.184,12.088c2.633,4.216 10.189,12.644 17.171,19.326c11.638,11.137 22.967,28.511 22.171,44.873c-0.795,16.362 -2.599,32.397 -26.018,32.29c-18.49,-0.084 -36.495,-0.203 -46.855,-0.353Z" style="fill:none;stroke:#000;stroke-width:2.2px;"/><path id="Face-Colors" serif:id="Face Colors" d="M106.55,160.334c32.566,0.453 57.347,-16.729 58.953,-42.064c1.074,-16.937 -3.463,-24.146 -3.226,-24.668c2.777,-6.126 6.335,-10.243 5.77,-21.437c-0.48,-9.505 -1.157,-24.858 -6.327,-26.464c-5.683,-1.766 -28.273,18.355 -28.273,18.355c0,-0 -10.626,-3.722 -26.137,-4.174c-10.42,-0.304 -27.461,3.796 -27.461,3.796c0,-0 -20.365,-21.107 -28.465,-18.142c-5.228,1.914 -4.108,18.684 -3.87,27.919c0.188,7.342 2.775,16.638 2.784,19.539c0.009,2.9 -3.231,7.898 -2.958,23.852c0.493,28.822 26.643,43.035 59.21,43.488Z" style="fill:#ffaf32;"/><clipPath id="_clip7"><path d="M106.55,160.334c32.566,0.453 57.347,-16.729 58.953,-42.064c1.074,-16.937 -3.463,-24.146 -3.226,-24.668c2.777,-6.126 6.335,-10.243 5.77,-21.437c-0.48,-9.505 -1.157,-24.858 -6.327,-26.464c-5.683,-1.766 -28.273,18.355 -28.273,18.355c0,-0 -10.626,-3.722 -26.137,-4.174c-10.42,-0.304 -27.461,3.796 -27.461,3.796c0,-0 -20.365,-21.107 -28.465,-18.142c-5.228,1.914 -4.108,18.684 -3.87,27.919c0.188,7.342 2.775,16.638 2.784,19.539c0.009,2.9 -3.231,7.898 -2.958,23.852c0.493,28.822 26.643,43.035 59.21,43.488Z"/></clipPath><g clip-path="url(#_clip7)"><path d="M120.712,47.549l-0.402,27.55" style="fill:none;stroke:#e87f00;stroke-width:11.01px;"/><path d="M93.132,47.442l-0.401,27.55" style="fill:none;stroke:#e87f00;stroke-width:11.01px;"/><path d="M106.735,53.621l-0.402,27.549" style="fill:none;stroke:#e87f00;stroke-width:11.01px;"/><path d="M44.811,126.032c0,-0 12.224,8.799 22.613,7.813c10.39,-0.986 25.38,-8.602 39.64,-8.06c14.259,0.542 23.042,8.857 35.512,8.479c12.471,-0.378 28.721,-6.589 28.721,-6.589c-0,-0 -14.333,21.683 -20.057,25.922c-5.724,4.24 -47.153,12.128 -54.757,10.23c-7.605,-1.898 -38.069,-12.769 -44.213,-20.878c-6.144,-8.11 -7.459,-16.917 -7.459,-16.917Z" style="fill:#fff;"/><path d="M106.096,65.551c27.598,-0.099 42.631,9.392 41.921,8.488c-3.188,-4.065 -8.855,-4.256 -9.266,-7.74c-0.375,-3.186 6.582,-9.211 10.17,-11.174c3.588,-1.964 9.759,-6.056 12.142,-4.881c2.383,1.175 3.396,10.008 5.012,12.062c1.616,2.054 4.875,-9.145 4.875,-9.145c-0,0 -0.84,-18.133 -11.284,-13.524c-10.444,4.609 -23.8,22.751 -26.94,21.642c-3.141,-1.109 -18.806,-4.651 -24.603,-4.265c-5.797,0.387 -26.019,3.558 -26.019,3.558c0,0 -23.845,-17.994 -28.592,-17.591c-4.748,0.403 -6.857,0.435 -6.857,4.264c0,3.829 1.662,16.564 1.662,16.564c-0,0 2.109,-14.6 4.172,-15.109c2.063,-0.51 11.32,3.878 13.283,5.784c1.963,1.906 10.426,8.553 9.787,10.985c-0.639,2.432 -8.682,5.916 -11.047,7.88c-2.364,1.963 -10.553,11.313 -12.16,15.676c-1.607,4.363 -5.359,14.231 -5.286,19.292c0.073,5.061 1.132,9.013 1.132,9.013c0,0 1.224,-24.911 14.461,-36.053c13.237,-11.141 24.019,-15.656 43.437,-15.726Z" style="fill:#ffc783;"/><clipPath id="_clip8"><path d="M106.096,65.551c27.598,-0.099 42.631,9.392 41.921,8.488c-3.188,-4.065 -8.855,-4.256 -9.266,-7.74c-0.375,-3.186 6.582,-9.211 10.17,-11.174c3.588,-1.964 9.759,-6.056 12.142,-4.881c2.383,1.175 3.396,10.008 5.012,12.062c1.616,2.054 4.875,-9.145 4.875,-9.145c-0,0 -0.84,-18.133 -11.284,-13.524c-10.444,4.609 -23.8,22.751 -26.94,21.642c-3.141,-1.109 -18.806,-4.651 -24.603,-4.265c-5.797,0.387 -26.019,3.558 -26.019,3.558c0,0 -23.845,-17.994 -28.592,-17.591c-4.748,0.403 -6.857,0.435 -6.857,4.264c0,3.829 1.662,16.564 1.662,16.564c-0,0 2.109,-14.6 4.172,-15.109c2.063,-0.51 11.32,3.878 13.283,5.784c1.963,1.906 10.426,8.553 9.787,10.985c-0.639,2.432 -8.682,5.916 -11.047,7.88c-2.364,1.963 -10.553,11.313 -12.16,15.676c-1.607,4.363 -5.359,14.231 -5.286,19.292c0.073,5.061 1.132,9.013 1.132,9.013c0,0 1.224,-24.911 14.461,-36.053c13.237,-11.141 24.019,-15.656 43.437,-15.726Z"/></clipPath><g clip-path="url(#_clip8)"><path d="M106.735,53.621l-0.402,27.549" style="fill:none;stroke:#ffaf32;stroke-width:11.01px;"/><path d="M93.132,47.442l-0.401,27.55" style="fill:none;stroke:#ffaf32;stroke-width:11.01px;"/><path d="M120.712,47.549l-0.402,27.55" style="fill:none;stroke:#ffaf32;stroke-width:11.01px;"/></g></g><path id="Face" d="M142.31,68.762c15.325,9.43 21.688,25.403 23.332,41.505c2.912,28.529 -21.314,50.588 -59.092,50.067c-42.152,-0.582 -60.744,-21.403 -59.093,-50.067c1.205,-20.917 9.377,-34.969 24.016,-42.734" style="fill:none;stroke:#000;stroke-width:2.32px;"/><path d="M134.161,64.73c-0,-0 20.103,-21.37 28.547,-18.453c2.264,0.782 3.722,8.868 4.375,15.144c0.54,5.194 0.379,18.017 -0.388,22c-0.766,3.983 -4.17,10.55 -4.17,10.55" style="fill:none;stroke:#000;stroke-width:2.32px;"/><path d="M80.381,63.826c0,-0 -19.106,-20.734 -29.196,-18.338c-3.681,0.874 -3.206,12.582 -3.9,20.041c-0.896,9.632 3.468,25.436 3.468,25.436" style="fill:none;stroke:#000;stroke-width:2.32px;"/><path d="M120.823,133.773c-1.251,3.816 -2.429,4.643 -7.515,4.511c-5.086,-0.132 -6.727,-1.299 -6.819,-3.137l-0.001,-1.702" style="fill:none;stroke:#000;stroke-width:2.2px;"/><path d="M92.191,133.842c1.251,3.816 2.428,4.643 7.514,4.511c5.087,-0.132 6.597,-1.373 6.689,-3.211" style="fill:none;stroke:#000;stroke-width:2.2px;"/><path d="M110.392,129.43c1.223,-0 2.214,0.991 2.214,2.213c-0,0.066 -0,0.131 -0,0.196c-0,1.223 -0.991,2.214 -2.214,2.214c-2.26,0 -5.749,0 -8.009,0c-1.223,0 -2.214,-0.991 -2.214,-2.214c-0,-0.065 -0,-0.13 -0,-0.196c-0,-1.222 0.991,-2.213 2.214,-2.213c2.26,-0 5.749,-0 8.009,-0Z"/><path d="M110.465,109.319c-1.1,-0.965 -2.84,-1.754 -4.732,-1.768c-1.893,-0.014 -3.643,0.751 -4.757,1.7c0.023,-3.19 2.168,-5.764 4.786,-5.745c2.619,0.018 4.726,2.624 4.703,5.813Z" style="fill:#575759;stroke:#000;stroke-width:2.2px;"/><ellipse cx="80.726" cy="111.657" rx="22.284" ry="20.331" style="fill:#575759;"/><clipPath id="_clip9"><ellipse cx="80.726" cy="111.657" rx="22.284" ry="20.331"/></clipPath><g clip-path="url(#_clip9)"><path d="M74.309,126.978c4.168,0.223 12.979,0.963 17.547,-3.281c3.768,-3.5 6.005,-9.467 6.838,-15.424c1.969,5.252 1.14,10.273 -3.958,15.642c-6.107,6.432 -17.555,5.267 -20.427,3.063Z" style="fill:#959a9e;"/><path d="M90.018,93.406c-7.521,0.276 -15.035,-2.107 -23.973,5.728c-3.868,3.39 -6.347,12.472 -6.034,18.479c-2.929,-4.784 -1.53,-11.547 2.854,-17.514c8.364,-11.384 23.915,-8.312 27.153,-6.693Z" style="fill:#959a9e;"/></g><ellipse cx="80.726" cy="111.657" rx="22.284" ry="20.331" style="fill:none;stroke:#000;stroke-width:2.2px;"/><ellipse cx="80.739" cy="112.072" rx="16.821" ry="14.958" style="fill:#404042;"/><clipPath id="_clip10"><ellipse cx="80.739" cy="112.072" rx="16.821" ry="14.958"/></clipPath><g clip-path="url(#_clip10)"><path d="M91.85,97.285l-12.739,34.464l-6.507,-2.405l12.739,-34.464l6.507,2.405Z" style="fill:#fff;"/><path d="M99.267,98.801l-12.739,34.464l-3.442,-1.273l12.739,-34.463l3.442,1.272Z" style="fill:#fff;"/></g><ellipse cx="80.739" cy="112.072" rx="16.821" ry="14.958" style="fill:none;stroke:#000;stroke-width:2.2px;"/><ellipse cx="130.937" cy="112.027" rx="22.284" ry="20.331" style="fill:#575759;"/><clipPath id="_clip11"><ellipse cx="130.937" cy="112.027" rx="22.284" ry="20.331"/></clipPath><g clip-path="url(#_clip11)"><path d="M124.52,127.348c4.168,0.222 12.979,0.963 17.547,-3.281c3.768,-3.5 6.005,-9.467 6.838,-15.424c1.968,5.252 1.14,10.273 -3.958,15.642c-6.107,6.432 -17.555,5.266 -20.427,3.063Z" style="fill:#959a9e;"/><path d="M140.229,93.775c-7.522,0.277 -15.035,-2.106 -23.974,5.728c-3.867,3.391 -6.346,12.473 -6.034,18.479c-2.928,-4.783 -1.529,-11.547 2.854,-17.513c8.364,-11.385 23.916,-8.312 27.154,-6.694Z" style="fill:#959a9e;"/></g><ellipse cx="130.937" cy="112.027" rx="22.284" ry="20.331" style="fill:none;stroke:#000;stroke-width:2.2px;"/><ellipse cx="130.987" cy="111.657" rx="16.821" ry="14.958" style="fill:#404042;"/><clipPath id="_clip12"><ellipse cx="130.987" cy="111.657" rx="16.821" ry="14.958"/></clipPath><g clip-path="url(#_clip12)"><path d="M142.097,96.87l-12.739,34.464l-6.506,-2.405l12.739,-34.464l6.506,2.405Z" style="fill:#fff;"/><path d="M149.515,98.386l-12.739,34.464l-3.442,-1.272l12.739,-34.464l3.442,1.272Z" style="fill:#fff;"/></g><ellipse cx="130.987" cy="111.657" rx="16.821" ry="14.958" style="fill:none;stroke:#000;stroke-width:2.2px;"/><path d="M143.005,69.388c1.504,-3.571 9.965,-12.665 15.803,-14.641c0,-0 4.455,9.629 3.907,14.107c-0.547,4.478 -3.377,17.583 -3.377,17.583c-0,0 -6.893,-9.183 -9.084,-11.388c-3.323,-3.344 -7.249,-5.661 -7.249,-5.661Z" style="fill:#f66978;"/><clipPath id="_clip13"><path d="M143.005,69.388c1.504,-3.571 9.965,-12.665 15.803,-14.641c0,-0 4.455,9.629 3.907,14.107c-0.547,4.478 -3.377,17.583 -3.377,17.583c-0,0 -6.893,-9.183 -9.084,-11.388c-3.323,-3.344 -7.249,-5.661 -7.249,-5.661Z"/></clipPath><g clip-path="url(#_clip13)"><path d="M158.918,54.944l-7.112,5.505c-0,-0 -1.881,6.565 0.429,8.2c2.31,1.635 4.802,3.319 4.802,3.319c0,0 -0.885,2.161 1.169,3.484c2.054,1.323 4.062,0.37 4.062,0.37c0,-0 0.84,-8.044 0.064,-11.824c-0.776,-3.779 -3.414,-9.054 -3.414,-9.054Z" style="fill:#ff969f;"/></g><path d="M70.575,68.295c-1.503,-3.571 -9.691,-11.885 -15.529,-13.86c0,-0 -3.825,10.615 -3.889,14.37c-0.077,4.51 2.292,15.2 2.292,15.2c-0,0 7.686,-7.844 9.878,-10.048c3.323,-3.345 7.248,-5.662 7.248,-5.662Z" style="fill:#f66978;"/><clipPath id="_clip14"><path d="M70.575,68.295c-1.503,-3.571 -9.691,-11.885 -15.529,-13.86c0,-0 -3.825,10.615 -3.889,14.37c-0.077,4.51 2.292,15.2 2.292,15.2c-0,0 7.686,-7.844 9.878,-10.048c3.323,-3.345 7.248,-5.662 7.248,-5.662Z"/></clipPath><g clip-path="url(#_clip14)"><path d="M62.814,57.606c0,0 1.032,6.318 -0.63,8.726c-1.661,2.407 -4.72,4.387 -4.72,4.387c0,0 1.169,2.761 -1.506,4.092c-2.675,1.331 -4.811,3.385 -5.678,1.101c-0.868,-2.284 1.698,-19.119 4.163,-21.675c2.465,-2.555 8.371,3.369 8.371,3.369Z" style="fill:#ff969f;"/></g><path d="M71.473,67.533c-0,-0 -12.97,-12.987 -15.621,-13.06c-2.651,-0.072 -4.367,11.221 -4.229,16.295c0.139,5.074 2.112,13.356 2.112,13.356" style="fill:none;stroke:#000;stroke-width:2.32px;"/><path d="M142.31,68.762c-0,0 14.438,-14.933 16.133,-13.927c1.694,1.006 4.988,11.476 4.345,17.543c-0.643,6.067 -3.224,14.61 -3.224,14.61" style="fill:none;stroke:#000;stroke-width:2.32px;"/><path d="M47.291,102.56c-0,0 -18.097,-7.442 -12.75,-13.932c4.118,-5.314 14.918,-3.215 17.367,-2.408c1.587,-9.93 17.596,-35.486 21.801,-37.573c3.471,-0.357 17.622,-2.782 26.862,-5.827c8.118,-1.56 31.79,5.674 38.38,5.423c5.273,5.758 19.281,26.982 18.525,36.503c-1.227,1.039 18.225,3.24 17.893,8.031c-0.333,4.79 -5.138,6.042 -10.376,7.231c-0.734,-1.433 -2.657,-8.817 -4.048,-9.908c-10.12,-1.404 -41.449,10.917 -58.968,10.77c-27.345,-1.249 -45.124,-8.212 -50.416,-10.068c-2.287,1.307 -4.27,11.758 -4.27,11.758Z" style="fill:#73401e;"/><clipPath id="_clip15"><path d="M47.291,102.56c-0,0 -18.097,-7.442 -12.75,-13.932c4.118,-5.314 14.918,-3.215 17.367,-2.408c1.587,-9.93 17.596,-35.486 21.801,-37.573c3.471,-0.357 17.622,-2.782 26.862,-5.827c8.118,-1.56 31.79,5.674 38.38,5.423c5.273,5.758 19.281,26.982 18.525,36.503c-1.227,1.039 18.225,3.24 17.893,8.031c-0.333,4.79 -5.138,6.042 -10.376,7.231c-0.734,-1.433 -2.657,-8.817 -4.048,-9.908c-10.12,-1.404 -41.449,10.917 -58.968,10.77c-27.345,-1.249 -45.124,-8.212 -50.416,-10.068c-2.287,1.307 -4.27,11.758 -4.27,11.758Z"/></clipPath><g clip-path="url(#_clip15)"><path d="M32.647,85.906c3.893,-1.064 8.196,1.21 12.175,2.579c3.978,1.37 24.999,9.943 32.138,9.602c7.138,-0.34 -7.239,-6.98 -2.179,-9.136c5.06,-2.155 0.634,-12.731 5.647,-19.642c5.37,-3.247 18.796,4.151 19.623,-3.643c0.827,-7.794 4.558,-17.146 -0.039,-23.056c-4.596,-5.91 -18.517,-0.57 -25.617,2.691c-7.1,3.261 -7.849,-1.001 -15.15,16.075c-7.3,17.076 -20.14,17.222 -24.513,19.83c-4.372,2.607 -5.979,5.764 -2.085,4.7Z" style="fill:#815d45;"/><path d="M52.642,84.871c0.912,-2.614 2.751,-7.293 2.751,-7.293c-0,-0 44.035,1.613 49.581,0.744c5.547,-0.87 48.833,-2.142 49.891,-0.946c1.059,1.196 3.214,7.815 3.214,7.815c0,-0 -48.408,5.34 -53.174,5.27c-4.767,-0.069 -53.174,-2.976 -52.263,-5.59Z" style="fill:#422211;"/><clipPath id="_clip16"><path d="M52.642,84.871c0.912,-2.614 2.751,-7.293 2.751,-7.293c-0,-0 44.035,1.613 49.581,0.744c5.547,-0.87 48.833,-2.142 49.891,-0.946c1.059,1.196 3.214,7.815 3.214,7.815c0,-0 -48.408,5.34 -53.174,5.27c-4.767,-0.069 -53.174,-2.976 -52.263,-5.59Z"/></clipPath><g clip-path="url(#_clip16)"><path d="M50.84,86.636c0.27,-3.08 1.004,-8.733 2.472,-9.644c1.468,-0.911 32.347,0.313 36.65,0.577c4.303,0.264 5.261,12.147 9.216,13.732c3.956,1.585 -5.701,0.675 -15.791,0.431c-10.089,-0.243 -32.817,-2.016 -32.547,-5.096Z" style="fill:#573e31;"/></g></g><path d="M48.118,103.318c-9.947,-5.637 -17.734,-9.238 -13.577,-14.69c4.156,-5.451 25.416,6.814 38.132,8.775c12.716,1.961 28.229,4.617 35.955,3.115c7.725,-1.502 55.175,-14.365 63.843,-9.79c8.668,4.575 -6.814,9.512 -6.814,9.512" style="fill:none;stroke:#000;stroke-width:1.64px;"/><path d="M34.541,88.628c8.621,-6.772 18.633,-1.042 25.045,-1.321c6.413,-0.278 39.616,4.701 47.095,3.324c7.478,-1.377 48.098,-5.451 55.159,-4.978c7.061,0.472 12.871,5.214 13.165,6.813" style="fill:none;stroke:#000;stroke-width:1.64px;"/><path d="M108.698,173.15c5.058,-0.866 8.025,-1.82 10.261,0.709c2.237,2.529 2.868,4.563 2.868,4.563c0,0 10.754,-18.695 12.272,-21.286c1.518,-2.592 -14.056,2.346 -14.056,2.346c-0,0 -6.924,11.149 -11.345,13.668Z" style="fill:none;stroke:#1e1c00;stroke-width:0.6px;"/><path d="M107.151,172.848c-3.106,-0.313 -5.081,-2.076 -7.086,0.172c-2.005,2.247 -3.002,4.615 -3.002,4.615c0,-0 -9.316,-17.715 -7.428,-19.222c1.889,-1.507 8.471,1.679 8.471,1.679c0,0 4.033,8.985 9.045,12.756Z" style="fill:none;stroke:#1e1c00;stroke-width:0.6px;"/><path id="Tail" d="M205.418,230.056c-0,0 11.274,-9.159 10.171,-23.361c-1.103,-14.202 -7.373,-21.6 -9.691,-27.406c-2.319,-5.805 -5.973,-15.158 -5.292,-24.242c0.913,-12.165 6.538,-22.64 11.025,-29.049c2.53,-3.612 5.988,-10.737 0.785,-15.417c-3.451,-3.105 -8.998,-2.839 -12.133,0.257c-3.135,3.096 -12.892,15.765 -13.799,31.163c-1.183,20.105 1.753,33.319 5.106,37.716c3.353,4.398 12.756,21.453 12.326,26.843c-0.43,5.391 1.502,23.496 1.502,23.496Z" style="fill:#fd9203;"/><clipPath id="_clip17"><path d="M205.418,230.056c-0,0 11.274,-9.159 10.171,-23.361c-1.103,-14.202 -7.373,-21.6 -9.691,-27.406c-2.319,-5.805 -5.973,-15.158 -5.292,-24.242c0.913,-12.165 6.538,-22.64 11.025,-29.049c2.53,-3.612 5.988,-10.737 0.785,-15.417c-3.451,-3.105 -8.998,-2.839 -12.133,0.257c-3.135,3.096 -12.892,15.765 -13.799,31.163c-1.183,20.105 1.753,33.319 5.106,37.716c3.353,4.398 12.756,21.453 12.326,26.843c-0.43,5.391 1.502,23.496 1.502,23.496Z"/></clipPath><g clip-path="url(#_clip17)"><path d="M186.843,169.339c3.716,3.451 6.893,5.398 10.709,2.087c3.816,-3.312 5.742,-12.07 6.628,-15.143c0.885,-3.073 6.536,-20.187 10.507,-24.542c3.972,-4.355 9.111,-29.48 0.767,-30.828c-8.344,-1.347 -20.285,1.249 -26.821,10.608c-6.537,9.358 -5.505,54.367 -1.79,57.818Z" style="fill:#ffaf32;"/><path d="M190.951,121.536l19.391,11.429c-0,0 17.473,-23.178 6.363,-27.401c-11.11,-4.223 -18.532,1.996 -21.591,5.735c-3.058,3.738 -4.163,10.237 -4.163,10.237Z" style="fill:#e77f00;"/><path d="M206.817,137.917l-1.747,3.937l-21.741,-9.651l1.748,-3.937l21.74,9.651Z" style="fill:#e77f00;"/><g><path d="M210.437,123.046l-0.408,-5.389l-1.823,2.113l-4.705,-0.366l2.877,2.483l-1.331,1.544l5.39,-0.385Z" style="fill:#ffaf32;"/><path d="M200.221,114.23l0.409,5.389l1.812,-2.1l4.72,0.349l-2.878,-2.483l1.332,-1.544l-5.395,0.389Z" style="fill:#ffaf32;"/></g></g><path d="M205.418,230.056c-0,0 11.274,-9.159 10.171,-23.361c-1.103,-14.202 -7.373,-21.6 -9.691,-27.406c-2.319,-5.805 -5.973,-15.158 -5.292,-24.242c0.913,-12.165 6.538,-22.64 11.025,-29.049c2.53,-3.612 5.988,-10.737 0.785,-15.417c-3.451,-3.105 -8.998,-2.839 -12.133,0.257c-3.135,3.096 -12.892,15.765 -13.799,31.163c-1.183,20.105 1.753,33.319 5.106,37.716c3.353,4.398 12.756,21.453 12.326,26.843c-0.43,5.391 1.502,23.496 1.502,23.496Z" style="fill:none;stroke:#040200;stroke-width:2.2px;"/><path id="Left-Leg" serif:id="Left Leg" d="M128.836,229.955l-73.403,-1.262c0,0 -6.176,1.577 -6.039,7.836c0.137,6.26 6.687,8.33 6.687,8.33l71.602,0.594l5.503,-13.4l-4.35,-2.098Z" style="fill:#fd9203;"/><clipPath id="_clip18"><path d="M128.836,229.955l-73.403,-1.262c0,0 -6.176,1.577 -6.039,7.836c0.137,6.26 6.687,8.33 6.687,8.33l71.602,0.594l5.503,-13.4l-4.35,-2.098Z"/></clipPath><g clip-path="url(#_clip18)"><path d="M47.512,241.796c-0,0 49.883,1.425 54.918,0.157c5.036,-1.268 8.7,-2.821 9.523,-5.8c0.823,-2.978 0.218,-8.032 0.218,-8.032l-62.671,-3.5l-4.469,12.379l2.481,4.796Z" style="fill:#ffaf32;"/><path d="M59.085,238.302l-12.701,0.039" style="fill:none;stroke:#000;stroke-width:2.2px;"/><path d="M59.764,233.949l-12.701,0.039" style="fill:none;stroke:#000;stroke-width:2.2px;"/></g><path d="M128.836,229.955l-73.403,-1.262c0,0 -6.176,1.577 -6.039,7.836c0.137,6.26 6.687,8.33 6.687,8.33l71.602,0.594l5.503,-13.4l-4.35,-2.098Z" style="fill:none;stroke:#000;stroke-width:2.2px;"/><path id="Right-Lef" serif:id="Right Lef" d="M188.794,195.631c-5.563,-0.341 -17.664,2.776 -20.614,12.734c-2.949,9.957 -1.547,20.263 -5.108,22.064c-3.562,1.8 -29.265,0.501 -31.761,1.182c-2.496,0.682 -7.315,3.445 -8.386,6.247c-1.07,2.802 -1.248,7.362 -1.248,7.362c0,-0 66.397,1.565 67.476,1.136c1.08,-0.429 9.769,-1.191 13.107,-8.469c3.337,-7.277 6.913,-16.894 2.809,-27.533c-4.104,-10.639 -10.713,-14.383 -16.275,-14.723Z" style="fill:#fd9203;"/><clipPath id="_clip19"><path d="M188.794,195.631c-5.563,-0.341 -17.664,2.776 -20.614,12.734c-2.949,9.957 -1.547,20.263 -5.108,22.064c-3.562,1.8 -29.265,0.501 -31.761,1.182c-2.496,0.682 -7.315,3.445 -8.386,6.247c-1.07,2.802 -1.248,7.362 -1.248,7.362c0,-0 66.397,1.565 67.476,1.136c1.08,-0.429 9.769,-1.191 13.107,-8.469c3.337,-7.277 6.913,-16.894 2.809,-27.533c-4.104,-10.639 -10.713,-14.383 -16.275,-14.723Z"/></clipPath><g clip-path="url(#_clip19)"><path d="M121.936,242.293c0.72,1.61 14.497,1.421 19.147,1.276c4.649,-0.146 45.47,0.213 47.196,-5.15c1.726,-5.362 -6.625,-7.37 -10.576,-6.994c-3.951,0.376 -21.003,0.533 -24.031,0.797c-3.029,0.263 -20.735,-1.874 -23.253,-0.859c-2.518,1.016 -10.353,6.743 -8.483,10.93Z" style="fill:#ffaf32;"/><path d="M147.633,231.441l22.359,0.192" style="fill:none;stroke:#000;stroke-width:2.2px;"/><path d="M126.38,245.329c-0,-0 -0.8,-3.117 1.056,-5.565c1.855,-2.449 6.628,-3.988 6.628,-3.988" style="fill:none;stroke:#000;stroke-width:2.2px;"/></g><path d="M188.794,195.631c-5.563,-0.341 -17.664,2.776 -20.614,12.734c-2.949,9.957 -1.547,20.263 -5.108,22.064c-3.562,1.8 -29.265,0.501 -31.761,1.182c-2.496,0.682 -7.315,3.445 -8.386,6.247c-1.07,2.802 -1.248,7.362 -1.248,7.362c0,-0 66.397,1.565 67.476,1.136c1.08,-0.429 9.769,-1.191 13.107,-8.469c3.337,-7.277 6.913,-16.894 2.809,-27.533c-4.104,-10.639 -10.713,-14.383 -16.275,-14.723Z" style="fill:none;stroke:#000;stroke-width:2.2px;"/><path d="M52.42,86.321c-0.175,-3.489 4.846,-17.297 10.947,-24.646c5.011,-6.037 7.591,-10.99 9.924,-12.164c3.658,-1.839 18.449,-3.267 22.327,-5.562c3.878,-2.294 19.514,-0.264 19.514,-0.264c0,-0 18.667,4.786 22.821,4.7c2.894,0.897 4.834,5.002 9.57,12.441c6.481,10.179 10.392,24.285 10.053,24.521" style="fill:none;stroke:#000;stroke-width:1.64px;"/><path d="M96.24,50.706c-2.92,6.331 0.742,12.296 -6.895,15.759c-7.636,3.462 -14.531,2.899 -16.895,2.2" style="fill:none;stroke:#000;stroke-width:0.86px;"/><path d="M107.979,48.401c1.979,6.545 -0.502,12.713 4.672,16.292c5.174,3.58 9.846,2.998 11.447,2.275" style="fill:none;stroke:#000;stroke-width:0.75px;"/><path d="M169.982,182.572c6.247,-3.312 4.11,-2.076 11.06,-2.892c6.95,-0.815 16.645,1.363 23.271,15.91c6.625,14.546 -4.827,22.635 -14.995,38.774c-10.169,16.138 -20.459,-0.115 -28.842,-10.509c-8.383,-10.394 3.259,-37.971 9.506,-41.283Zm4.083,3.668c-5.287,3.554 -11.327,12.057 -12.679,22.082c-1.352,10.025 3.855,15.904 9.838,22.398c3.196,3.468 5.305,7.508 9.604,4.7c7.702,-5.029 21.154,-21.143 22.998,-28.965c1.478,-6.27 -2.065,-11.91 -8.254,-17.4c-3.321,-2.946 -5.7,-5.72 -10.311,-5.224c-4.611,0.497 -5.909,-1.144 -11.196,2.409Z" style="fill:#863c00;stroke:#000;stroke-width:0.6px;"/><path d="M174.066,188.648c-4.449,5.434 -8.285,4.964 -5.597,14.34c2.689,9.376 6.142,7.009 7.44,12.63c1.298,5.622 2.248,8.782 1.367,11.4c-0.88,2.617 -3.094,6.925 0.974,6.163c4.067,-0.761 2.352,-4.547 2.352,-4.547c0,0 -0.104,-0.949 0.023,-6.07c0.128,-5.121 0.441,-6.654 -3.302,-12.286c-3.743,-5.631 -6.733,-9.98 -2.596,-14.997c4.137,-5.016 4.67,-5.945 4.67,-5.945c-0,0 -0.881,-6.122 -5.331,-0.688Z" style="fill:#863c00;stroke:#000;stroke-width:0.6px;"/><path d="M169.589,185.322c7.138,-3.615 4.697,-2.266 12.639,-3.156c7.942,-0.89 19.02,1.488 26.591,17.368c7.571,15.88 -5.516,24.711 -17.135,42.329c-11.619,17.619 -23.377,-0.125 -32.957,-11.472c-9.579,-11.347 3.724,-41.453 10.862,-45.069Zm4.666,4.005c-6.041,3.88 -10.136,11.125 -11.681,22.069c-1.545,10.944 2.102,21.637 9.904,27.867c7.803,6.23 6.011,10.846 12.763,1.112c6.752,-9.734 23.006,-21.929 23.022,-28.979c0.015,-7.051 -2.38,-15.95 -11.326,-18.87c-8.946,-2.921 -6.845,-5.688 -12.113,-5.146c-5.269,0.543 -4.527,-1.932 -10.569,1.947Z" style="fill:#863c00;stroke:#000;stroke-width:0.6px;"/><path d="M177.352,188.256c6.247,-3.312 4.11,-2.076 11.06,-2.892c6.95,-0.815 16.645,1.363 23.271,15.91c6.626,14.546 -4.827,22.635 -14.995,38.774c-10.169,16.138 -20.459,-0.115 -28.842,-10.509c-8.383,-10.394 3.259,-37.971 9.506,-41.283Zm4.083,3.668c-5.287,3.554 -11.327,12.057 -12.679,22.082c-1.352,10.025 3.855,15.904 9.838,22.398c3.196,3.468 5.305,7.508 9.604,4.7c7.702,-5.029 21.154,-21.143 22.998,-28.965c1.478,-6.27 -2.065,-11.91 -8.254,-17.4c-3.321,-2.946 -5.7,-5.72 -10.311,-5.224c-4.611,0.497 -5.909,-1.145 -11.196,2.409Z" style="fill:#863c00;stroke:#000;stroke-width:0.6px;"/><path d="M173.394,181.681c1.275,3.859 -0.276,5.831 1.253,9.069c1.528,3.238 12.908,-3.02 18.505,-3.635c5.597,-0.615 7.162,4.422 8.946,2.565c1.785,-1.856 0.684,-8.896 -2.271,-10.554c-2.955,-1.658 -27.707,-1.304 -26.433,2.555Z" style="fill:#863c00;"/><clipPath id="_clip20"><path d="M173.394,181.681c1.275,3.859 -0.276,5.831 1.253,9.069c1.528,3.238 12.908,-3.02 18.505,-3.635c5.597,-0.615 7.162,4.422 8.946,2.565c1.785,-1.856 0.684,-8.896 -2.271,-10.554c-2.955,-1.658 -27.707,-1.304 -26.433,2.555Z"/></clipPath><g clip-path="url(#_clip20)"><path d="M178.538,179.015c1.526,2.346 2.599,5.151 2.1,7.553c-0.499,2.401 -0.441,4.325 -1.507,4.925" style="fill:none;stroke:#000;stroke-width:0.6px;"/><path d="M184.688,178.858c0.915,1.027 2.01,3.071 1.831,5.882c-0.18,2.811 -1.275,4.699 -1.275,4.699" style="fill:none;stroke:#000;stroke-width:0.6px;"/><path d="M190.708,178.456c1.414,2.149 1.744,2.952 1.048,5.622c-0.695,2.67 -1.807,3.906 -1.807,3.906" style="fill:none;stroke:#000;stroke-width:0.6px;"/><path d="M195.986,179.051c1.339,2.274 1.252,4.683 0.597,6.242c-0.655,1.559 -1.425,1.757 -1.425,1.757" style="fill:none;stroke:#000;stroke-width:0.6px;"/></g><path d="M173.394,181.681c1.275,3.859 -0.276,5.831 1.253,9.069c1.528,3.238 12.908,-3.02 18.505,-3.635c5.597,-0.615 7.162,4.422 8.946,2.565c1.785,-1.856 0.684,-8.896 -2.271,-10.554c-2.955,-1.658 -27.707,-1.304 -26.433,2.555Z" style="fill:none;stroke:#000;stroke-width:0.6px;"/></svg>