<?xml version="1.0" encoding="UTF-8" standalone="no"?><!DOCTYPE svg PUBLIC "-//W3C//DTD SVG 1.1//EN" "http://www.w3.org/Graphics/SVG/1.1/DTD/svg11.dtd"><svg width="100%" height="100%" viewBox="0 0 250 250" version="1.1" xmlns="http://www.w3.org/2000/svg" xmlns:xlink="http://www.w3.org/1999/xlink" xml:space="preserve" xmlns:serif="http://www.serif.com/" style="fill-rule:evenodd;clip-rule:evenodd;stroke-linecap:round;stroke-linejoin:round;stroke-miterlimit:1.5;"><rect id="zeek-champion" x="0" y="0" width="250" height="250" style="fill:none;"/><clipPath id="_clip1"><rect x="0" y="0" width="250" height="250"/></clipPath><g clip-path="url(#_clip1)"><g id="Zeek"><path id="Tail" d="M207.95,234.052c0,0 11.373,-9.24 10.26,-23.566c-1.112,-14.327 -7.437,-21.79 -9.776,-27.646c-2.338,-5.856 -6.024,-15.291 -5.337,-24.455c0.92,-12.271 6.594,-22.839 11.121,-29.303c2.552,-3.644 6.04,-10.832 0.792,-15.553c-3.482,-3.132 -9.077,-2.864 -12.24,0.26c-3.162,3.123 -13.005,15.903 -13.919,31.435c-1.194,20.282 1.768,33.612 5.15,38.048c3.382,4.436 12.868,21.641 12.434,27.078c-0.434,5.438 1.515,23.702 1.515,23.702Z" style="fill:#fd9203;"/><clipPath id="_clip2"><path id="Tail1" serif:id="Tail" d="M207.95,234.052c0,0 11.373,-9.24 10.26,-23.566c-1.112,-14.327 -7.437,-21.79 -9.776,-27.646c-2.338,-5.856 -6.024,-15.291 -5.337,-24.455c0.92,-12.271 6.594,-22.839 11.121,-29.303c2.552,-3.644 6.04,-10.832 0.792,-15.553c-3.482,-3.132 -9.077,-2.864 -12.24,0.26c-3.162,3.123 -13.005,15.903 -13.919,31.435c-1.194,20.282 1.768,33.612 5.15,38.048c3.382,4.436 12.868,21.641 12.434,27.078c-0.434,5.438 1.515,23.702 1.515,23.702Z"/></clipPath><g clip-path="url(#_clip2)"><path d="M189.213,172.802c3.748,3.481 6.953,5.446 10.802,2.105c3.85,-3.34 5.793,-12.175 6.686,-15.275c0.894,-3.1 6.594,-20.365 10.6,-24.757c4.006,-4.393 9.191,-29.739 0.774,-31.098c-8.418,-1.36 -20.463,1.259 -27.057,10.7c-6.594,9.44 -5.553,54.844 -1.805,58.325Z" style="fill:#ffaf32;"/><path d="M193.357,124.58l19.561,11.53c-0,-0 17.626,-23.382 6.418,-27.642c-11.207,-4.26 -18.694,2.014 -21.78,5.785c-3.085,3.771 -4.199,10.327 -4.199,10.327Z" style="fill:#e77f00;"/><path d="M209.362,141.105l-1.763,3.971l-21.931,-9.735l1.763,-3.971l21.931,9.735Z" style="fill:#e77f00;"/><g><path d="M213.014,126.104l-0.412,-5.436l-1.84,2.131l-4.746,-0.37l2.903,2.506l-1.343,1.556l5.438,-0.387Z" style="fill:#ffaf32;"/><path d="M202.708,117.21l0.412,5.436l1.828,-2.118l4.762,0.352l-2.904,-2.505l1.344,-1.557l-5.442,0.392Z" style="fill:#ffaf32;"/></g></g><path id="Tail2" serif:id="Tail" d="M207.95,234.052c0,0 11.373,-9.24 10.26,-23.566c-1.112,-14.327 -7.437,-21.79 -9.776,-27.646c-2.338,-5.856 -6.024,-15.291 -5.337,-24.455c0.92,-12.271 6.594,-22.839 11.121,-29.303c2.552,-3.644 6.04,-10.832 0.792,-15.553c-3.482,-3.132 -9.077,-2.864 -12.24,0.26c-3.162,3.123 -13.005,15.903 -13.919,31.435c-1.194,20.282 1.768,33.612 5.15,38.048c3.382,4.436 12.868,21.641 12.434,27.078c-0.434,5.438 1.515,23.702 1.515,23.702Z" style="fill:none;stroke:#040200;stroke-width:2.22px;"/><path id="Body" d="M136.151,248.528c-17.226,-0.249 -48.459,-0.66 -53.511,-0.732c-6.888,-0.099 1.21,-31.626 -3.513,-43.68c-4.723,-12.054 -14.59,-34.775 -9.222,-50.559c5.368,-15.783 36.298,-2.96 51.835,-6.133c15.537,-3.174 29.859,-8.93 40.988,-8.068c3.162,0.244 4.947,8.512 7.247,12.194c2.657,4.252 10.278,12.755 17.322,19.496c11.74,11.234 23.168,28.76 22.366,45.266c-0.803,16.506 -2.622,32.681 -26.247,32.573c-18.652,-0.085 -36.815,-0.205 -47.265,-0.357Z" style="fill:#26c3df;"/><clipPath id="_clip3"><path id="Body1" serif:id="Body" d="M136.151,248.528c-17.226,-0.249 -48.459,-0.66 -53.511,-0.732c-6.888,-0.099 1.21,-31.626 -3.513,-43.68c-4.723,-12.054 -14.59,-34.775 -9.222,-50.559c5.368,-15.783 36.298,-2.96 51.835,-6.133c15.537,-3.174 29.859,-8.93 40.988,-8.068c3.162,0.244 4.947,8.512 7.247,12.194c2.657,4.252 10.278,12.755 17.322,19.496c11.74,11.234 23.168,28.76 22.366,45.266c-0.803,16.506 -2.622,32.681 -26.247,32.573c-18.652,-0.085 -36.815,-0.205 -47.265,-0.357Z"/></clipPath><g clip-path="url(#_clip3)"><path d="M102.207,205.203l5.027,-8.223l2.865,10.395l14.889,-10.764l5.241,14.009l-2.595,29.247l-31.15,0.6c0,-0 6.177,-4.76 5.594,-13.694c-0.583,-8.934 0.129,-21.57 0.129,-21.57Z" style="fill:#fff;"/><path d="M150.932,208.388l9.585,3.06l13.104,-4.321l8.714,28.924l-34.069,-0.062c0,0 -2.067,-12.024 -0.598,-18.037c1.47,-6.012 3.264,-9.564 3.264,-9.564Z" style="fill:#fff;stroke:#fff;stroke-width:1.59px;"/><path d="M66.039,147.819c-2.579,5.603 -6.815,21.053 -3.794,28.794c3.02,7.742 4.236,13.361 10.406,19.412c6.17,6.05 6.741,19.56 7.018,24.434c0.276,4.873 -2.616,13.642 1.252,13.128c3.868,-0.513 8.823,3.349 10.48,-5.768c1.658,-9.117 2.947,-13.146 0.59,-24.749c-2.358,-11.604 -0.755,-14.638 3.72,-19.793c4.476,-5.155 21.44,7.476 26.394,4.874c4.955,-2.603 7.386,3 7.386,3c-0,0 1.989,22.014 1.16,26.258c-0.828,4.243 -0.515,14.571 3.481,11.156c3.997,-3.415 5.489,-13.195 7.828,-19.677c2.339,-6.481 1.327,-17.77 5.968,-21.318c4.641,-3.547 6.889,-2.867 7.809,-8.52c0.921,-5.653 2.782,10.704 9.796,9.557c9.562,-1.564 15.604,1.682 20.669,6.158c5.065,4.475 12.193,11.471 16.89,14.272c4.696,2.802 8.675,12.731 8.675,12.731c-0,0 6.152,-24.798 -2.91,-37.513c-9.062,-12.714 -28.568,-42.801 -36.377,-47.658c-7.81,-4.857 -19.358,0.116 -19.358,0.116c-0,0 -84.504,5.504 -87.083,11.106Z" style="fill:#64ddf2;"/><path d="M127.976,184.533c2.302,13.936 2.697,31.425 1.513,42.353c-1.184,10.929 -0.645,9.295 -1.052,11.699c-0.408,2.403 14.064,5.731 14.064,5.731l6.775,-1.161c-0,0 -2.618,-7.672 -2.855,-18.708c-0.237,-11.035 5.973,-21.478 7.17,-25.907c1.197,-4.428 4.855,-16.979 2.052,-20.401" style="fill:none;stroke:#000;stroke-width:2.22px;"/><path d="M100.164,196.302c2.302,9.911 2.737,25.256 2.329,31.543c-0.408,6.288 -2.868,9.97 -2.868,9.97" style="fill:none;stroke:#000;stroke-width:2.22px;"/><path d="M135.23,160.949c5.672,15.808 5.553,31.631 3.212,46.101c-2.341,14.47 -5.536,24.741 -3.127,30.339" style="fill:none;stroke:#fff;stroke-width:3.18px;"/><path d="M142.884,155.214c3.041,7.673 7.022,25.987 6.049,34.936c-0.974,8.95 -8.68,40.457 -6.391,44.748" style="fill:none;stroke:#fff;stroke-width:3.18px;"/><path d="M74.901,154.445c-0.513,10.595 0.546,25.341 4.288,32.215c3.742,6.873 8.099,23.265 7.432,30.969c-0.666,7.704 -4.083,20.959 -4.083,20.959" style="fill:none;stroke:#fff;stroke-width:3.18px;"/><path d="M72.529,150.294c-0,0 16.846,28.478 22.45,35.644c5.604,7.166 14.13,6.505 17.735,5.813c3.605,-0.692 25.817,-33.753 26.79,-38.366c0.974,-4.613 -15.975,-0.108 -15.975,-0.108l-15.53,25.88l-19.119,-25.249l-16.351,-3.614Z" style="fill:#3697f9;stroke:#000;stroke-width:1.59px;"/><circle cx="106.33" cy="206.824" r="16.442" style="fill:#fecc13;stroke:#000;stroke-width:1.59px;"/><path d="M97.667,203.985l4.169,3.581l4.099,-3.949l0,12.963l5.399,-0l0,-18.115l-7.595,-0.167l-6.072,5.687Z" style="fill:#92750d;"/></g><path id="Body2" serif:id="Body" d="M136.151,248.528c-17.226,-0.249 -48.459,-0.66 -53.511,-0.732c-6.888,-0.099 1.21,-31.626 -3.513,-43.68c-4.723,-12.054 -14.59,-34.775 -9.222,-50.559c5.368,-15.783 36.298,-2.96 51.835,-6.133c15.537,-3.174 29.859,-8.93 40.988,-8.068c3.162,0.244 4.947,8.512 7.247,12.194c2.657,4.252 10.278,12.755 17.322,19.496c11.74,11.234 23.168,28.76 22.366,45.266c-0.803,16.506 -2.622,32.681 -26.247,32.573c-18.652,-0.085 -36.815,-0.205 -47.265,-0.357Z" style="fill:none;stroke:#000;stroke-width:2.22px;"/><path id="Left-Leg" serif:id="Left Leg" d="M130.697,233.95l-74.047,-1.273c0,0 -6.23,1.59 -6.092,7.905c0.139,6.314 6.746,8.402 6.746,8.402l72.23,0.6l5.551,-13.517l-4.388,-2.117Z" style="fill:#fd9203;"/><clipPath id="_clip4"><path id="Left-Leg1" serif:id="Left Leg" d="M130.697,233.95l-74.047,-1.273c0,0 -6.23,1.59 -6.092,7.905c0.139,6.314 6.746,8.402 6.746,8.402l72.23,0.6l5.551,-13.517l-4.388,-2.117Z"/></clipPath><g clip-path="url(#_clip4)"><path d="M48.66,245.895c-0,-0 50.32,1.437 55.4,0.158c5.079,-1.278 8.776,-2.846 9.606,-5.85c0.83,-3.005 0.22,-8.103 0.22,-8.103l-63.221,-3.531l-4.508,12.488l2.503,4.838Z" style="fill:#ffaf32;"/><path d="M60.334,242.37l-12.812,0.039" style="fill:none;stroke:#000;stroke-width:2.22px;"/><path d="M61.02,237.979l-12.813,0.04" style="fill:none;stroke:#000;stroke-width:2.22px;"/></g><path id="Left-Leg2" serif:id="Left Leg" d="M130.697,233.95l-74.047,-1.273c0,0 -6.23,1.59 -6.092,7.905c0.139,6.314 6.746,8.402 6.746,8.402l72.23,0.6l5.551,-13.517l-4.388,-2.117Z" style="fill:none;stroke:#000;stroke-width:2.22px;"/><path id="Right-Lef" serif:id="Right Lef" d="M191.18,199.325c-5.611,-0.344 -17.818,2.8 -20.794,12.845c-2.975,10.045 -1.56,20.442 -5.153,22.258c-3.593,1.816 -29.522,0.505 -32.04,1.192c-2.518,0.688 -7.379,3.476 -8.459,6.302c-1.08,2.827 -1.259,7.427 -1.259,7.427c0,-0 66.979,1.578 68.068,1.145c1.089,-0.432 9.855,-1.201 13.222,-8.542c3.366,-7.342 6.973,-17.042 2.833,-27.775c-4.14,-10.732 -10.807,-14.509 -16.418,-14.852Z" style="fill:#fd9203;"/><clipPath id="_clip5"><path id="Right-Lef1" serif:id="Right Lef" d="M191.18,199.325c-5.611,-0.344 -17.818,2.8 -20.794,12.845c-2.975,10.045 -1.56,20.442 -5.153,22.258c-3.593,1.816 -29.522,0.505 -32.04,1.192c-2.518,0.688 -7.379,3.476 -8.459,6.302c-1.08,2.827 -1.259,7.427 -1.259,7.427c0,-0 66.979,1.578 68.068,1.145c1.089,-0.432 9.855,-1.201 13.222,-8.542c3.366,-7.342 6.973,-17.042 2.833,-27.775c-4.14,-10.732 -10.807,-14.509 -16.418,-14.852Z"/></clipPath><g clip-path="url(#_clip5)"><path d="M123.737,246.396c0.725,1.624 14.624,1.434 19.314,1.287c4.69,-0.147 45.869,0.215 47.61,-5.194c1.742,-5.41 -6.683,-7.435 -10.669,-7.056c-3.985,0.379 -21.186,0.537 -24.242,0.803c-3.055,0.266 -20.916,-1.89 -23.456,-0.865c-2.54,1.024 -10.444,6.801 -8.557,11.025Z" style="fill:#ffaf32;"/><path d="M149.659,235.449l22.555,0.194" style="fill:none;stroke:#000;stroke-width:2.22px;"/><path d="M128.219,249.458c0,0 -0.807,-3.144 1.065,-5.613c1.872,-2.47 6.686,-4.023 6.686,-4.023" style="fill:none;stroke:#000;stroke-width:2.22px;"/></g><path id="Right-Lef2" serif:id="Right Lef" d="M191.18,199.325c-5.611,-0.344 -17.818,2.8 -20.794,12.845c-2.975,10.045 -1.56,20.442 -5.153,22.258c-3.593,1.816 -29.522,0.505 -32.04,1.192c-2.518,0.688 -7.379,3.476 -8.459,6.302c-1.08,2.827 -1.259,7.427 -1.259,7.427c0,-0 66.979,1.578 68.068,1.145c1.089,-0.432 9.855,-1.201 13.222,-8.542c3.366,-7.342 6.973,-17.042 2.833,-27.775c-4.14,-10.732 -10.807,-14.509 -16.418,-14.852Z" style="fill:none;stroke:#000;stroke-width:2.22px;"/><g id="Head"><g id="Face"><path id="Face-Colors" serif:id="Face Colors" d="M108.215,163.718c32.852,0.457 57.85,-16.875 59.471,-42.432c1.083,-17.086 -3.494,-24.358 -3.255,-24.885c2.802,-6.18 6.391,-10.332 5.821,-21.624c-0.485,-9.589 -1.167,-25.077 -6.382,-26.697c-5.734,-1.781 -28.522,18.516 -28.522,18.516c0,-0 -10.719,-3.755 -26.366,-4.21c-10.512,-0.307 -27.701,3.829 -27.701,3.829c-0,-0 -20.544,-21.292 -28.715,-18.301c-5.274,1.931 -4.144,18.848 -3.905,28.164c0.191,7.406 2.8,16.784 2.809,19.71c0.009,2.925 -3.259,7.968 -2.984,24.061c0.498,29.075 26.877,43.412 59.729,43.869Z" style="fill:#ffaf32;"/><clipPath id="_clip6"><path id="Face-Colors1" serif:id="Face Colors" d="M108.215,163.718c32.852,0.457 57.85,-16.875 59.471,-42.432c1.083,-17.086 -3.494,-24.358 -3.255,-24.885c2.802,-6.18 6.391,-10.332 5.821,-21.624c-0.485,-9.589 -1.167,-25.077 -6.382,-26.697c-5.734,-1.781 -28.522,18.516 -28.522,18.516c0,-0 -10.719,-3.755 -26.366,-4.21c-10.512,-0.307 -27.701,3.829 -27.701,3.829c-0,-0 -20.544,-21.292 -28.715,-18.301c-5.274,1.931 -4.144,18.848 -3.905,28.164c0.191,7.406 2.8,16.784 2.809,19.71c0.009,2.925 -3.259,7.968 -2.984,24.061c0.498,29.075 26.877,43.412 59.729,43.869Z"/></clipPath><g clip-path="url(#_clip6)"><path d="M122.501,49.945l-0.405,27.791" style="fill:none;stroke:#e87f00;stroke-width:11.1px;"/><path d="M94.68,49.837l-0.405,27.791" style="fill:none;stroke:#e87f00;stroke-width:11.1px;"/><path d="M108.402,56.07l-0.405,27.791" style="fill:none;stroke:#e87f00;stroke-width:11.1px;"/><path d="M45.935,129.115c0,0 12.332,8.877 22.812,7.882c10.48,-0.994 25.602,-8.678 39.987,-8.131c14.384,0.548 23.244,8.935 35.824,8.554c12.58,-0.381 28.972,-6.647 28.972,-6.647c0,-0 -14.458,21.873 -20.233,26.15c-5.774,4.276 -47.566,12.233 -55.237,10.319c-7.671,-1.915 -38.403,-12.881 -44.601,-21.061c-6.197,-8.181 -7.524,-17.066 -7.524,-17.066Z" style="fill:#fff;"/><path d="M107.757,68.104c27.84,-0.099 43.005,9.474 42.289,8.562c-3.216,-4.1 -8.933,-4.293 -9.347,-7.807c-0.379,-3.214 6.64,-9.292 10.259,-11.272c3.619,-1.981 9.845,-6.109 12.249,-4.924c2.403,1.185 3.425,10.095 5.055,12.168c1.63,2.072 4.918,-9.225 4.918,-9.225c0,-0 -0.847,-18.293 -11.383,-13.643c-10.535,4.65 -24.008,22.95 -27.176,21.832c-3.168,-1.119 -18.971,-4.692 -24.819,-4.302c-5.848,0.389 -26.247,3.589 -26.247,3.589c0,-0 -24.054,-18.152 -28.843,-17.746c-4.789,0.406 -6.916,0.44 -6.916,4.302c-0,3.862 1.676,16.709 1.676,16.709c-0,0 2.127,-14.728 4.208,-15.242c2.082,-0.514 11.42,3.912 13.4,5.835c1.98,1.923 10.517,8.628 9.872,11.082c-0.644,2.453 -8.758,5.967 -11.143,7.948c-2.385,1.981 -10.646,11.413 -12.267,15.814c-1.621,4.401 -5.406,14.356 -5.332,19.461c0.074,5.106 1.142,9.093 1.142,9.093c0,-0 1.234,-25.131 14.588,-36.37c13.353,-11.239 24.229,-15.793 43.817,-15.864Z" style="fill:#ffc783;"/><clipPath id="_clip7"><path d="M107.757,68.104c27.84,-0.099 43.005,9.474 42.289,8.562c-3.216,-4.1 -8.933,-4.293 -9.347,-7.807c-0.379,-3.214 6.64,-9.292 10.259,-11.272c3.619,-1.981 9.845,-6.109 12.249,-4.924c2.403,1.185 3.425,10.095 5.055,12.168c1.63,2.072 4.918,-9.225 4.918,-9.225c0,-0 -0.847,-18.293 -11.383,-13.643c-10.535,4.65 -24.008,22.95 -27.176,21.832c-3.168,-1.119 -18.971,-4.692 -24.819,-4.302c-5.848,0.389 -26.247,3.589 -26.247,3.589c0,-0 -24.054,-18.152 -28.843,-17.746c-4.789,0.406 -6.916,0.44 -6.916,4.302c-0,3.862 1.676,16.709 1.676,16.709c-0,0 2.127,-14.728 4.208,-15.242c2.082,-0.514 11.42,3.912 13.4,5.835c1.98,1.923 10.517,8.628 9.872,11.082c-0.644,2.453 -8.758,5.967 -11.143,7.948c-2.385,1.981 -10.646,11.413 -12.267,15.814c-1.621,4.401 -5.406,14.356 -5.332,19.461c0.074,5.106 1.142,9.093 1.142,9.093c0,-0 1.234,-25.131 14.588,-36.37c13.353,-11.239 24.229,-15.793 43.817,-15.864Z"/></clipPath><g clip-path="url(#_clip7)"><path d="M108.402,56.07l-0.405,27.791" style="fill:none;stroke:#ffaf32;stroke-width:11.1px;"/><path d="M94.68,49.837l-0.405,27.791" style="fill:none;stroke:#ffaf32;stroke-width:11.1px;"/><path d="M122.501,49.945l-0.405,27.791" style="fill:none;stroke:#ffaf32;stroke-width:11.1px;"/></g></g><path d="M144.991,71.975c1.516,-3.603 10.052,-12.776 15.941,-14.77c-0,0 4.494,9.714 3.941,14.231c-0.552,4.518 -3.407,17.738 -3.407,17.738c-0,-0 -6.953,-9.264 -9.163,-11.488c-3.352,-3.374 -7.312,-5.711 -7.312,-5.711Z" style="fill:#f66978;"/><clipPath id="_clip8"><path d="M144.991,71.975c1.516,-3.603 10.052,-12.776 15.941,-14.77c-0,0 4.494,9.714 3.941,14.231c-0.552,4.518 -3.407,17.738 -3.407,17.738c-0,-0 -6.953,-9.264 -9.163,-11.488c-3.352,-3.374 -7.312,-5.711 -7.312,-5.711Z"/></clipPath><g clip-path="url(#_clip8)"><path d="M161.042,57.404l-7.174,5.553c0,0 -1.897,6.623 0.433,8.272c2.33,1.65 4.844,3.349 4.844,3.349c0,-0 -0.893,2.18 1.179,3.514c2.072,1.334 4.098,0.373 4.098,0.373c0,-0 0.847,-8.114 0.065,-11.927c-0.783,-3.813 -3.445,-9.134 -3.445,-9.134Z" style="fill:#ff969f;"/></g><path d="M71.925,70.873c-1.516,-3.603 -9.776,-11.989 -15.665,-13.983c0,0 -3.859,10.709 -3.923,14.497c-0.078,4.55 2.311,15.333 2.311,15.333c0,0 7.755,-7.912 9.965,-10.137c3.352,-3.373 7.312,-5.71 7.312,-5.71Z" style="fill:#f66978;"/><clipPath id="_clip9"><path d="M71.925,70.873c-1.516,-3.603 -9.776,-11.989 -15.665,-13.983c0,0 -3.859,10.709 -3.923,14.497c-0.078,4.55 2.311,15.333 2.311,15.333c0,0 7.755,-7.912 9.965,-10.137c3.352,-3.373 7.312,-5.71 7.312,-5.71Z"/></clipPath><g clip-path="url(#_clip9)"><path d="M64.096,60.09c0,-0 1.041,6.373 -0.635,8.802c-1.676,2.428 -4.762,4.426 -4.762,4.426c0,-0 1.179,2.785 -1.519,4.127c-2.698,1.343 -4.853,3.415 -5.728,1.111c-0.875,-2.304 1.713,-19.287 4.199,-21.865c2.487,-2.577 8.445,3.399 8.445,3.399Z" style="fill:#ff969f;"/></g><g id="Face-Outline" serif:id="Face Outline"><path id="Face1" serif:id="Face" d="M144.289,71.343c15.459,9.514 21.878,25.626 23.537,41.869c2.938,28.78 -21.501,51.032 -59.611,50.506c-42.521,-0.587 -61.276,-21.59 -59.61,-50.506c1.215,-21.1 9.459,-35.275 24.226,-43.108" style="fill:none;stroke:#000;stroke-width:2.34px;"/><path d="M72.831,70.104c-0,-0 -13.084,-13.102 -15.758,-13.174c-2.675,-0.073 -4.406,11.318 -4.266,16.437c0.14,5.119 2.13,13.473 2.13,13.473" style="fill:none;stroke:#000;stroke-width:2.34px;"/><path d="M144.289,71.343c-0,0 14.565,-15.063 16.274,-14.049c1.709,1.015 5.032,11.577 4.384,17.698c-0.649,6.12 -3.252,14.737 -3.252,14.737" style="fill:none;stroke:#000;stroke-width:2.34px;"/><path d="M136.068,67.276c0,0 20.28,-21.558 28.798,-18.615c2.284,0.789 3.754,8.946 4.413,15.277c0.545,5.239 0.383,18.175 -0.391,22.193c-0.773,4.018 -4.206,10.642 -4.206,10.642" style="fill:none;stroke:#000;stroke-width:2.34px;"/><path d="M81.817,66.364c0,0 -19.273,-20.916 -29.452,-18.499c-3.713,0.882 -3.234,12.693 -3.934,20.217c-0.905,9.716 3.498,25.66 3.498,25.66" style="fill:none;stroke:#000;stroke-width:2.34px;"/><path d="M81.817,66.364c7.568,-2.41 16.382,-3.613 26.398,-3.657c11.106,-0.05 20.293,1.621 27.853,4.569" style="fill:none;stroke:#000;stroke-width:2.34px;"/></g></g><g id="Grin"><path d="M122.613,136.924c-1.262,3.85 -2.449,4.685 -7.58,4.551c-5.131,-0.133 -6.786,-1.311 -6.879,-3.165l-0.001,-1.717" style="fill:none;stroke:#000;stroke-width:2.22px;"/><path d="M93.73,136.994c1.262,3.85 2.45,4.684 7.581,4.551c5.131,-0.133 6.654,-1.386 6.747,-3.24" style="fill:none;stroke:#000;stroke-width:2.22px;"/><path d="M112.11,132.543c0.588,-0 1.151,0.233 1.566,0.648c0.415,0.416 0.648,0.979 0.648,1.566c0,0.078 0,0.157 0,0.236c0,0.587 -0.233,1.15 -0.648,1.566c-0.415,0.415 -0.978,0.648 -1.566,0.648c-2.285,-0 -5.832,-0 -8.118,-0c-0.587,-0 -1.15,-0.233 -1.565,-0.648c-0.415,-0.416 -0.649,-0.979 -0.649,-1.566c0,-0.079 0,-0.158 0,-0.236c0,-0.587 0.234,-1.15 0.649,-1.566c0.415,-0.415 0.978,-0.648 1.565,-0.648c2.286,-0 5.833,-0 8.118,-0Z"/></g><g id="Glasses"><path d="M112.164,112.256c-1.109,-0.973 -2.864,-1.77 -4.773,-1.783c-1.909,-0.014 -3.675,0.757 -4.798,1.714c0.023,-3.218 2.186,-5.814 4.828,-5.795c2.641,0.019 4.767,2.647 4.743,5.864Z" style="fill:#575759;stroke:#000;stroke-width:2.22px;"/><g id="Left-Lens" serif:id="Left Lens"><ellipse cx="82.165" cy="114.615" rx="22.48" ry="20.51" style="fill:#575759;"/><clipPath id="_clip10"><ellipse cx="82.165" cy="114.615" rx="22.48" ry="20.51"/></clipPath><g clip-path="url(#_clip10)"><path d="M75.692,130.07c4.204,0.225 13.092,0.971 17.7,-3.309c3.802,-3.532 6.058,-9.551 6.899,-15.56c1.985,5.298 1.15,10.363 -3.993,15.779c-6.161,6.488 -17.709,5.313 -20.606,3.09Z" style="fill:#959a9e;"/><path d="M91.538,96.203c-7.587,0.279 -15.166,-2.125 -24.183,5.778c-3.902,3.42 -6.402,12.582 -6.087,18.641c-2.955,-4.825 -1.543,-11.648 2.879,-17.667c8.437,-11.484 24.125,-8.385 27.391,-6.752Z" style="fill:#959a9e;"/></g><ellipse cx="82.165" cy="114.615" rx="22.48" ry="20.51" style="fill:none;stroke:#000;stroke-width:2.22px;"/><ellipse cx="82.179" cy="115.033" rx="16.968" ry="15.089" style="fill:#404042;"/><clipPath id="_clip11"><ellipse cx="82.179" cy="115.033" rx="16.968" ry="15.089"/></clipPath><g clip-path="url(#_clip11)"><path d="M93.386,100.117l-12.851,34.765l-6.563,-2.426l12.851,-34.766l6.563,2.427Z" style="fill:#fff;"/><path d="M100.869,101.646l-12.851,34.766l-3.472,-1.284l12.851,-34.766l3.472,1.284Z" style="fill:#fff;"/></g><ellipse cx="82.179" cy="115.033" rx="16.968" ry="15.089" style="fill:none;stroke:#000;stroke-width:2.22px;"/></g><g id="Right-Lens" serif:id="Right Lens"><ellipse cx="132.816" cy="114.988" rx="22.48" ry="20.51" style="fill:#575759;"/><clipPath id="_clip12"><ellipse cx="132.816" cy="114.988" rx="22.48" ry="20.51"/></clipPath><g clip-path="url(#_clip12)"><path d="M126.343,130.443c4.204,0.224 13.093,0.971 17.701,-3.309c3.801,-3.532 6.058,-9.551 6.898,-15.56c1.985,5.298 1.15,10.363 -3.993,15.779c-6.16,6.488 -17.709,5.313 -20.606,3.09Z" style="fill:#959a9e;"/><path d="M142.19,96.576c-7.588,0.279 -15.167,-2.125 -24.184,5.778c-3.902,3.42 -6.402,12.582 -6.087,18.641c-2.955,-4.825 -1.543,-11.648 2.879,-17.667c8.437,-11.484 24.125,-8.385 27.392,-6.752Z" style="fill:#959a9e;"/></g><ellipse cx="132.816" cy="114.988" rx="22.48" ry="20.51" style="fill:none;stroke:#000;stroke-width:2.22px;"/><ellipse cx="132.867" cy="114.615" rx="16.968" ry="15.089" style="fill:#404042;"/><clipPath id="_clip13"><ellipse cx="132.867" cy="114.615" rx="16.968" ry="15.089"/></clipPath><g clip-path="url(#_clip13)"><path d="M144.074,99.698l-12.851,34.766l-6.563,-2.426l12.851,-34.766l6.563,2.426Z" style="fill:#fff;"/><path d="M151.557,101.227l-12.851,34.766l-3.472,-1.283l12.851,-34.766l3.472,1.283Z" style="fill:#fff;"/></g><ellipse cx="132.867" cy="114.615" rx="16.968" ry="15.089" style="fill:none;stroke:#000;stroke-width:2.22px;"/></g></g></g></g></g></svg>