<?xml version="1.0" encoding="UTF-8" standalone="no"?><!DOCTYPE svg PUBLIC "-//W3C//DTD SVG 1.1//EN" "http://www.w3.org/Graphics/SVG/1.1/DTD/svg11.dtd"><svg width="100%" height="100%" viewBox="0 0 250 250" version="1.1" xmlns="http://www.w3.org/2000/svg" xmlns:xlink="http://www.w3.org/1999/xlink" xml:space="preserve" xmlns:serif="http://www.serif.com/" style="fill-rule:evenodd;clip-rule:evenodd;stroke-linecap:round;stroke-linejoin:round;stroke-miterlimit:1.5;"><rect id="zeek-davinci" x="0" y="0" width="250" height="250" style="fill:none;"/><clipPath id="_clip1"><rect x="0" y="0" width="250" height="250"/></clipPath><g clip-path="url(#_clip1)"><g id="Zeek"><path id="Tail" d="M200.125,232.504c-0,-0 11.358,-9.228 10.247,-23.536c-1.112,-14.308 -7.428,-21.762 -9.764,-27.611c-2.336,-5.848 -6.017,-15.271 -5.331,-24.423c0.919,-12.256 6.586,-22.809 11.108,-29.266c2.548,-3.639 6.032,-10.818 0.79,-15.533c-3.477,-3.127 -9.065,-2.86 -12.224,0.26c-3.158,3.119 -12.988,15.882 -13.901,31.395c-1.193,20.256 1.765,33.568 5.143,37.999c3.378,4.43 12.852,21.613 12.418,27.043c-0.433,5.431 1.514,23.672 1.514,23.672Z" style="fill:#fd9203;"/><clipPath id="_clip2"><path id="Tail1" serif:id="Tail" d="M200.125,232.504c-0,-0 11.358,-9.228 10.247,-23.536c-1.112,-14.308 -7.428,-21.762 -9.764,-27.611c-2.336,-5.848 -6.017,-15.271 -5.331,-24.423c0.919,-12.256 6.586,-22.809 11.108,-29.266c2.548,-3.639 6.032,-10.818 0.79,-15.533c-3.477,-3.127 -9.065,-2.86 -12.224,0.26c-3.158,3.119 -12.988,15.882 -13.901,31.395c-1.193,20.256 1.765,33.568 5.143,37.999c3.378,4.43 12.852,21.613 12.418,27.043c-0.433,5.431 1.514,23.672 1.514,23.672Z"/></clipPath><g clip-path="url(#_clip2)"><path d="M181.411,171.332c3.744,3.477 6.944,5.439 10.789,2.103c3.844,-3.336 5.785,-12.16 6.677,-15.256c0.892,-3.096 6.586,-20.338 10.587,-24.725c4,-4.388 9.179,-29.701 0.772,-31.058c-8.406,-1.358 -20.437,1.258 -27.022,10.686c-6.585,9.428 -5.546,54.774 -1.803,58.25Z" style="fill:#ffaf32;"/><path d="M185.55,123.173l19.536,11.514c-0,-0 17.603,-23.352 6.41,-27.606c-11.193,-4.255 -18.671,2.011 -21.752,5.778c-3.081,3.766 -4.194,10.314 -4.194,10.314Z" style="fill:#e77f00;"/><path d="M201.535,139.676l-1.761,3.966l-21.903,-9.723l1.76,-3.966l21.904,9.723Z" style="fill:#e77f00;"/><g><path d="M205.182,124.694l-0.412,-5.429l-1.837,2.128l-4.74,-0.369l2.899,2.502l-1.341,1.555l5.431,-0.387Z" style="fill:#ffaf32;"/><path d="M194.889,115.812l0.412,5.429l1.825,-2.116l4.756,0.352l-2.9,-2.502l1.342,-1.555l-5.435,0.392Z" style="fill:#ffaf32;"/></g></g><path id="Tail2" serif:id="Tail" d="M200.125,232.504c-0,-0 11.358,-9.228 10.247,-23.536c-1.112,-14.308 -7.428,-21.762 -9.764,-27.611c-2.336,-5.848 -6.017,-15.271 -5.331,-24.423c0.919,-12.256 6.586,-22.809 11.108,-29.266c2.548,-3.639 6.032,-10.818 0.79,-15.533c-3.477,-3.127 -9.065,-2.86 -12.224,0.26c-3.158,3.119 -12.988,15.882 -13.901,31.395c-1.193,20.256 1.765,33.568 5.143,37.999c3.378,4.43 12.852,21.613 12.418,27.043c-0.433,5.431 1.514,23.672 1.514,23.672Z" style="fill:none;stroke:#040200;stroke-width:2.22px;"/><path id="Body" d="M128.417,246.962c-17.203,-0.25 -48.396,-0.66 -53.442,-0.732c-6.879,-0.098 1.209,-31.586 -3.508,-43.624c-4.717,-12.038 -14.571,-34.731 -9.21,-50.494c5.36,-15.763 36.251,-2.956 51.768,-6.125c15.518,-3.17 29.82,-8.919 40.935,-8.058c3.159,0.244 4.941,8.501 7.238,12.178c2.654,4.247 10.265,12.739 17.3,19.471c11.724,11.22 23.138,28.724 22.337,45.208c-0.802,16.485 -2.618,32.639 -26.213,32.532c-18.628,-0.085 -36.768,-0.205 -47.205,-0.356Z" style="fill:#535351;"/><clipPath id="_clip3"><path id="Body1" serif:id="Body" d="M128.417,246.962c-17.203,-0.25 -48.396,-0.66 -53.442,-0.732c-6.879,-0.098 1.209,-31.586 -3.508,-43.624c-4.717,-12.038 -14.571,-34.731 -9.21,-50.494c5.36,-15.763 36.251,-2.956 51.768,-6.125c15.518,-3.17 29.82,-8.919 40.935,-8.058c3.159,0.244 4.941,8.501 7.238,12.178c2.654,4.247 10.265,12.739 17.3,19.471c11.724,11.22 23.138,28.724 22.337,45.208c-0.802,16.485 -2.618,32.639 -26.213,32.532c-18.628,-0.085 -36.768,-0.205 -47.205,-0.356Z"/></clipPath><g clip-path="url(#_clip3)"><path d="M58.396,146.382c-2.576,5.596 -6.807,21.025 -3.79,28.757c3.017,7.731 4.231,13.343 10.393,19.386c6.163,6.043 6.733,19.535 7.009,24.403c0.276,4.867 -2.612,13.625 1.251,13.112c3.863,-0.514 8.811,3.344 10.466,-5.762c1.656,-9.105 2.944,-13.128 0.589,-24.717c-2.355,-11.589 -0.754,-14.618 3.716,-19.767c4.47,-5.149 23.262,9.519 26.36,4.867c5.97,-8.965 7.854,0.019 7.376,2.997c0,-0 1.987,21.985 1.159,26.224c-0.828,4.238 -0.515,14.552 3.477,11.141c3.991,-3.41 5.481,-13.178 7.817,-19.651c2.337,-6.473 1.325,-17.747 5.96,-21.29c4.636,-3.543 6.88,-2.864 7.8,-8.51c0.92,-5.645 2.778,10.69 9.783,9.545c9.55,-1.562 15.584,1.68 20.642,6.15c5.059,4.47 12.178,11.456 16.868,14.254c4.691,2.798 8.664,12.715 8.664,12.715c0,-0 6.144,-24.767 -2.906,-37.465c-9.05,-12.698 -28.531,-42.746 -36.33,-47.597c-7.8,-4.851 -19.333,0.116 -19.333,0.116c-0,-0 -84.396,5.496 -86.971,11.092Z" style="fill:#747474;"/><path d="M93.56,162.053c-1.1,2.125 5.498,32.969 5.498,32.969c1.559,5.879 -0.952,30.027 -1.834,36.866c-0,0 17.228,2.29 18.843,-0.161c-3.961,-20.744 -5.519,-34.643 -2.165,-43.719c0.707,-5.223 11.106,-30.577 5.712,-31.713c-5.395,-1.135 -24.954,3.634 -26.054,5.758Z" style="fill:#2f3849;"/><path d="M120.253,183.048c2.3,13.918 2.694,31.384 1.511,42.299c-1.182,10.915 -0.644,9.283 -1.051,11.684c-0.407,2.4 14.046,5.723 14.046,5.723l6.767,-1.159c-0,0 -2.615,-7.663 -2.852,-18.684c-0.236,-11.021 5.966,-21.451 7.161,-25.874c1.196,-4.422 4.849,-16.957 2.05,-20.375" style="fill:none;stroke:#000;stroke-width:2.22px;"/><path d="M92.477,194.802c2.299,9.898 2.733,25.224 2.326,31.503c-0.408,6.279 -2.865,9.957 -2.865,9.957" style="fill:none;stroke:#000;stroke-width:2.22px;"/><path d="M107.3,167.192c1.926,-1.242 4.992,-2.887 6.857,-0.766c1.866,2.121 4.386,4.301 4.386,4.301l2.46,-12.667l-12.896,2.514c0,0 -2.733,7.86 -0.807,6.618Z" style="fill:none;stroke:#000;stroke-width:1.06px;"/><path d="M105.695,167.136c-3.321,-0.891 -4.636,-2.413 -6.725,-0.111c-2.089,2.303 -4.375,4.119 -4.375,4.119l-1.593,-11.758l9.274,1.001c-0,0 1.836,3.791 3.419,6.749Z" style="fill:none;stroke:#000;stroke-width:1.06px;"/><path d="M85.296,153.285l-13.65,10.358l14.329,3.899l-8.117,5.506c0,0 18.926,17.114 21.5,23.229c-3.276,-15.811 -1.813,-29.204 -6.366,-36.234c-4.553,-7.031 -7.696,-6.758 -7.696,-6.758Z" style="fill:#535351;stroke:#000;stroke-width:1.06px;"/><path d="M130.021,150.167l11.126,8.422l-11.462,2.953l6.535,6.06c-0,-0 -20.179,15.855 -22.754,21.969c2.471,-6.954 3.941,-29.297 6.273,-36.405c2.61,-7.959 10.282,-2.999 10.282,-2.999Z" style="fill:#535351;stroke:#000;stroke-width:1.06px;"/></g><path id="Body2" serif:id="Body" d="M128.417,246.962c-17.203,-0.25 -48.396,-0.66 -53.442,-0.732c-6.879,-0.098 1.209,-31.586 -3.508,-43.624c-4.717,-12.038 -14.571,-34.731 -9.21,-50.494c5.36,-15.763 36.251,-2.956 51.768,-6.125c15.518,-3.17 29.82,-8.919 40.935,-8.058c3.159,0.244 4.941,8.501 7.238,12.178c2.654,4.247 10.265,12.739 17.3,19.471c11.724,11.22 23.138,28.724 22.337,45.208c-0.802,16.485 -2.618,32.639 -26.213,32.532c-18.628,-0.085 -36.768,-0.205 -47.205,-0.356Z" style="fill:none;stroke:#000;stroke-width:2.22px;"/><path d="M113.5,189.401c-2.401,5.42 -1.349,16.076 -0.874,21.836c0.425,5.136 2.372,18.29 3.768,20.908" style="fill:none;stroke:#000;stroke-width:1.06px;"/><path d="M99.341,196.108c0.829,3.142 -1.834,35.896 -1.834,35.896" style="fill:none;stroke:#000;stroke-width:1.06px;"/><path id="Left-Leg" serif:id="Left Leg" d="M122.971,232.402l-73.952,-1.271c-0,-0 -6.222,1.588 -6.084,7.894c0.138,6.306 6.737,8.392 6.737,8.392l72.137,0.599l5.544,-13.5l-4.382,-2.114Z" style="fill:#fd9203;"/><clipPath id="_clip4"><path id="Left-Leg1" serif:id="Left Leg" d="M122.971,232.402l-73.952,-1.271c-0,-0 -6.222,1.588 -6.084,7.894c0.138,6.306 6.737,8.392 6.737,8.392l72.137,0.599l5.544,-13.5l-4.382,-2.114Z"/></clipPath><g clip-path="url(#_clip4)"><path d="M41.039,244.331c-0,0 50.255,1.436 55.328,0.158c5.074,-1.277 8.766,-2.842 9.594,-5.843c0.829,-3 0.22,-8.092 0.22,-8.092l-63.14,-3.526l-4.501,12.472l2.499,4.831Z" style="fill:#ffaf32;"/><path d="M52.698,240.811l-12.796,0.039" style="fill:none;stroke:#000;stroke-width:2.22px;"/><path d="M53.383,236.426l-12.797,0.039" style="fill:none;stroke:#000;stroke-width:2.22px;"/></g><path id="Left-Leg2" serif:id="Left Leg" d="M122.971,232.402l-73.952,-1.271c-0,-0 -6.222,1.588 -6.084,7.894c0.138,6.306 6.737,8.392 6.737,8.392l72.137,0.599l5.544,-13.5l-4.382,-2.114Z" style="fill:none;stroke:#000;stroke-width:2.22px;"/><path id="Right-Lef" serif:id="Right Lef" d="M183.376,197.821c-5.604,-0.343 -17.796,2.797 -20.767,12.829c-2.972,10.032 -1.559,20.415 -5.147,22.229c-3.588,1.814 -29.484,0.505 -31.998,1.191c-2.515,0.687 -7.37,3.471 -8.449,6.294c-1.078,2.822 -1.257,7.417 -1.257,7.417c0,-0 66.893,1.576 67.981,1.144c1.087,-0.432 9.842,-1.199 13.204,-8.532c3.362,-7.332 6.965,-17.02 2.83,-27.738c-4.134,-10.719 -10.793,-14.491 -16.397,-14.834Z" style="fill:#fd9203;"/><clipPath id="_clip5"><path id="Right-Lef1" serif:id="Right Lef" d="M183.376,197.821c-5.604,-0.343 -17.796,2.797 -20.767,12.829c-2.972,10.032 -1.559,20.415 -5.147,22.229c-3.588,1.814 -29.484,0.505 -31.998,1.191c-2.515,0.687 -7.37,3.471 -8.449,6.294c-1.078,2.822 -1.257,7.417 -1.257,7.417c0,-0 66.893,1.576 67.981,1.144c1.087,-0.432 9.842,-1.199 13.204,-8.532c3.362,-7.332 6.965,-17.02 2.83,-27.738c-4.134,-10.719 -10.793,-14.491 -16.397,-14.834Z"/></clipPath><g clip-path="url(#_clip5)"><path d="M116.019,244.831c0.725,1.623 14.605,1.433 19.289,1.286c4.684,-0.147 45.811,0.215 47.55,-5.188c1.739,-5.402 -6.674,-7.425 -10.655,-7.046c-3.981,0.378 -21.16,0.537 -24.211,0.802c-3.052,0.266 -20.89,-1.887 -23.427,-0.864c-2.536,1.022 -10.43,6.792 -8.546,11.01Z" style="fill:#ffaf32;"/><path d="M141.908,233.898l22.527,0.195" style="fill:none;stroke:#000;stroke-width:2.22px;"/><path d="M120.496,247.89c-0,0 -0.806,-3.14 1.064,-5.606c1.869,-2.467 6.677,-4.018 6.677,-4.018" style="fill:none;stroke:#000;stroke-width:2.22px;"/></g><path id="Right-Lef2" serif:id="Right Lef" d="M183.376,197.821c-5.604,-0.343 -17.796,2.797 -20.767,12.829c-2.972,10.032 -1.559,20.415 -5.147,22.229c-3.588,1.814 -29.484,0.505 -31.998,1.191c-2.515,0.687 -7.37,3.471 -8.449,6.294c-1.078,2.822 -1.257,7.417 -1.257,7.417c0,-0 66.893,1.576 67.981,1.144c1.087,-0.432 9.842,-1.199 13.204,-8.532c3.362,-7.332 6.965,-17.02 2.83,-27.738c-4.134,-10.719 -10.793,-14.491 -16.397,-14.834Z" style="fill:none;stroke:#000;stroke-width:2.22px;"/><g id="Head"><g id="Face"><path id="Face-Colors" serif:id="Face Colors" d="M100.518,162.26c32.81,0.456 57.775,-16.853 59.394,-42.378c1.082,-17.063 -3.489,-24.326 -3.25,-24.853c2.798,-6.171 6.382,-10.319 5.812,-21.596c-0.483,-9.576 -1.165,-25.045 -6.373,-26.663c-5.727,-1.779 -28.485,18.493 -28.485,18.493c0,-0 -10.706,-3.75 -26.332,-4.205c-10.499,-0.306 -27.666,3.824 -27.666,3.824c-0,-0 -20.518,-21.265 -28.678,-18.277c-5.267,1.928 -4.139,18.823 -3.9,28.127c0.19,7.397 2.796,16.763 2.805,19.685c0.01,2.922 -3.254,7.958 -2.979,24.03c0.496,29.038 26.841,43.357 59.652,43.813Z" style="fill:#ffaf32;"/><clipPath id="_clip6"><path id="Face-Colors1" serif:id="Face Colors" d="M100.518,162.26c32.81,0.456 57.775,-16.853 59.394,-42.378c1.082,-17.063 -3.489,-24.326 -3.25,-24.853c2.798,-6.171 6.382,-10.319 5.812,-21.596c-0.483,-9.576 -1.165,-25.045 -6.373,-26.663c-5.727,-1.779 -28.485,18.493 -28.485,18.493c0,-0 -10.706,-3.75 -26.332,-4.205c-10.499,-0.306 -27.666,3.824 -27.666,3.824c-0,-0 -20.518,-21.265 -28.678,-18.277c-5.267,1.928 -4.139,18.823 -3.9,28.127c0.19,7.397 2.796,16.763 2.805,19.685c0.01,2.922 -3.254,7.958 -2.979,24.03c0.496,29.038 26.841,43.357 59.652,43.813Z"/></clipPath><g clip-path="url(#_clip6)"><path d="M114.786,48.633l-0.405,27.755" style="fill:none;stroke:#e87f00;stroke-width:11.09px;"/><path d="M87,48.525l-0.405,27.755" style="fill:none;stroke:#e87f00;stroke-width:11.09px;"/><path d="M100.704,54.75l-0.404,27.755" style="fill:none;stroke:#e87f00;stroke-width:11.09px;"/><path d="M38.318,127.701c-0,0 12.315,8.866 22.782,7.873c10.467,-0.994 25.569,-8.667 39.935,-8.121c14.367,0.547 23.215,8.924 35.778,8.543c12.564,-0.381 28.936,-6.639 28.936,-6.639c-0,0 -14.44,21.845 -20.207,26.116c-5.767,4.272 -47.505,12.218 -55.167,10.306c-7.661,-1.912 -38.353,-12.864 -44.543,-21.034c-6.19,-8.17 -7.514,-17.044 -7.514,-17.044Z" style="fill:#fff;"/><path d="M100.06,66.769c27.804,-0.099 42.95,9.462 42.235,8.551c-3.212,-4.095 -8.921,-4.288 -9.335,-7.798c-0.379,-3.209 6.631,-9.279 10.246,-11.257c3.614,-1.979 9.832,-6.101 12.232,-4.917c2.401,1.184 3.422,10.082 5.05,12.152c1.628,2.069 4.911,-9.214 4.911,-9.214c0,0 -0.846,-18.269 -11.368,-13.625c-10.522,4.644 -23.978,22.921 -27.142,21.804c-3.164,-1.118 -18.946,-4.685 -24.787,-4.296c-5.84,0.389 -26.213,3.584 -26.213,3.584c0,-0 -24.023,-18.128 -28.806,-17.723c-4.783,0.406 -6.907,0.439 -6.907,4.296c-0,3.858 1.674,16.688 1.674,16.688c-0,0 2.124,-14.709 4.203,-15.222c2.079,-0.514 11.405,3.907 13.382,5.827c1.978,1.921 10.504,8.617 9.86,11.067c-0.644,2.451 -8.747,5.96 -11.129,7.939c-2.382,1.978 -10.632,11.398 -12.251,15.794c-1.619,4.395 -5.399,14.337 -5.325,19.436c0.073,5.099 1.14,9.08 1.14,9.08c0,0 1.233,-25.098 14.569,-36.322c13.336,-11.225 24.198,-15.774 43.761,-15.844Z" style="fill:#ffc783;"/><clipPath id="_clip7"><path d="M100.06,66.769c27.804,-0.099 42.95,9.462 42.235,8.551c-3.212,-4.095 -8.921,-4.288 -9.335,-7.798c-0.379,-3.209 6.631,-9.279 10.246,-11.257c3.614,-1.979 9.832,-6.101 12.232,-4.917c2.401,1.184 3.422,10.082 5.05,12.152c1.628,2.069 4.911,-9.214 4.911,-9.214c0,0 -0.846,-18.269 -11.368,-13.625c-10.522,4.644 -23.978,22.921 -27.142,21.804c-3.164,-1.118 -18.946,-4.685 -24.787,-4.296c-5.84,0.389 -26.213,3.584 -26.213,3.584c0,-0 -24.023,-18.128 -28.806,-17.723c-4.783,0.406 -6.907,0.439 -6.907,4.296c-0,3.858 1.674,16.688 1.674,16.688c-0,0 2.124,-14.709 4.203,-15.222c2.079,-0.514 11.405,3.907 13.382,5.827c1.978,1.921 10.504,8.617 9.86,11.067c-0.644,2.451 -8.747,5.96 -11.129,7.939c-2.382,1.978 -10.632,11.398 -12.251,15.794c-1.619,4.395 -5.399,14.337 -5.325,19.436c0.073,5.099 1.14,9.08 1.14,9.08c0,0 1.233,-25.098 14.569,-36.322c13.336,-11.225 24.198,-15.774 43.761,-15.844Z"/></clipPath><g clip-path="url(#_clip7)"><path d="M100.704,54.75l-0.404,27.755" style="fill:none;stroke:#ffaf32;stroke-width:11.09px;"/><path d="M87,48.525l-0.405,27.755" style="fill:none;stroke:#ffaf32;stroke-width:11.09px;"/><path d="M114.786,48.633l-0.405,27.755" style="fill:none;stroke:#ffaf32;stroke-width:11.09px;"/></g></g><path d="M137.246,70.635c1.514,-3.599 10.039,-12.76 15.921,-14.751c-0,-0 4.488,9.701 3.936,14.213c-0.552,4.511 -3.403,17.714 -3.403,17.714c0,0 -6.944,-9.251 -9.151,-11.473c-3.348,-3.369 -7.303,-5.703 -7.303,-5.703Z" style="fill:#f66978;"/><clipPath id="_clip8"><path d="M137.246,70.635c1.514,-3.599 10.039,-12.76 15.921,-14.751c-0,-0 4.488,9.701 3.936,14.213c-0.552,4.511 -3.403,17.714 -3.403,17.714c0,0 -6.944,-9.251 -9.151,-11.473c-3.348,-3.369 -7.303,-5.703 -7.303,-5.703Z"/></clipPath><g clip-path="url(#_clip8)"><path d="M153.277,56.083l-7.165,5.546c0,-0 -1.895,6.614 0.432,8.261c2.327,1.647 4.838,3.344 4.838,3.344c0,0 -0.892,2.177 1.178,3.51c2.069,1.333 4.092,0.372 4.092,0.372c0,0 0.847,-8.104 0.065,-11.911c-0.782,-3.808 -3.44,-9.122 -3.44,-9.122Z" style="fill:#ff969f;"/></g><path d="M64.274,69.534c-1.514,-3.598 -9.763,-11.974 -15.645,-13.965c0,0 -3.853,10.695 -3.918,14.478c-0.077,4.544 2.309,15.314 2.309,15.314c-0,-0 7.744,-7.902 9.951,-10.124c3.348,-3.369 7.303,-5.703 7.303,-5.703Z" style="fill:#f66978;"/><clipPath id="_clip9"><path d="M64.274,69.534c-1.514,-3.598 -9.763,-11.974 -15.645,-13.965c0,0 -3.853,10.695 -3.918,14.478c-0.077,4.544 2.309,15.314 2.309,15.314c-0,-0 7.744,-7.902 9.951,-10.124c3.348,-3.369 7.303,-5.703 7.303,-5.703Z"/></clipPath><g clip-path="url(#_clip9)"><path d="M56.455,58.765c0,-0 1.04,6.365 -0.634,8.791c-1.674,2.425 -4.756,4.42 -4.756,4.42c0,-0 1.178,2.781 -1.517,4.122c-2.695,1.341 -4.847,3.411 -5.721,1.109c-0.874,-2.301 1.711,-19.262 4.194,-21.836c2.483,-2.575 8.434,3.394 8.434,3.394Z" style="fill:#ff969f;"/></g><g id="Face-Outline" serif:id="Face Outline"><path id="Face1" serif:id="Face" d="M136.545,70.004c15.44,9.501 21.85,25.593 23.506,41.815c2.935,28.742 -21.473,50.966 -59.533,50.441c-42.467,-0.586 -61.198,-21.562 -59.534,-50.441c1.214,-21.073 9.447,-35.23 24.195,-43.053" style="fill:none;stroke:#000;stroke-width:2.34px;"/><path d="M65.179,68.766c-0,-0 -13.067,-13.085 -15.738,-13.157c-2.671,-0.073 -4.4,11.304 -4.26,16.416c0.139,5.112 2.127,13.456 2.127,13.456" style="fill:none;stroke:#000;stroke-width:2.34px;"/><path d="M136.545,70.004c-0,-0 14.546,-15.044 16.253,-14.031c1.707,1.013 5.026,11.562 4.378,17.674c-0.647,6.113 -3.248,14.719 -3.248,14.719" style="fill:none;stroke:#000;stroke-width:2.34px;"/><path d="M128.335,65.942c-0,-0 20.254,-21.53 28.76,-18.591c2.281,0.788 3.75,8.934 4.408,15.257c0.544,5.233 0.382,18.152 -0.39,22.165c-0.773,4.013 -4.202,10.628 -4.202,10.628" style="fill:none;stroke:#000;stroke-width:2.34px;"/><path d="M74.153,65.031c0,0 -19.248,-20.889 -29.414,-18.475c-3.708,0.881 -3.229,12.676 -3.929,20.191c-0.903,9.703 3.494,25.626 3.494,25.626" style="fill:none;stroke:#000;stroke-width:2.34px;"/><path d="M74.153,65.031c7.559,-2.407 16.361,-3.608 26.365,-3.653c11.091,-0.049 20.266,1.619 27.817,4.564" style="fill:none;stroke:#000;stroke-width:2.34px;"/></g></g><g id="Grin"><path d="M114.897,135.501c-1.26,3.845 -2.446,4.678 -7.571,4.545c-5.124,-0.133 -6.777,-1.31 -6.87,-3.161l-0.001,-1.715" style="fill:none;stroke:#000;stroke-width:2.22px;"/><path d="M86.051,135.57c1.26,3.845 2.447,4.678 7.571,4.545c5.124,-0.133 6.646,-1.383 6.739,-3.235" style="fill:none;stroke:#000;stroke-width:2.22px;"/><path d="M104.405,131.125c0.587,-0 1.15,0.233 1.565,0.648c0.416,0.415 0.649,0.979 0.649,1.566c-0,0.076 -0,0.153 -0,0.23c-0,0.587 -0.233,1.15 -0.649,1.566c-0.415,0.415 -0.978,0.648 -1.565,0.648c-2.282,-0 -5.82,-0 -8.102,-0c-0.587,-0 -1.15,-0.233 -1.565,-0.648c-0.416,-0.416 -0.649,-0.979 -0.649,-1.566c0,-0.077 0,-0.154 0,-0.23c0,-0.587 0.233,-1.151 0.649,-1.566c0.415,-0.415 0.978,-0.648 1.565,-0.648c2.282,-0 5.82,-0 8.102,-0Z"/></g><g id="Glasses"><path d="M104.462,110.864c-1.109,-0.972 -2.861,-1.767 -4.767,-1.781c-1.907,-0.014 -3.67,0.756 -4.793,1.712c0.024,-3.213 2.184,-5.807 4.822,-5.788c2.638,0.019 4.761,2.644 4.738,5.857Z" style="fill:#575759;stroke:#000;stroke-width:2.22px;"/><g id="Left-Lens" serif:id="Left Lens"><ellipse cx="74.501" cy="113.22" rx="22.451" ry="20.483" style="fill:#575759;"/><clipPath id="_clip10"><ellipse cx="74.501" cy="113.22" rx="22.451" ry="20.483"/></clipPath><g clip-path="url(#_clip10)"><path d="M68.036,128.655c4.199,0.224 13.076,0.97 17.678,-3.305c3.796,-3.527 6.05,-9.538 6.889,-15.539c1.983,5.291 1.149,10.349 -3.987,15.758c-6.153,6.48 -17.687,5.306 -20.58,3.086Z" style="fill:#959a9e;"/><path d="M83.862,94.832c-7.577,0.278 -15.147,-2.123 -24.152,5.771c-3.897,3.415 -6.394,12.565 -6.079,18.617c-2.951,-4.819 -1.541,-11.634 2.875,-17.645c8.427,-11.469 24.094,-8.374 27.356,-6.743Z" style="fill:#959a9e;"/></g><ellipse cx="74.501" cy="113.22" rx="22.451" ry="20.483" style="fill:none;stroke:#000;stroke-width:2.22px;"/><ellipse cx="74.514" cy="113.637" rx="16.946" ry="15.07" style="fill:#404042;"/><clipPath id="_clip11"><ellipse cx="74.514" cy="113.637" rx="16.946" ry="15.07"/></clipPath><g clip-path="url(#_clip11)"><path d="M85.708,98.74l-12.835,34.721l-6.554,-2.423l12.834,-34.721l6.555,2.423Z" style="fill:#fff;"/><path d="M93.181,100.267l-12.834,34.722l-3.468,-1.282l12.834,-34.721l3.468,1.281Z" style="fill:#fff;"/></g><ellipse cx="74.514" cy="113.637" rx="16.946" ry="15.07" style="fill:none;stroke:#000;stroke-width:2.22px;"/></g><g id="Right-Lens" serif:id="Right Lens"><ellipse cx="125.087" cy="113.592" rx="22.451" ry="20.483" style="fill:#575759;"/><clipPath id="_clip12"><ellipse cx="125.087" cy="113.592" rx="22.451" ry="20.483"/></clipPath><g clip-path="url(#_clip12)"><path d="M118.622,129.027c4.199,0.225 13.076,0.971 17.678,-3.305c3.796,-3.526 6.05,-9.538 6.889,-15.539c1.983,5.291 1.149,10.35 -3.987,15.759c-6.153,6.48 -17.687,5.306 -20.58,3.085Z" style="fill:#959a9e;"/><path d="M134.448,95.204c-7.577,0.279 -15.147,-2.122 -24.152,5.771c-3.897,3.416 -6.394,12.566 -6.079,18.617c-2.951,-4.819 -1.541,-11.633 2.875,-17.644c8.427,-11.47 24.094,-8.375 27.356,-6.744Z" style="fill:#959a9e;"/></g><ellipse cx="125.087" cy="113.592" rx="22.451" ry="20.483" style="fill:none;stroke:#000;stroke-width:2.22px;"/><ellipse cx="125.137" cy="113.22" rx="16.946" ry="15.07" style="fill:#404042;"/><clipPath id="_clip13"><ellipse cx="125.137" cy="113.22" rx="16.946" ry="15.07"/></clipPath><g clip-path="url(#_clip13)"><path d="M136.331,98.322l-12.835,34.722l-6.555,-2.423l12.835,-34.722l6.555,2.423Z" style="fill:#fff;"/><path d="M143.804,99.85l-12.835,34.721l-3.467,-1.282l12.834,-34.721l3.468,1.282Z" style="fill:#fff;"/></g><ellipse cx="125.137" cy="113.22" rx="16.946" ry="15.07" style="fill:none;stroke:#000;stroke-width:2.22px;"/></g></g></g></g></g></svg>