<?xml version="1.0" encoding="UTF-8" standalone="no"?><!DOCTYPE svg PUBLIC "-//W3C//DTD SVG 1.1//EN" "http://www.w3.org/Graphics/SVG/1.1/DTD/svg11.dtd"><svg width="100%" height="100%" viewBox="0 0 250 250" version="1.1" xmlns="http://www.w3.org/2000/svg" xmlns:xlink="http://www.w3.org/1999/xlink" xml:space="preserve" xmlns:serif="http://www.serif.com/" style="fill-rule:evenodd;clip-rule:evenodd;stroke-linecap:round;stroke-linejoin:round;stroke-miterlimit:1.5;"><rect id="zeek-foundry" x="0" y="0" width="250" height="250" style="fill:none;"/><clipPath id="_clip1"><rect x="0" y="0" width="250" height="250"/></clipPath><g clip-path="url(#_clip1)"><g id="Zeek"><path id="Tail" d="M200.798,233.038c-0,0 11.024,-8.956 9.945,-22.844c-1.078,-13.887 -7.209,-21.121 -9.476,-26.798c-2.267,-5.677 -5.84,-14.823 -5.174,-23.705c0.892,-11.896 6.392,-22.139 10.781,-28.406c2.473,-3.532 5.854,-10.5 0.767,-15.076c-3.375,-3.036 -8.799,-2.776 -11.864,0.252c-3.066,3.027 -12.607,15.415 -13.493,30.472c-1.158,19.66 1.713,32.581 4.992,36.881c3.279,4.3 12.473,20.978 12.053,26.249c-0.421,5.271 1.469,22.975 1.469,22.975Z" style="fill:#fd9203;"/><clipPath id="_clip2"><path id="Tail1" serif:id="Tail" d="M200.798,233.038c-0,0 11.024,-8.956 9.945,-22.844c-1.078,-13.887 -7.209,-21.121 -9.476,-26.798c-2.267,-5.677 -5.84,-14.823 -5.174,-23.705c0.892,-11.896 6.392,-22.139 10.781,-28.406c2.473,-3.532 5.854,-10.5 0.767,-15.076c-3.375,-3.036 -8.799,-2.776 -11.864,0.252c-3.066,3.027 -12.607,15.415 -13.493,30.472c-1.158,19.66 1.713,32.581 4.992,36.881c3.279,4.3 12.473,20.978 12.053,26.249c-0.421,5.271 1.469,22.975 1.469,22.975Z"/></clipPath><g clip-path="url(#_clip2)"><path d="M182.635,173.666c3.633,3.374 6.74,5.278 10.471,2.04c3.732,-3.238 5.615,-11.802 6.481,-14.807c0.866,-3.005 6.392,-19.74 10.275,-23.999c3.883,-4.258 8.909,-28.827 0.75,-30.144c-8.159,-1.318 -19.836,1.221 -26.228,10.372c-6.391,9.151 -5.383,53.163 -1.749,56.538Z" style="fill:#ffaf32;"/><path d="M186.652,126.922l18.961,11.176c-0,-0 17.086,-22.665 6.222,-26.795c-10.864,-4.13 -18.122,1.952 -21.113,5.608c-2.99,3.656 -4.07,10.011 -4.07,10.011Z" style="fill:#e77f00;"/><path d="M202.166,142.94l-1.708,3.85l-21.26,-9.438l1.709,-3.849l21.259,9.437Z" style="fill:#e77f00;"/><g><path d="M205.706,128.399l-0.399,-5.27l-1.783,2.066l-4.601,-0.359l2.814,2.429l-1.302,1.509l5.271,-0.375Z" style="fill:#ffaf32;"/><path d="M195.716,119.777l0.4,5.27l1.772,-2.053l4.615,0.341l-2.814,-2.429l1.302,-1.509l-5.275,0.38Z" style="fill:#ffaf32;"/></g></g><path id="Tail2" serif:id="Tail" d="M200.798,233.038c-0,0 11.024,-8.956 9.945,-22.844c-1.078,-13.887 -7.209,-21.121 -9.476,-26.798c-2.267,-5.677 -5.84,-14.823 -5.174,-23.705c0.892,-11.896 6.392,-22.139 10.781,-28.406c2.473,-3.532 5.854,-10.5 0.767,-15.076c-3.375,-3.036 -8.799,-2.776 -11.864,0.252c-3.066,3.027 -12.607,15.415 -13.493,30.472c-1.158,19.66 1.713,32.581 4.992,36.881c3.279,4.3 12.473,20.978 12.053,26.249c-0.421,5.271 1.469,22.975 1.469,22.975Z" style="fill:none;stroke:#040200;stroke-width:2.15px;"/><path id="Body" d="M131.199,247.071c-16.698,-0.242 -46.974,-0.64 -51.871,-0.71c-6.677,-0.095 1.173,-30.657 -3.405,-42.341c-4.578,-11.684 -14.143,-33.71 -8.94,-49.01c5.203,-15.299 35.186,-2.869 50.247,-5.945c15.061,-3.076 28.943,-8.656 39.731,-7.821c3.066,0.237 4.796,8.252 7.026,11.82c2.575,4.123 9.963,12.365 16.791,18.899c11.379,10.89 22.458,27.879 21.68,43.879c-0.778,16 -2.542,31.679 -25.443,31.575c-18.079,-0.083 -35.686,-0.199 -45.816,-0.346Z" style="fill:#fd9203;"/><clipPath id="_clip3"><path id="Body1" serif:id="Body" d="M131.199,247.071c-16.698,-0.242 -46.974,-0.64 -51.871,-0.71c-6.677,-0.095 1.173,-30.657 -3.405,-42.341c-4.578,-11.684 -14.143,-33.71 -8.94,-49.01c5.203,-15.299 35.186,-2.869 50.247,-5.945c15.061,-3.076 28.943,-8.656 39.731,-7.821c3.066,0.237 4.796,8.252 7.026,11.82c2.575,4.123 9.963,12.365 16.791,18.899c11.379,10.89 22.458,27.879 21.68,43.879c-0.778,16 -2.542,31.679 -25.443,31.575c-18.079,-0.083 -35.686,-0.199 -45.816,-0.346Z"/></clipPath><g clip-path="url(#_clip3)"><path d="M63.236,149.449c-2.5,5.431 -6.606,20.407 -3.678,27.911c2.928,7.504 4.106,12.951 10.087,18.816c5.981,5.865 6.535,18.961 6.803,23.686c0.268,4.724 -2.536,13.224 1.214,12.726c3.749,-0.498 8.552,3.246 10.159,-5.592c1.607,-8.838 2.856,-12.742 0.571,-23.99c-2.285,-11.249 -0.732,-14.189 3.607,-19.186c4.338,-4.998 20.782,7.246 25.585,4.724c4.802,-2.523 7.159,2.908 7.159,2.908c0,0 1.928,21.339 1.125,25.453c-0.804,4.114 -0.5,14.124 3.374,10.814c3.875,-3.31 5.321,-12.791 7.588,-19.073c2.268,-6.283 1.286,-17.226 5.785,-20.665c4.499,-3.438 6.677,-2.78 7.57,-8.259c0.893,-5.479 2.696,10.376 9.496,9.264c9.269,-1.516 15.125,1.631 20.035,5.969c4.91,4.339 11.819,11.12 16.372,13.835c4.553,2.716 8.409,12.341 8.409,12.341c0,-0 5.964,-24.039 -2.821,-36.363c-8.784,-12.325 -27.691,-41.49 -35.261,-46.198c-7.571,-4.708 -18.765,0.113 -18.765,0.113c-0,-0 -81.915,5.334 -84.414,10.766Z" style="fill:#ffaf32;"/><path d="M167.295,137.021c6.652,15.381 -3.539,22.004 -9.305,27.946" style="fill:none;stroke:#e87f00;stroke-width:14.35px;"/><path d="M178.781,157.226c5.179,15.937 -5.59,21.575 -11.888,26.949" style="fill:none;stroke:#e87f00;stroke-width:14.35px;"/><path d="M195.058,167.726c5.901,15.684 -4.599,21.807 -10.645,27.463" style="fill:none;stroke:#e87f00;stroke-width:14.35px;"/><path d="M81.075,142.202c-2.053,8.115 -6.529,17.676 -5.764,22.829c0.765,5.154 3.175,9.917 7.932,11.845c4.757,1.928 9.845,8.069 13.493,11.191c3.647,3.122 3.341,8.838 9.909,8.505c6.568,-0.333 14.729,-3.099 16.107,-12.476c1.377,-9.378 0.37,-17.756 4.897,-21.464c4.527,-3.707 12.243,-9.239 4.604,-11.374c-7.639,-2.135 -49.125,-17.17 -51.178,-9.056Z" style="fill:#fff;"/><path d="M123.275,185.037c2.231,13.509 2.614,30.461 1.466,41.055c-1.148,10.594 -0.625,9.01 -1.02,11.34c-0.395,2.33 13.633,5.555 13.633,5.555l6.568,-1.124c-0,-0 -2.538,-7.438 -2.768,-18.135c-0.229,-10.697 5.79,-20.821 6.951,-25.113c1.16,-4.293 4.705,-16.459 1.989,-19.776" style="fill:none;stroke:#000;stroke-width:2.15px;"/><path d="M96.315,196.446c2.232,9.606 2.653,24.481 2.257,30.576c-0.395,6.095 -2.78,9.664 -2.78,9.664" style="fill:none;stroke:#000;stroke-width:2.15px;"/></g><path id="Body2" serif:id="Body" d="M131.199,247.071c-16.698,-0.242 -46.974,-0.64 -51.871,-0.71c-6.677,-0.095 1.173,-30.657 -3.405,-42.341c-4.578,-11.684 -14.143,-33.71 -8.94,-49.01c5.203,-15.299 35.186,-2.869 50.247,-5.945c15.061,-3.076 28.943,-8.656 39.731,-7.821c3.066,0.237 4.796,8.252 7.026,11.82c2.575,4.123 9.963,12.365 16.791,18.899c11.379,10.89 22.458,27.879 21.68,43.879c-0.778,16 -2.542,31.679 -25.443,31.575c-18.079,-0.083 -35.686,-0.199 -45.816,-0.346Z" style="fill:none;stroke:#000;stroke-width:2.15px;"/><path id="Left-Leg" serif:id="Left Leg" d="M125.912,232.94l-71.777,-1.234c-0,-0 -6.04,1.541 -5.906,7.662c0.135,6.121 6.54,8.145 6.54,8.145l70.016,0.581l5.381,-13.103l-4.254,-2.051Z" style="fill:#fd9203;"/><clipPath id="_clip4"><path id="Left-Leg1" serif:id="Left Leg" d="M125.912,232.94l-71.777,-1.234c-0,-0 -6.04,1.541 -5.906,7.662c0.135,6.121 6.54,8.145 6.54,8.145l70.016,0.581l5.381,-13.103l-4.254,-2.051Z"/></clipPath><g clip-path="url(#_clip4)"><path d="M46.389,244.518c0,0 48.778,1.393 53.702,0.154c4.924,-1.24 8.508,-2.759 9.312,-5.672c0.804,-2.912 0.213,-7.854 0.213,-7.854l-61.283,-3.422l-4.369,12.105l2.425,4.689Z" style="fill:#ffaf32;"/><path d="M57.706,241.101l-12.42,0.039" style="fill:none;stroke:#000;stroke-width:2.15px;"/><path d="M58.37,236.845l-12.42,0.038" style="fill:none;stroke:#000;stroke-width:2.15px;"/></g><path id="Left-Leg2" serif:id="Left Leg" d="M125.912,232.94l-71.777,-1.234c-0,-0 -6.04,1.541 -5.906,7.662c0.135,6.121 6.54,8.145 6.54,8.145l70.016,0.581l5.381,-13.103l-4.254,-2.051Z" style="fill:none;stroke:#000;stroke-width:2.15px;"/><path d="M154.828,194.289c11.632,2.077 21.471,-7.304 25.435,-10.679c3.964,-3.375 4.002,-7.931 4.002,-7.931c0,0 6.392,2.271 8.217,5.403c1.826,3.131 1.555,7.764 1.555,7.764c-0,-0 -11.108,11.37 -17.938,13.153c-6.83,1.784 -21.712,9.612 -24.523,7.443c-2.811,-2.168 -8.38,-17.23 3.252,-15.153Z" style="fill:#9a5641;"/><clipPath id="_clip5"><path d="M154.828,194.289c11.632,2.077 21.471,-7.304 25.435,-10.679c3.964,-3.375 4.002,-7.931 4.002,-7.931c0,0 6.392,2.271 8.217,5.403c1.826,3.131 1.555,7.764 1.555,7.764c-0,-0 -11.108,11.37 -17.938,13.153c-6.83,1.784 -21.712,9.612 -24.523,7.443c-2.811,-2.168 -8.38,-17.23 3.252,-15.153Z"/></clipPath><g clip-path="url(#_clip5)"><path d="M165.621,189.387c8.475,-1.524 25.737,1.588 25.113,6.705c-0.623,5.117 8.048,-11.132 8.048,-11.132l-19.196,-13.916c-0,0 -22.44,19.867 -13.965,18.343Z" style="fill:#ad644d;"/></g><path d="M154.828,194.289c11.632,2.077 21.471,-7.304 25.435,-10.679c3.964,-3.375 4.002,-7.931 4.002,-7.931c0,0 6.392,2.271 8.217,5.403c1.826,3.131 1.555,7.764 1.555,7.764c-0,-0 -11.108,11.37 -17.938,13.153c-6.83,1.784 -21.712,9.612 -24.523,7.443c-2.811,-2.168 -8.38,-17.23 3.252,-15.153Z" style="fill:none;stroke:#2d1c17;stroke-width:1.33px;"/><path d="M63.155,157.226c-0.085,9.933 1.35,40.397 2.32,49.124c0.97,8.726 1.868,29.417 -0,33.845c-1.868,4.427 65.281,1.253 72.211,0.816c6.93,-0.436 16.184,-0.816 16.184,-0.816c-0,-0 -2.321,-24.968 0.144,-40.844c2.465,-15.876 5.987,-33.425 9.238,-36.287c3.251,-2.861 0.898,-15.553 0.898,-15.553l-3.566,-2.785c-0,0 -97.343,2.567 -97.429,12.5Z" style="fill:#9a5641;"/><clipPath id="_clip6"><path d="M63.155,157.226c-0.085,9.933 1.35,40.397 2.32,49.124c0.97,8.726 1.868,29.417 -0,33.845c-1.868,4.427 65.281,1.253 72.211,0.816c6.93,-0.436 16.184,-0.816 16.184,-0.816c-0,-0 -2.321,-24.968 0.144,-40.844c2.465,-15.876 5.987,-33.425 9.238,-36.287c3.251,-2.861 0.898,-15.553 0.898,-15.553l-3.566,-2.785c-0,0 -97.343,2.567 -97.429,12.5Z"/></clipPath><g clip-path="url(#_clip6)"><path d="M51,156.716c-0,-0 -3.761,85.05 6.06,87.953c9.82,2.904 29.284,7.941 37.482,1.476c8.199,-6.465 2.906,-42.702 1.694,-51.043c-1.212,-8.341 -7.629,-8.855 -14.17,-14.421c-6.541,-5.566 -18.198,-10.78 -20.158,-15.656c-1.961,-4.877 -10.908,-8.309 -10.908,-8.309Z" style="fill:#ad644d;"/></g><path d="M63.155,157.226c-0.085,9.933 1.35,40.397 2.32,49.124c0.97,8.726 1.868,29.417 -0,33.845c-1.868,4.427 65.281,1.253 72.211,0.816c6.93,-0.436 16.184,-0.816 16.184,-0.816c-0,-0 -2.321,-24.968 0.144,-40.844c2.465,-15.876 5.987,-33.425 9.238,-36.287c3.251,-2.861 0.898,-15.553 0.898,-15.553l-3.566,-2.785c-0,0 -97.343,2.567 -97.429,12.5Z" style="fill:none;stroke:#2e201c;stroke-width:2.39px;"/><path d="M148.108,177.261c0.484,0.176 0.733,0.711 0.557,1.195c-0.694,1.908 -2.335,6.415 -3.029,8.322c-0.176,0.485 -0.711,0.734 -1.196,0.558c-2.341,-0.852 -8.721,-3.174 -11.062,-4.026c-0.484,-0.177 -0.734,-0.712 -0.558,-1.196c0.694,-1.907 2.335,-6.415 3.029,-8.322c0.176,-0.484 0.712,-0.734 1.196,-0.558c2.341,0.852 8.721,3.175 11.063,4.027Z" style="fill:#c18775;stroke:#2e201c;stroke-width:1.33px;"/><path d="M138.202,175.892l2.107,-3.881" style="fill:none;stroke:#2e201c;stroke-width:1.33px;"/><path d="M142.253,176.99l1.808,-3.51" style="fill:none;stroke:#2e201c;stroke-width:1.33px;"/><path d="M145.757,178.278l1.647,-3.679" style="fill:none;stroke:#2e201c;stroke-width:1.33px;"/><path d="M134.924,182.206l-2.007,3.168" style="fill:none;stroke:#2e201c;stroke-width:1.33px;"/><path d="M138.171,183.383l-1.714,3.356" style="fill:none;stroke:#2e201c;stroke-width:1.33px;"/><path d="M142.094,184.788l-1.114,3.564" style="fill:none;stroke:#2e201c;stroke-width:1.33px;"/><path d="M146.07,180.736l3.801,0.803" style="fill:none;stroke:#2e201c;stroke-width:1.33px;"/><path d="M144.902,183.606l3.483,1.876" style="fill:none;stroke:#2e201c;stroke-width:1.33px;"/><path d="M133.181,174.471l3.561,2.666" style="fill:none;stroke:#2e201c;stroke-width:1.33px;"/><path d="M131.901,178.489l3.825,1.072" style="fill:none;stroke:#2e201c;stroke-width:1.33px;"/><path d="M117.924,228.815c0,0 -0.236,-19.301 -0.393,-21.021c-0.157,-1.719 -3.35,-3.811 -3.816,-5.732c-0.398,-1.637 0.152,-6.729 1.314,-7.983c1.162,-1.254 2.73,0.678 2.73,0.678c0,-0 -1.614,3.652 -1.282,5.345c0.403,2.05 0.634,3.57 2.819,3.293c1.888,-0.239 2.37,-2.027 2.455,-4.036c0.086,-2.008 -1.35,-4.088 -1.05,-4.367c0.299,-0.279 1.592,-1.37 2.69,-0.735c1.098,0.635 1.971,6.752 1.415,8.485c-0.556,1.732 -3.819,4.971 -3.819,4.971l0.366,19.896l-3.429,1.206Z" style="fill:#503831;stroke:#2e201c;stroke-width:1.33px;"/><path d="M94.809,196.634l0.392,4.484c-0,-0 -3.119,1.412 -3.984,2.871c-0.864,1.46 4.26,18.873 4.26,18.873l5.16,-0.321l2.255,-19.073l-3.084,-2.398l0.089,-4.548l1.925,0.505l0.669,2.88l2.45,2.51l-2.486,21.776l-8.439,0.842l-5.419,-21.366l4.305,-3.786l-0.419,-3.064l2.326,-0.185Z" style="fill:#503831;stroke:#2e201c;stroke-width:1.33px;"/><path d="M122.454,225.346l9.664,-17.317c0,0 -1.975,-1.495 -1.455,-3.047c0.52,-1.552 -0.041,-2.324 -1.218,-2.263c-1.178,0.062 -2.807,0.571 -2.464,-1.355c0.342,-1.926 1.986,-2.93 3.31,-3.172c1.323,-0.243 1.175,2.708 2.106,2.774c0.931,0.066 3.89,-0.538 5.114,0.577c1.233,1.123 1.346,2.761 0.976,3.492c-0.37,0.731 2.184,0.56 2.887,0.983c0.703,0.423 -2.991,4.478 -3.867,5.021c-0.877,0.542 -0.987,-1.55 -1.233,-1.916c-0.246,-0.365 -0.72,-0.1 -1.824,-0.256c-1.104,-0.156 -6.429,14.43 -6.429,14.43l-5.567,2.049Z" style="fill:#503831;stroke:#2e201c;stroke-width:1.33px;"/><path d="M81.763,214.717c11.777,-1.79 47.222,-1.808 52.223,-0.886c4.399,-2.207 -2.813,21.478 -2.813,21.478c-0,0 -42.38,1.971 -46.558,0.043c-1.822,-3.872 -4.932,-16.763 -2.852,-20.635Z" style="fill:#9b4428;"/><clipPath id="_clip7"><path d="M81.763,214.717c11.777,-1.79 47.222,-1.808 52.223,-0.886c4.399,-2.207 -2.813,21.478 -2.813,21.478c-0,0 -42.38,1.971 -46.558,0.043c-1.822,-3.872 -4.932,-16.763 -2.852,-20.635Z"/></clipPath><g clip-path="url(#_clip7)"><path d="M76.539,210.618l8.03,27.759c-0,-0 16.335,0.481 20.755,-0.425c4.42,-0.907 -1.354,-10.13 0.535,-18.448c1.889,-8.317 2.602,-10.162 2.602,-10.162l-31.922,1.276Z" style="fill:#b85c3e;"/></g><path d="M81.763,214.717c11.777,-1.79 47.222,-1.808 52.223,-0.886c4.399,-2.207 -2.813,21.478 -2.813,21.478c-0,0 -42.38,1.971 -46.558,0.043c-1.822,-3.872 -4.932,-16.763 -2.852,-20.635Z" style="fill:none;stroke:#000;stroke-width:1.33px;"/><path id="Right-Lef" serif:id="Right Lef" d="M184.542,199.375c-5.439,-0.333 -17.273,2.715 -20.157,12.452c-2.884,9.737 -1.513,19.815 -4.996,21.576c-3.482,1.76 -28.616,0.489 -31.057,1.156c-2.441,0.666 -7.153,3.369 -8.2,6.108c-1.047,2.74 -1.22,7.199 -1.22,7.199c-0,0 64.926,1.53 65.982,1.111c1.055,-0.42 9.552,-1.164 12.816,-8.281c3.263,-7.116 6.76,-16.52 2.747,-26.923c-4.013,-10.404 -10.476,-14.065 -15.915,-14.398Z" style="fill:#fd9203;"/><clipPath id="_clip8"><path id="Right-Lef1" serif:id="Right Lef" d="M184.542,199.375c-5.439,-0.333 -17.273,2.715 -20.157,12.452c-2.884,9.737 -1.513,19.815 -4.996,21.576c-3.482,1.76 -28.616,0.489 -31.057,1.156c-2.441,0.666 -7.153,3.369 -8.2,6.108c-1.047,2.74 -1.22,7.199 -1.22,7.199c-0,0 64.926,1.53 65.982,1.111c1.055,-0.42 9.552,-1.164 12.816,-8.281c3.263,-7.116 6.76,-16.52 2.747,-26.923c-4.013,-10.404 -10.476,-14.065 -15.915,-14.398Z"/></clipPath><g clip-path="url(#_clip8)"><path d="M119.165,245.004c0.704,1.574 14.176,1.39 18.722,1.247c4.547,-0.142 44.464,0.209 46.152,-5.035c1.688,-5.243 -6.478,-7.207 -10.342,-6.839c-3.864,0.367 -20.538,0.521 -23.499,0.779c-2.962,0.257 -20.276,-1.832 -22.738,-0.84c-2.462,0.993 -10.124,6.593 -8.295,10.688Z" style="fill:#ffaf32;"/><path d="M144.293,234.392l21.864,0.189" style="fill:none;stroke:#000;stroke-width:2.15px;"/><path d="M123.51,247.973c0,-0 -0.782,-3.048 1.033,-5.442c1.814,-2.394 6.481,-3.9 6.481,-3.9" style="fill:none;stroke:#000;stroke-width:2.15px;"/></g><path id="Right-Lef2" serif:id="Right Lef" d="M184.542,199.375c-5.439,-0.333 -17.273,2.715 -20.157,12.452c-2.884,9.737 -1.513,19.815 -4.996,21.576c-3.482,1.76 -28.616,0.489 -31.057,1.156c-2.441,0.666 -7.153,3.369 -8.2,6.108c-1.047,2.74 -1.22,7.199 -1.22,7.199c-0,0 64.926,1.53 65.982,1.111c1.055,-0.42 9.552,-1.164 12.816,-8.281c3.263,-7.116 6.76,-16.52 2.747,-26.923c-4.013,-10.404 -10.476,-14.065 -15.915,-14.398Z" style="fill:none;stroke:#000;stroke-width:2.15px;"/><path d="M67.718,148.602c-5.39,3.439 -7.001,3.298 -6.702,8.944c0.3,5.647 8.085,11.113 12.947,13.346c4.863,2.233 30.223,17.889 30.223,17.889c-0,0 20.082,-19.695 33.942,-23.912c13.859,-4.217 23.259,-15.857 24.006,-20.207c0.747,-4.35 -7.437,-7.982 -7.437,-7.982c-0,-0 -81.589,8.482 -86.979,11.922Z" style="fill:#c84231;stroke:#342b25;stroke-width:2.65px;"/><path d="M63.455,152.043c3.707,8.455 11.507,12.456 20.589,16.159c9.083,3.704 19.308,2.896 20.142,6.643c0.833,3.747 44.594,-20.01 50.205,-24.157c0.918,-1.455 9.588,-10.065 1.448,-10.869c-24.033,-2.374 -95.154,5.908 -92.384,12.224Z" style="fill:#a23325;"/><g id="Head"><g id="Face"><path id="Face-Colors" serif:id="Face Colors" d="M104.119,164.86c31.846,0.443 56.077,-16.358 57.648,-41.132c1.05,-16.562 -3.386,-23.611 -3.154,-24.122c2.715,-5.99 6.194,-10.016 5.642,-20.962c-0.47,-9.294 -1.132,-24.308 -6.187,-25.878c-5.558,-1.727 -27.647,17.948 -27.647,17.948c0,0 -10.391,-3.639 -25.558,-4.081c-10.19,-0.297 -26.853,3.712 -26.853,3.712c0,-0 -19.914,-20.64 -27.834,-17.74c-5.113,1.872 -4.017,18.27 -3.785,27.301c0.184,7.179 2.714,16.269 2.722,19.105c0.009,2.836 -3.159,7.724 -2.892,23.324c0.482,28.185 26.053,42.082 57.898,42.525Z" style="fill:#ffaf32;"/><clipPath id="_clip9"><path id="Face-Colors1" serif:id="Face Colors" d="M104.119,164.86c31.846,0.443 56.077,-16.358 57.648,-41.132c1.05,-16.562 -3.386,-23.611 -3.154,-24.122c2.715,-5.99 6.194,-10.016 5.642,-20.962c-0.47,-9.294 -1.132,-24.308 -6.187,-25.878c-5.558,-1.727 -27.647,17.948 -27.647,17.948c0,0 -10.391,-3.639 -25.558,-4.081c-10.19,-0.297 -26.853,3.712 -26.853,3.712c0,-0 -19.914,-20.64 -27.834,-17.74c-5.113,1.872 -4.017,18.27 -3.785,27.301c0.184,7.179 2.714,16.269 2.722,19.105c0.009,2.836 -3.159,7.724 -2.892,23.324c0.482,28.185 26.053,42.082 57.898,42.525Z"/></clipPath><g clip-path="url(#_clip9)"><path d="M117.968,54.573l-0.393,26.94" style="fill:none;stroke:#e87f00;stroke-width:10.76px;"/><path d="M90.999,54.469l-0.393,26.939" style="fill:none;stroke:#e87f00;stroke-width:10.76px;"/><path d="M104.3,60.511l-0.392,26.939" style="fill:none;stroke:#e87f00;stroke-width:10.76px;"/><path d="M43.748,131.317c0,0 11.954,8.605 22.113,7.641c10.159,-0.964 24.817,-8.412 38.761,-7.882c13.944,0.531 22.532,8.661 34.726,8.292c12.194,-0.37 28.085,-6.444 28.085,-6.444c-0,0 -14.016,21.203 -19.613,25.349c-5.597,4.145 -46.108,11.858 -53.545,10.002c-7.436,-1.855 -37.225,-12.485 -43.233,-20.415c-6.008,-7.93 -7.294,-16.543 -7.294,-16.543Z" style="fill:#fff;"/><path d="M103.676,72.177c26.986,-0.097 41.686,9.183 40.993,8.299c-3.118,-3.975 -8.66,-4.162 -9.061,-7.568c-0.368,-3.115 6.436,-9.007 9.944,-10.927c3.509,-1.92 9.543,-5.921 11.873,-4.772c2.33,1.149 3.321,9.786 4.901,11.794c1.58,2.009 4.767,-8.942 4.767,-8.942c0,-0 -0.821,-17.732 -11.034,-13.225c-10.212,4.508 -23.272,22.247 -26.343,21.163c-3.071,-1.085 -18.39,-4.548 -24.059,-4.17c-5.668,0.378 -25.442,3.479 -25.442,3.479c0,-0 -23.317,-17.595 -27.959,-17.202c-4.642,0.394 -6.704,0.426 -6.704,4.17c-0,3.744 1.624,16.197 1.624,16.197c0,0 2.062,-14.277 4.08,-14.775c2.017,-0.498 11.069,3.792 12.989,5.656c1.919,1.864 10.194,8.364 9.57,10.742c-0.625,2.378 -8.49,5.785 -10.802,7.705c-2.312,1.92 -10.32,11.064 -11.891,15.33c-1.571,4.266 -5.24,13.915 -5.169,18.864c0.072,4.95 1.107,8.814 1.107,8.814c0,0 1.196,-24.36 14.141,-35.255c12.944,-10.894 23.487,-15.309 42.475,-15.377Z" style="fill:#ffc783;"/><clipPath id="_clip10"><path d="M103.676,72.177c26.986,-0.097 41.686,9.183 40.993,8.299c-3.118,-3.975 -8.66,-4.162 -9.061,-7.568c-0.368,-3.115 6.436,-9.007 9.944,-10.927c3.509,-1.92 9.543,-5.921 11.873,-4.772c2.33,1.149 3.321,9.786 4.901,11.794c1.58,2.009 4.767,-8.942 4.767,-8.942c0,-0 -0.821,-17.732 -11.034,-13.225c-10.212,4.508 -23.272,22.247 -26.343,21.163c-3.071,-1.085 -18.39,-4.548 -24.059,-4.17c-5.668,0.378 -25.442,3.479 -25.442,3.479c0,-0 -23.317,-17.595 -27.959,-17.202c-4.642,0.394 -6.704,0.426 -6.704,4.17c-0,3.744 1.624,16.197 1.624,16.197c0,0 2.062,-14.277 4.08,-14.775c2.017,-0.498 11.069,3.792 12.989,5.656c1.919,1.864 10.194,8.364 9.57,10.742c-0.625,2.378 -8.49,5.785 -10.802,7.705c-2.312,1.92 -10.32,11.064 -11.891,15.33c-1.571,4.266 -5.24,13.915 -5.169,18.864c0.072,4.95 1.107,8.814 1.107,8.814c0,0 1.196,-24.36 14.141,-35.255c12.944,-10.894 23.487,-15.309 42.475,-15.377Z"/></clipPath><g clip-path="url(#_clip10)"><path d="M104.3,60.511l-0.392,26.939" style="fill:none;stroke:#ffaf32;stroke-width:10.76px;"/><path d="M90.999,54.469l-0.393,26.939" style="fill:none;stroke:#ffaf32;stroke-width:10.76px;"/><path d="M117.968,54.573l-0.393,26.94" style="fill:none;stroke:#ffaf32;stroke-width:10.76px;"/></g></g><path d="M139.768,75.929c1.47,-3.493 9.744,-12.385 15.452,-14.317c0,-0 4.357,9.416 3.821,13.794c-0.535,4.379 -3.303,17.194 -3.303,17.194c0,-0 -6.74,-8.98 -8.882,-11.136c-3.25,-3.27 -7.088,-5.535 -7.088,-5.535Z" style="fill:#f66978;"/><clipPath id="_clip11"><path d="M139.768,75.929c1.47,-3.493 9.744,-12.385 15.452,-14.317c0,-0 4.357,9.416 3.821,13.794c-0.535,4.379 -3.303,17.194 -3.303,17.194c0,-0 -6.74,-8.98 -8.882,-11.136c-3.25,-3.27 -7.088,-5.535 -7.088,-5.535Z"/></clipPath><g clip-path="url(#_clip11)"><path d="M155.327,61.804l-6.954,5.383c0,0 -1.839,6.42 0.42,8.019c2.258,1.598 4.696,3.245 4.696,3.245c-0,0 -0.866,2.114 1.142,3.407c2.009,1.294 3.973,0.362 3.973,0.362c-0,-0 0.821,-7.866 0.062,-11.562c-0.759,-3.696 -3.339,-8.854 -3.339,-8.854Z" style="fill:#ff969f;"/></g><path d="M68.941,74.86c-1.47,-3.492 -9.476,-11.622 -15.184,-13.554c-0,0 -3.741,10.381 -3.803,14.052c-0.075,4.411 2.24,14.864 2.24,14.864c0,-0 7.517,-7.67 9.659,-9.826c3.25,-3.27 7.088,-5.536 7.088,-5.536Z" style="fill:#f66978;"/><clipPath id="_clip12"><path d="M68.941,74.86c-1.47,-3.492 -9.476,-11.622 -15.184,-13.554c-0,0 -3.741,10.381 -3.803,14.052c-0.075,4.411 2.24,14.864 2.24,14.864c0,-0 7.517,-7.67 9.659,-9.826c3.25,-3.27 7.088,-5.536 7.088,-5.536Z"/></clipPath><g clip-path="url(#_clip12)"><path d="M61.352,64.407c0,0 1.009,6.179 -0.616,8.533c-1.624,2.354 -4.615,4.29 -4.615,4.29c0,0 1.143,2.7 -1.473,4.001c-2.615,1.302 -4.704,3.311 -5.552,1.077c-0.848,-2.234 1.66,-18.696 4.07,-21.195c2.411,-2.498 8.186,3.294 8.186,3.294Z" style="fill:#ff969f;"/></g><g id="Face-Outline" serif:id="Face Outline"><path id="Face1" serif:id="Face" d="M139.087,75.316c14.986,9.222 21.208,24.841 22.816,40.586c2.848,27.897 -20.842,49.468 -57.784,48.958c-41.218,-0.569 -59.398,-20.928 -57.783,-48.958c1.178,-20.453 9.169,-34.195 23.483,-41.788" style="fill:none;stroke:#000;stroke-width:2.27px;"/><path d="M69.819,74.114c0,0 -12.682,-12.699 -15.275,-12.77c-2.592,-0.07 -4.27,10.972 -4.135,15.934c0.136,4.962 2.065,13.06 2.065,13.06" style="fill:none;stroke:#000;stroke-width:2.27px;"/><path d="M139.087,75.316c0,0 14.119,-14.602 15.776,-13.618c1.657,0.983 4.878,11.222 4.249,17.155c-0.628,5.932 -3.152,14.285 -3.152,14.285" style="fill:none;stroke:#000;stroke-width:2.27px;"/><path d="M131.119,71.374c-0,-0 19.658,-20.897 27.915,-18.045c2.214,0.765 3.639,8.672 4.278,14.809c0.528,5.079 0.371,17.618 -0.379,21.513c-0.75,3.895 -4.078,10.316 -4.078,10.316" style="fill:none;stroke:#000;stroke-width:2.27px;"/><path d="M78.53,70.49c0,-0 -18.682,-20.276 -28.549,-17.932c-3.6,0.855 -3.135,12.303 -3.814,19.597c-0.876,9.418 3.391,24.873 3.391,24.873" style="fill:none;stroke:#000;stroke-width:2.27px;"/><path d="M78.53,70.49c7.337,-2.337 15.88,-3.503 25.589,-3.546c10.766,-0.047 19.671,1.572 27,4.43" style="fill:none;stroke:#000;stroke-width:2.27px;"/></g></g><g id="Grin"><path d="M118.076,138.887c-1.223,3.732 -2.374,4.541 -7.348,4.412c-4.974,-0.129 -6.578,-1.271 -6.668,-3.068l-0.001,-1.664" style="fill:none;stroke:#000;stroke-width:2.15px;"/><path d="M90.078,138.955c1.223,3.732 2.375,4.541 7.349,4.411c4.973,-0.129 6.45,-1.343 6.54,-3.14" style="fill:none;stroke:#000;stroke-width:2.15px;"/><path d="M107.827,134.64c1.223,0 2.214,0.991 2.214,2.214c0,0.031 0,0.062 0,0.094c0,1.222 -0.991,2.213 -2.214,2.213c-2.195,0 -5.538,0 -7.733,0c-1.223,0 -2.214,-0.991 -2.214,-2.213c-0,-0.032 -0,-0.063 -0,-0.094c-0,-1.223 0.991,-2.214 2.214,-2.214c2.195,0 5.538,0 7.733,0Z"/></g><path d="M154.842,107.485c0,-0 5.996,-2.528 7.006,-0.496c1.009,2.033 2.082,12.012 1.215,13.69c-0.867,1.679 -6.397,1.989 -6.257,0.909c0.027,-0.207 -1.198,-13.617 -1.964,-14.103Z" style="fill:#503831;stroke:#130813;stroke-width:1.33px;"/><path d="M51.757,107.485c0,-0 -5.996,-2.528 -7.005,-0.496c-1.01,2.033 -2.082,12.012 -1.215,13.69c0.867,1.679 6.397,1.989 6.257,0.909c-0.027,-0.207 1.198,-13.617 1.963,-14.103Z" style="fill:#503831;stroke:#130813;stroke-width:1.33px;"/><path d="M49.655,116.314c0.883,-9.013 2.571,-23.695 15.689,-24.385c13.118,-0.69 23.117,-0.882 27.386,1.259c4.269,2.142 4.091,6.096 11.06,5.992c6.969,-0.105 6.158,-3.152 10.872,-5.839c4.714,-2.687 26.076,-4.187 33.107,-0.273c7.031,3.914 11.558,31.216 6.416,38.715c-5.142,7.5 -31.469,13.037 -41.029,3.557c-5.06,-5.019 -5.983,-6.444 -9.806,-6.38c-3.823,0.064 -5.795,7.118 -14.564,9.452c-8.769,2.334 -29.126,4.448 -34.724,-3.356c-3.887,-5.419 -4.992,-12.785 -4.407,-18.742Z" style="fill:#636163;"/><clipPath id="_clip13"><path d="M49.655,116.314c0.883,-9.013 2.571,-23.695 15.689,-24.385c13.118,-0.69 23.117,-0.882 27.386,1.259c4.269,2.142 4.091,6.096 11.06,5.992c6.969,-0.105 6.158,-3.152 10.872,-5.839c4.714,-2.687 26.076,-4.187 33.107,-0.273c7.031,3.914 11.558,31.216 6.416,38.715c-5.142,7.5 -31.469,13.037 -41.029,3.557c-5.06,-5.019 -5.983,-6.444 -9.806,-6.38c-3.823,0.064 -5.795,7.118 -14.564,9.452c-8.769,2.334 -29.126,4.448 -34.724,-3.356c-3.887,-5.419 -4.992,-12.785 -4.407,-18.742Z"/></clipPath><g clip-path="url(#_clip13)"><path d="M70.39,140.539c-7.104,-5.318 -18.422,-3.561 -16.204,-26.783c1.38,-14.453 8.14,-15.997 12.088,-17.409c11.941,-4.271 26.488,0.102 29.173,1.741c2.685,1.64 4.186,3.284 6.924,3.531c7.46,0.675 12.092,-1.22 14.861,-4.514c2.275,-2.708 12.456,-1.766 18.651,-1.759c6.195,0.007 13.829,-0.736 18.254,7.692c1.437,2.737 -0.846,-12.675 -8.482,-14.315c-7.637,-1.64 -85.395,-0.328 -85.395,-0.328c0,0 -16.714,13.211 -16.825,16.291c-0.111,3.08 -2.004,28.874 7.589,33.551c9.593,4.677 26.47,7.62 19.366,2.302Z" style="fill:#939193;"/></g><path d="M49.655,116.314c0.883,-9.013 2.571,-23.695 15.689,-24.385c13.118,-0.69 23.117,-0.882 27.386,1.259c4.269,2.142 4.091,6.096 11.06,5.992c6.969,-0.105 6.158,-3.152 10.872,-5.839c4.714,-2.687 26.076,-4.187 33.107,-0.273c7.031,3.914 11.558,31.216 6.416,38.715c-5.142,7.5 -31.469,13.037 -41.029,3.557c-5.06,-5.019 -5.983,-6.444 -9.806,-6.38c-3.823,0.064 -5.795,7.118 -14.564,9.452c-8.769,2.334 -29.126,4.448 -34.724,-3.356c-3.887,-5.419 -4.992,-12.785 -4.407,-18.742Z" style="fill:none;stroke:#130813;stroke-width:1.33px;"/><g id="Glasses"><path d="M107.948,114.975c-1.076,-0.943 -2.777,-1.715 -4.627,-1.729c-1.851,-0.013 -3.562,0.734 -4.652,1.662c0.023,-3.119 2.12,-5.636 4.68,-5.618c2.561,0.019 4.621,2.566 4.599,5.685Z" style="fill:#575759;stroke:#000;stroke-width:2.15px;"/><g id="Left-Lens" serif:id="Left Lens"><ellipse cx="78.867" cy="117.261" rx="21.791" ry="19.881" style="fill:#575759;"/><clipPath id="_clip14"><ellipse cx="78.867" cy="117.261" rx="21.791" ry="19.881"/></clipPath><g clip-path="url(#_clip14)"><path d="M72.592,132.243c4.076,0.218 12.692,0.942 17.159,-3.208c3.684,-3.423 5.872,-9.258 6.687,-15.082c1.925,5.135 1.115,10.045 -3.87,15.295c-5.972,6.289 -17.167,5.15 -19.976,2.995Z" style="fill:#959a9e;"/><path d="M87.954,99.414c-7.355,0.27 -14.702,-2.06 -23.443,5.601c-3.782,3.315 -6.205,12.196 -5.9,18.07c-2.864,-4.677 -1.495,-11.291 2.791,-17.126c8.179,-11.132 23.385,-8.128 26.552,-6.545Z" style="fill:#959a9e;"/></g><ellipse cx="78.867" cy="117.261" rx="21.791" ry="19.881" style="fill:none;stroke:#000;stroke-width:2.15px;"/><ellipse cx="78.881" cy="117.667" rx="16.448" ry="14.627" style="fill:#404042;"/><clipPath id="_clip15"><ellipse cx="78.881" cy="117.667" rx="16.448" ry="14.627"/></clipPath><g clip-path="url(#_clip15)"><path d="M89.745,103.208l-12.457,33.7l-6.362,-2.352l12.457,-33.7l6.362,2.352Z" style="fill:#fff;"/><path d="M96.998,104.69l-12.457,33.7l-3.366,-1.244l12.457,-33.7l3.366,1.244Z" style="fill:#fff;"/></g><ellipse cx="78.881" cy="117.667" rx="16.448" ry="14.627" style="fill:none;stroke:#000;stroke-width:2.15px;"/></g><g id="Right-Lens" serif:id="Right Lens"><ellipse cx="127.966" cy="117.623" rx="21.791" ry="19.881" style="fill:#575759;"/><clipPath id="_clip16"><ellipse cx="127.966" cy="117.623" rx="21.791" ry="19.881"/></clipPath><g clip-path="url(#_clip16)"><path d="M121.691,132.604c4.076,0.218 12.692,0.942 17.159,-3.207c3.684,-3.423 5.872,-9.258 6.686,-15.083c1.925,5.136 1.115,10.045 -3.87,15.295c-5.972,6.29 -17.166,5.15 -19.975,2.995Z" style="fill:#959a9e;"/><path d="M137.053,99.776c-7.355,0.27 -14.703,-2.06 -23.443,5.601c-3.782,3.315 -6.206,12.196 -5.9,18.069c-2.864,-4.677 -1.496,-11.291 2.791,-17.125c8.178,-11.132 23.385,-8.128 26.552,-6.545Z" style="fill:#959a9e;"/></g><ellipse cx="127.966" cy="117.623" rx="21.791" ry="19.881" style="fill:none;stroke:#000;stroke-width:2.15px;"/><ellipse cx="128.015" cy="117.261" rx="16.448" ry="14.627" style="fill:#404042;"/><clipPath id="_clip17"><ellipse cx="128.015" cy="117.261" rx="16.448" ry="14.627"/></clipPath><g clip-path="url(#_clip17)"><path d="M138.879,102.802l-12.457,33.701l-6.362,-2.352l12.457,-33.701l6.362,2.352Z" style="fill:#fff;"/><path d="M146.133,104.285l-12.457,33.7l-3.366,-1.244l12.457,-33.701l3.366,1.245Z" style="fill:#fff;"/></g><ellipse cx="128.015" cy="117.261" rx="16.448" ry="14.627" style="fill:none;stroke:#000;stroke-width:2.15px;"/></g></g></g></g></g></svg>