<?xml version="1.0" encoding="UTF-8" standalone="no"?><!DOCTYPE svg PUBLIC "-//W3C//DTD SVG 1.1//EN" "http://www.w3.org/Graphics/SVG/1.1/DTD/svg11.dtd"><svg width="100%" height="100%" viewBox="0 0 250 250" version="1.1" xmlns="http://www.w3.org/2000/svg" xmlns:xlink="http://www.w3.org/1999/xlink" xml:space="preserve" xmlns:serif="http://www.serif.com/" style="fill-rule:evenodd;clip-rule:evenodd;stroke-linecap:round;stroke-linejoin:round;stroke-miterlimit:1.5;"><rect id="zeek-ice-cream" x="0" y="0" width="250" height="250" style="fill:none;"/><g id="Zeek"><path id="Tail" d="M200.396,232.021c0,0 10.717,-8.707 9.669,-22.207c-1.049,-13.5 -7.009,-20.533 -9.213,-26.051c-2.204,-5.519 -5.677,-14.41 -5.029,-23.045c0.867,-11.564 6.214,-21.521 10.48,-27.613c2.404,-3.434 5.691,-10.207 0.745,-14.656c-3.28,-2.951 -8.553,-2.699 -11.533,0.245c-2.98,2.943 -12.255,14.986 -13.117,29.622c-1.125,19.112 1.666,31.673 4.853,35.854c3.188,4.18 12.126,20.392 11.717,25.516c-0.408,5.124 1.428,22.335 1.428,22.335Z" style="fill:#fd9203;"/><clipPath id="_clip1"><path id="Tail1" serif:id="Tail" d="M200.396,232.021c0,0 10.717,-8.707 9.669,-22.207c-1.049,-13.5 -7.009,-20.533 -9.213,-26.051c-2.204,-5.519 -5.677,-14.41 -5.029,-23.045c0.867,-11.564 6.214,-21.521 10.48,-27.613c2.404,-3.434 5.691,-10.207 0.745,-14.656c-3.28,-2.951 -8.553,-2.699 -11.533,0.245c-2.98,2.943 -12.255,14.986 -13.117,29.622c-1.125,19.112 1.666,31.673 4.853,35.854c3.188,4.18 12.126,20.392 11.717,25.516c-0.408,5.124 1.428,22.335 1.428,22.335Z"/></clipPath><g clip-path="url(#_clip1)"><path d="M182.739,174.304c3.532,3.28 6.552,5.131 10.18,1.984c3.627,-3.148 5.458,-11.474 6.3,-14.395c0.842,-2.921 6.214,-19.19 9.989,-23.329c3.775,-4.14 8.661,-28.024 0.729,-29.305c-7.932,-1.281 -19.283,1.187 -25.497,10.083c-6.213,8.896 -5.233,51.681 -1.701,54.962Z" style="fill:#ffaf32;"/><path d="M186.645,128.863l18.432,10.864c-0,0 16.61,-22.033 6.049,-26.047c-10.562,-4.015 -17.617,1.898 -20.524,5.451c-2.907,3.554 -3.957,9.732 -3.957,9.732Z" style="fill:#e77f00;"/><path d="M201.727,144.435l-1.662,3.742l-20.666,-9.174l1.661,-3.742l20.667,9.174Z" style="fill:#e77f00;"/><g><path d="M205.168,130.299l-0.389,-5.123l-1.733,2.008l-4.472,-0.348l2.735,2.361l-1.266,1.467l5.125,-0.365Z" style="fill:#ffaf32;"/><path d="M195.456,121.918l0.389,5.123l1.722,-1.996l4.487,0.331l-2.736,-2.361l1.266,-1.467l-5.128,0.37Z" style="fill:#ffaf32;"/></g></g><path id="Tail2" serif:id="Tail" d="M200.396,232.021c0,0 10.717,-8.707 9.669,-22.207c-1.049,-13.5 -7.009,-20.533 -9.213,-26.051c-2.204,-5.519 -5.677,-14.41 -5.029,-23.045c0.867,-11.564 6.214,-21.521 10.48,-27.613c2.404,-3.434 5.691,-10.207 0.745,-14.656c-3.28,-2.951 -8.553,-2.699 -11.533,0.245c-2.98,2.943 -12.255,14.986 -13.117,29.622c-1.125,19.112 1.666,31.673 4.853,35.854c3.188,4.18 12.126,20.392 11.717,25.516c-0.408,5.124 1.428,22.335 1.428,22.335Z" style="fill:none;stroke:#040200;stroke-width:2.09px;"/><path id="Body" d="M132.737,245.663c-16.232,-0.235 -45.663,-0.623 -50.424,-0.691c-6.491,-0.092 1.141,-29.802 -3.31,-41.16c-4.451,-11.359 -13.749,-32.77 -8.691,-47.643c5.058,-14.873 34.205,-2.79 48.846,-5.78c14.641,-2.99 28.137,-8.415 38.624,-7.603c2.98,0.231 4.662,8.022 6.829,11.491c2.504,4.007 9.686,12.02 16.323,18.371c11.063,10.587 21.832,27.102 21.076,42.656c-0.757,15.554 -2.471,30.796 -24.733,30.695c-17.576,-0.08 -34.692,-0.194 -44.54,-0.336Z" style="fill:#fd9203;"/><clipPath id="_clip2"><path id="Body1" serif:id="Body" d="M132.737,245.663c-16.232,-0.235 -45.663,-0.623 -50.424,-0.691c-6.491,-0.092 1.141,-29.802 -3.31,-41.16c-4.451,-11.359 -13.749,-32.77 -8.691,-47.643c5.058,-14.873 34.205,-2.79 48.846,-5.78c14.641,-2.99 28.137,-8.415 38.624,-7.603c2.98,0.231 4.662,8.022 6.829,11.491c2.504,4.007 9.686,12.02 16.323,18.371c11.063,10.587 21.832,27.102 21.076,42.656c-0.757,15.554 -2.471,30.796 -24.733,30.695c-17.576,-0.08 -34.692,-0.194 -44.54,-0.336Z"/></clipPath><g clip-path="url(#_clip2)"><path d="M66.669,150.762c-2.43,5.28 -6.422,19.838 -3.575,27.133c2.846,7.295 3.992,12.59 9.806,18.292c5.815,5.701 6.353,18.432 6.613,23.025c0.26,4.592 -2.465,12.856 1.18,12.371c3.645,-0.484 8.314,3.156 9.876,-5.436c1.562,-8.591 2.777,-12.387 0.555,-23.321c-2.221,-10.935 -0.711,-13.793 3.506,-18.651c4.218,-4.858 20.203,7.045 24.872,4.592c4.669,-2.452 6.96,2.827 6.96,2.827c-0,0 1.874,20.745 1.093,24.744c-0.781,3.999 -0.486,13.73 3.281,10.512c3.766,-3.218 5.172,-12.434 7.376,-18.541c2.204,-6.108 1.25,-16.746 5.624,-20.089c4.373,-3.342 6.491,-2.702 7.359,-8.029c0.867,-5.326 2.621,10.087 9.23,9.006c9.011,-1.474 14.704,1.585 19.477,5.803c4.773,4.217 11.49,10.809 15.916,13.449c4.426,2.64 8.175,11.997 8.175,11.997c-0,-0 5.797,-23.369 -2.743,-35.35c-8.539,-11.981 -26.919,-40.332 -34.278,-44.909c-7.36,-4.577 -18.242,0.109 -18.242,0.109c0,0 -79.631,5.186 -82.061,10.466Z" style="fill:#ffaf32;"/><path d="M167.828,138.681c6.466,14.952 -3.441,21.39 -9.046,27.166" style="fill:none;stroke:#e87f00;stroke-width:13.95px;"/><path d="M178.993,158.323c5.034,15.493 -5.434,20.973 -11.557,26.197" style="fill:none;stroke:#e87f00;stroke-width:13.95px;"/><path d="M194.816,168.53c5.737,15.247 -4.47,21.199 -10.348,26.698" style="fill:none;stroke:#e87f00;stroke-width:13.95px;"/><path d="M84.011,143.718c-1.996,7.888 -6.347,17.182 -5.603,22.192c0.744,5.01 3.087,9.64 7.711,11.515c4.624,1.874 9.571,7.844 13.116,10.879c3.546,3.034 3.249,8.591 9.633,8.267c6.385,-0.323 14.319,-3.012 15.658,-12.128c1.339,-9.116 0.36,-17.261 4.761,-20.865c4.401,-3.604 11.901,-8.982 4.475,-11.057c-7.426,-2.075 -47.755,-16.692 -49.751,-8.803Z" style="fill:#fff;"/><path d="M70.312,156.169c0,-0 -5.081,20.391 1.109,33.066c6.19,12.674 7.576,43.265 7.576,43.265l95.185,5.987l25.818,-3.491c-0,-0 8.063,-26.421 -4.402,-44.929c-12.466,-18.508 -31.838,-32.168 -35.584,-44.831c-3.745,-12.664 -11.687,-2.846 -11.687,-2.846l-78.015,13.779Z" style="fill:#fff;stroke:#000;stroke-width:1.45px;"/><path d="M125.034,185.358c2.17,13.132 2.542,29.612 1.426,39.911c-1.116,10.298 -0.607,8.759 -0.992,11.024c-0.384,2.265 13.253,5.4 13.253,5.4l6.385,-1.094c-0,0 -2.467,-7.23 -2.69,-17.629c-0.224,-10.399 5.628,-20.24 6.756,-24.413c1.128,-4.173 4.575,-16 1.934,-19.224" style="fill:none;stroke:#000;stroke-width:2.09px;"/><path d="M98.826,196.449c2.17,9.339 2.579,23.799 2.195,29.724c-0.385,5.924 -2.703,9.394 -2.703,9.394" style="fill:none;stroke:#000;stroke-width:2.09px;"/></g><path id="Body2" serif:id="Body" d="M132.737,245.663c-16.232,-0.235 -45.663,-0.623 -50.424,-0.691c-6.491,-0.092 1.141,-29.802 -3.31,-41.16c-4.451,-11.359 -13.749,-32.77 -8.691,-47.643c5.058,-14.873 34.205,-2.79 48.846,-5.78c14.641,-2.99 28.137,-8.415 38.624,-7.603c2.98,0.231 4.662,8.022 6.829,11.491c2.504,4.007 9.686,12.02 16.323,18.371c11.063,10.587 21.832,27.102 21.076,42.656c-0.757,15.554 -2.471,30.796 -24.733,30.695c-17.576,-0.08 -34.692,-0.194 -44.54,-0.336Z" style="fill:none;stroke:#000;stroke-width:2.09px;"/><path d="M85.272,163.361l20.26,18.344c0,-0 -20.321,-3.886 -26.486,-3.415c-6.166,0.47 -4.877,-18.837 -4.877,-18.837l11.103,3.908Z" style="fill:none;stroke:#000;stroke-width:1.45px;"/><path d="M101.799,183.051c3.186,5.188 6.883,18.092 8.72,25.874c1.836,7.782 1.301,21.758 1.13,24.123c-0.17,2.364 7.127,1.554 7.127,1.554c-0,-0 2.919,-23.565 -1.459,-33.952c-4.378,-10.386 -6.567,-18.081 -6.567,-18.081c-0,0 -12.137,-4.706 -8.951,0.482Z" style="fill:none;stroke:#000;stroke-width:1.45px;"/><ellipse cx="109.57" cy="192.661" rx="1.63" ry="1.625" style="fill:#fff;stroke:#000;stroke-width:0.54px;"/><ellipse cx="112.689" cy="200.229" rx="1.63" ry="1.625" style="fill:#fff;stroke:#000;stroke-width:0.54px;"/><ellipse cx="114.89" cy="207.349" rx="1.63" ry="1.625" style="fill:#fff;stroke:#000;stroke-width:0.54px;"/><ellipse cx="115.742" cy="215.131" rx="1.63" ry="1.625" style="fill:#fff;stroke:#000;stroke-width:0.54px;"/><ellipse cx="115.784" cy="223.257" rx="1.63" ry="1.625" style="fill:#fff;stroke:#000;stroke-width:0.54px;"/><path d="M108.415,182.339l13.778,-17.544l12.769,-3.579c0,-0 1.983,9.073 -2.286,13.396c-4.269,4.324 -24.261,7.727 -24.261,7.727Z" style="fill:none;stroke:#000;stroke-width:1.45px;"/><path d="M108.753,178.819c1.854,-1.998 16.351,-6.301 18.953,-5.535c2.602,0.766 1.703,12.009 -0.437,13.649c-2.141,1.64 -15.636,-0.594 -17.434,-3.115c-1.798,-2.521 -2.936,-3.001 -1.082,-4.999Z" style="fill:#ff001e;stroke:#000;stroke-width:1.95px;"/><path d="M102.509,178.619c-1.854,-1.998 -16.352,-6.302 -18.954,-5.536c-2.602,0.766 -1.702,12.01 0.438,13.65c2.14,1.639 15.635,-0.595 17.434,-3.116c1.798,-2.52 2.936,-3 1.082,-4.998Z" style="fill:#ff001e;stroke:#000;stroke-width:1.95px;"/><path d="M104.194,176.184c-2.499,0.559 -6.191,2.915 -3.406,5.815c2.785,2.9 3.987,5.106 8.212,2.85c3.841,-2.051 3.954,-5.528 1.997,-7.326c-1.958,-1.797 -4.305,-1.898 -6.803,-1.339Z" style="fill:#ff001e;stroke:#000;stroke-width:1.95px;"/><path id="Left-Leg" serif:id="Left Leg" d="M127.598,231.925l-69.776,-1.199c0,-0 -5.871,1.498 -5.741,7.448c0.131,5.951 6.357,7.918 6.357,7.918l68.064,0.565l5.232,-12.737l-4.136,-1.995Z" style="fill:#fd9203;"/><clipPath id="_clip3"><path id="Left-Leg1" serif:id="Left Leg" d="M127.598,231.925l-69.776,-1.199c0,-0 -5.871,1.498 -5.741,7.448c0.131,5.951 6.357,7.918 6.357,7.918l68.064,0.565l5.232,-12.737l-4.136,-1.995Z"/></clipPath><g clip-path="url(#_clip3)"><path d="M50.292,243.181c0,-0 47.418,1.354 52.205,0.149c4.787,-1.205 8.27,-2.682 9.052,-5.513c0.782,-2.831 0.208,-7.635 0.208,-7.635l-59.575,-3.327l-4.248,11.767l2.358,4.559Z" style="fill:#ffaf32;"/><path d="M61.294,239.859l-12.074,0.038" style="fill:none;stroke:#000;stroke-width:2.09px;"/><path d="M61.939,235.722l-12.073,0.037" style="fill:none;stroke:#000;stroke-width:2.09px;"/></g><path id="Left-Leg2" serif:id="Left Leg" d="M127.598,231.925l-69.776,-1.199c0,-0 -5.871,1.498 -5.741,7.448c0.131,5.951 6.357,7.918 6.357,7.918l68.064,0.565l5.232,-12.737l-4.136,-1.995Z" style="fill:none;stroke:#000;stroke-width:2.09px;"/><path id="Right-Lef" serif:id="Right Lef" d="M184.593,199.297c-5.287,-0.324 -16.791,2.639 -19.594,12.104c-2.804,9.466 -1.471,19.263 -4.857,20.974c-3.386,1.712 -27.819,0.476 -30.191,1.124c-2.373,0.648 -6.954,3.275 -7.972,5.939c-1.017,2.663 -1.186,6.998 -1.186,6.998c0,-0 63.116,1.487 64.142,1.079c1.027,-0.408 9.287,-1.131 12.459,-8.049c3.173,-6.919 6.572,-16.06 2.671,-26.173c-3.902,-10.113 -10.184,-13.672 -15.472,-13.996Z" style="fill:#fd9203;"/><clipPath id="_clip4"><path id="Right-Lef1" serif:id="Right Lef" d="M184.593,199.297c-5.287,-0.324 -16.791,2.639 -19.594,12.104c-2.804,9.466 -1.471,19.263 -4.857,20.974c-3.386,1.712 -27.819,0.476 -30.191,1.124c-2.373,0.648 -6.954,3.275 -7.972,5.939c-1.017,2.663 -1.186,6.998 -1.186,6.998c0,-0 63.116,1.487 64.142,1.079c1.027,-0.408 9.287,-1.131 12.459,-8.049c3.173,-6.919 6.572,-16.06 2.671,-26.173c-3.902,-10.113 -10.184,-13.672 -15.472,-13.996Z"/></clipPath><g clip-path="url(#_clip4)"><path d="M121.04,243.653c0.683,1.53 13.78,1.351 18.2,1.213c4.419,-0.139 43.223,0.202 44.864,-4.895c1.641,-5.097 -6.297,-7.006 -10.053,-6.649c-3.756,0.358 -19.965,0.507 -22.844,0.758c-2.88,0.25 -19.71,-1.781 -22.104,-0.816c-2.393,0.965 -9.841,6.409 -8.063,10.389Z" style="fill:#ffaf32;"/><path d="M145.466,233.337l21.255,0.184" style="fill:none;stroke:#000;stroke-width:2.09px;"/><path d="M125.263,246.539c0,0 -0.76,-2.963 1.004,-5.29c1.764,-2.327 6.301,-3.791 6.301,-3.791" style="fill:none;stroke:#000;stroke-width:2.09px;"/></g><path id="Right-Lef2" serif:id="Right Lef" d="M184.593,199.297c-5.287,-0.324 -16.791,2.639 -19.594,12.104c-2.804,9.466 -1.471,19.263 -4.857,20.974c-3.386,1.712 -27.819,0.476 -30.191,1.124c-2.373,0.648 -6.954,3.275 -7.972,5.939c-1.017,2.663 -1.186,6.998 -1.186,6.998c0,-0 63.116,1.487 64.142,1.079c1.027,-0.408 9.287,-1.131 12.459,-8.049c3.173,-6.919 6.572,-16.06 2.671,-26.173c-3.902,-10.113 -10.184,-13.672 -15.472,-13.996Z" style="fill:none;stroke:#000;stroke-width:2.09px;"/><g id="Head"><g id="Face"><path id="Face-Colors" serif:id="Face Colors" d="M106.413,165.744c30.958,0.43 54.514,-15.902 56.041,-39.985c1.021,-16.101 -5.894,-29.656 -5.669,-30.153c2.64,-5.823 1.946,-5.923 1.409,-16.564c-0.457,-9.035 5.578,-20.741 0.664,-22.267c-5.403,-1.679 -26.877,17.448 -26.877,17.448c0,-0 -10.101,-3.538 -24.845,-3.968c-9.906,-0.288 -26.104,3.609 -26.104,3.609c-0,-0 -19.359,-20.064 -27.059,-17.246c-4.969,1.82 -3.905,17.761 -3.679,26.54c0.179,6.979 2.638,15.816 2.647,18.573c0.008,2.757 -3.071,7.508 -2.812,22.673c0.469,27.399 25.326,40.909 56.284,41.34Z" style="fill:#ffaf32;"/><clipPath id="_clip5"><path id="Face-Colors1" serif:id="Face Colors" d="M106.413,165.744c30.958,0.43 54.514,-15.902 56.041,-39.985c1.021,-16.101 -5.894,-29.656 -5.669,-30.153c2.64,-5.823 1.946,-5.923 1.409,-16.564c-0.457,-9.035 5.578,-20.741 0.664,-22.267c-5.403,-1.679 -26.877,17.448 -26.877,17.448c0,-0 -10.101,-3.538 -24.845,-3.968c-9.906,-0.288 -26.104,3.609 -26.104,3.609c-0,-0 -19.359,-20.064 -27.059,-17.246c-4.969,1.82 -3.905,17.761 -3.679,26.54c0.179,6.979 2.638,15.816 2.647,18.573c0.008,2.757 -3.071,7.508 -2.812,22.673c0.469,27.399 25.326,40.909 56.284,41.34Z"/></clipPath><g clip-path="url(#_clip5)"><path d="M119.875,58.532l-0.381,26.188" style="fill:none;stroke:#e87f00;stroke-width:10.46px;"/><path d="M93.659,58.43l-0.382,26.188" style="fill:none;stroke:#e87f00;stroke-width:10.46px;"/><path d="M106.589,64.304l-0.382,26.188" style="fill:none;stroke:#e87f00;stroke-width:10.46px;"/><path d="M47.725,133.136c0,0 11.62,8.365 21.496,7.428c9.876,-0.937 24.125,-8.177 37.681,-7.662c13.555,0.515 21.903,8.42 33.758,8.06c11.854,-0.359 27.301,-6.264 27.301,-6.264c0,0 -13.625,20.612 -19.066,24.642c-5.441,4.03 -44.822,11.528 -52.051,9.724c-7.229,-1.804 -36.188,-12.137 -42.029,-19.846c-5.84,-7.709 -7.09,-16.082 -7.09,-16.082Z" style="fill:#fff;"/><path d="M105.982,75.644c26.234,-0.094 40.524,8.928 39.85,8.068c-3.031,-3.863 -8.418,-4.045 -8.809,-7.357c-0.357,-3.028 6.257,-8.755 9.668,-10.622c3.411,-1.867 9.277,-5.756 11.542,-4.639c2.265,1.117 3.228,9.513 4.764,11.465c1.536,1.953 4.634,-8.693 4.634,-8.693c0,0 -0.798,-17.237 -10.726,-12.855c-9.928,4.381 -22.624,21.626 -25.609,20.572c-2.985,-1.054 -17.877,-4.421 -23.388,-4.054c-5.51,0.367 -24.733,3.382 -24.733,3.382c0,0 -22.667,-17.104 -27.18,-16.722c-4.512,0.383 -6.517,0.414 -6.517,4.054c0,3.64 1.58,15.746 1.58,15.746c-0,-0 2.004,-13.879 3.966,-14.364c1.961,-0.484 10.76,3.687 12.626,5.499c1.866,1.812 9.911,8.13 9.303,10.442c-0.607,2.312 -8.253,5.624 -10.5,7.49c-2.248,1.867 -10.032,10.755 -11.56,14.903c-1.527,4.147 -5.094,13.527 -5.024,18.338c0.069,4.811 1.076,8.568 1.076,8.568c-0,0 1.163,-23.681 13.746,-34.272c12.583,-10.59 22.832,-14.883 41.291,-14.949Z" style="fill:#ffc783;"/><clipPath id="_clip6"><path d="M105.982,75.644c26.234,-0.094 40.524,8.928 39.85,8.068c-3.031,-3.863 -8.418,-4.045 -8.809,-7.357c-0.357,-3.028 6.257,-8.755 9.668,-10.622c3.411,-1.867 9.277,-5.756 11.542,-4.639c2.265,1.117 3.228,9.513 4.764,11.465c1.536,1.953 4.634,-8.693 4.634,-8.693c0,0 -0.798,-17.237 -10.726,-12.855c-9.928,4.381 -22.624,21.626 -25.609,20.572c-2.985,-1.054 -17.877,-4.421 -23.388,-4.054c-5.51,0.367 -24.733,3.382 -24.733,3.382c0,0 -22.667,-17.104 -27.18,-16.722c-4.512,0.383 -6.517,0.414 -6.517,4.054c0,3.64 1.58,15.746 1.58,15.746c-0,-0 2.004,-13.879 3.966,-14.364c1.961,-0.484 10.76,3.687 12.626,5.499c1.866,1.812 9.911,8.13 9.303,10.442c-0.607,2.312 -8.253,5.624 -10.5,7.49c-2.248,1.867 -10.032,10.755 -11.56,14.903c-1.527,4.147 -5.094,13.527 -5.024,18.338c0.069,4.811 1.076,8.568 1.076,8.568c-0,0 1.163,-23.681 13.746,-34.272c12.583,-10.59 22.832,-14.883 41.291,-14.949Z"/></clipPath><g clip-path="url(#_clip6)"><path d="M106.589,64.304l-0.382,26.188" style="fill:none;stroke:#ffaf32;stroke-width:10.46px;"/><path d="M93.659,58.43l-0.382,26.188" style="fill:none;stroke:#ffaf32;stroke-width:10.46px;"/><path d="M119.875,58.532l-0.381,26.188" style="fill:none;stroke:#ffaf32;stroke-width:10.46px;"/></g></g><path d="M141.068,79.292c1.429,-3.395 9.472,-12.04 15.021,-13.918c0,-0 4.235,9.153 3.715,13.41c-0.521,4.257 -3.211,16.714 -3.211,16.714c-0,0 -6.552,-8.729 -8.635,-10.825c-3.159,-3.179 -6.89,-5.381 -6.89,-5.381Z" style="fill:#f66978;"/><clipPath id="_clip7"><path d="M141.068,79.292c1.429,-3.395 9.472,-12.04 15.021,-13.918c0,-0 4.235,9.153 3.715,13.41c-0.521,4.257 -3.211,16.714 -3.211,16.714c-0,0 -6.552,-8.729 -8.635,-10.825c-3.159,-3.179 -6.89,-5.381 -6.89,-5.381Z"/></clipPath><g clip-path="url(#_clip7)"><path d="M156.194,65.561l-6.761,5.233c0,0 -1.787,6.241 0.408,7.795c2.196,1.554 4.565,3.155 4.565,3.155c-0,0 -0.842,2.054 1.111,3.312c1.952,1.257 3.861,0.351 3.861,0.351c0,0 0.799,-7.646 0.061,-11.239c-0.737,-3.593 -3.245,-8.607 -3.245,-8.607Z" style="fill:#ff969f;"/></g><path d="M72.216,78.253c-1.429,-3.395 -9.212,-11.298 -14.762,-13.176c0,-0 -3.636,10.091 -3.696,13.66c-0.073,4.288 2.178,14.449 2.178,14.449c-0,0 7.307,-7.456 9.39,-9.552c3.158,-3.178 6.89,-5.381 6.89,-5.381Z" style="fill:#f66978;"/><clipPath id="_clip8"><path d="M72.216,78.253c-1.429,-3.395 -9.212,-11.298 -14.762,-13.176c0,-0 -3.636,10.091 -3.696,13.66c-0.073,4.288 2.178,14.449 2.178,14.449c-0,0 7.307,-7.456 9.39,-9.552c3.158,-3.178 6.89,-5.381 6.89,-5.381Z"/></clipPath><g clip-path="url(#_clip8)"><path d="M64.839,68.092c-0,-0 0.98,6.006 -0.599,8.294c-1.58,2.289 -4.487,4.171 -4.487,4.171c0,0 1.111,2.624 -1.432,3.89c-2.542,1.265 -4.573,3.217 -5.398,1.046c-0.824,-2.171 1.615,-18.174 3.958,-20.604c2.343,-2.429 7.958,3.203 7.958,3.203Z" style="fill:#ff969f;"/></g><g id="Face-Outline" serif:id="Face Outline"><path id="Face1" serif:id="Face" d="M140.406,78.696c14.568,8.965 20.617,24.148 22.18,39.455c2.768,27.119 -20.261,48.088 -56.173,47.593c-40.069,-0.553 -57.742,-20.345 -56.172,-47.593c1.145,-19.883 8.913,-33.242 22.828,-40.623" style="fill:none;stroke:#000;stroke-width:2.21px;"/><path d="M73.069,77.528c0,0 -12.329,-12.345 -14.849,-12.414c-2.52,-0.069 -4.151,10.666 -4.019,15.489c0.131,4.824 2.007,12.696 2.007,12.696" style="fill:none;stroke:#000;stroke-width:2.21px;"/><path d="M140.406,78.696c0,0 13.725,-14.194 15.336,-13.238c1.611,0.956 4.742,10.909 4.131,16.676c-0.611,5.767 -3.065,13.888 -3.065,13.888" style="fill:none;stroke:#000;stroke-width:2.21px;"/><path d="M81.538,74.004c-0,0 -18.162,-19.71 -27.754,-17.432c-3.499,0.832 -3.047,11.961 -3.707,19.051c-0.853,9.156 3.296,24.18 3.296,24.18" style="fill:none;stroke:#000;stroke-width:2.21px;"/><path d="M81.538,74.004c7.131,-2.271 15.437,-3.404 24.875,-3.446c10.465,-0.047 19.123,1.528 26.247,4.306" style="fill:none;stroke:#000;stroke-width:2.21px;"/></g></g><g id="Grin"><path d="M119.981,140.495c-1.189,3.628 -2.308,4.414 -7.143,4.289c-4.835,-0.126 -6.395,-1.236 -6.483,-2.983l-0.001,-1.618" style="fill:none;stroke:#000;stroke-width:2.09px;"/><path d="M92.764,140.561c1.189,3.628 2.308,4.414 7.143,4.288c4.835,-0.125 6.27,-1.305 6.358,-3.053" style="fill:none;stroke:#000;stroke-width:2.09px;"/><path d="M109.974,136.366c1.213,0 2.196,0.984 2.196,2.196c-0,0.001 -0,0.002 -0,0.003c-0,1.213 -0.983,2.196 -2.196,2.196c-2.12,0 -5.311,0 -7.43,0c-1.213,0 -2.196,-0.983 -2.196,-2.196c-0,-0.001 -0,-0.002 -0,-0.003c-0,-1.212 0.983,-2.196 2.196,-2.196c2.119,0 5.31,0 7.43,0Z"/></g><g id="Glasses"><path d="M110.135,117.25c-1.046,-0.917 -2.699,-1.668 -4.498,-1.681c-1.799,-0.013 -3.463,0.714 -4.522,1.616c0.022,-3.033 2.06,-5.48 4.549,-5.462c2.489,0.018 4.492,2.495 4.471,5.527Z" style="fill:#575759;stroke:#000;stroke-width:2.09px;"/><g id="Left-Lens" serif:id="Left Lens"><ellipse cx="81.865" cy="119.472" rx="21.183" ry="19.327" style="fill:#575759;"/><clipPath id="_clip9"><ellipse cx="81.865" cy="119.472" rx="21.183" ry="19.327"/></clipPath><g clip-path="url(#_clip9)"><path d="M75.765,134.036c3.962,0.212 12.338,0.916 16.68,-3.118c3.582,-3.328 5.709,-9 6.501,-14.662c1.871,4.992 1.083,9.765 -3.763,14.868c-5.805,6.114 -16.688,5.007 -19.418,2.912Z" style="fill:#959a9e;"/><path d="M90.698,102.123c-7.15,0.262 -14.292,-2.003 -22.789,5.444c-3.676,3.223 -6.032,11.856 -5.735,17.566c-2.785,-4.547 -1.454,-10.976 2.713,-16.648c7.95,-10.822 22.733,-7.901 25.811,-6.362Z" style="fill:#959a9e;"/></g><ellipse cx="81.865" cy="119.472" rx="21.183" ry="19.327" style="fill:none;stroke:#000;stroke-width:2.09px;"/><ellipse cx="81.878" cy="119.866" rx="15.99" ry="14.219" style="fill:#404042;"/><clipPath id="_clip10"><ellipse cx="81.878" cy="119.866" rx="15.99" ry="14.219"/></clipPath><g clip-path="url(#_clip10)"><path d="M92.439,105.81l-12.109,32.761l-6.185,-2.286l12.11,-32.761l6.184,2.286Z" style="fill:#fff;"/><path d="M99.491,107.251l-12.11,32.761l-3.272,-1.209l12.11,-32.761l3.272,1.209Z" style="fill:#fff;"/></g><ellipse cx="81.878" cy="119.866" rx="15.99" ry="14.219" style="fill:none;stroke:#000;stroke-width:2.09px;"/></g><g id="Right-Lens" serif:id="Right Lens"><ellipse cx="129.595" cy="119.824" rx="21.183" ry="19.327" style="fill:#575759;"/><clipPath id="_clip11"><ellipse cx="129.595" cy="119.824" rx="21.183" ry="19.327"/></clipPath><g clip-path="url(#_clip11)"><path d="M123.495,134.387c3.962,0.212 12.338,0.916 16.68,-3.118c3.582,-3.328 5.709,-8.999 6.501,-14.662c1.871,4.993 1.083,9.765 -3.763,14.869c-5.805,6.114 -16.688,5.006 -19.418,2.911Z" style="fill:#959a9e;"/><path d="M138.428,102.474c-7.15,0.262 -14.292,-2.003 -22.789,5.445c-3.676,3.223 -6.032,11.856 -5.736,17.566c-2.784,-4.547 -1.453,-10.977 2.713,-16.648c7.951,-10.822 22.734,-7.902 25.812,-6.363Z" style="fill:#959a9e;"/></g><ellipse cx="129.595" cy="119.824" rx="21.183" ry="19.327" style="fill:none;stroke:#000;stroke-width:2.09px;"/><ellipse cx="129.643" cy="119.472" rx="15.99" ry="14.219" style="fill:#404042;"/><clipPath id="_clip12"><ellipse cx="129.643" cy="119.472" rx="15.99" ry="14.219"/></clipPath><g clip-path="url(#_clip12)"><path d="M140.204,105.416l-12.11,32.761l-6.184,-2.286l12.109,-32.761l6.185,2.286Z" style="fill:#fff;"/><path d="M147.255,106.857l-12.109,32.761l-3.272,-1.21l12.109,-32.76l3.272,1.209Z" style="fill:#fff;"/></g><ellipse cx="129.643" cy="119.472" rx="15.99" ry="14.219" style="fill:none;stroke:#000;stroke-width:2.09px;"/></g></g></g><path d="M94.363,39.272c5.597,-0.011 14.035,2.589 17.795,3.985c3.759,1.397 9.405,-5.167 18.881,-5.693c9.477,-0.526 25.1,4.361 28.108,10.269c3.008,5.908 1.826,9.915 1.826,9.915l-58.579,-5.221c0,0 -13.627,-13.244 -8.031,-13.255Z" style="fill:#fff;stroke:#000;stroke-width:1.95px;"/><path d="M85.614,72.861c0,-0 5.501,-26.575 5.012,-32.246c-0.489,-5.672 13.738,3.695 18.739,7.82c5.001,4.125 12.806,4.683 12.806,4.683l-36.557,19.743Z" style="fill:#fff;stroke:#000;stroke-width:1.95px;"/><path d="M92.187,42.348c4.506,0.34 14.566,7.902 15.931,9.651" style="fill:none;stroke:#ff001e;stroke-width:1.95px;"/><path d="M85.614,72.861c3.186,2.192 18.392,10.001 27.2,9.819c8.808,-0.183 27.857,-2.482 33.944,1.235c6.087,3.717 9.739,12.127 9.739,12.127c0,0 10.921,-37.907 5.371,-45.856c-5.55,-7.949 -30.9,-8.755 -46.285,-2.16c-15.385,6.596 -33.155,22.643 -29.969,24.835Z" style="fill:#fff;stroke:#000;stroke-width:1.95px;"/><path d="M88.633,74.277c12.854,-11.773 19.502,-20.353 36.188,-23.501c16.686,-3.147 28.67,-2.309 33.595,2.081c2.617,2.332 4.497,5.717 4.497,5.717" style="fill:none;stroke:#ff001e;stroke-width:1.95px;"/><path d="M85.614,72.861c3.186,2.192 18.392,10.001 27.2,9.819c8.808,-0.183 27.857,-2.482 33.944,1.235c6.087,3.717 9.739,12.127 9.739,12.127c0,0 10.921,-37.907 5.371,-45.856c-5.55,-7.949 -30.9,-8.755 -46.285,-2.16c-15.385,6.596 -33.155,22.643 -29.969,24.835Z" style="fill:none;stroke:#000;stroke-width:1.95px;"/></g></svg>