<?xml version="1.0" encoding="UTF-8" standalone="no"?><!DOCTYPE svg PUBLIC "-//W3C//DTD SVG 1.1//EN" "http://www.w3.org/Graphics/SVG/1.1/DTD/svg11.dtd"><svg width="100%" height="100%" viewBox="0 0 250 250" version="1.1" xmlns="http://www.w3.org/2000/svg" xmlns:xlink="http://www.w3.org/1999/xlink" xml:space="preserve" xmlns:serif="http://www.serif.com/" style="fill-rule:evenodd;clip-rule:evenodd;stroke-linecap:round;stroke-linejoin:round;stroke-miterlimit:1.5;"><rect id="zeek-firstmate" x="0" y="0" width="250" height="250" style="fill:none;"/><g id="Zeek"><path id="Tail" d="M207.051,232.099c-0,-0 11.12,-9.035 10.032,-23.042c-1.088,-14.008 -7.272,-21.305 -9.559,-27.031c-2.286,-5.726 -5.89,-14.951 -5.218,-23.91c0.899,-11.999 6.447,-22.331 10.873,-28.652c2.495,-3.562 5.906,-10.59 0.774,-15.206c-3.404,-3.062 -8.875,-2.8 -11.967,0.254c-3.092,3.054 -12.715,15.549 -13.609,30.736c-1.168,19.83 1.728,32.863 5.035,37.2c3.307,4.338 12.582,21.16 12.158,26.476c-0.425,5.316 1.481,23.175 1.481,23.175Z" style="fill:#fd9203;"/><clipPath id="_clip1"><path id="Tail1" serif:id="Tail" d="M207.051,232.099c-0,-0 11.12,-9.035 10.032,-23.042c-1.088,-14.008 -7.272,-21.305 -9.559,-27.031c-2.286,-5.726 -5.89,-14.951 -5.218,-23.91c0.899,-11.999 6.447,-22.331 10.873,-28.652c2.495,-3.562 5.906,-10.59 0.774,-15.206c-3.404,-3.062 -8.875,-2.8 -11.967,0.254c-3.092,3.054 -12.715,15.549 -13.609,30.736c-1.168,19.83 1.728,32.863 5.035,37.2c3.307,4.338 12.582,21.16 12.158,26.476c-0.425,5.316 1.481,23.175 1.481,23.175Z"/></clipPath><g clip-path="url(#_clip1)"><path d="M188.731,172.212c3.664,3.403 6.798,5.324 10.562,2.058c3.764,-3.266 5.663,-11.904 6.537,-14.935c0.873,-3.031 6.447,-19.911 10.364,-24.206c3.917,-4.295 8.986,-29.077 0.756,-30.406c-8.23,-1.329 -20.007,1.232 -26.454,10.462c-6.448,9.23 -5.43,53.623 -1.765,57.027Z" style="fill:#ffaf32;"/><path d="M192.783,125.064l19.125,11.272c-0,0 17.234,-22.861 6.276,-27.026c-10.958,-4.166 -18.279,1.969 -21.295,5.656c-3.017,3.687 -4.106,10.098 -4.106,10.098Z" style="fill:#e77f00;"/><path d="M208.431,141.221l-1.723,3.882l-21.443,-9.518l1.723,-3.883l21.443,9.519Z" style="fill:#e77f00;"/><g><path d="M211.856,126.578l-0.403,-5.315l-1.798,2.084l-4.641,-0.362l2.839,2.45l-1.314,1.522l5.317,-0.379Z" style="fill:#ffaf32;"/><path d="M201.78,117.882l0.403,5.316l1.787,-2.071l4.655,0.344l-2.838,-2.45l1.313,-1.522l-5.32,0.383Z" style="fill:#ffaf32;"/></g></g><path id="Tail2" serif:id="Tail" d="M207.051,232.099c-0,-0 11.12,-9.035 10.032,-23.042c-1.088,-14.008 -7.272,-21.305 -9.559,-27.031c-2.286,-5.726 -5.89,-14.951 -5.218,-23.91c0.899,-11.999 6.447,-22.331 10.873,-28.652c2.495,-3.562 5.906,-10.59 0.774,-15.206c-3.404,-3.062 -8.875,-2.8 -11.967,0.254c-3.092,3.054 -12.715,15.549 -13.609,30.736c-1.168,19.83 1.728,32.863 5.035,37.2c3.307,4.338 12.582,21.16 12.158,26.476c-0.425,5.316 1.481,23.175 1.481,23.175Z" style="fill:none;stroke:#040200;stroke-width:2.17px;"/><path id="Body" d="M136.85,246.253c-16.843,-0.244 -47.38,-0.646 -52.32,-0.717c-6.735,-0.096 1.184,-30.922 -3.434,-42.707c-4.618,-11.786 -14.266,-34.002 -9.017,-49.434c5.248,-15.432 35.489,-2.894 50.681,-5.997c15.191,-3.102 29.194,-8.731 40.075,-7.888c3.092,0.239 4.838,8.323 7.086,11.922c2.598,4.159 10.05,12.472 16.937,19.062c11.478,10.984 22.652,28.121 21.867,44.259c-0.784,16.138 -2.563,31.954 -25.662,31.848c-18.236,-0.083 -35.996,-0.2 -46.213,-0.348Z" style="fill:#effdff;"/><clipPath id="_clip2"><path id="Body1" serif:id="Body" d="M136.85,246.253c-16.843,-0.244 -47.38,-0.646 -52.32,-0.717c-6.735,-0.096 1.184,-30.922 -3.434,-42.707c-4.618,-11.786 -14.266,-34.002 -9.017,-49.434c5.248,-15.432 35.489,-2.894 50.681,-5.997c15.191,-3.102 29.194,-8.731 40.075,-7.888c3.092,0.239 4.838,8.323 7.086,11.922c2.598,4.159 10.05,12.472 16.937,19.062c11.478,10.984 22.652,28.121 21.867,44.259c-0.784,16.138 -2.563,31.954 -25.662,31.848c-18.236,-0.083 -35.996,-0.2 -46.213,-0.348Z"/></clipPath><g clip-path="url(#_clip2)"><path d="M107.66,249.419c-4.965,-4.7 -11.358,-17.03 -11.011,-29.579c0.347,-12.55 -3.216,-23.49 -3.357,-32.207c-0.142,-8.718 5.711,-12.527 12.027,-12.712c6.316,-0.185 3.357,-8.37 8.22,-14.344c4.862,-5.973 28.955,-10.106 33.084,-8.277c4.129,1.829 9.892,24.022 16.748,26.777c6.856,2.756 23.218,2.061 30.087,4.295c6.869,2.235 16.195,-1.794 18.793,11.589c2.599,13.383 11.822,34.21 -4.129,45.775c-15.95,11.566 -57.344,10.003 -69.912,11.01c-12.567,1.007 -25.585,2.373 -30.55,-2.327Z" style="fill:#c2d8dc;"/><path d="M132.799,179.179c-3.572,5.727 -5.613,3.741 -3.122,12.655c2.491,8.915 -3.331,28.742 1.771,27.081c5.102,-1.662 13.116,-15.371 18.684,-22.286c5.567,-6.915 9.079,-10.994 6.678,-17.221c-2.401,-6.226 -20.725,-6.523 -20.725,-6.523c0,-0 0.285,0.567 -3.286,6.294Z" style="fill:#effdff;"/><path d="M64.012,157.522c9.109,2.958 35.206,12.899 51.684,10.333c16.478,-2.567 52.435,-12.548 53.801,-24.001c1.366,-11.454 5.613,7.266 5.613,7.266c-0,0 1.74,8.833 -9.245,13.561c-10.985,4.727 -24.536,16.829 -52.555,15.221c-28.018,-1.607 -44.526,-9.495 -49.178,-11.44c-4.653,-1.944 -9.23,-13.898 -0.12,-10.94Z" style="fill:#3d51de;"/><path d="M71.786,181.712c9.94,1.917 38.562,8.844 55.76,4.568c17.197,-4.276 54.29,-17.892 54.603,-29.241c0.313,-11.35 6.663,6.506 6.663,6.506c0,0 2.718,8.454 -8.448,14.255c-11.167,5.801 -24.321,19.09 -54.153,20.52c-29.832,1.431 -48.096,-4.516 -53.215,-5.92c-5.12,-1.404 -11.15,-12.605 -1.21,-10.688Z" style="fill:#3d51de;"/><path d="M131.784,216.532c4.067,0.716 14.317,1.148 16.043,-1.351c1.725,-2.498 -1.681,4.147 -0.826,7.307c0.856,3.161 -15.532,0.338 -15.532,0.338c-0,-0 -3.752,-7.01 0.315,-6.294Z" style="fill:#3d51de;"/><path d="M80.505,199.325c7.659,2.455 17.903,4.605 22.105,2.066c1.275,3.004 0.871,6.114 1.876,8.914c0.579,1.615 -18.072,0.911 -21.31,-1.674c-1.459,-1.165 -1.937,-7.243 -2.671,-9.306Z" style="fill:#3d51de;"/><path d="M83.176,215.154c6.108,3.579 18.744,3.985 21.67,1.405c-0.26,2.635 -0.735,10.967 -0.735,10.967c-0,0 -19.404,2.296 -21.4,-4.633c-0.069,-3.671 0.224,-6.453 0.465,-7.739Z" style="fill:#3d51de;"/><path d="M131.769,204.201c3.197,1.577 19.299,-2.229 22.226,-6.43c-1.332,4.137 -3.531,8.843 -3.752,11.143c-2.371,1.405 -15.232,4.349 -17.979,1.891c-1.555,-2.473 -1.052,-5.345 -0.495,-6.604Z" style="fill:#3d51de;"/><path d="M104.87,218.515c2.647,1.199 19.818,5.049 26.616,0.275c-0.126,3.06 -1.31,7.14 -1.134,9.522c-3.251,0.892 -24.501,1.167 -25.491,-2.868c-0.991,-4.036 -0.352,-4.871 0.009,-6.929Z" style="fill:#3d51de;"/><path d="M152.856,200.77c7.674,-0.931 18.174,-7.576 24.674,-12.219c6.501,-4.643 13.698,-8.607 14.402,-12.875c0.102,-0.614 6.032,7.013 5.754,7.938c-0.72,2.39 -6.597,8.879 -12.835,11.738c-6.237,2.858 -26.783,15.386 -35.337,14.401c-0.492,-0.056 2.342,-8.861 3.342,-8.983Z" style="fill:#3d51de;"/><path d="M147.854,217.956c3.5,-0.171 19.884,-2.854 22.115,-6.223c2.232,-3.37 32.085,-14.473 32.903,-21.199c0.07,-0.568 4.698,9.535 4.122,11.909c-0.576,2.373 -16.103,12.551 -22.604,15.555c-6.5,3.004 -33.184,11.628 -36.905,8.775c-1.12,-0.859 -0.391,-8.779 0.369,-8.817Z" style="fill:#3d51de;"/><path d="M104.032,202.955c9.14,2.715 25.334,2.393 26.59,1.556c0.974,4.239 0.227,7.357 0.513,9.871c-4.799,1.507 -24.384,2.634 -26.869,-1.694c-0.111,-2.78 -0.883,-6.587 -0.234,-9.733Z" style="fill:#3d51de;"/><path d="M128.857,183.681c2.251,13.627 2.637,30.726 1.479,41.411c-1.157,10.686 -0.63,9.088 -1.029,11.438c-0.398,2.35 13.751,5.604 13.751,5.604l6.625,-1.135c-0,-0 -2.56,-7.502 -2.792,-18.292c-0.231,-10.789 5.84,-21 7.011,-25.33c1.17,-4.33 4.746,-16.601 2.007,-19.947" style="fill:none;stroke:#000;stroke-width:2.17px;"/><path d="M101.664,195.189c2.251,9.69 2.676,24.694 2.277,30.841c-0.399,6.147 -2.804,9.748 -2.804,9.748" style="fill:none;stroke:#000;stroke-width:2.17px;"/></g><path id="Body2" serif:id="Body" d="M136.85,246.253c-16.843,-0.244 -47.38,-0.646 -52.32,-0.717c-6.735,-0.096 1.184,-30.922 -3.434,-42.707c-4.618,-11.786 -14.266,-34.002 -9.017,-49.434c5.248,-15.432 35.489,-2.894 50.681,-5.997c15.191,-3.102 29.194,-8.731 40.075,-7.888c3.092,0.239 4.838,8.323 7.086,11.922c2.598,4.159 10.05,12.472 16.937,19.062c11.478,10.984 22.652,28.121 21.867,44.259c-0.784,16.138 -2.563,31.954 -25.662,31.848c-18.236,-0.083 -35.996,-0.2 -46.213,-0.348Z" style="fill:none;stroke:#000;stroke-width:2.17px;"/><path id="Left-Leg" serif:id="Left Leg" d="M131.517,231.999l-72.398,-1.245c-0,0 -6.092,1.555 -5.956,7.729c0.135,6.174 6.595,8.215 6.595,8.215l70.622,0.587l5.428,-13.217l-4.291,-2.069Z" style="fill:#fd9203;"/><clipPath id="_clip3"><path id="Left-Leg1" serif:id="Left Leg" d="M131.517,231.999l-72.398,-1.245c-0,0 -6.092,1.555 -5.956,7.729c0.135,6.174 6.595,8.215 6.595,8.215l70.622,0.587l5.428,-13.217l-4.291,-2.069Z"/></clipPath><g clip-path="url(#_clip3)"><path d="M51.306,243.678c0,-0 49.2,1.405 54.167,0.154c4.967,-1.25 8.581,-2.782 9.392,-5.72c0.812,-2.938 0.216,-7.922 0.216,-7.922l-61.814,-3.452l-4.407,12.209l2.446,4.731Z" style="fill:#ffaf32;"/><path d="M62.721,240.231l-12.527,0.039" style="fill:none;stroke:#000;stroke-width:2.17px;"/><path d="M63.391,235.938l-12.527,0.039" style="fill:none;stroke:#000;stroke-width:2.17px;"/></g><path id="Left-Leg2" serif:id="Left Leg" d="M131.517,231.999l-72.398,-1.245c-0,0 -6.092,1.555 -5.956,7.729c0.135,6.174 6.595,8.215 6.595,8.215l70.622,0.587l5.428,-13.217l-4.291,-2.069Z" style="fill:none;stroke:#000;stroke-width:2.17px;"/><path id="Right-Lef" serif:id="Right Lef" d="M190.654,198.144c-5.486,-0.336 -17.422,2.738 -20.331,12.56c-2.909,9.821 -1.526,19.986 -5.039,21.762c-3.513,1.776 -28.864,0.494 -31.326,1.166c-2.462,0.672 -7.215,3.398 -8.271,6.161c-1.055,2.764 -1.231,7.261 -1.231,7.261c0,0 65.488,1.544 66.553,1.121c1.065,-0.423 9.636,-1.174 12.927,-8.353c3.292,-7.178 6.819,-16.663 2.771,-27.156c-4.048,-10.493 -10.567,-14.186 -16.053,-14.522Z" style="fill:#fd9203;"/><clipPath id="_clip4"><path id="Right-Lef1" serif:id="Right Lef" d="M190.654,198.144c-5.486,-0.336 -17.422,2.738 -20.331,12.56c-2.909,9.821 -1.526,19.986 -5.039,21.762c-3.513,1.776 -28.864,0.494 -31.326,1.166c-2.462,0.672 -7.215,3.398 -8.271,6.161c-1.055,2.764 -1.231,7.261 -1.231,7.261c0,0 65.488,1.544 66.553,1.121c1.065,-0.423 9.636,-1.174 12.927,-8.353c3.292,-7.178 6.819,-16.663 2.771,-27.156c-4.048,-10.493 -10.567,-14.186 -16.053,-14.522Z"/></clipPath><g clip-path="url(#_clip4)"><path d="M124.712,244.167c0.71,1.588 14.299,1.403 18.884,1.259c4.586,-0.144 44.848,0.21 46.551,-5.079c1.703,-5.289 -6.534,-7.269 -10.431,-6.899c-3.898,0.371 -20.716,0.526 -23.703,0.786c-2.987,0.26 -20.451,-1.848 -22.934,-0.846c-2.484,1.001 -10.211,6.65 -8.367,10.779Z" style="fill:#ffaf32;"/><path d="M150.057,233.464l22.053,0.19" style="fill:none;stroke:#000;stroke-width:2.17px;"/><path d="M129.095,247.162c-0,-0 -0.789,-3.074 1.041,-5.489c1.83,-2.415 6.537,-3.933 6.537,-3.933" style="fill:none;stroke:#000;stroke-width:2.17px;"/></g><path id="Right-Lef2" serif:id="Right Lef" d="M190.654,198.144c-5.486,-0.336 -17.422,2.738 -20.331,12.56c-2.909,9.821 -1.526,19.986 -5.039,21.762c-3.513,1.776 -28.864,0.494 -31.326,1.166c-2.462,0.672 -7.215,3.398 -8.271,6.161c-1.055,2.764 -1.231,7.261 -1.231,7.261c0,0 65.488,1.544 66.553,1.121c1.065,-0.423 9.636,-1.174 12.927,-8.353c3.292,-7.178 6.819,-16.663 2.771,-27.156c-4.048,-10.493 -10.567,-14.186 -16.053,-14.522Z" style="fill:none;stroke:#000;stroke-width:2.17px;"/><g id="Head"><path d="M170.876,102.259c-0.9,-5.777 -3.344,-8.301 2.161,-14.136c5.506,-5.835 9.275,-5.453 12.928,-7.826c3.653,-2.373 1.054,0.591 0.257,7.039c-0.798,6.448 -3.177,15.143 -6.663,15.779c-3.486,0.637 -7.782,4.921 -8.683,-0.856Z" style="fill:#c62328;"/><clipPath id="_clip5"><path d="M170.876,102.259c-0.9,-5.777 -3.344,-8.301 2.161,-14.136c5.506,-5.835 9.275,-5.453 12.928,-7.826c3.653,-2.373 1.054,0.591 0.257,7.039c-0.798,6.448 -3.177,15.143 -6.663,15.779c-3.486,0.637 -7.782,4.921 -8.683,-0.856Z"/></clipPath><g clip-path="url(#_clip5)"><path d="M171.748,106.741c2.103,-3.195 0.616,-14.108 5.872,-17.095c5.255,-2.988 8.534,-5.809 9.894,-11.939c1.36,-6.131 -13.116,6.234 -13.116,6.234l-6.056,13.536c-0,0 1.302,12.458 3.406,9.264Z" style="fill:#e44247;"/></g><path d="M170.876,102.259c-0.9,-5.777 -3.344,-8.301 2.161,-14.136c5.506,-5.835 9.275,-5.453 12.928,-7.826c3.653,-2.373 1.054,0.591 0.257,7.039c-0.798,6.448 -3.177,15.143 -6.663,15.779c-3.486,0.637 -7.782,4.921 -8.683,-0.856Z" style="fill:none;stroke:#000;stroke-width:2.05px;"/><path d="M173.81,105.188c5.453,1.238 8.785,0.382 11.241,3.253c2.457,2.871 0.18,5.232 2.689,8.578c2.508,3.346 -2.213,-0.162 -6.599,-1.748c-4.386,-1.586 -12.784,-11.321 -7.331,-10.083Z" style="fill:#c62328;"/><clipPath id="_clip6"><path d="M173.81,105.188c5.453,1.238 8.785,0.382 11.241,3.253c2.457,2.871 0.18,5.232 2.689,8.578c2.508,3.346 -2.213,-0.162 -6.599,-1.748c-4.386,-1.586 -12.784,-11.321 -7.331,-10.083Z"/></clipPath><g clip-path="url(#_clip6)"><path d="M175.009,106.528c4.599,2.821 7.452,2.012 8.454,5.295c1.003,3.283 3.481,5.69 6.305,3.19c2.823,-2.5 0.173,-10.861 -3.464,-10.741c-3.636,0.119 -15.893,-0.566 -11.295,2.256Z" style="fill:#e44247;"/></g><path d="M173.81,105.188c5.453,1.238 8.785,0.382 11.241,3.253c2.457,2.871 0.18,5.232 2.689,8.578c2.508,3.346 -2.213,-0.162 -6.599,-1.748c-4.386,-1.586 -12.784,-11.321 -7.331,-10.083Z" style="fill:none;stroke:#000;stroke-width:2.05px;"/><path d="M164.882,112.458c4.438,0.903 5.274,2.605 8.155,-1.47c2.881,-4.075 5.544,-9.158 0.939,-11.635c-4.605,-2.478 -7.744,-3.138 -10.033,-0.926c-2.29,2.211 -3.499,13.128 0.939,14.031Z" style="fill:#c62328;"/><clipPath id="_clip7"><path d="M164.882,112.458c4.438,0.903 5.274,2.605 8.155,-1.47c2.881,-4.075 5.544,-9.158 0.939,-11.635c-4.605,-2.478 -7.744,-3.138 -10.033,-0.926c-2.29,2.211 -3.499,13.128 0.939,14.031Z"/></clipPath><g clip-path="url(#_clip7)"><path d="M164.631,100.968c4.368,2.489 7.122,2.79 7.047,6.26c-0.075,3.47 4.369,1.779 5.821,-0.783c1.452,-2.562 -1.101,-9.434 -4.155,-9.917c-3.054,-0.482 -9.151,-0.083 -9.151,-0.083c-0,0 -3.931,2.033 0.438,4.523Z" style="fill:#e44247;"/></g><path d="M164.882,112.458c4.438,0.903 5.274,2.605 8.155,-1.47c2.881,-4.075 5.544,-9.158 0.939,-11.635c-4.605,-2.478 -7.744,-3.138 -10.033,-0.926c-2.29,2.211 -3.499,13.128 0.939,14.031Z" style="fill:none;stroke:#000;stroke-width:2.05px;"/><g id="Face"><path id="Face-Colors" serif:id="Face Colors" d="M109.536,163.33c32.121,0.447 56.562,-16.499 58.147,-41.488c1.059,-16.705 -3.416,-23.815 -3.182,-24.331c2.739,-6.042 6.248,-10.102 5.691,-21.143c-0.474,-9.375 -1.141,-24.518 -6.24,-26.102c-5.606,-1.742 -27.887,18.104 -27.887,18.104c0,-0 -10.481,-3.671 -25.779,-4.117c-10.278,-0.299 -27.085,3.744 -27.085,3.744c0,0 -20.086,-20.818 -28.075,-17.893c-5.157,1.888 -4.052,18.428 -3.818,27.537c0.186,7.241 2.737,16.41 2.746,19.271c0.009,2.86 -3.186,7.79 -2.917,23.525c0.486,28.429 26.278,42.447 58.399,42.893Z" style="fill:#ffaf32;"/><clipPath id="_clip8"><path id="Face-Colors1" serif:id="Face Colors" d="M109.536,163.33c32.121,0.447 56.562,-16.499 58.147,-41.488c1.059,-16.705 -3.416,-23.815 -3.182,-24.331c2.739,-6.042 6.248,-10.102 5.691,-21.143c-0.474,-9.375 -1.141,-24.518 -6.24,-26.102c-5.606,-1.742 -27.887,18.104 -27.887,18.104c0,-0 -10.481,-3.671 -25.779,-4.117c-10.278,-0.299 -27.085,3.744 -27.085,3.744c0,0 -20.086,-20.818 -28.075,-17.893c-5.157,1.888 -4.052,18.428 -3.818,27.537c0.186,7.241 2.737,16.41 2.746,19.271c0.009,2.86 -3.186,7.79 -2.917,23.525c0.486,28.429 26.278,42.447 58.399,42.893Z"/></clipPath><g clip-path="url(#_clip8)"><path d="M123.504,52.089l-0.396,27.172" style="fill:none;stroke:#e87f00;stroke-width:18.75px;"/><path d="M96.302,51.984l-0.396,27.172" style="fill:none;stroke:#e87f00;stroke-width:18.75px;"/><path d="M109.719,58.078l-0.396,27.172" style="fill:none;stroke:#e87f00;stroke-width:18.75px;"/><path d="M48.643,129.497c-0,0 12.056,8.68 22.303,7.707c10.247,-0.972 25.032,-8.485 39.097,-7.95c14.065,0.535 22.727,8.736 35.027,8.363c12.299,-0.372 28.327,-6.499 28.327,-6.499c0,0 -14.137,21.386 -19.782,25.568c-5.646,4.181 -46.508,11.961 -54.008,10.089c-7.501,-1.872 -37.548,-12.593 -43.608,-20.592c-6.06,-7.998 -7.356,-16.686 -7.356,-16.686Z" style="fill:#fff;"/><path d="M109.088,69.845c27.22,-0.098 42.048,9.263 41.348,8.371c-3.145,-4.009 -8.734,-4.198 -9.139,-7.634c-0.371,-3.142 6.492,-9.084 10.031,-11.021c3.538,-1.937 9.625,-5.973 11.975,-4.814c2.35,1.159 3.35,9.871 4.944,11.897c1.593,2.026 4.808,-9.02 4.808,-9.02c-0,0 -0.828,-17.885 -11.129,-13.339c-10.301,4.546 -23.475,22.44 -26.572,21.346c-3.098,-1.094 -18.549,-4.587 -24.267,-4.206c-5.717,0.381 -25.662,3.509 -25.662,3.509c0,-0 -23.519,-17.748 -28.201,-17.351c-4.683,0.398 -6.763,0.43 -6.763,4.206c0,3.777 1.639,16.338 1.639,16.338c0,-0 2.08,-14.401 4.115,-14.903c2.035,-0.503 11.166,3.825 13.101,5.705c1.936,1.88 10.283,8.436 9.653,10.835c-0.63,2.398 -8.563,5.835 -10.895,7.771c-2.332,1.937 -10.409,11.159 -11.994,15.463c-1.585,4.303 -5.285,14.035 -5.213,19.027c0.072,4.992 1.116,8.89 1.116,8.89c0,0 1.207,-24.571 14.263,-35.559c13.056,-10.989 23.69,-15.443 42.842,-15.511Z" style="fill:#ffc783;"/><clipPath id="_clip9"><path d="M109.088,69.845c27.22,-0.098 42.048,9.263 41.348,8.371c-3.145,-4.009 -8.734,-4.198 -9.139,-7.634c-0.371,-3.142 6.492,-9.084 10.031,-11.021c3.538,-1.937 9.625,-5.973 11.975,-4.814c2.35,1.159 3.35,9.871 4.944,11.897c1.593,2.026 4.808,-9.02 4.808,-9.02c-0,0 -0.828,-17.885 -11.129,-13.339c-10.301,4.546 -23.475,22.44 -26.572,21.346c-3.098,-1.094 -18.549,-4.587 -24.267,-4.206c-5.717,0.381 -25.662,3.509 -25.662,3.509c0,-0 -23.519,-17.748 -28.201,-17.351c-4.683,0.398 -6.763,0.43 -6.763,4.206c0,3.777 1.639,16.338 1.639,16.338c0,-0 2.08,-14.401 4.115,-14.903c2.035,-0.503 11.166,3.825 13.101,5.705c1.936,1.88 10.283,8.436 9.653,10.835c-0.63,2.398 -8.563,5.835 -10.895,7.771c-2.332,1.937 -10.409,11.159 -11.994,15.463c-1.585,4.303 -5.285,14.035 -5.213,19.027c0.072,4.992 1.116,8.89 1.116,8.89c0,0 1.207,-24.571 14.263,-35.559c13.056,-10.989 23.69,-15.443 42.842,-15.511Z"/></clipPath><g clip-path="url(#_clip9)"><path d="M109.719,58.078l-0.396,27.172" style="fill:none;stroke:#ffaf32;stroke-width:18.75px;"/><path d="M96.302,51.984l-0.396,27.172" style="fill:none;stroke:#ffaf32;stroke-width:18.75px;"/><path d="M123.504,52.089l-0.396,27.172" style="fill:none;stroke:#ffaf32;stroke-width:18.75px;"/></g></g><path d="M145.493,73.629c1.483,-3.523 9.828,-12.492 15.586,-14.441c0,0 4.394,9.498 3.854,13.915c-0.54,4.416 -3.332,17.342 -3.332,17.342c0,-0 -6.798,-9.057 -8.959,-11.232c-3.277,-3.298 -7.149,-5.584 -7.149,-5.584Z" style="fill:#f66978;"/><clipPath id="_clip10"><path d="M145.493,73.629c1.483,-3.523 9.828,-12.492 15.586,-14.441c0,0 4.394,9.498 3.854,13.915c-0.54,4.416 -3.332,17.342 -3.332,17.342c0,-0 -6.798,-9.057 -8.959,-11.232c-3.277,-3.298 -7.149,-5.584 -7.149,-5.584Z"/></clipPath><g clip-path="url(#_clip10)"><path d="M161.187,59.383l-7.014,5.429c-0,0 -1.855,6.475 0.423,8.088c2.278,1.613 4.736,3.274 4.736,3.274c0,-0 -0.873,2.131 1.153,3.436c2.026,1.305 4.007,0.365 4.007,0.365c-0,-0 0.828,-7.934 0.063,-11.662c-0.765,-3.728 -3.368,-8.93 -3.368,-8.93Z" style="fill:#ff969f;"/></g><path d="M74.054,72.551c-1.483,-3.522 -9.558,-11.722 -15.317,-13.671c0,0 -3.772,10.47 -3.835,14.174c-0.076,4.449 2.26,14.992 2.26,14.992c-0,0 7.581,-7.736 9.742,-9.911c3.278,-3.298 7.15,-5.584 7.15,-5.584Z" style="fill:#f66978;"/><clipPath id="_clip11"><path d="M74.054,72.551c-1.483,-3.522 -9.558,-11.722 -15.317,-13.671c0,0 -3.772,10.47 -3.835,14.174c-0.076,4.449 2.26,14.992 2.26,14.992c-0,0 7.581,-7.736 9.742,-9.911c3.278,-3.298 7.15,-5.584 7.15,-5.584Z"/></clipPath><g clip-path="url(#_clip11)"><path d="M66.399,62.008c0,0 1.018,6.232 -0.621,8.607c-1.639,2.374 -4.655,4.327 -4.655,4.327c-0,0 1.152,2.723 -1.486,4.036c-2.638,1.313 -4.745,3.339 -5.601,1.086c-0.855,-2.253 1.675,-18.858 4.106,-21.378c2.431,-2.521 8.257,3.322 8.257,3.322Z" style="fill:#ff969f;"/></g><g id="Face-Outline" serif:id="Face Outline"><path id="Face1" serif:id="Face" d="M144.807,73.012c15.115,9.301 21.391,25.055 23.012,40.937c2.873,28.138 -21.022,49.895 -58.283,49.381c-41.575,-0.574 -59.912,-21.109 -58.284,-49.381c1.189,-20.631 9.249,-34.491 23.687,-42.15" style="fill:none;stroke:#000;stroke-width:2.29px;"/><path d="M74.939,71.799c0,0 -12.792,-12.809 -15.407,-12.88c-2.615,-0.072 -4.308,11.066 -4.171,16.071c0.137,5.005 2.083,13.173 2.083,13.173" style="fill:none;stroke:#000;stroke-width:2.29px;"/><path d="M144.807,73.012c-0,-0 14.241,-14.729 15.912,-13.737c1.671,0.992 4.92,11.32 4.286,17.304c-0.634,5.983 -3.18,14.409 -3.18,14.409" style="fill:none;stroke:#000;stroke-width:2.29px;"/><path d="M136.769,69.035c0,-0 19.828,-21.078 28.157,-18.201c2.233,0.772 3.671,8.747 4.314,14.937c0.533,5.123 0.375,17.77 -0.381,21.699c-0.757,3.929 -4.114,10.405 -4.114,10.405" style="fill:none;stroke:#000;stroke-width:2.29px;"/><path d="M83.726,68.143c-0,0 -18.845,-20.45 -28.797,-18.087c-3.63,0.862 -3.162,12.41 -3.847,19.767c-0.884,9.5 3.421,25.088 3.421,25.088" style="fill:none;stroke:#000;stroke-width:2.29px;"/><path d="M83.726,68.143c7.399,-2.357 16.017,-3.532 25.81,-3.576c10.859,-0.048 19.841,1.585 27.233,4.468" style="fill:none;stroke:#000;stroke-width:2.29px;"/></g></g><path d="M109.377,96.47c18.164,0.154 45.857,5.187 51.028,6.958c5.171,1.771 8.567,5.024 8.593,0.972c0.026,-4.052 -10.085,-43.309 -56.778,-43.101c-46.694,0.209 -62.739,24.05 -61.82,45.083c1.422,4.932 28.095,-10.173 58.977,-9.912Z" style="fill:#c62328;"/><clipPath id="_clip12"><path d="M109.377,96.47c18.164,0.154 45.857,5.187 51.028,6.958c5.171,1.771 8.567,5.024 8.593,0.972c0.026,-4.052 -10.085,-43.309 -56.778,-43.101c-46.694,0.209 -62.739,24.05 -61.82,45.083c1.422,4.932 28.095,-10.173 58.977,-9.912Z"/></clipPath><g clip-path="url(#_clip12)"><path d="M49.73,110.127c5.014,-0.739 51.389,-9.861 59.774,-10.133c8.385,-0.272 12.505,0.046 19.824,1.705c7.319,1.66 28.209,4.113 31.067,5.026c2.858,0.913 -34.853,-19.169 -34.121,-30.185c0.732,-11.016 22.348,-7.101 20.532,-15.653c-1.102,-5.194 -75.809,-1.126 -80.332,5.638c-4.524,6.763 -19.72,23.147 -18.591,35.594c1.13,12.448 -3.167,8.747 1.847,8.008Z" style="fill:#e44247;"/></g><path d="M109.377,96.47c18.164,0.154 45.857,5.187 51.028,6.958c5.171,1.771 8.567,5.024 8.593,0.972c0.026,-4.052 -10.085,-43.309 -56.778,-43.101c-46.694,0.209 -62.739,24.05 -61.82,45.083c1.422,4.932 28.095,-10.173 58.977,-9.912Z" style="fill:none;stroke:#000;stroke-width:2.05px;"/><g><path d="M118.685,72.56l-19.473,8.938c0,-0 -2.01,-1.568 -3.755,0.492c-1.745,2.06 1.259,2.57 1.259,2.57c-0,0 -1.164,2.57 1.687,2.441c2.85,-0.129 2.184,-2.927 2.184,-2.927l19.262,-8.928c0,0 3.363,2.283 4.531,0.002c1.168,-2.281 -1.418,-2.993 -1.418,-2.993c0,0 0.492,-2.451 -1.754,-2.692c-2.246,-0.242 -2.523,3.097 -2.523,3.097Z" style="fill:#e0e4ff;"/><path d="M99.875,72.511l18.944,8.695c-0,0 1.944,-2.173 3.629,-0.141c1.684,2.033 -1.221,3.164 -1.221,3.164c0,-0 1.269,2.719 -1.516,2.62c-2.785,-0.099 -2.262,-3.064 -2.262,-3.064l-18.738,-8.688c0,-0 -3.319,2.055 -4.437,-0.203c-1.118,-2.259 1.425,-2.742 1.425,-2.742c-0,-0 -0.881,-2.424 1.317,-2.687c2.198,-0.263 2.859,3.046 2.859,3.046Z" style="fill:#e0e4ff;"/><path d="M105.243,81.965l-2.001,-0c-0.504,-0 -0.987,-0.2 -1.343,-0.557c-0.356,-0.356 -0.557,-0.839 -0.557,-1.342l0,-5.814c0,-0.504 0.201,-0.987 0.557,-1.343c0.356,-0.356 0.839,-0.557 1.343,-0.557l11.441,0c0.504,0 0.987,0.201 1.343,0.557c0.356,0.356 0.556,0.839 0.556,1.343l0,5.814c0,0.503 -0.2,0.986 -0.556,1.342c-0.356,0.357 -0.839,0.557 -1.343,0.557l-2.001,-0l0,1.238c0,0.239 -0.095,0.468 -0.263,0.637c-0.169,0.168 -0.398,0.263 -0.637,0.263l-5.639,0c-0.239,0 -0.468,-0.095 -0.637,-0.263c-0.169,-0.169 -0.263,-0.398 -0.263,-0.637l-0,-1.238Zm7.462,-4.921c-0.694,-0 -1.258,0.496 -1.258,1.107c-0,0.611 0.564,1.107 1.258,1.107c0.695,0 1.259,-0.496 1.259,-1.107c-0,-0.611 -0.564,-1.107 -1.259,-1.107Zm-4.1,4.925c-0,-0.084 -0.068,-0.151 -0.151,-0.151l-0.301,-0c-0.084,-0 -0.151,0.067 -0.151,0.151l-0,1.401c-0,0.084 0.067,0.151 0.151,0.151l0.301,0c0.083,0 0.151,-0.067 0.151,-0.151l-0,-1.401Zm3.371,-0c0,-0.084 -0.067,-0.151 -0.15,-0.151l-0.302,-0c-0.083,-0 -0.151,0.067 -0.151,0.151l0,1.401c0,0.084 0.068,0.151 0.151,0.151l0.302,0c0.083,0 0.15,-0.067 0.15,-0.151l0,-1.401Zm-6.235,-4.925c-0.695,-0 -1.259,0.496 -1.259,1.107c0,0.611 0.564,1.107 1.259,1.107c0.694,0 1.258,-0.496 1.258,-1.107c0,-0.611 -0.564,-1.107 -1.258,-1.107Zm1.178,4.925c-0,-0.084 -0.068,-0.151 -0.151,-0.151l-0.301,-0c-0.083,-0 -0.151,0.067 -0.151,0.151l0,1.401c0,0.084 0.068,0.151 0.151,0.151l0.301,0c0.083,0 0.151,-0.067 0.151,-0.151l-0,-1.401Zm3.372,-0c-0,-0.084 -0.068,-0.151 -0.151,-0.151l-0.302,-0c-0.083,-0 -0.15,0.067 -0.15,0.151l-0,1.401c-0,0.084 0.067,0.151 0.15,0.151l0.302,0c0.083,0 0.151,-0.067 0.151,-0.151l-0,-1.401Z" style="fill:#e0e4ff;stroke:#e44247;stroke-width:2.05px;"/><path d="M105.243,81.965l-2.001,-0c-0.504,-0 -0.987,-0.2 -1.343,-0.557c-0.356,-0.356 -0.557,-0.839 -0.557,-1.342l0,-5.814c0,-0.504 0.201,-0.987 0.557,-1.343c0.356,-0.356 0.839,-0.557 1.343,-0.557l11.441,0c0.504,0 0.987,0.201 1.343,0.557c0.356,0.356 0.556,0.839 0.556,1.343l0,5.814c0,0.503 -0.2,0.986 -0.556,1.342c-0.356,0.357 -0.839,0.557 -1.343,0.557l-2.001,-0l0,1.238c0,0.239 -0.095,0.468 -0.263,0.637c-0.169,0.168 -0.398,0.263 -0.637,0.263l-5.639,0c-0.239,0 -0.468,-0.095 -0.637,-0.263c-0.169,-0.169 -0.263,-0.398 -0.263,-0.637l-0,-1.238Zm7.462,-4.921c-0.694,-0 -1.258,0.496 -1.258,1.107c-0,0.611 0.564,1.107 1.258,1.107c0.695,0 1.259,-0.496 1.259,-1.107c-0,-0.611 -0.564,-1.107 -1.259,-1.107Zm-4.1,4.925c-0,-0.084 -0.068,-0.151 -0.151,-0.151l-0.301,-0c-0.084,-0 -0.151,0.067 -0.151,0.151l-0,1.401c-0,0.084 0.067,0.151 0.151,0.151l0.301,0c0.083,0 0.151,-0.067 0.151,-0.151l-0,-1.401Zm3.371,-0c0,-0.084 -0.067,-0.151 -0.15,-0.151l-0.302,-0c-0.083,-0 -0.151,0.067 -0.151,0.151l0,1.401c0,0.084 0.068,0.151 0.151,0.151l0.302,0c0.083,0 0.15,-0.067 0.15,-0.151l0,-1.401Zm-6.235,-4.925c-0.695,-0 -1.259,0.496 -1.259,1.107c0,0.611 0.564,1.107 1.259,1.107c0.694,0 1.258,-0.496 1.258,-1.107c0,-0.611 -0.564,-1.107 -1.258,-1.107Zm1.178,4.925c-0,-0.084 -0.068,-0.151 -0.151,-0.151l-0.301,-0c-0.083,-0 -0.151,0.067 -0.151,0.151l0,1.401c0,0.084 0.068,0.151 0.151,0.151l0.301,0c0.083,0 0.151,-0.067 0.151,-0.151l-0,-1.401Zm3.372,-0c-0,-0.084 -0.068,-0.151 -0.151,-0.151l-0.302,-0c-0.083,-0 -0.15,0.067 -0.15,0.151l-0,1.401c-0,0.084 0.067,0.151 0.15,0.151l0.302,0c0.083,0 0.151,-0.067 0.151,-0.151l-0,-1.401Z" style="fill:#e0e4ff;"/><ellipse cx="105.632" cy="78.228" rx="1.467" ry="1.299" style="fill:#e44247;"/><ellipse cx="112.789" cy="78.228" rx="1.467" ry="1.299" style="fill:#e44247;"/></g><g id="Grin"><path d="M123.614,137.133c-1.234,3.764 -2.395,4.58 -7.412,4.449c-5.017,-0.13 -6.635,-1.281 -6.726,-3.094l-0.001,-1.679" style="fill:none;stroke:#000;stroke-width:2.17px;"/><path d="M95.374,137.201c1.233,3.764 2.395,4.58 7.411,4.449c5.017,-0.13 6.506,-1.354 6.598,-3.167" style="fill:none;stroke:#000;stroke-width:2.17px;"/><path d="M113.295,132.849c1.223,-0 2.214,0.991 2.214,2.214c0,0.044 0,0.088 0,0.132c0,1.223 -0.991,2.214 -2.214,2.214c-2.22,0 -5.619,0 -7.839,0c-1.222,0 -2.213,-0.991 -2.213,-2.214l-0,-0.132c-0,-1.223 0.991,-2.214 2.213,-2.214c2.22,-0 5.619,-0 7.839,-0Z"/></g><g id="Glasses"><path d="M113.397,113.014c-1.085,-0.952 -2.8,-1.731 -4.667,-1.744c-1.866,-0.014 -3.593,0.74 -4.691,1.676c0.023,-3.146 2.138,-5.685 4.72,-5.666c2.583,0.018 4.661,2.588 4.638,5.734Z" style="fill:#575759;stroke:#000;stroke-width:2.17px;"/><g id="Left-Lens" serif:id="Left Lens"><ellipse cx="84.066" cy="115.32" rx="21.979" ry="20.053" style="fill:#575759;"/><clipPath id="_clip13"><ellipse cx="84.066" cy="115.32" rx="21.979" ry="20.053"/></clipPath><g clip-path="url(#_clip13)"><path d="M77.736,130.431c4.111,0.219 12.802,0.95 17.307,-3.236c3.717,-3.452 5.923,-9.338 6.745,-15.213c1.941,5.18 1.124,10.132 -3.904,15.428c-6.023,6.344 -17.315,5.194 -20.148,3.021Z" style="fill:#959a9e;"/><path d="M93.231,97.318c-7.419,0.272 -14.83,-2.078 -23.646,5.65c-3.814,3.343 -6.259,12.301 -5.951,18.226c-2.889,-4.718 -1.509,-11.389 2.815,-17.274c8.249,-11.229 23.588,-8.199 26.782,-6.602Z" style="fill:#959a9e;"/></g><ellipse cx="84.066" cy="115.32" rx="21.979" ry="20.053" style="fill:none;stroke:#000;stroke-width:2.17px;"/><ellipse cx="84.079" cy="115.729" rx="16.59" ry="14.753" style="fill:#404042;"/><clipPath id="_clip14"><ellipse cx="84.079" cy="115.729" rx="16.59" ry="14.753"/></clipPath><g clip-path="url(#_clip14)"><path d="M95.037,101.144l-12.564,33.992l-6.418,-2.372l12.565,-33.992l6.417,2.372Z" style="fill:#fff;"/><path d="M102.353,102.639l-12.564,33.992l-3.395,-1.254l12.564,-33.992l3.395,1.254Z" style="fill:#fff;"/></g><ellipse cx="84.079" cy="115.729" rx="16.59" ry="14.753" style="fill:none;stroke:#000;stroke-width:2.17px;"/></g><g id="Right-Lens" serif:id="Right Lens"><ellipse cx="133.589" cy="115.684" rx="21.979" ry="20.053" style="fill:#575759;"/><clipPath id="_clip15"><ellipse cx="133.589" cy="115.684" rx="21.979" ry="20.053"/></clipPath><g clip-path="url(#_clip15)"><path d="M127.26,130.795c4.111,0.22 12.801,0.95 17.307,-3.235c3.716,-3.453 5.923,-9.338 6.745,-15.213c1.941,5.18 1.124,10.132 -3.904,15.427c-6.024,6.344 -17.315,5.195 -20.148,3.021Z" style="fill:#959a9e;"/><path d="M142.754,97.683c-7.418,0.272 -14.829,-2.078 -23.645,5.649c-3.815,3.344 -6.259,12.302 -5.951,18.226c-2.889,-4.718 -1.509,-11.389 2.814,-17.273c8.25,-11.229 23.588,-8.199 26.782,-6.602Z" style="fill:#959a9e;"/></g><ellipse cx="133.589" cy="115.684" rx="21.979" ry="20.053" style="fill:none;stroke:#000;stroke-width:2.17px;"/><ellipse cx="133.639" cy="115.32" rx="16.59" ry="14.753" style="fill:#404042;"/><clipPath id="_clip16"><ellipse cx="133.639" cy="115.32" rx="16.59" ry="14.753"/></clipPath><g clip-path="url(#_clip16)"><path d="M144.597,100.735l-12.565,33.992l-6.417,-2.372l12.565,-33.992l6.417,2.372Z" style="fill:#fff;"/><path d="M151.913,102.23l-12.565,33.992l-3.395,-1.254l12.565,-33.992l3.395,1.254Z" style="fill:#fff;"/></g><ellipse cx="133.639" cy="115.32" rx="16.59" ry="14.753" style="fill:none;stroke:#000;stroke-width:2.17px;"/></g></g></g></g></svg>