<svg width="920" height="920" viewBox="0 0 920 920" fill="none" xmlns="http://www.w3.org/2000/svg">
<g clip-path="url(#clip0_761_4135)">
<path d="M273.2 263.4C275 264.7 274.9 267.5 272.9 268.5C259.5 275.6 242.9 285.1 226.9 296.4C224.9 297.8 222.1 296.4 222.2 293.9C222.4 278.5 223.2 259 225.4 238C225.6 235.8 228 234.6 229.9 235.7C241.4 242.2 256.5 251.5 273.2 263.4ZM255.3 266.6C256.6 265.8 256.6 264 255.4 263.2C255.4 263.2 252.5 261.3 251.5 260.6C251.3 260.5 251 260.4 250.8 260.6C247.3 262.5 240.7 266.1 234.5 270.1C233.5 270.8 232.8 271.8 232.8 273L232.6 276.5C232.5 278.1 234.3 279.2 235.6 278.3L240.5 275.3C244 273.2 247.5 271 251.1 269L255.3 266.6ZM242 257.7C243.2 257 243.3 255.3 242.1 254.5C241.8 254.3 241.6 254.2 241.3 254L237 251.4C235.7 250.6 234 251.4 233.9 253L233.5 258C233.5 258.4 233.4 258.9 233.4 259.3C233.3 260.8 234.9 261.8 236.2 261C238 260 240 258.8 242 257.7Z" fill="#27AAE1"/>
<path d="M563.6 293.8C563.6 296.3 560.9 297.7 558.9 296.3C542.9 285 526.3 275.5 512.9 268.4C510.9 267.4 510.7 264.6 512.6 263.3C529.4 251.4 544.4 242.1 556 235.5C557.9 234.4 560.2 235.7 560.5 237.8C562.6 258.9 563.4 278.4 563.6 293.8ZM550.1 278.4C551.5 279.2 553.2 278.2 553.1 276.6L553 273C552.9 271.8 552.3 270.7 551.3 270.1C545.1 266.1 538.5 262.4 535 260.6C534.8 260.5 534.5 260.5 534.3 260.6C533.3 261.3 530.4 263.2 530.4 263.2C529.2 264 529.2 265.9 530.5 266.6L534.7 269C538.3 271.1 541.9 273.2 545.3 275.3L550.1 278.4ZM549.4 261C550.7 261.8 552.3 260.8 552.2 259.3C552.2 258.9 552.1 258.4 552.1 258L551.7 253C551.6 251.5 549.9 250.6 548.7 251.4L544.5 254C544.2 254.2 544 254.3 543.7 254.5C542.5 255.2 542.6 257 543.8 257.7C545.7 258.8 547.7 260 549.4 261Z" fill="#27AAE1"/>
<path d="M573.3 219.8C578.8 259.7 579 296.5 578.5 316.2C578.4 322.1 571.5 325.1 567 321.4C540.4 299.2 506.9 281.9 490.2 273.9C485.5 271.6 484.8 265.2 489 262C521 237.6 549.3 221.7 563.1 214.5C567.4 212.3 572.6 215 573.3 219.8ZM558.8 296.3C560.8 297.7 563.6 296.3 563.5 293.8C563.3 278.4 562.5 258.9 560.3 237.9C560.1 235.7 557.7 234.5 555.8 235.6C544.3 242.2 529.2 251.5 512.4 263.4C510.6 264.7 510.8 267.5 512.7 268.5C526.3 275.5 542.8 285 558.8 296.3Z" fill="#A7A9AC"/>
<path d="M296.7 262C300.9 265.2 300.2 271.6 295.5 273.9C278.9 281.9 245.4 299.2 218.7 321.4C214.2 325.2 207.4 322.1 207.2 316.2C206.7 296.5 206.9 259.8 212.4 219.8C213.1 215 218.3 212.3 222.6 214.5C236.4 221.7 264.7 237.6 296.7 262ZM272.9 268.5C274.9 267.5 275 264.7 273.2 263.4C256.4 251.5 241.4 242.2 229.8 235.6C227.9 234.5 225.6 235.7 225.3 237.9C223.1 258.9 222.3 278.4 222.1 293.8C222.1 296.3 224.8 297.7 226.8 296.3C242.9 285 259.4 275.5 272.9 268.5Z" fill="#A7A9AC"/>
<path d="M581.8 455.1C581.8 571.4 487.9 612.2 393.7 612.7C393.4 612.7 393.1 612.7 392.9 612.7H392C297.7 612.2 203.9 571.3 203.9 455.1C203.9 338.9 305.5 297.3 392 296.9C392.3 296.9 392.6 296.9 392.9 296.9C393.2 296.9 393.5 296.9 393.7 296.9C480.2 297.3 581.8 333.9 581.8 455.1ZM563.8 455.1C563.8 406.4 545.7 369.6 510.1 345.6C480.9 326 439.6 315 393.6 314.8H392.1C346.1 315 304.7 326 275.6 345.6C240 369.6 221.9 406.4 221.9 455.1C221.9 580.3 340.9 594.5 392.1 594.7H392.8H393.6C444.8 594.5 563.8 580.4 563.8 455.1Z" fill="#A7A9AC"/>
<path d="M563.8 455.1C563.8 580.3 444.8 594.5 393.6 594.7H392.8H392.1C355.1 594.5 282.4 587.1 245.2 535.4C244.9 535 244.6 534.6 244.4 534.2C230.7 514.7 221.9 488.9 221.9 455C221.9 406.3 240 369.5 275.6 345.5C304.8 325.9 346.1 314.9 392.1 314.7H393.6C418.8 314.8 442.7 318.2 463.9 324.4C481.3 329.5 497 336.6 510.2 345.5C529.9 358.7 544.2 375.9 553.1 396.9C560.2 414 563.8 433.4 563.8 455.1Z" fill="#414042"/>
<path d="M215 668.8L219.7 667.1C219.7 667.1 236.6 687.2 229.7 709.7L220.8 710.8H220.6C218.6 711 216.7 709.6 216.5 707.6C215.7 701.9 213.5 690.2 207.5 675.9C206.7 673.9 207.6 671.7 209.6 670.9L215 668.8Z" fill="#A7A9AC"/>
<path d="M202 709.6L202.1 710C199.7 710.4 196.9 710.8 193.8 711.2C178.8 713.2 174.8 691.2 183.8 687.2C186.9 685.8 190.6 684.1 194.1 682.4C194.1 682.3 195.3 698.1 202 709.6Z" fill="#A7A9AC"/>
<path d="M207.4 675.7C213.4 690 215.6 701.8 216.4 707.4C216.4 707.4 211.6 708.4 202.1 709.9L202 709.5C195.2 698 194.1 682.2 194.1 682.2C201 679 207.4 675.7 207.4 675.7Z" fill="#A7A9AC"/>
<path d="M439.8 763.1C445.3 763.1 449.8 758.6 449.8 753.1C449.8 747.6 445.3 743.1 439.8 743.1C434.3 743.1 429.8 747.6 429.8 753.1C429.8 758.7 434.3 763.1 439.8 763.1Z" fill="#709365"/>
<path d="M372.3 768.1C380.9 768.1 387.8 761.2 387.8 752.6C387.8 744 380.9 737.1 372.3 737.1C363.7 737.1 356.8 744 356.8 752.6C356.8 761.2 363.8 768.1 372.3 768.1Z" fill="#FF5C70"/>
<path d="M410.3 762.6C415.8 762.6 420.3 758.1 420.3 752.6C420.3 747.1 415.8 742.6 410.3 742.6C404.8 742.6 400.3 747.1 400.3 752.6C400.3 758.2 404.8 762.6 410.3 762.6Z" fill="#FBB040"/>
<path d="M658.2 592.3L661.7 600.3H593.1C586.1 600.3 579.6 604 576.1 610.1L566.5 626.6C564.7 629.6 563.8 633 563.8 636.5V653.6L549 644.8C551.2 639.6 555 626.6 545.8 611.2C573 594.5 591.3 573.6 603.5 551.3L634.3 560.5C641.7 562.7 647.7 568 650.7 575.1L658.2 592.3Z" fill="#E5E5E5"/>
<path d="M750.8 740.1C753.6 749.1 755.4 757.4 756.3 765.1C750.6 771.7 742.6 776.5 734.1 778.3C733.4 762 732.1 733.2 731.6 726.1C731.4 723.1 727.2 717.3 721.4 710.6C726.5 708.4 731.2 705.1 735.2 701.2L736 700.8C741 712.2 746.1 725 750.8 740.1Z" fill="#E5E5E5"/>
<path d="M735.9 817.9C736.8 808.1 736.4 798.6 734.6 789.6C734.6 789.2 734.4 784.7 734.1 778.3C742.7 776.5 750.6 771.8 756.3 765.1C762.4 814.9 734.1 838.5 734.1 838.5C734.9 829.7 735.4 822.1 735.7 817.9H735.9Z" fill="#E5E5E5"/>
<path d="M698.8 399.8C731.8 387.2 749.8 411.2 748.8 443.1C748.3 460 740.5 478.6 731.5 498.5L729.7 497.7C724 482.9 712.1 470.6 697.4 464.5C683 458.6 666.3 458.7 652 464.8C663.5 433.2 679.9 407 698.8 399.8Z" fill="#E5E5E5"/>
<path d="M684.8 673.1L684.9 655.9C694.4 654.8 703.5 651.1 711.1 645.3C717.5 663.1 726.6 679.5 736 700.9L735.2 701.3C731.2 705.3 726.5 708.5 721.4 710.7C707.7 694.5 684.8 673.1 684.8 673.1Z" fill="#E5E5E5"/>
<path d="M711.3 542.9L712.4 543.3C707.1 557.9 703.2 573.1 702.5 588.6H702.4C687.8 585.2 672.1 586.5 658.3 592.3L650.8 575C647.7 567.9 641.7 562.6 634.4 560.4C634.3 550.5 635 539.6 636.5 528.4C661.3 518.4 691.9 524.2 711.3 542.9Z" fill="#E5E5E5"/>
<path d="M702.3 588.6C702.3 590.7 702.2 592.7 702.2 594.8C702.3 614.9 705.8 630.6 711 645.2C703.5 651 694.3 654.8 684.8 655.8L684.9 625.6C684.9 617.7 680.5 610.4 673.5 606.7L661.5 600.3L658 592.3C672.1 586.5 687.7 585.2 702.3 588.6Z" fill="#E5E5E5"/>
<path d="M729.7 497.7L731.5 498.5C725 512.8 717.9 527.7 712.3 543.2L711.2 542.8C691.9 524.1 661.3 518.3 636.4 528.3C639.2 507.2 644.6 484.8 652 464.7C666.3 458.6 683 458.5 697.4 464.4C712.1 470.6 724 482.9 729.7 497.7Z" fill="#E5E5E5"/>
<path d="M661.7 641.9C659 638.1 655.3 635 650.9 633.1C647.4 631.6 643.4 630.8 639 631.5C633.4 632.5 629.6 636.2 627.2 640.3C623.9 645.8 624.2 652.8 627.8 658.2C629.4 660.6 630.6 663.6 630.3 667.2C630.1 669.1 629.5 671.1 628.3 673.2L627.8 673C626.1 672.7 624.4 672.2 622.8 671.5C614.3 667.9 607.9 659.3 606.8 650C605.5 639 611 627.6 619.9 621C630.1 613.4 645.1 612.1 655.9 618.8C666.7 625.6 672.1 640.5 667 652.2L666.5 652.3C665.5 648.6 663.9 645 661.7 641.9Z" fill="#A7A9AC"/>
<path d="M650.8 633.1C655.2 635 658.9 638 661.6 641.9C655.3 639.3 647.9 639.5 641.8 642.6C635.6 645.7 630.9 651.5 629.2 658.2L627.7 658.3C624.1 652.9 623.9 645.9 627.1 640.4C629.5 636.3 633.2 632.5 638.9 631.6C643.3 630.8 647.3 631.6 650.8 633.1Z" fill="#A7A9AC"/>
<path d="M666.4 652.8C667.5 658.2 668 665.3 667 673C666.6 676.3 665.8 679.8 664.7 683.2C663.3 675.9 658.2 669.4 651.4 666.3C644.7 663.3 636.6 663.6 630.2 667.2C630.5 663.7 629.3 660.6 627.7 658.2L629.2 658.1C630.9 651.4 635.6 645.5 641.8 642.5C647.9 639.5 655.3 639.2 661.6 641.8C663.8 644.9 665.4 648.5 666.2 652.3C666.3 652.5 666.3 652.7 666.4 652.8Z" fill="#A7A9AC"/>
<path d="M684.9 655.8L684.8 673H667.4L666.9 672.9C667.9 665.2 667.4 658.1 666.3 652.7C666.3 652.6 666.2 652.4 666.2 652.3L666.7 652.2C671.8 640.5 666.5 625.6 655.6 618.8C644.8 612 629.8 613.4 619.6 621C610.7 627.6 605.2 639 606.5 650C607.6 659.3 614 667.9 622.5 671.5L622.1 673H569.6V663.7C569.6 659.6 567.4 655.8 563.9 653.6L563.6 653.4V636.3C563.6 632.8 564.5 629.4 566.3 626.4L575.9 609.9C579.4 603.9 585.9 600.1 592.9 600.1H661.5L673.5 606.5C680.5 610.2 684.9 617.5 684.9 625.4V655.8Z" fill="#E5E5E5"/>
<path d="M623.9 678.6C622.1 680.3 620 682 617.3 683.7C613.9 685.9 610.5 687.5 607.2 688.6C599.6 691.1 592.3 691 585.9 689.6C578.6 688.1 572.3 685 567.7 682.3C568.6 681.7 569.5 681.2 570.4 680.8L569.9 679.8V673.1H622.4L622.8 671.6C624.4 672.3 626 672.8 627.8 673.1L628.3 673.3C627.2 675 625.8 676.8 623.9 678.6Z" fill="#E5E5E5"/>
<path d="M560.9 678.2C560.8 678.2 560.8 678.2 560.9 678.2C553.9 674.3 542.9 674.1 536.9 683.1C529 695 536.8 706.3 546.8 712.2C544.8 712.8 542.6 713.1 540.4 713.1C527.4 713.1 516.9 702.6 516.9 689.6C516.9 676.6 527.4 666.1 540.4 666.1C549.2 666.1 556.8 671 560.9 678.2Z" fill="#A7A9AC"/>
<path d="M554.6 716.3C551.2 714.8 548.6 713.4 546.8 712.3C536.7 706.4 528.9 695.1 536.9 683.2C542.9 674.2 553.9 674.4 560.9 678.3C562.4 679.2 564.7 680.7 567.7 682.3C562.5 685.6 558.5 690.6 556.4 696.3C553.9 703.1 554.2 710.8 557.1 717.3C556.2 716.9 555.4 716.6 554.6 716.3Z" fill="#A7A9AC"/>
<path d="M585.8 689.6C579.7 699.9 578.7 713.1 583.2 724.2C572.6 722.9 563.7 720.1 557 717.3C554.1 710.7 553.8 703 556.3 696.3C558.4 690.6 562.5 685.6 567.6 682.3C572.3 685 578.5 688.1 585.8 689.6Z" fill="#A7A9AC"/>
<path d="M585.5 724.4C584.7 724.3 584 724.2 583.2 724.2C578.7 713.1 579.8 699.9 585.8 689.6C592.3 691 599.5 691.1 607.1 688.6C611.1 699.8 612.1 712 609.9 723.6C601.2 725.1 592.9 725.2 585.5 724.4Z" fill="#A7A9AC"/>
<path d="M637 693.2C639.3 700 639.2 707.4 638 714.4C636.9 715 635.7 715.6 634.5 716.1C626 719.9 617.8 722.3 610 723.6C612.1 712 611.2 699.8 607.2 688.6C610.5 687.5 613.9 685.9 617.3 683.7C620 682 622.2 680.2 623.9 678.6C630.1 681 634.8 686.8 637 693.2Z" fill="#A7A9AC"/>
<path d="M651.4 666.3C658.2 669.4 663.3 675.9 664.7 683.2C661 694.8 653.2 706.5 638 714.4C639.2 707.3 639.4 699.9 637 693.2C634.8 686.8 630.1 681 623.8 678.5C625.7 676.7 627.1 674.9 628.1 673.2C629.3 671.1 630 669.1 630.1 667.2C636.6 663.7 644.7 663.3 651.4 666.3Z" fill="#A7A9AC"/>
<path d="M734.1 778.3C734.4 784.8 734.6 789.3 734.6 789.6C728.7 760 707.6 737 670.8 735.1C631.8 733.1 594.8 762.1 595.3 799.1C594.4 796.4 593.1 794 591.5 791.9L591.7 750.1C591.7 750.1 594.4 742.7 585.4 724.4C592.9 725.1 601.1 725 609.9 723.6C617.7 722.3 625.9 720 634.4 716.1C635.6 715.6 636.8 715 637.9 714.4C653 706.5 660.9 694.8 664.6 683.2C665.7 679.7 666.4 676.3 666.9 673L667.4 673.1H684.8V673.2C684.8 673.2 707.6 694.6 721.4 710.6C727.2 717.4 731.3 723.2 731.6 726.1C732.1 733.2 733.4 762 734.1 778.3Z" fill="#E5E5E5"/>
<path d="M734.6 789.6C736.4 798.5 736.8 808.1 735.9 817.9H735.7C735.8 815.8 735.9 814.6 735.9 814.6C735.9 814.6 731.3 768.4 670.6 768.4C613.5 768.4 593.9 826.1 591.8 833C591.9 830.6 591.8 828 591.6 825.3C594.8 821 596.9 815.2 596.9 808.7C596.9 805.3 596.4 802.1 595.4 799.2C594.9 762.2 631.9 733.2 670.9 735.2C707.6 737 728.7 760 734.6 789.6Z" fill="#27AAE1"/>
<path d="M591.6 825.3C588.3 829.5 583.8 832.2 578.9 832.2C569 832.2 560.9 821.7 560.9 808.7C560.9 795.7 569 785.2 578.9 785.2C583.9 785.2 588.3 787.8 591.6 792C593.2 794 594.5 796.5 595.4 799.2C596.4 802.1 596.9 805.3 596.9 808.7C596.8 815.1 594.8 821 591.6 825.3Z" fill="#A7A9AC"/>
<path d="M687.8 910.3C682.2 908.8 677.8 905.4 675.8 900.5C671.7 890.5 679.2 878 692.5 872.6C705.8 867.2 719.9 870.8 724 880.8C724.7 882.6 725.1 884.5 725.1 886.4C725.2 895.1 718.2 904.3 707.3 908.7C700.5 911.4 693.5 911.9 687.8 910.3Z" fill="#A7A9AC"/>
<path d="M585.2 860.1C585.2 860.1 591.3 850.4 591.7 832.9C593.8 826 613.4 768.4 670.5 768.4C731.2 768.4 735.8 814.6 735.8 814.6C735.8 814.6 735.7 815.8 735.6 817.9C735.3 822 734.8 829.7 734 838.5C732.3 858.4 729.5 883.8 726 886.4H724.9C724.9 884.5 724.5 882.6 723.8 880.8C719.7 870.8 705.6 867.2 692.3 872.6C679 878 671.5 890.5 675.6 900.5C677.6 905.4 682.1 908.8 687.6 910.3C686.9 910.6 679 914 666.6 914H577.5C593.3 887.2 579.8 864.4 576.9 860C579.9 860 582.6 860.1 585.2 860.1Z" fill="#E5E5E5"/>
<path d="M577.1 860C580 864.4 593.4 887.1 577.7 914H555.7C572 886.2 557 862.8 554.8 859.6C562.5 859.7 570.1 859.8 577.1 860Z" fill="#27AAE1"/>
<path d="M450.8 914H435.7C432.7 914 430.4 911.5 430.6 908.5C432.1 885.5 443.7 870.5 462.9 863.4C471.4 860.3 481.4 858.7 492.8 858.7C505.2 858.7 530.7 859.1 554.8 859.5C557 862.7 572 886.1 555.7 913.9H450.8V914Z" fill="#E5E5E5"/>
<path d="M462.8 863.1L462.9 863.4C443.7 870.4 432.1 885.5 430.6 908.5C430.4 911.5 432.7 914 435.7 914H446.9C446.9 914 400.2 914 349 914.1V856.2H462.8V863.1Z" fill="#E5E5E5"/>
<path d="M349 856.1V914C341.6 914 334.2 914 326.8 914V856.1H349Z" fill="#27AAE1"/>
<path d="M349 856.1H295V794L295.7 793.2L299.5 796.5L443.8 799.1L462.8 787.7V810.1L467.8 821.6L462.8 832.6V856.2H349V856.1Z" fill="#E5E5E5"/>
<path d="M326.8 914V914.1C276.5 914.1 227.7 914.2 219.8 914.2C202.7 914.2 190.8 900.2 190.8 884.2C190.8 868.2 203.3 856.2 216.8 856.2H326.8V914Z" fill="#E5E5E5"/>
<path d="M243.4 815.4C243.4 815.4 234.9 802.2 234 799.2C233.2 796.2 229.8 744.4 229.7 743.2C231.1 744.8 233 746 235.3 746.4C244.3 748 258.8 751.9 275.3 761V775.2L295.7 793.3L295 794.1V856.2H236.7L236.5 827.4L243.4 815.4Z" fill="#E5E5E5"/>
<path d="M467.8 821.6L462.8 810.1V775.7C462.8 775.7 518.7 742.1 591.7 750.1L591.5 791.9C588.2 787.7 583.7 785.1 578.8 785.1C568.9 785.1 560.8 795.6 560.8 808.6C560.8 821.6 568.9 832.1 578.8 832.1C583.8 832.1 588.3 829.5 591.5 825.2C591.7 827.9 591.7 830.5 591.7 832.9C591.3 850.4 585.2 860.1 585.2 860.1C582.6 860.1 579.9 860 577.1 860C570.2 859.9 562.6 859.7 554.8 859.6C530.7 859.2 505.2 858.8 492.8 858.8C481.4 858.8 471.4 860.4 462.9 863.5L462.8 863.2V832.6L467.8 821.6Z" fill="#E5E5E5"/>
<path d="M583.2 724.2C584 724.3 584.7 724.4 585.5 724.4C594.5 742.7 591.8 750.1 591.8 750.1C518.7 742.1 462.9 775.7 462.9 775.7V752.1C464.1 749.4 465.8 747.1 467.9 745.1C484.1 729.6 524.4 731.2 524.4 731.2L554.7 716.2C555.5 716.5 556.3 716.9 557.1 717.2C563.7 720.1 572.6 722.9 583.2 724.2Z" fill="#27AAE1"/>
<path d="M609.8 370.1C609.8 370.1 613.8 192.1 581.8 182.1C554.4 173.5 456.4 250.8 456.4 250.8C456.4 250.8 430.8 241.6 393 241.6H392.7C392.4 241.6 392.1 241.6 391.7 241.6C354.4 241.7 329.2 250.8 329.2 250.8C329.2 250.8 231.2 173.6 203.9 182.1C171.9 192.1 175.9 370.1 175.9 370.1C175.9 370.1 114.9 534.1 239.9 611.1C239.9 611.1 287.6 640.5 392.7 640.5H393C498.2 640.5 545.8 611.1 545.8 611.1C573 594.4 591.3 573.5 603.5 551.2C647.2 470.6 609.8 370.1 609.8 370.1ZM489 262C521 237.6 549.3 221.7 563.1 214.5C567.4 212.3 572.6 215 573.3 219.8C578.8 259.7 579 296.5 578.5 316.2C578.4 322.1 571.5 325.1 567 321.4C540.4 299.2 506.9 281.9 490.2 273.9C485.5 271.6 484.8 265.2 489 262ZM212.4 219.8C213.1 215 218.3 212.3 222.6 214.5C236.3 221.7 264.7 237.6 296.7 262C300.9 265.2 300.2 271.6 295.5 273.9C278.9 281.8 245.4 299.2 218.7 321.4C214.2 325.2 207.4 322.1 207.2 316.2C206.8 296.5 206.9 259.8 212.4 219.8ZM393.7 612.8H392C297.7 612.3 203.9 571.4 203.9 455.2C203.9 339 305.5 297.3 392 296.9C392.3 296.9 392.6 296.9 392.9 296.9C393.2 296.9 393.5 296.9 393.7 296.9C480.2 297.4 581.8 334 581.8 455.2C581.8 576.4 488 612.3 393.7 612.8Z" fill="#E5E5E5"/>
<path d="M569.8 679.7L570.3 680.7C569.4 681.1 568.4 681.7 567.6 682.2C564.7 680.5 562.4 679 560.8 678.2C556.8 671 549.1 666.1 540.3 666.1C527.3 666.1 516.8 676.6 516.8 689.6C516.8 702.6 527.3 713.1 540.3 713.1C542.5 713.1 544.7 712.8 546.7 712.2C548.5 713.3 551.2 714.7 554.5 716.2L524.2 731.2C524.2 731.2 483.9 729.6 467.7 745.1V689.1L453.6 674.1C485.4 669.5 522.8 661.3 547.7 647.1C547.7 647.1 548.2 646.2 548.9 644.7L563.7 653.5L564 653.7C567.5 655.8 569.7 659.6 569.7 663.8V679.7H569.8Z" fill="#E5E5E5"/>
<path d="M553.1 276.6C553.2 278.2 551.4 279.3 550.1 278.4L545.2 275.4C541.7 273.3 538.2 271.1 534.6 269.1L530.4 266.7C529.1 265.9 529.1 264.1 530.3 263.3C530.3 263.3 533.2 261.4 534.2 260.7C534.4 260.6 534.7 260.5 534.9 260.7C538.4 262.6 545 266.2 551.2 270.2C552.2 270.8 552.8 271.9 552.9 273.1L553.1 276.6Z" fill="#231F20"/>
<path d="M552.2 259.3C552.3 260.8 550.7 261.8 549.4 261C547.7 260 545.7 258.9 543.7 257.8C542.5 257.1 542.4 255.4 543.6 254.6C543.9 254.4 544.1 254.3 544.4 254.1L548.6 251.5C549.9 250.7 551.6 251.5 551.6 253.1L552 258.1C552.1 258.4 552.1 258.8 552.2 259.3Z" fill="#231F20"/>
<path d="M453.7 674.1C420.3 679 393 679.9 393 679.7H392.7C392.7 680 341.8 678.1 293.8 667C273.2 662.2 253.2 655.8 237.8 647.1C237.8 647.1 237.3 646.2 236.6 644.7C234.4 639.5 230.6 626.5 239.8 611.1C239.8 611.1 287.5 640.5 392.6 640.5H392.9C498.1 640.5 545.7 611.1 545.7 611.1C554.9 626.5 551.1 639.5 548.9 644.7C548.2 646.3 547.7 647.1 547.7 647.1C523 661.3 485.5 669.5 453.7 674.1Z" fill="#E5E5E5"/>
<path d="M467.8 689.1V745.1C465.7 747.1 464 749.5 462.8 752.1V787.7L443.8 799.1L299.5 796.5L295.7 793.2L275.3 775.1V686L293.9 667.1C341.9 678.2 392.8 680.1 392.8 679.8H393.1C393.1 680 420.4 679.1 453.8 674.2L467.8 689.1ZM449.8 753.1C449.8 747.6 445.3 743.1 439.8 743.1C434.3 743.1 429.8 747.6 429.8 753.1C429.8 758.6 434.3 763.1 439.8 763.1C445.3 763.1 449.8 758.7 449.8 753.1ZM420.3 752.6C420.3 747.1 415.8 742.6 410.3 742.6C404.8 742.6 400.3 747.1 400.3 752.6C400.3 758.1 404.8 762.6 410.3 762.6C415.8 762.6 420.3 758.2 420.3 752.6ZM387.8 752.6C387.8 744 380.9 737.1 372.3 737.1C363.7 737.1 356.8 744 356.8 752.6C356.8 761.2 363.7 768.1 372.3 768.1C380.9 768.1 387.8 761.2 387.8 752.6Z" fill="#A7A9AC"/>
<path d="M293.8 667.1L275.3 686V741.8C259.8 720.4 234 723.9 234 723.9L231 722L222 716.2L220.9 711.2L220.8 710.7L229.7 709.6C236.6 687.1 219.7 667 219.7 667L215 668.7V666.8C215 662.2 217.3 657.9 221.1 655.3L236.8 644.6C237.5 646.2 238 647 238 647C253.2 655.8 273.3 662.3 293.8 667.1Z" fill="#E5E5E5"/>
<path d="M229.7 743.1C227.9 741 227.1 738.2 227.6 735.3L229.7 723.9L230.9 722L233.9 723.9C233.9 723.9 259.7 720.5 275.2 741.8V760.9C258.7 751.8 244.2 747.9 235.2 746.3C233 745.9 231.1 744.7 229.7 743.1Z" fill="#27AAE1"/>
<path d="M255.4 263.2C256.6 264 256.6 265.9 255.3 266.6L251.1 269C247.5 271.1 243.9 273.2 240.5 275.3L235.7 278.3C234.3 279.1 232.6 278.1 232.7 276.5L232.9 273C233 271.8 233.6 270.7 234.6 270.1C240.8 266.1 247.4 262.4 250.9 260.6C251.1 260.5 251.4 260.5 251.6 260.6C252.5 261.3 255.4 263.2 255.4 263.2Z" fill="#231F20"/>
<path d="M242.1 254.6C243.3 255.3 243.2 257.1 242 257.8C240 258.8 238 260 236.3 261C235 261.8 233.4 260.8 233.5 259.3C233.5 258.9 233.6 258.4 233.6 258L234 253C234.1 251.5 235.8 250.6 237.1 251.4L241.3 254C241.5 254.2 241.8 254.4 242.1 254.6Z" fill="#231F20"/>
<path d="M258.1 899.7C266.3 899.7 272.9 893.1 272.9 884.9C272.9 876.7 266.3 870.1 258.1 870.1C249.9 870.1 243.3 876.7 243.3 884.9C243.4 893.1 250 899.7 258.1 899.7Z" fill="#A7A9AC"/>
<path d="M236.7 877.2C240.6 877.2 243.7 874.1 243.7 870.2C243.7 866.3 240.6 863.2 236.7 863.2C232.8 863.2 229.7 866.3 229.7 870.2C229.7 874 232.8 877.2 236.7 877.2Z" fill="#A7A9AC"/>
<path d="M227.3 891.9C231.2 891.9 234.3 888.8 234.3 884.9C234.3 881 231.2 877.9 227.3 877.9C223.4 877.9 220.3 881 220.3 884.9C220.3 888.8 223.4 891.9 227.3 891.9Z" fill="#A7A9AC"/>
<path d="M236.7 906.6C240.6 906.6 243.7 903.5 243.7 899.6C243.7 895.7 240.6 892.6 236.7 892.6C232.8 892.6 229.7 895.7 229.7 899.6C229.7 903.5 232.8 906.6 236.7 906.6Z" fill="#A7A9AC"/>
<path d="M563.8 455.1C563.8 580.3 444.8 594.5 393.6 594.7H392.8H392.1C355 594.5 282.4 587.1 245.2 535.4C330.1 564.6 429.3 547.8 499.8 492.2C515.4 479.9 529.8 465.7 539.9 448.5C549 433 554.3 414.8 553.1 396.9C560.2 414 563.8 433.4 563.8 455.1Z" fill="#2D2D2D"/>
<path d="M174.9 492.1C186.1 501.9 199.7 508.8 214.2 512.2C227 547.2 256 574.3 289.8 589.9C323.6 605.5 361.5 610.4 398.8 610.3C433.6 610.2 469.1 605.7 500.6 590.8C532.1 576 559.4 549.7 569.8 516.5C584.6 513.1 598.1 506.8 608.6 495.9C604.8 542.9 578.1 586.5 537.7 610.6C508.6 628 474.3 634.9 440.5 637.4C404.3 640.1 367.9 638 331.7 635.6C308.6 634.1 284.9 632.2 263.8 622.8C238.7 611.4 184.8 576.1 174.9 492.1Z" fill="#A7A9AC"/>
<path d="M250.3 650.7C247.2 640.2 247.5 628.8 251.1 618.4C344.2 652.3 450.3 648.8 542.4 612.4C565 603.5 582.6 583.1 598.3 564.5C598.3 564.5 632 573.3 636.4 575.7C640.8 578.1 649.2 600.3 649.2 600.3C649.2 600.3 594.5 593.4 585.2 601.7C575.8 610.1 563.8 636.4 563.8 636.4C563.8 636.4 581.3 615.3 591.5 612.7C601.8 610.1 654.2 610.4 660 612.7C665.8 615.1 670.8 615.2 673.3 625.6C675.8 636 673.3 671.5 673.3 671.5L667.4 666.9V643.8C667.4 643.8 666.3 618.8 645.5 614.9C624.7 611 604.4 627.5 607.1 643.8C609.8 660.1 622.2 673 622.2 673C622.2 673 601.7 694 585.7 689.5C569.7 685 567.5 682.2 567.5 682.2C567.5 682.2 556.7 667.1 540.2 666.1C523.7 665.1 511.7 683.8 516.7 693.5C521.7 703.1 526.6 717.4 546.6 712.3L554.4 716.3L524.1 731.3H495.7C495.7 731.3 505.7 709.3 502.7 700.9C496.6 683.2 463.6 683.3 463.6 683.3L457 677.9C457 677.9 382.8 685.7 327.2 673.4C271.8 661.1 250.3 650.7 250.3 650.7Z" fill="#A7A9AC"/>
<path d="M518.6 678.1C523 681 527.5 683.9 531.9 686.7C531.1 687.5 534.9 683.6 534.2 684.3C535.7 690.4 536.8 697.1 538.2 703.2C538 698.3 540.5 693.4 544.5 690.6C548.5 687.8 554 687.2 558.5 689.1C556.7 694.8 554.4 701.7 555.8 707.5C557.4 703.1 561.2 699.5 565.6 698.1C570.1 696.7 575.2 697.3 579.1 699.9C578 706 579.7 712.4 581.9 718.3C582.9 712.2 586.6 706.6 591.9 703.3C597.2 700.1 603.9 699.3 609.8 701.2C610.7 706.3 612.4 709.5 613.3 714.6C612.9 707.8 615.1 700.4 620.7 696.6C626.3 692.8 635.5 694.5 637.8 700.9C635.9 697.1 637.2 693.3 636.5 689.1C635.8 684.9 636.6 680.3 639.5 677.3C642.4 674.3 646.8 673.4 650.9 673.8C655 674.2 658.9 675.9 662.7 677.5C659.1 670 650.7 665 642.3 665.4C644.5 654.3 653.7 646.4 665 647.5C672.1 666 667.5 687.9 654 702.5C640.5 717.1 620.4 724.5 600.6 725.1C580.8 725.8 561.1 720.1 543.1 711.8C534.4 714.1 526 709.5 520.3 702.6C514.5 695.8 514.7 686.2 518.6 678.1Z" fill="#777777"/>
<path d="M227.8 681.7C223.6 684.5 218.3 685.5 213.5 684.4C213.3 686.1 213.5 685.5 213.3 687.3C202.9 690.5 192.8 694.6 183.1 699.5C184.5 705.2 188.3 708.7 194.2 709.4C200 710.1 205.9 708.6 211.7 707.5C217.5 706.5 223.7 706 229 708.6C231.2 699.9 230.9 690.2 227.8 681.7Z" fill="#777777"/>
<path d="M243.2 647.6C248.8 653.7 254.4 659.7 260.1 665.8C262.4 668.3 264.9 671.2 264.6 674.5C264.3 678.5 260.5 681.2 259.1 684.9C257.2 690.2 260.8 696.1 259.6 701.6C258.4 706.8 253.1 710.2 247.7 710.8C242.3 711.4 237.1 709.8 232 708.2C231.2 712.7 226.2 713.9 221.9 712.6C227.4 721.4 238.9 723.8 249.1 725.5C259.3 727.2 270.8 729.6 276.4 738.3C279.8 721.8 270.8 704.1 276.1 688.1C279.3 678.3 287.3 671 294.9 664.1C277.6 658.8 260.5 653 243.2 647.6Z" fill="#A7A9AC"/>
<path d="M244.4 750.2C251.3 755.4 258.3 760.8 262.7 768.2C267.1 775.6 268.1 785.7 262.8 792.6C258.3 798.5 249.9 801.2 246.8 808C250.5 807.3 255.5 807 259.3 807.4C263.1 807.8 266.8 809.5 268.9 812.7C270.1 814.6 270.6 816.8 270.9 819C272.7 833 265.8 847.8 253.9 855.4C268 854.7 281.5 854.8 295.6 854.1C295.3 834.9 295.8 815.6 297 796.4C294.3 791.5 289.8 787.3 284.9 784.5C280 781.7 275 777.9 274 772.3C273.6 769.9 274 767.4 273.5 765.1C272.4 759.6 266.9 756.2 261.5 754.5C256.1 752.8 249.1 753 244.4 750.2Z" fill="#A7A9AC"/>
<path d="M295.4 825.9C297.5 833.5 307.3 835.4 315.2 835.9C344 837.7 372.8 839.5 401.6 841.3C407.7 841.7 413.9 842 419.8 840.2C425.6 838.4 431 833.9 432.1 827.9C433.4 820.7 428.2 813.7 421.7 810.3C415.3 806.9 407.8 806.3 400.6 805.4C393.4 804.5 385.9 803 380.3 798.3C395.9 798.7 412 797.5 427.6 797.1C433.3 797 439.2 796.8 444.5 794.5C451.4 791.6 456.4 785.6 461.2 779.8C461.6 789.2 462 798.6 462.4 808C462.6 812.5 466.1 814.8 468.4 818.7C461.7 830.1 460.6 844.5 465.5 856.8C464.9 856.2 464.4 855.6 463.9 855C407.6 857.3 352.8 857.9 296.5 857.1C296.2 846.2 295.7 836.8 295.4 825.9Z" fill="#A7A9AC"/>
<path d="M351.1 899.8C380.8 899.4 409.8 883.4 425.9 858.5C439.5 857.3 450.3 857.4 463.8 856.3C464 858.7 464 859.2 464.2 861.6C443.9 869.9 429.9 891.6 430.7 913.5C404.7 914 378.6 914.5 352.6 915C346.7 912 347.2 905.2 351.1 899.8Z" fill="#A7A9AC"/>
<path d="M585.1 899.5C601.4 900.2 617.7 899.1 633.7 896.2C646.9 893.8 661.1 889.3 668 877.9C670.9 873 672.1 866.4 668.6 861.9C664.9 857.1 657.9 856.9 651.9 857C636.1 857.5 620.4 858.1 604.7 859C598.5 857.9 590.5 858.7 584.7 861.2C586.5 853.2 588.3 845.1 590.1 837C594.8 815.7 608.9 796.9 626.6 784.2C644.3 771.5 667.4 765.8 688.7 770.8C710 775.8 728.7 792.1 734.6 813.1C740.9 835.7 732.4 860.5 728.6 883.6C722.3 869.3 702.3 863.2 689.1 871.6C675.9 880 672.9 900.7 683.2 912.4C678.5 913.3 673.7 914.3 669 915.2C638.8 915.1 608.5 913.6 578.3 913.5C581 908.4 582.2 904.7 585.1 899.5Z" fill="#A7A9AC"/>
<path d="M462.3 840.4C469.6 847.2 480.3 848.6 490.2 849.6C496.6 850.3 503.2 850.9 509.3 848.9C515.4 846.9 520.9 841.5 520.8 835C520.7 827.1 512.6 821.4 504.8 820.2C497 819 489 820.7 481.1 820.2C473.2 819.7 464.5 816 462.2 808.4C479.7 806.6 497.2 804.8 514.7 803C518.4 802.6 522.2 802.2 525.6 800.5C534.6 795.8 536 782.3 530 774.1C524 766 512.9 762.9 502.8 763.9C492.7 764.9 483.4 769.3 474.2 773.7C506.9 752.2 548 744.1 586.4 751.5C587.4 764.4 589.8 776.3 588.7 789.1C585.2 782.8 575.5 782.3 569.8 786.7C564.1 791.1 561.8 798.8 561.5 806C561.2 811.5 561.9 817.2 564.3 822.1C566.8 827 571.3 831.1 576.7 832.2C582.1 833.3 588.3 830.8 590.7 825.8C588.9 837.3 588.1 849 586.3 860.5C544.7 857.5 502.4 854.6 461.8 864.2C461.8 855.9 462.5 848.7 462.3 840.4Z" fill="#A7A9AC"/>
<path d="M580.2 786.8C574.4 788.4 569.8 793.5 568.8 799.4C568 804.1 569.4 809.2 573 812.4C576.5 815.6 582.1 816.6 586.3 814.3C590.5 812.1 592.9 806.6 591.2 802.2C591.8 807.2 593.8 812 593 816.9C592.2 821.9 589.8 826.8 585.5 829.6C578.6 834.1 568.4 831.1 563.8 824.2C559.2 817.3 559.7 807.9 563.7 800.6C567.7 793.3 572.8 790.4 580.2 786.8Z" fill="#777777"/>
<path d="M684.5 909.7C680.1 906.8 679.5 900.2 682 895.5C684.5 890.8 689.3 887.9 694.1 885.7C699.6 883.2 705.9 881.5 711.8 882.9C717.7 884.3 723 889.6 722.7 895.6C714.5 907.8 696.7 917.8 684.5 909.7Z" fill="#777777"/>
<path d="M275.3 775.2L439.8 778.3V771.7C439.8 771.7 458.3 769.1 457.5 753.1C456.8 737.1 443.4 735 443.4 735V692.8L286.1 688.5L299.4 668.2C299.4 668.2 387.5 686 453.6 674L467.7 689V745L461.2 757.8L461.8 783.9L462.7 787.6L443.7 799L296.8 796.2L275.3 775.2Z" fill="#777777"/>
<path d="M699.1 645.7C688.7 614.1 688.3 579.2 698.1 547.4C705.2 524.2 717.4 502.9 725.9 480.2C729.9 469.6 732.2 458.9 732.8 448.2C729.6 447.8 726.4 447.5 723.2 447.4C722.2 450.4 721 453.4 719.7 456.4C713.5 470.4 704.9 483.2 697.4 496.5C679.7 527.9 667.7 562.4 662.2 598C675.1 598.6 682.4 614.8 683.2 627.7C684 640.6 680.8 653.9 684.7 666.2C690.8 685.4 711.6 695.6 722.7 712.3C733 727.7 734.3 747.2 733.9 765.7C733.5 784.2 731.5 804.4 737.1 822.1C753.5 795.2 748.3 760.2 736.3 731.1C724.2 702.1 708.9 675.7 699.1 645.7Z" fill="#A7A9AC"/>
<path d="M666.9 673.9C666.9 673.9 710.9 712.7 718.4 728.3C721.8 735.5 719.8 757.2 719.8 757.2C719.8 757.2 692.1 730.9 667.5 734.5C642.9 738.1 610 741.1 597.9 785.1L590.9 778.3L591.6 745.1L585.5 724.4C585.5 724.4 612.2 728.7 638 714.4C663.8 700.1 666.9 673.9 666.9 673.9Z" fill="#A7A9AC"/>
<path d="M496.6 762.8C502.3 760.8 507.3 756.7 510.3 751.5C513.3 746.2 514.2 739.9 512.9 734C519 736.1 525 732 530.5 728.7C538.4 724 546.4 719.2 554.3 714.5C563.6 720 574.6 722.6 585.4 723.1C589.6 732 591.5 740.6 592 750.5C560.7 744.1 525.2 748.6 496.6 762.8Z" fill="#1486AD"/>
<path d="M594.8 805.9C593.4 786.2 603.4 766.4 619.6 755.1C635.7 743.8 657.3 741 676.1 746.8C694.9 752.7 710.8 766.8 719.7 784.4C700.6 770.9 676.1 766.4 653.4 772C630.7 777.6 610.7 793.5 600.1 814.3C597.1 811.4 595.1 810 594.8 805.9Z" fill="#1486AD"/>
<path d="M562.4 901.4C569 900.9 575.6 900.4 582.2 899.9C581.4 903.9 580.2 908.5 576.3 909.9C574.8 910.4 573.1 910.4 571.5 910.3C566.4 910 561.2 909.7 556.1 909.4C558.1 906.7 560.5 904 562.4 901.4Z" fill="#1486AD"/>
<path d="M327.7 902.5C334.5 903 341.5 902.2 348 900.4C346.9 904.7 347.1 908.6 347.7 913C340.6 910.2 332.7 909.4 325.2 910.9C325.3 908.1 327.5 905.3 327.7 902.5Z" fill="#1486AD"/>
<path d="M274 739.7C273.6 746.1 273.2 752.5 272.8 758.9C267.7 756.2 262.1 755.1 256.5 753.7C260.5 744.9 259.6 734 254.2 726C260.9 731 267.4 734.7 274 739.7Z" fill="#1486AD"/>
<path d="M463.9 324.6C432.8 320.2 401 321.2 370.7 329.1C324.1 341.2 281.2 370.3 256.9 411.8C235.5 448.4 230 494.7 244.3 534.3C230.6 514.8 221.8 489 221.8 455.1C221.8 406.4 239.9 369.6 275.5 345.6C304.7 326 346 315 392 314.8H393.5C418.8 315 442.7 318.3 463.9 324.6Z" fill="white"/>
<path d="M517.2 528.3C540.1 485.4 541.8 431.6 521.7 387.3C520.8 385.3 523.5 383.7 524.8 385.4C541.3 406.3 550.9 432 549.8 458.9C548.8 486 538.1 510.8 520.1 530.5C518.8 532 516.2 530.2 517.2 528.3Z" fill="white"/>
<path d="M393.7 296.9C393.4 296.9 393.1 296.9 392.9 296.9C392.7 296.9 392.3 296.9 392 296.9C305.5 297.4 203.9 334 203.9 455.2C203.9 499.9 217.8 533.5 240.2 557.9C221.3 534.2 209.9 502.8 209.9 462.2C209.9 341 311.6 304.4 398 303.9C398.3 303.9 398.6 303.9 398.9 303.9C399.2 303.9 399.5 303.9 399.7 303.9C453.9 304.2 514.1 318.7 551.5 359.4C514.8 313.3 450.9 297.2 393.7 296.9ZM537.6 370.9C555 393 563.8 421.2 563.8 455.2C563.8 580.4 444.8 594.6 393.6 594.8H392.8H392.1C357.8 594.6 293 588.2 254 546.3C292 594.5 361.9 601.6 398.1 601.8H398.8H399.6C450.8 601.5 569.8 587.4 569.8 462.2C569.8 424.5 559 393.9 537.6 370.9Z" fill="white"/>
<path d="M255.6 475.5C255.8 478.7 256.3 482 258 484.8C259.7 487.5 263.1 489.5 266.2 488.6C270.9 487.3 272 481.3 272.6 476.4C275 457 283.1 438.3 295.7 423.3C300.5 417.5 315 401.6 303.6 395.1C295.1 390.2 282.6 405.4 277.9 410.8C262.5 428.4 253.9 452.1 255.6 475.5Z" fill="white"/>
<path d="M399.3 386.7C426.1 381.3 446.1 368.2 443.9 357.4C441.7 346.6 418.2 342.1 391.4 347.5C364.6 352.9 344.6 366 346.8 376.8C349 387.7 372.4 392.1 399.3 386.7Z" fill="white"/>
<path d="M497.4 370.3C498.5 365.5 493.1 360.1 485.3 358.3C477.5 356.5 470.3 359 469.2 363.8C468.1 368.6 473.5 374 481.3 375.8C489.1 377.6 496.3 375.2 497.4 370.3Z" fill="white"/>
<path d="M645.8 567.1C647.1 521.8 658.7 482.3 678.4 441.6C684.5 429 691.9 416.3 703.7 408.8C715.5 401.3 732.9 400.9 742.2 411.4C736.2 397.1 717.4 393 702.8 398.1C688.2 403.2 677.5 415.9 669.5 429.2C650.8 460.4 643.3 496.7 636.1 532.3C634.6 539.5 633.2 546.9 634.4 554.2C635.8 561.5 638.7 565.2 645.8 567.1Z" fill="white"/>
<path d="M581.8 182.1C554.4 173.5 456.4 250.8 456.4 250.8C456.4 250.8 430.8 241.6 393 241.6H392.8V241.1C392.5 241.1 392.2 241.1 391.8 241.1H391.5C353.7 241.1 328.1 250.3 328.1 250.3C328.1 250.3 230.1 173.1 202.7 181.7C170.7 191.7 174.7 369.7 174.7 369.7C174.7 369.7 188 209.5 205.9 196.4C213.7 190.7 273.7 227.6 321.7 269.1C321.7 269.1 352.3 260.9 391.7 260.8V261.3C431.6 261.3 462.8 269.6 462.8 269.6C510.8 228 570.8 191.2 578.6 196.9C596.6 210 609.8 370.2 609.8 370.2C609.8 370.2 613.8 192.1 581.8 182.1Z" fill="white"/>
<path d="M236.7 612.8C236.7 612.8 232.5 626.3 236.7 644.7L216.5 655.8L215 666.9L207.2 671.6L207.5 675.7L179.2 689.6V696.8L210.5 683.5L224.4 674L222 670.1L247.3 651.9C247.3 651.9 242.4 631.5 248.2 615.3L236.7 612.8Z" fill="white"/>
<path d="M293.8 667.1L275.3 686V775.2L305.1 794.1L286.9 773.2L287.2 688.6L299.5 668.3L293.8 667.1Z" fill="white"/>
<path d="M230.9 721.9L241 723.5L236.6 743.7L241 748.8L244.6 799L249.5 811.7C249.5 811.7 261.7 811 268.7 812.5C268.7 812.5 254.8 817 251.3 822L248 831.6V856.1L236.6 856L236.4 827.2L243.2 815.2L234 799.2L229.7 743.2L227.6 735.4L230.9 721.9Z" fill="white"/>
<path d="M296.9 796.3L296.5 857.1L307.9 856.1V799.2L296.9 796.3Z" fill="white"/>
<path d="M197.7 903.8C197.7 903.8 190.6 872.8 219.2 866.5L329.7 858.7C329.7 858.7 241 855.4 214.4 856.2C187.8 857 186.7 886.5 197.7 903.8Z" fill="white"/>
<path d="M430.8 913.4C430.8 913.4 426.7 872.8 464.3 861.5C478.9 857.1 554.8 859.5 554.8 859.5V863.1C554.8 863.1 490.9 862 472.3 869C453.8 876.1 440.9 888.1 441.8 914.1L430.8 913.4Z" fill="white"/>
<path d="M392.7 645.6C362.4 645.6 317.4 643 275.4 630.7C250 623.2 237.7 615.8 237.2 615.4C207.8 597.3 186.1 573 172.5 543.1C161.8 519.2 156.2 491.9 156 461.8C155.6 414.4 168.5 375.8 170.9 369.3C170.8 362.6 170.2 321.4 172.9 279.6C178.5 194.5 192.4 180.5 202.4 177.4C221.8 171.4 265.3 199.8 279.6 209.1C302.7 224.2 323.7 240.2 330.3 245.3C337.9 242.9 361.1 236.7 392.8 236.7C395.6 236.7 397.8 238.9 397.8 241.7C397.8 244.5 395.6 246.7 392.8 246.7C356.3 246.7 331.3 255.5 331 255.6L328.4 256.5L326.2 254.8C326 254.6 301.5 235.4 274.1 217.5C225.5 185.7 209.8 185.5 205.4 186.9C201.5 188.1 188.3 198.5 182.9 280.1C179.9 325.1 180.9 369.5 180.9 370V371L180.6 371.9C180.5 372.3 165.6 412.9 166 462C166.2 490.6 171.5 516.6 181.8 539.1C194.5 567.1 214.9 589.9 242.5 606.9C243 607.2 290.5 635.6 392.7 635.6C395.5 635.6 397.7 637.8 397.7 640.6C397.7 643.4 395.5 645.6 392.7 645.6Z" fill="#231F20"/>
<path d="M391.6 684.8C389.9 684.8 387.5 684.7 383.5 684.4C378.6 684.1 370.7 683.6 360.5 682.6C343.5 680.9 317.8 677.7 292.6 671.9C268.7 666.4 249.4 659.5 235.3 651.5L234.2 650.9L233.5 649.8C233.4 649.6 232.7 648.5 231.9 646.7C229.5 641.1 224.9 626 235.4 608.6C236.8 606.2 239.9 605.5 242.3 606.9C244.7 608.3 245.4 611.4 244 613.8C235.9 627.3 239.3 638.6 241.1 642.8C241.2 643.1 241.3 643.3 241.4 643.6C254.6 650.9 272.5 657.1 294.8 662.3C339.3 672.6 386.7 674.9 391.9 674.9H392C392.2 674.9 392.4 674.9 392.6 674.9C395.4 674.9 397.6 677.1 397.6 679.9C397.6 681.4 396.9 682.9 395.7 683.8C394.8 684.4 394.2 684.8 391.6 684.8ZM388.1 677.9C387.9 678.5 387.8 679.1 387.7 679.7C387.7 679.1 387.8 678.4 388.1 677.9ZM391.9 674.8C391.3 674.9 390.8 675.1 390.2 675.4C390.7 675.1 391.3 674.9 391.9 674.8Z" fill="#231F20"/>
<path d="M214.3 328C212.6 328 210.9 327.6 209.3 326.9C205.1 325 202.4 320.9 202.3 316.3C201.8 297.5 201.9 259.9 207.5 219.1C208 215.2 210.4 211.8 213.9 210C217.4 208.2 221.5 208.2 224.9 210C239 217.4 267.5 233.4 299.7 257.9C303.1 260.5 304.8 264.5 304.4 268.7C304 272.9 301.4 276.5 297.6 278.3C280.5 286.5 247.8 303.5 221.9 325.1C219.7 327.1 217 328 214.3 328ZM219.4 218.7C219 218.7 218.7 218.8 218.5 218.9C218.1 219.1 217.5 219.5 217.4 220.4C211.9 260.5 211.8 297.5 212.3 316C212.3 317.1 213 317.6 213.5 317.8C213.9 318 214.8 318.2 215.6 317.5C242.4 295.2 275.8 277.7 293.4 269.3C294.3 268.9 294.5 268.1 294.5 267.7C294.5 267.3 294.5 266.5 293.7 265.9C262.1 241.9 234.2 226.1 220.3 218.9C220 218.8 219.7 218.7 219.4 218.7Z" fill="#231F20"/>
<path d="M225.1 301.9C223.8 301.9 222.5 301.6 221.4 301C218.7 299.6 217.1 296.8 217.1 293.8C217.3 274.4 218.4 255.5 220.3 237.4C220.6 234.7 222.2 232.3 224.6 231.1C227 229.9 229.9 229.9 232.2 231.3C247 239.8 261.8 249.2 276 259.3C278.3 260.9 279.5 263.6 279.4 266.4C279.2 269.2 277.6 271.6 275.1 272.9C258.3 281.7 243 291 229.6 300.4C228.4 301.4 226.8 301.9 225.1 301.9ZM230 241.5C228.4 257.1 227.5 273.4 227.2 290C239.4 281.6 252.9 273.4 267.7 265.6C255.4 256.9 242.7 248.8 230 241.5Z" fill="#231F20"/>
<path d="M392.9 617.8C392.6 617.8 392.3 617.8 392 617.8C337.9 617.5 292.2 605.6 259.9 583.4C219.5 555.7 199 512.5 199 455.2C199 425.6 205 399.3 216.8 377.1C227.5 357 243 340 262.8 326.7C295.7 304.6 341.6 292.3 392 292H392.9H393.1C393.3 292 393.6 292 393.8 292C444.2 292.3 490.1 304.6 523 326.7C542.9 340.1 558.4 357 569 377.1C580.8 399.4 586.8 425.6 586.8 455.2C586.8 483.8 581.2 509.3 570.1 531.1C559.9 551.1 545.1 568.1 525.9 581.5C483.8 611.2 430.7 617.6 393.6 617.8H392.9ZM392 301.9C343.5 302.2 299.6 313.9 268.3 334.9C228.9 361.4 208.9 401.9 208.9 455.2C208.9 509 227.9 549.4 265.4 575.2C296.1 596.3 339.9 607.6 392 607.9H392.1C392.3 607.9 392.5 607.9 392.8 607.9H393.7C458.3 607.6 498.1 589 520.2 573.4C557.8 547 576.8 507.2 576.8 455.2C576.8 401.9 556.8 361.5 517.4 334.9C486.1 313.9 442.2 302.2 393.7 301.9H393.5C393.4 301.9 393.3 301.9 393.2 301.9H392.9H392Z" fill="#231F20"/>
<path d="M392.8 599.8H392.1C363.4 599.7 321.6 595.5 285.5 576.3C240 552.1 216.9 511.3 216.9 455.1C216.9 404.6 235.7 366.4 272.8 341.5C302.8 321.3 345.1 310.1 392.1 309.8H393.6C440.6 310.1 483 321.3 512.9 341.5C550 366.4 568.8 404.7 568.8 455.1C568.8 511.3 545.7 552 500.2 576.2C464.1 595.4 422.3 599.6 393.6 599.7H392.8V599.8ZM392.1 589.8H393.6C416.2 589.7 459.4 586.6 495.6 567.4C537.6 545.1 558.9 507.3 558.9 455.1C558.9 408.2 541.6 372.7 507.4 349.8C479 330.7 438.6 320.1 393.6 319.9H392.1C347.1 320.1 306.7 330.8 278.4 349.8C244.2 372.8 226.9 408.2 226.9 455.1C226.9 507.3 248.2 545.1 290.2 567.4C326.2 586.6 369.5 589.7 392.1 589.8Z" fill="#231F20"/>
<path d="M393 645.6C390.2 645.6 388 643.4 388 640.6C388 637.8 390.2 635.6 393 635.6C495.2 635.6 542.7 607.2 543.2 606.9C567.5 591.9 586.3 572.4 599.1 548.8C611.2 526.5 624.3 488 618.1 431.2C614.4 397 605.2 372.1 605.1 371.8L604.8 370.9V369.9C604.8 369.5 605.8 325 602.8 280C601.1 253.7 598.4 232.4 594.8 216.7C589.2 192 582.8 187.6 580.3 186.8C575.8 185.4 560.2 185.6 511.6 217.3C484.2 235.2 459.7 254.4 459.5 254.6L457.3 256.3L454.7 255.4C454.5 255.3 429.3 246.5 393 246.5C390.2 246.5 388 244.3 388 241.5C388 238.7 390.2 236.5 393 236.5C424.7 236.5 447.9 242.8 455.5 245.1C462.1 240 483.1 224 506.2 208.9C564 171.3 578.5 175.9 583.3 177.4C592.7 180.3 599.4 192.2 604.6 214.7C608.3 231 611.1 252.8 612.8 279.6C615.5 321.4 614.9 362.7 614.8 369.4C616.5 374.3 624.4 397.9 628 430C631.6 462.8 631.1 510.9 607.9 553.7C594.3 578.8 574.3 599.6 548.5 615.5C548 615.8 535.7 623.3 510.3 630.8C487.1 637.5 447.9 645.6 393 645.6Z" fill="#231F20"/>
<path d="M394.8 684.7C391.2 684.7 390.6 684.2 389.7 683.5L388 682V679.7C388 676.9 390.2 674.7 393 674.7C393.2 674.7 393.4 674.7 393.5 674.7C396.5 674.7 421.3 673.7 452.9 669.1C480.6 665.1 518.8 657.3 544 643.4C544.1 643.2 544.2 642.9 544.3 642.7C546.1 638.5 549.5 627.2 541.4 613.7C540 611.3 540.7 608.3 543.1 606.8C545.5 605.4 548.5 606.1 550 608.5C560.5 626 555.9 641 553.5 646.6C552.7 648.4 552.1 649.5 551.9 649.7L551.2 650.8L550.1 651.4C535.4 659.7 506.9 671.3 454.2 679C436.5 681.6 421 683 411.1 683.7C402.6 684.4 397.7 684.7 394.8 684.7ZM397.7 677.9C397.9 678.5 398 679.1 398 679.7C398 679 397.9 678.4 397.7 677.9Z" fill="#231F20"/>
<path d="M571.4 328C568.7 328 565.9 327 563.7 325.2C537.8 303.6 505.1 286.6 488 278.4C484.2 276.6 481.7 273 481.2 268.8C480.8 264.6 482.5 260.6 485.9 258C518.1 233.5 546.6 217.5 560.7 210.1C564.2 208.3 568.3 208.3 571.8 210.1C575.3 211.9 577.7 215.3 578.2 219.2C583.8 260 583.9 297.6 583.4 316.4C583.3 321 580.6 325.1 576.4 327C574.8 327.7 573.1 328 571.4 328ZM566.3 218.7C566 218.7 565.7 218.8 565.4 218.9C551.6 226.1 523.6 241.9 492 265.9C491.2 266.5 491.2 267.3 491.2 267.7C491.2 268.1 491.4 268.9 492.3 269.3C509.9 277.7 543.3 295.1 570.1 317.5C570.9 318.2 571.8 318 572.2 317.8C572.6 317.6 573.3 317.1 573.4 316C573.9 297.5 573.8 260.5 568.3 220.4C568.2 219.5 567.6 219 567.2 218.9C567 218.9 566.7 218.7 566.3 218.7Z" fill="#231F20"/>
<path d="M560.6 301.9C559 301.9 557.4 301.4 556 300.4C542.6 291 527.3 281.7 510.5 272.9C508 271.6 506.4 269.1 506.2 266.3C506 263.5 507.3 260.9 509.6 259.2C523.8 249.1 538.6 239.7 553.4 231.2C555.8 229.9 558.6 229.8 561 231C563.4 232.2 565 234.6 565.3 237.3C567.2 255.3 568.3 274.3 568.5 293.7C568.5 296.7 566.9 299.5 564.2 300.9C563.1 301.6 561.8 301.9 560.6 301.9ZM518 265.6C532.7 273.5 546.3 281.6 558.5 290C558.2 273.4 557.2 257.1 555.7 241.5C543 248.8 530.4 256.9 518 265.6Z" fill="#231F20"/>
<path d="M215 671.9C212.2 671.9 210 669.7 210 666.9C210 660.7 213.1 654.8 218.2 651.3L233.9 640.6C236.2 639 239.3 639.6 240.8 641.9C242.3 644.2 241.8 647.3 239.5 648.8L223.8 659.5C221.4 661.2 219.9 663.9 219.9 666.9C220 669.7 217.7 671.9 215 671.9Z" fill="#231F20"/>
<path d="M569.8 684.7C567 684.7 564.8 682.5 564.8 679.7V663.7C564.8 661.4 563.5 659.1 561.5 657.9L561.3 657.8L546.5 648.9C544.1 647.5 543.4 644.4 544.8 642C546.2 639.6 549.3 638.9 551.7 640.3L566.7 649.3C571.8 652.3 574.9 657.8 574.9 663.7V679.7C574.8 682.5 572.6 684.7 569.8 684.7Z" fill="#231F20"/>
<path d="M462.8 868.1C460 868.1 457.8 865.9 457.8 863.1V831.4L462.3 821.5L457.8 811.1V751L458.2 750C459.6 746.8 461.7 743.9 464.3 741.4C480.3 726.1 515.8 726 523.2 726.1L552.6 711.6C555.1 710.4 558.1 711.4 559.3 713.9C560.5 716.4 559.5 719.4 557 720.6L525.4 736.3L524.1 736.2C513.5 735.8 483.3 737.2 471.2 748.7C469.7 750.1 468.6 751.6 467.7 753.2V809L473.2 821.6L467.7 833.6V863.1C467.8 865.9 465.6 868.1 462.8 868.1Z" fill="#231F20"/>
<path d="M275.3 746.8C273.8 746.8 272.2 746.1 271.3 744.7C257.8 726.1 235.6 728.7 234.7 728.8L232.9 729L228.3 726.1L217.5 719.2L216 712.2C215.4 709.5 217.2 706.8 219.9 706.3C222.6 705.7 225.3 707.5 225.8 710.2L226.4 713.2L235.3 718.9C242 718.5 264.7 718.8 279.4 739C281 741.2 280.5 744.4 278.3 746C277.3 746.5 276.3 746.8 275.3 746.8Z" fill="#231F20"/>
<path d="M445.2 804.2L297.6 801.6L270.3 777.5V684L290.3 663.6C292.2 661.6 295.4 661.6 297.4 663.5C299.4 665.4 299.4 668.6 297.5 670.6L280.3 688V772.9L301.4 791.6L442.5 794.1L460.3 783.4C462.7 782 465.7 782.7 467.2 785.1C468.6 787.5 467.9 790.5 465.5 792L445.2 804.2Z" fill="#231F20"/>
<path d="M467.8 750.1C465 750.1 462.8 747.9 462.8 745.1V691.1L450.1 677.5C448.3 675.6 448.2 672.5 450.1 670.6C452 668.6 455.2 668.5 457.2 670.4L457.4 670.6L472.9 687.1V745.1C472.8 747.9 470.6 750.1 467.8 750.1Z" fill="#231F20"/>
<path d="M666.8 919H435.7C432.9 919 430.2 917.8 428.3 915.8C426.4 913.8 425.4 911 425.6 908.2C427.2 883.8 439.5 866.7 461.2 858.8C470.2 855.5 480.9 853.8 492.8 853.8C506.1 853.8 533.9 854.2 554.9 854.6C562.6 854.7 570.2 854.9 577.2 855C580 855.1 582.7 855.1 585.3 855.2C599.9 855.5 610 855.7 610 855.7C612.8 855.8 615 858 614.9 860.8C614.8 863.5 612.6 865.7 609.9 865.7H609.8C609.8 865.7 599.6 865.5 585.1 865.2C582.5 865.2 579.8 865.1 577 865C570 864.9 562.5 864.7 554.7 864.6C533.8 864.2 506 863.8 492.8 863.8C482 863.8 472.5 865.3 464.6 868.2C446.7 874.8 436.9 888.4 435.6 908.9V909H666.7C677.8 909 684.8 906.1 685.7 905.8C688.1 904.7 691 905.7 692.2 908.2C693.4 910.7 692.4 913.7 690 914.9L689.7 915C688.2 915.6 679.7 919 666.8 919Z" fill="#231F20"/>
<path d="M219.8 919.1C200.7 919.1 185.8 903.7 185.8 884.1C185.8 866.2 200 851.1 216.8 851.1H462.8C465.6 851.1 467.8 853.3 467.8 856.1C467.8 858.9 465.6 861.1 462.8 861.1H216.8C206.7 861.1 195.8 870.3 195.8 884.1C195.8 896.4 204.8 909.1 219.8 909.1C227.7 909.1 276.5 909.1 326.8 909C331.8 909 336.8 909 341.8 909L446.8 908.9C449.6 908.9 451.8 911.1 451.8 913.9C451.8 916.7 449.6 918.9 446.8 918.9L341.8 919C336.8 919 331.8 919 326.8 919C276.5 919.1 227.7 919.1 219.8 919.1Z" fill="#231F20"/>
<path d="M215 878.3H193.3C190.5 878.3 188.3 876.1 188.3 873.3C188.3 870.5 190.5 868.3 193.3 868.3H215C217.8 868.3 220 870.5 220 873.3C220 876.1 217.7 878.3 215 878.3Z" fill="#231F20"/>
<path d="M215 897.1C214.9 897.1 214.9 897.1 215 897.1L192.4 896.9C189.6 896.9 187.4 894.6 187.4 891.9C187.4 889.2 189.7 886.9 192.4 886.9L215 887.1C217.8 887.1 220 889.4 220 892.1C219.9 894.8 217.7 897.1 215 897.1Z" fill="#231F20"/>
<path d="M450.8 919C448 919 445.8 916.8 445.8 914C445.8 902.1 449 891.8 455.2 884.1C462.4 875.1 473.4 870.4 486.9 870.4C489.7 870.4 491.9 872.6 491.9 875.4C491.9 878.2 489.7 880.4 486.9 880.4C477.6 880.4 455.8 883.7 455.8 914C455.8 916.7 453.5 919 450.8 919Z" fill="#231F20"/>
<path d="M349 919.1C346.2 919.1 344 916.9 344 914.1V856.1C344 853.3 346.2 851.1 349 851.1C351.8 851.1 354 853.3 354 856.1V914.1C354 916.9 351.8 919.1 349 919.1Z" fill="#231F20"/>
<path d="M326.8 919C324 919 321.8 916.8 321.8 914V856.3C321.8 853.5 324 851.3 326.8 851.3C329.6 851.3 331.8 853.5 331.8 856.3V914C331.8 916.7 329.6 919 326.8 919Z" fill="#231F20"/>
<path d="M577.6 919.1C576.7 919.1 575.7 918.8 574.9 918.3C572.7 916.8 572 913.9 573.3 911.6L573.4 911.4C587.7 887.1 575.5 866.6 573 862.7C571.5 860.4 572.1 857.3 574.4 855.8C576.7 854.3 579.8 854.9 581.3 857.2C584.4 861.9 599.3 887 582.1 916.4C582 916.6 581.9 916.7 581.8 916.9C580.8 918.3 579.2 919.1 577.6 919.1Z" fill="#231F20"/>
<path d="M555.6 919.1C554.7 919.1 553.7 918.8 552.9 918.3C550.7 916.8 550 913.9 551.3 911.6L551.4 911.4C566.3 886.1 552.4 864.7 550.7 862.4C549.1 860.1 549.7 857 551.9 855.4C554.2 853.8 557.3 854.4 558.9 856.6C560.9 859.5 577.9 885.6 560 916.3C559.9 916.5 559.8 916.6 559.7 916.8C558.8 918.3 557.2 919.1 555.6 919.1Z" fill="#231F20"/>
<path d="M694.8 916.2C691.9 916.2 689.1 915.8 686.5 915.1C679.2 913.1 673.7 908.6 671.2 902.4C666.1 889.9 674.8 874.5 690.6 868C706.4 861.5 723.5 866.4 728.6 878.9C729.6 881.2 730.1 883.7 730.1 886.3C730.2 897.3 721.8 908.1 709.2 913.3C704.4 915.2 699.5 916.2 694.8 916.2ZM689.1 905.5C694 906.8 699.9 906.3 705.3 904.1C714 900.5 720.1 893.3 720 886.5C720 885.2 719.7 883.9 719.3 882.8C716.3 875.5 704.9 873 694.4 877.3C683.9 881.6 677.5 891.4 680.4 898.7C681.7 901.9 684.8 904.3 689.1 905.5Z" fill="#231F20"/>
<path d="M726.1 891.4C724.6 891.4 723 890.7 722.1 889.4C720.6 887.4 720.9 884.6 722.7 882.9C723.4 881.6 726.1 874.3 729.2 838.2C729.8 831.7 730.3 824.8 730.8 817.7C730.9 816.4 730.9 815.4 731 814.9C730.4 810.6 723.8 773.5 670.7 773.5C617.2 773.5 598.6 828.3 596.7 834.5C595.9 837.1 593.1 838.6 590.4 837.8C587.8 837 586.3 834.2 587.1 831.5C589.3 824.5 610 763.4 670.7 763.4C689.1 763.4 714.4 767.8 730.1 788.5C739.6 801 740.9 813.6 741 814.1V814.5V814.9C741 814.9 740.9 816.1 740.8 818.2C740.3 825.4 739.8 832.3 739.2 838.9C735.1 886 731.6 888.6 729.2 890.4C728.2 891 727.1 891.4 726.1 891.4Z" fill="#231F20"/>
<path d="M585.2 865.1C584.3 865.1 583.4 864.9 582.5 864.3C580.2 862.8 579.5 859.8 580.9 857.4C581 857.2 586.3 848.3 586.7 832.7C586.8 830.4 586.7 827.9 586.5 825.5C586.3 822.7 588.4 820.4 591.1 820.2C593.9 820 596.2 822.1 596.4 824.8C596.6 827.6 596.7 830.3 596.6 833C596.1 851.6 589.6 862.2 589.3 862.7C588.5 864.3 586.8 865.1 585.2 865.1Z" fill="#231F20"/>
<path d="M578.8 837.1C566.1 837.1 555.8 824.3 555.8 808.6C555.8 792.9 566.1 780.1 578.8 780.1C585.2 780.1 591.1 783.2 595.5 788.9C597.5 791.4 599 794.3 600 797.5C601.2 801 601.8 804.8 601.8 808.6C601.8 816 599.6 822.9 595.5 828.3C591.1 834 585.2 837.1 578.8 837.1ZM578.8 790.1C571.8 790.1 565.8 798.6 565.8 808.6C565.8 818.6 571.8 827.1 578.8 827.1C582 827.1 585.1 825.4 587.6 822.2C590.3 818.6 591.8 813.8 591.8 808.6C591.8 805.8 591.4 803.2 590.5 800.7C589.8 798.6 588.8 796.7 587.5 795C585.1 791.9 582 790.1 578.8 790.1Z" fill="#231F20"/>
<path d="M591.5 797C588.7 797 586.5 794.7 586.5 792L586.7 749L587 748.5C587.2 747.5 588 740.9 581 726.6L580.9 726.5C580.8 726.3 580.7 726.2 580.7 726C579.5 723.5 580.6 720.5 583 719.3C585.5 718.1 588.5 719.2 589.7 721.6L589.9 722.1C598.1 738.8 597.4 747.6 596.7 750.7L596.5 791.9C596.5 794.8 594.3 797 591.5 797Z" fill="#231F20"/>
<path d="M462.8 780.7C461.1 780.7 459.4 779.8 458.5 778.3C457.1 775.9 457.8 772.9 460.2 771.4C462.5 770 518.4 737.1 592.2 745.1C594.9 745.4 596.9 747.9 596.6 750.6C596.3 753.3 593.8 755.3 591.1 755C520.5 747.3 465.8 779.6 465.3 779.9C464.6 780.5 463.7 780.7 462.8 780.7Z" fill="#231F20"/>
<path d="M740.4 820.1L736 818H730.9C730.9 817.8 730.9 817.6 730.9 817.4C731.8 808.1 731.4 799.1 729.7 790.7C729.2 788 730.9 785.4 733.6 784.8C736.3 784.3 738.9 786 739.5 788.7C741.4 798.1 741.9 808.1 740.9 818.4L740.8 819.3L740.4 820.1Z" fill="#231F20"/>
<path d="M595.3 804.1C592.6 804.1 590.3 801.9 590.3 799.2C590.1 782 597.4 765.4 610.8 752.5C626.5 737.4 649.1 729 671.1 730.2C707 732 732.6 753.9 739.5 788.7C740 791.4 738.3 794 735.6 794.6C732.9 795.1 730.3 793.4 729.7 790.7C723.6 760.2 702 741.8 670.6 740.2C651.3 739.2 631.5 746.5 617.7 759.8C606.3 770.8 600.1 784.8 600.3 799.2C600.3 801.8 598.1 804.1 595.3 804.1Z" fill="#231F20"/>
<path d="M734.6 794.6C731.9 794.6 729.7 792.4 729.6 789.8C729.6 789.3 729.5 787.7 729.4 785.1L729.1 778.5C727.8 749.5 726.9 731.5 726.6 726.5C726.6 726.3 725.8 723.5 717.6 713.9C704.2 698.2 681.6 677.1 681.4 676.9L679.8 675.4V673.2L680 625.7C680 619.6 676.7 614.1 671.3 611.2L660.4 605.4H593C587.8 605.4 583 608.2 580.3 612.7L570.7 629.2C569.4 631.4 568.7 634 568.7 636.6V653.7C568.7 656.5 566.5 658.7 563.7 658.7C560.9 658.7 558.7 656.5 558.7 653.7V636.6C558.7 632.3 559.9 628 562.1 624.2L571.7 607.7C576.1 600.2 584.3 595.5 593 595.5H663L676.1 602.5C684.7 607.1 690.1 616.1 690.1 625.8L689.9 671.1C695.4 676.3 713.5 693.6 725.3 707.4C734.9 718.7 736.4 723 736.6 725.8C737 731.1 737.8 748.7 739.1 778.1L739.4 784.7C739.5 787.4 739.6 789.2 739.6 789.4V789.7C739.6 792.4 737.4 794.6 734.6 794.6Z" fill="#231F20"/>
<path d="M661.7 605.3C659.8 605.3 657.9 604.2 657.1 602.3L646.1 577C643.6 571.3 638.8 567 632.8 565.2L602 556C599.4 555.2 597.9 552.4 598.6 549.8C599.4 547.2 602.2 545.7 604.8 546.4L635.6 555.6C644.4 558.2 651.5 564.6 655.2 573L666.2 598.3C667.3 600.8 666.1 603.8 663.6 604.9C663.1 605.2 662.4 605.3 661.7 605.3Z" fill="#231F20"/>
<path d="M275.3 765.9C274.5 765.9 273.7 765.7 272.9 765.3C257.1 756.6 243.3 752.8 234.4 751.2C231.1 750.6 228.1 748.9 225.9 746.3C223.1 743 221.9 738.6 222.7 734.3L224.8 722.9C225.3 720.2 227.9 718.4 230.6 718.9C233.3 719.4 235.1 722 234.6 724.7L232.5 736.1C232.3 737.4 232.6 738.8 233.5 739.8C234 740.3 234.8 741.1 236.2 741.3C245.8 743 260.7 747.1 277.7 756.5C280.1 757.8 281 760.9 279.7 763.3C278.7 765 277 765.9 275.3 765.9Z" fill="#231F20"/>
<path d="M236.7 861.1C234 861.1 231.7 858.9 231.7 856.1L231.5 826L237.5 815.5C234.2 810.3 229.9 803.2 229.1 800.5C228 796.7 224.7 743.9 224.6 743.4V743.1C224.6 740.3 226.8 738.1 229.6 738.1C232.3 738.1 234.5 740.2 234.6 742.9C235.2 753.2 238 793.6 238.7 797.9C239.3 799.6 243.7 806.9 247.5 812.7L249.1 815.2L241.4 828.7L241.5 856.1C241.7 858.9 239.5 861.1 236.7 861.1Z" fill="#231F20"/>
<path d="M243.4 820.4C241.9 820.4 240.4 819.7 239.4 818.4C237.7 816.2 238.2 813.1 240.4 811.4C241 811 254.6 800.9 270.2 803.8C272.9 804.3 274.7 806.9 274.2 809.6C273.7 812.3 271.1 814.1 268.4 813.6C257.2 811.5 246.6 819.3 246.4 819.4C245.5 820 244.4 820.4 243.4 820.4Z" fill="#231F20"/>
<path d="M467.8 826.6C466.2 826.6 464.6 825.8 463.7 824.4C462.2 822.1 462.7 819 465 817.5C465.7 817 483.4 805.3 504.2 810.5C506.9 811.2 508.5 813.9 507.8 816.6C507.1 819.3 504.4 820.9 501.7 820.2C485.3 816 470.7 825.7 470.6 825.8C469.8 826.3 468.8 826.6 467.8 826.6Z" fill="#231F20"/>
<path d="M295 861.1C292.2 861.1 290 858.9 290 856.1V794C290 791.2 292.2 789 295 789C297.8 789 300 791.2 300 794V856.1C300 858.9 297.8 861.1 295 861.1Z" fill="#231F20"/>
<path d="M220.1 715.7C215.8 715.7 212.1 712.5 211.5 708.1C210.7 702.6 208.6 691.3 202.8 677.6C201.9 675.4 201.9 672.9 202.8 670.7C203.7 668.5 205.6 666.8 207.8 666L221.2 661.1L223.5 663.8C224.3 664.7 242.1 686.2 234.5 711.1L233.5 714.2L221.1 715.7C220.8 715.7 220.4 715.7 220.1 715.7ZM212.5 675C218 688.3 220.3 699.4 221.2 705.6L225.7 705.1C228.5 691.1 221.5 678.5 217.9 673.1L212.5 675Z" fill="#231F20"/>
<path d="M192 716.3C184 716.3 177.3 711 174.9 702.5C172.5 693.9 175.4 685.5 181.8 682.7C184.5 681.5 187.9 679.9 192 677.9C198.8 674.6 205.1 671.4 205.2 671.4C207.7 670.2 210.7 671.1 211.9 673.6C213.2 676.1 212.2 679.1 209.7 680.3C209.6 680.3 203.2 683.6 196.3 686.9C192.1 688.9 188.6 690.6 185.8 691.8C184.3 692.5 183.4 696 184.5 699.8C185.1 702 187.2 707.1 193.1 706.3C196.1 705.9 198.9 705.5 201.3 705.1C210.5 703.7 215.3 702.7 215.3 702.7C218 702.1 220.7 703.8 221.2 706.5C221.8 709.2 220.1 711.9 217.4 712.4C217.2 712.4 212.3 713.5 202.8 714.9C200.3 715.3 197.5 715.7 194.4 716.1C193.7 716.2 192.8 716.3 192 716.3Z" fill="#231F20"/>
<path d="M202 714.6C200.3 714.6 198.6 713.7 197.7 712.1C190.4 699.7 189.2 683.3 189.1 682.6C188.9 679.8 191 677.5 193.7 677.3C196.5 677.1 198.8 679.2 199 681.9C199 682 200.1 696.7 206.2 707C207.6 709.4 206.8 712.4 204.4 713.8C203.8 714.4 202.9 714.6 202 714.6Z" fill="#231F20"/>
<path d="M540.3 718.1C524.6 718.1 511.8 705.3 511.8 689.6C511.8 673.9 524.6 661.1 540.3 661.1C550.6 661.1 560.2 666.7 565.2 675.7C566.5 678.1 565.7 681.2 563.3 682.5C560.9 683.8 557.8 683 556.5 680.6C553.2 674.7 547 671.1 540.3 671.1C530.1 671.1 521.8 679.4 521.8 689.6C521.8 699.8 530.1 708.1 540.3 708.1C542 708.1 543.7 707.9 545.4 707.4C548.1 706.7 550.8 708.2 551.6 710.9C552.4 713.6 550.8 716.3 548.1 717.1C545.6 717.8 543 718.1 540.3 718.1Z" fill="#231F20"/>
<path d="M594.6 729.9C591.4 729.9 588.2 729.7 585 729.4C584.2 729.3 583.4 729.2 582.6 729.1C573.2 728 564 725.6 555.1 721.9C554.2 721.6 553.4 721.2 552.6 720.8C549.6 719.5 547.2 718.2 545.5 717.2H544.8L543.8 716.2C536.2 711.6 530.9 704.9 529.2 697.9C527.8 692 529.1 685.9 532.8 680.4C539.9 669.7 552.9 668.8 562.2 673.3H563L564 674.3C564.6 674.7 565.3 675.1 566.1 675.6C567.3 676.3 568.6 677.2 570.2 678C576.2 681.4 581.7 683.6 587 684.8C593.5 686.2 599.8 685.9 605.7 683.9C608.7 682.9 611.7 681.5 614.6 679.6C616.9 678.1 618.9 676.6 620.5 675C622 673.6 623.2 672.2 624 670.8C624.8 669.5 625.2 668.1 625.4 666.9C625.6 665 625 663.1 623.7 661.1C619.1 654.1 618.8 645 623 637.9C626.7 631.7 631.9 627.8 638.2 626.7C643 625.9 648 626.5 652.9 628.6C658.1 630.8 662.5 634.4 665.8 639C668.4 642.6 670.3 646.9 671.2 651.3L671.3 651.8C672.6 658.6 672.9 666.4 671.9 673.6C671.4 677.5 670.6 681.2 669.4 684.7C664.6 699.7 654.8 711.2 640.3 718.8C638.9 719.5 637.7 720.1 636.5 720.7C628.1 724.5 619.5 727.1 610.8 728.5C605.4 729.4 600 729.9 594.6 729.9ZM549.8 708.2C551.3 709.1 553.7 710.3 556.6 711.6C557.3 711.9 558.1 712.3 558.8 712.6C566.8 715.9 575.2 718.1 583.7 719.2C584.5 719.3 585.1 719.4 585.8 719.4C593.6 720.2 601.4 719.9 609 718.6C616.8 717.3 624.6 714.9 632.2 711.5C633.2 711 634.3 710.5 635.5 709.9C647.6 703.6 655.8 694.1 659.7 681.7C660.6 678.7 661.3 675.6 661.8 672.3C662.9 663.9 661.9 657.1 661.3 653.7L661.2 653.3C660.5 650.2 659.2 647.3 657.4 644.7C655.2 641.5 652.1 639.1 648.7 637.6C645.6 636.3 642.5 635.9 639.6 636.4C636.2 637 633.5 639.1 631.3 642.9C629 646.7 629.2 651.7 631.7 655.5C634.2 659.3 635.4 663.5 635 667.7C634.8 670.5 633.8 673.2 632.3 675.8C631 678 629.3 680.2 627.1 682.2C625.1 684.1 622.6 686.1 619.7 687.9C616.1 690.2 612.3 692.1 608.5 693.3C600.9 695.8 592.8 696.2 584.6 694.5C578.3 693.2 571.8 690.6 564.9 686.6C563.2 685.7 561.8 684.7 560.6 684C560.1 683.7 559.7 683.4 559.3 683.2H558.6L557.7 682.3C553.1 680 545.3 679.2 540.9 685.9C538.7 689.2 538 692.4 538.8 695.6C539.8 699.8 543.2 704 548.1 707.2H548.8L549.8 708.2Z" fill="#231F20"/>
<path d="M557 722.3C555.1 722.3 553.3 721.2 552.4 719.3C548.9 711.5 548.6 702.5 551.6 694.5C554.1 687.8 558.8 681.9 564.9 678C567.2 676.5 570.3 677.2 571.8 679.5C573.3 681.8 572.6 684.9 570.3 686.4C566 689.1 562.7 693.2 561 697.9C559 703.5 559.2 709.7 561.6 715.2C562.7 717.7 561.6 720.7 559.1 721.8C558.4 722.1 557.7 722.3 557 722.3Z" fill="#231F20"/>
<path d="M583.3 729.4C581.3 729.4 579.4 728.2 578.6 726.2C578.6 726.1 578.5 726.1 578.5 726C573.5 713.6 574.6 698.7 581.5 687.1C582.9 684.7 586 683.9 588.3 685.3C590.7 686.7 591.5 689.8 590.1 692.1C584.8 701.1 583.9 712.6 587.8 722.3L587.9 722.6C588.9 725.2 587.6 728.1 585 729C584.5 729.3 583.9 729.4 583.3 729.4Z" fill="#231F20"/>
<path d="M610 728.6C609.7 728.6 609.4 728.6 609.1 728.5C606.4 728 604.6 725.4 605.1 722.7C607.1 711.9 606.2 700.7 602.5 690.3C601.6 687.7 602.9 684.8 605.5 683.9C608.1 683 611 684.3 611.9 686.9C616.2 698.9 617.2 711.9 614.9 724.5C614.4 726.9 612.3 728.6 610 728.6Z" fill="#231F20"/>
<path d="M638 719.4C637.7 719.4 637.4 719.4 637.2 719.3C634.5 718.8 632.6 716.3 633.1 713.5C634.4 706.1 634.1 699.9 632.3 694.7C630.4 689.2 626.6 684.9 622 683.1C619.4 682.1 618.2 679.2 619.2 676.6C620.2 674 623.1 672.8 625.7 673.8C632.9 676.7 638.9 683.3 641.8 691.5C644.1 698.3 644.5 706 643 715.2C642.5 717.7 640.4 719.4 638 719.4Z" fill="#231F20"/>
<path d="M664.6 688.2C662.3 688.2 660.2 686.5 659.7 684.2C658.6 678.4 654.6 673.3 649.2 670.9C644 668.5 637.6 668.8 632.6 671.6C630.2 673 627.1 672.1 625.8 669.7C624.4 667.3 625.3 664.2 627.7 662.9C635.5 658.5 645.3 658.1 653.4 661.8C661.6 665.6 667.8 673.4 669.5 682.3C670 685 668.3 687.6 665.5 688.2C665.3 688.2 665 688.2 664.6 688.2Z" fill="#231F20"/>
<path d="M629.3 663.2C628.9 663.2 628.5 663.2 628.1 663C625.4 662.3 623.8 659.6 624.5 656.9C626.5 648.8 632.2 641.7 639.7 638C647.1 634.3 656 634 663.6 637.2H663.7C666.3 638.2 667.6 641 666.7 643.6C665.7 646.2 662.9 647.5 660.3 646.6L659.9 646.4C654.9 644.3 649.1 644.5 644.2 646.9C639.3 649.3 635.6 654 634.2 659.3C633.5 661.6 631.5 663.2 629.3 663.2Z" fill="#231F20"/>
<path d="M622.7 676.6C622 676.6 621.4 676.5 620.7 676.2C610.5 671.9 603 661.8 601.7 650.7C600.2 638.2 606.1 625 616.8 617.1C629 608 646.1 607 658.4 614.7C671.5 622.9 677.4 640.7 671.4 654.3C670.3 656.8 667.3 658 664.8 656.9C662.3 655.8 661.1 652.8 662.2 650.3C666.2 641.2 662 628.8 653.1 623.2C644.4 617.7 631.6 618.6 622.7 625.2C615 630.9 610.5 640.7 611.6 649.6C612.5 657.2 617.8 664.2 624.6 667.1C627.1 668.2 628.3 671.1 627.2 673.7C626.5 675.5 624.6 676.6 622.7 676.6Z" fill="#231F20"/>
<path d="M685 678.1H667.4C664.6 678.1 662.4 675.9 662.4 673.1C662.4 670.3 664.6 668.1 667.4 668.1H685C687.8 668.1 690 670.3 690 673.1C690 675.9 687.8 678.1 685 678.1Z" fill="#231F20"/>
<path d="M622.3 678.1H569.8C567 678.1 564.8 675.9 564.8 673.1C564.8 670.3 567 668.1 569.8 668.1H622.3C625.1 668.1 627.3 670.3 627.3 673.1C627.3 675.9 625.1 678.1 622.3 678.1Z" fill="#231F20"/>
<path d="M734.1 843.5C732.7 843.5 731.2 842.9 730.3 841.7C728.5 839.6 728.8 836.4 730.9 834.7C731.1 834.6 737.6 829 743.3 817.8C751 802.7 753.7 785.2 751.4 765.8C750.4 758 748.7 749.9 746.1 741.7C742 728.5 737.3 716.2 731.5 702.9C727.9 694.8 724.4 687.4 721 680.3C715.6 668.9 710.5 658.2 706.4 647C700.2 629.8 697.4 613.8 697.3 594.9C697.3 592.8 697.3 590.7 697.4 588.4C698.1 574.1 701.4 558.8 707.6 541.6C712.4 528.4 718.2 515.7 723.8 503.4C724.9 501.1 725.9 498.7 727 496.4C735.6 477.5 743.3 459.1 743.8 442.9C744.3 426.1 739.2 412.2 730 405.6C722.5 400.3 712.3 399.8 700.6 404.3C684.9 410.3 668.9 432.9 656.7 466.3C649.6 485.7 644.2 507.9 641.4 528.9C639.9 540.1 639.2 550.6 639.3 560.2C639.3 563 637.1 565.2 634.3 565.2C631.6 565.2 629.3 563 629.3 560.2C629.2 550.1 629.9 539.1 631.5 527.5C634.4 505.8 640 482.8 647.3 462.8C665.4 413.3 686.2 399 697 394.9C716 387.6 728.6 392.2 735.8 397.3C747.9 405.9 754.5 422.6 753.8 443C753.2 461.1 745.1 480.4 736.1 500.3C735.1 502.6 734 504.9 732.9 507.3C727.4 519.4 721.7 531.9 717 544.7C711.1 561 708 575.3 707.3 588.6C707.2 590.7 707.2 592.6 707.2 594.5C707.3 612.2 710 627.2 715.7 643.3C719.6 654 724.6 664.6 729.9 675.7C733.3 682.9 736.9 690.3 740.5 698.6C746.5 712.3 751.3 724.9 755.5 738.5C758.3 747.3 760.2 756 761.2 764.4C767.5 816.4 738.5 841.2 737.2 842.2C736.4 843.1 735.2 843.5 734.1 843.5Z" fill="#231F20"/>
<path d="M729.7 502.7C727.7 502.7 725.8 501.5 725 499.5C719.8 486 708.8 474.7 695.4 469.1C682.4 463.7 666.9 463.8 653.9 469.3C651.4 470.4 648.4 469.2 647.3 466.7C646.2 464.2 647.4 461.2 649.9 460.1C665.5 453.4 683.5 453.3 699.2 459.8C715 466.4 728.2 479.8 734.3 495.8C735.3 498.4 734 501.3 731.4 502.3C730.9 502.6 730.3 502.7 729.7 502.7Z" fill="#231F20"/>
<path d="M711.3 547.9C710.1 547.9 708.8 547.4 707.8 546.5C690 529.3 661.4 523.8 638.3 533.1C635.7 534.1 632.8 532.9 631.8 530.3C630.8 527.7 632 524.8 634.6 523.8C661.2 513 694.2 519.4 714.8 539.3C716.8 541.2 716.8 544.4 714.9 546.4C713.9 547.4 712.6 547.9 711.3 547.9Z" fill="#231F20"/>
<path d="M657.4 597.7C655.5 597.7 653.7 596.6 652.8 594.7C651.7 592.2 652.8 589.2 655.3 588.1C655.6 588 655.9 587.8 656.3 587.7C671.1 581.5 687.8 580.1 703.4 583.7C706.1 584.3 707.8 587 707.1 589.7C706.5 592.4 703.8 594.1 701.1 593.4C687.5 590.2 672.9 591.5 660.1 596.9H660C659.8 597 659.6 597.1 659.4 597.2C658.8 597.5 658.1 597.7 657.4 597.7Z" fill="#231F20"/>
<path d="M684.9 660.8C682.4 660.8 680.2 658.9 679.9 656.4C679.6 653.7 681.6 651.2 684.3 650.9C692.8 649.9 701.2 646.5 708 641.3C710.2 639.6 713.3 640 715 642.2C716.7 644.4 716.3 647.5 714.1 649.2C705.8 655.6 695.9 659.7 685.4 660.8C685.3 660.8 685.1 660.8 684.9 660.8Z" fill="#231F20"/>
<path d="M721.4 715.6C719.5 715.6 717.6 714.5 716.8 712.6C715.7 710.1 716.8 707.1 719.4 706C723.9 704 728.2 701.1 731.7 697.6C733.7 695.6 736.8 695.6 738.8 697.6C740.8 699.6 740.8 702.7 738.8 704.7C734.5 709.1 729.2 712.7 723.5 715.2C722.8 715.4 722.1 715.6 721.4 715.6Z" fill="#231F20"/>
<path d="M734.1 783.3C731.8 783.3 729.8 781.7 729.2 779.4C728.6 776.7 730.3 774 732.9 773.4C740.7 771.6 747.8 767.4 752.4 761.9C754.2 759.8 757.3 759.5 759.4 761.3C761.5 763.1 761.8 766.2 760 768.3C754 775.5 745 780.9 735.1 783.2C734.9 783.2 734.5 783.3 734.1 783.3Z" fill="#231F20"/>
<path d="M316.3 711.5H293.8C291 711.5 288.8 709.3 288.8 706.5C288.8 703.7 291 701.5 293.8 701.5H316.3C319.1 701.5 321.3 703.7 321.3 706.5C321.3 709.3 319.1 711.5 316.3 711.5Z" fill="#231F20"/>
<path d="M316.3 734.5H293.8C291 734.5 288.8 732.3 288.8 729.5C288.8 726.7 291 724.5 293.8 724.5H316.3C319.1 724.5 321.3 726.7 321.3 729.5C321.3 732.3 319.1 734.5 316.3 734.5Z" fill="#231F20"/>
<path d="M316.3 757.5H293.8C291 757.5 288.8 755.3 288.8 752.5C288.8 749.7 291 747.5 293.8 747.5H316.3C319.1 747.5 321.3 749.7 321.3 752.5C321.3 755.3 319.1 757.5 316.3 757.5Z" fill="#231F20"/>
<path d="M372.3 773.1C361 773.1 351.8 763.9 351.8 752.6C351.8 741.3 361 732.1 372.3 732.1C383.6 732.1 392.8 741.3 392.8 752.6C392.8 763.9 383.6 773.1 372.3 773.1ZM372.3 742.1C366.5 742.1 361.8 746.8 361.8 752.6C361.8 758.4 366.5 763.1 372.3 763.1C378.1 763.1 382.8 758.4 382.8 752.6C382.8 746.8 378.1 742.1 372.3 742.1Z" fill="#231F20"/>
<path d="M410.3 765.9C403 765.9 397.1 760 397.1 752.7C397.1 745.4 403 739.5 410.3 739.5C417.6 739.5 423.5 745.4 423.5 752.7C423.5 760 417.6 765.9 410.3 765.9ZM410.3 745.9C406.6 745.9 403.5 748.9 403.5 752.7C403.5 756.5 406.5 759.5 410.3 759.5C414.1 759.5 417.1 756.5 417.1 752.7C417.1 748.9 414.1 745.9 410.3 745.9Z" fill="#231F20"/>
<path d="M439.8 766.4C432.5 766.4 426.6 760.5 426.6 753.2C426.6 745.9 432.5 740 439.8 740C447.1 740 453 745.9 453 753.2C453 760.5 447.1 766.4 439.8 766.4ZM439.8 746.4C436.1 746.4 433 749.4 433 753.2C433 757 436 760 439.8 760C443.6 760 446.6 757 446.6 753.2C446.6 749.4 443.6 746.4 439.8 746.4Z" fill="#231F20"/>
<path d="M732.2 433.5C732.4 435 732.7 436.4 732.9 437.8C733.3 440 733.8 442.2 734.2 444.4C734.8 447.7 735.3 451.1 735.9 454.5C736.1 455.4 736.3 456.4 736.5 457C728.4 458.5 720.5 459.9 712.5 461.4C713.2 460.4 713.9 459.4 714.6 458.4C715.3 457.3 716 456.3 716.8 455.3C717.2 454.7 717.1 454.5 716.6 454.1C712.4 451.2 708.3 448.3 704.1 445.4C703.8 445.2 703.5 445 702.9 444.6C704.4 444.5 705.6 444.5 706.8 444.4C711.6 444.2 716.3 444.1 721.1 443.9C721.3 443.9 721.5 443.9 721.8 443.9C723.7 443.9 725.3 443.1 726.4 441.5C728.3 438.9 730.1 436.2 732 433.5C732 433.5 732.1 433.5 732.2 433.5Z" fill="#1486AD"/>
<path d="M710.5 418.3L705.7 425.1C710.4 428.3 715 431.6 719.6 434.8C719.6 434.9 719.6 434.9 719.6 435C718.3 435.1 716.9 435.2 715.6 435.2C711.8 435.3 708.1 435.4 704.4 435.6C702.6 435.7 700.9 435.8 699.2 435.8C698.5 435.8 698.2 436 697.9 436.5C695.8 439.5 693.8 442.5 691.7 445.4C691.5 445.7 691.3 446 691.1 446.2C689.7 438.3 688.3 430.3 686.9 422.5C694.5 421.2 702.4 419.8 710.5 418.3Z" fill="#27AAE1"/>
<path d="M732.2 433.5C732.1 433.5 732 433.5 731.9 433.5L732.1 433.2C732.1 433.3 732.1 433.4 732.2 433.5Z" fill="#1486AD"/>
</g>
<defs>
<clipPath id="clip0_761_4135">
<rect width="607" height="744" fill="white" transform="translate(156 176)"/>
</clipPath>
</defs>
</svg>
