<?xml version="1.0" encoding="UTF-8" standalone="no"?><!DOCTYPE svg PUBLIC "-//W3C//DTD SVG 1.1//EN" "http://www.w3.org/Graphics/SVG/1.1/DTD/svg11.dtd"><svg width="100%" height="100%" viewBox="0 0 250 250" version="1.1" xmlns="http://www.w3.org/2000/svg" xmlns:xlink="http://www.w3.org/1999/xlink" xml:space="preserve" xmlns:serif="http://www.serif.com/" style="fill-rule:evenodd;clip-rule:evenodd;stroke-linecap:round;stroke-linejoin:round;stroke-miterlimit:1.5;"><rect id="zeek-passport" x="0" y="0" width="250" height="250" style="fill:none;"/><clipPath id="_clip1"><rect x="0" y="0" width="250" height="250"/></clipPath><g clip-path="url(#_clip1)"><g id="Zeek"><path id="Tail" d="M202.681,232.69c0,0 11.297,-9.178 10.192,-23.41c-1.105,-14.231 -7.388,-21.645 -9.711,-27.462c-2.323,-5.818 -5.985,-15.19 -5.302,-24.293c0.914,-12.19 6.55,-22.687 11.047,-29.109c2.535,-3.62 6,-10.759 0.787,-15.449c-3.459,-3.111 -9.017,-2.845 -12.159,0.258c-3.141,3.102 -12.918,15.797 -13.827,31.227c-1.186,20.147 1.756,33.388 5.116,37.795c3.36,4.406 12.783,21.497 12.352,26.898c-0.431,5.402 1.505,23.545 1.505,23.545Z" style="fill:#fd9203;"/><clipPath id="_clip2"><path id="Tail1" serif:id="Tail" d="M202.681,232.69c0,0 11.297,-9.178 10.192,-23.41c-1.105,-14.231 -7.388,-21.645 -9.711,-27.462c-2.323,-5.818 -5.985,-15.19 -5.302,-24.293c0.914,-12.19 6.55,-22.687 11.047,-29.109c2.535,-3.62 6,-10.759 0.787,-15.449c-3.459,-3.111 -9.017,-2.845 -12.159,0.258c-3.141,3.102 -12.918,15.797 -13.827,31.227c-1.186,20.147 1.756,33.388 5.116,37.795c3.36,4.406 12.783,21.497 12.352,26.898c-0.431,5.402 1.505,23.545 1.505,23.545Z"/></clipPath><g clip-path="url(#_clip2)"><path d="M184.068,171.846c3.723,3.458 6.907,5.41 10.731,2.092c3.824,-3.318 5.754,-12.095 6.641,-15.174c0.888,-3.08 6.55,-20.23 10.53,-24.593c3.979,-4.364 9.13,-29.542 0.768,-30.892c-8.361,-1.35 -20.327,1.252 -26.877,10.629c-6.55,9.378 -5.516,54.48 -1.793,57.938Z" style="fill:#ffaf32;"/><path d="M188.185,123.945l19.43,11.452c0,0 17.51,-23.226 6.377,-27.458c-11.134,-4.232 -18.571,2.001 -21.636,5.747c-3.064,3.746 -4.171,10.259 -4.171,10.259Z" style="fill:#e77f00;"/><path d="M204.084,140.36l-1.752,3.945l-21.785,-9.671l1.751,-3.945l21.786,9.671Z" style="fill:#e77f00;"/><g><path d="M207.711,125.458l-0.409,-5.4l-1.827,2.117l-4.715,-0.367l2.884,2.489l-1.335,1.546l5.402,-0.385Z" style="fill:#ffaf32;"/><path d="M197.474,116.623l0.409,5.4l1.816,-2.104l4.73,0.35l-2.884,-2.489l1.334,-1.546l-5.405,0.389Z" style="fill:#ffaf32;"/></g></g><path id="Tail2" serif:id="Tail" d="M202.681,232.69c0,0 11.297,-9.178 10.192,-23.41c-1.105,-14.231 -7.388,-21.645 -9.711,-27.462c-2.323,-5.818 -5.985,-15.19 -5.302,-24.293c0.914,-12.19 6.55,-22.687 11.047,-29.109c2.535,-3.62 6,-10.759 0.787,-15.449c-3.459,-3.111 -9.017,-2.845 -12.159,0.258c-3.141,3.102 -12.918,15.797 -13.827,31.227c-1.186,20.147 1.756,33.388 5.116,37.795c3.36,4.406 12.783,21.497 12.352,26.898c-0.431,5.402 1.505,23.545 1.505,23.545Z" style="fill:none;stroke:#040200;stroke-width:2.21px;"/><path id="Body" d="M131.358,247.07c-17.111,-0.248 -48.137,-0.656 -53.155,-0.728c-6.843,-0.097 1.202,-31.416 -3.49,-43.389c-4.692,-11.974 -14.493,-34.545 -9.161,-50.224c5.332,-15.678 36.057,-2.94 51.491,-6.092c15.434,-3.153 29.661,-8.871 40.716,-8.015c3.141,0.243 4.914,8.456 7.199,12.113c2.639,4.225 10.21,12.671 17.207,19.367c11.662,11.159 23.014,28.569 22.217,44.965c-0.797,16.397 -2.604,32.465 -26.072,32.358c-18.528,-0.085 -36.571,-0.204 -46.952,-0.355Z" style="fill:#fd9203;"/><clipPath id="_clip3"><path id="Body1" serif:id="Body" d="M131.358,247.07c-17.111,-0.248 -48.137,-0.656 -53.155,-0.728c-6.843,-0.097 1.202,-31.416 -3.49,-43.389c-4.692,-11.974 -14.493,-34.545 -9.161,-50.224c5.332,-15.678 36.057,-2.94 51.491,-6.092c15.434,-3.153 29.661,-8.871 40.716,-8.015c3.141,0.243 4.914,8.456 7.199,12.113c2.639,4.225 10.21,12.671 17.207,19.367c11.662,11.159 23.014,28.569 22.217,44.965c-0.797,16.397 -2.604,32.465 -26.072,32.358c-18.528,-0.085 -36.571,-0.204 -46.952,-0.355Z"/></clipPath><g clip-path="url(#_clip3)"><path d="M61.712,147.03c-2.562,5.565 -6.77,20.912 -3.769,28.602c3,7.69 4.208,13.272 10.337,19.283c6.129,6.01 6.696,19.431 6.971,24.272c0.274,4.841 -2.598,13.552 1.244,13.041c3.842,-0.51 8.764,3.327 10.411,-5.73c1.646,-9.057 2.927,-13.058 0.585,-24.585c-2.342,-11.527 -0.75,-14.54 3.696,-19.661c4.446,-5.121 21.297,7.426 26.219,4.841c4.921,-2.585 7.337,2.981 7.337,2.981c-0,-0 1.976,21.867 1.152,26.083c-0.823,4.215 -0.512,14.474 3.458,11.082c3.971,-3.392 5.452,-13.108 7.776,-19.546c2.324,-6.438 1.318,-17.652 5.928,-21.176c4.611,-3.524 6.843,-2.849 7.758,-8.464c0.915,-5.615 2.763,10.632 9.73,9.493c9.499,-1.553 15.5,1.671 20.532,6.117c5.031,4.446 12.112,11.395 16.778,14.178c4.665,2.783 8.617,12.647 8.617,12.647c0,-0 6.111,-24.635 -2.891,-37.265c-9.001,-12.629 -28.377,-42.517 -36.135,-47.341c-7.757,-4.825 -19.229,0.115 -19.229,0.115c-0,-0 -83.944,5.467 -86.505,11.033Z" style="fill:#ffaf32;"/><path d="M168.349,134.294c6.817,15.762 -3.628,22.549 -9.536,28.638" style="fill:none;stroke:#e87f00;stroke-width:14.7px;"/><path d="M180.119,155c5.307,16.332 -5.728,22.109 -12.183,27.616" style="fill:none;stroke:#e87f00;stroke-width:14.7px;"/><path d="M196.799,165.76c6.047,16.072 -4.712,22.347 -10.908,28.144" style="fill:none;stroke:#e87f00;stroke-width:14.7px;"/><path d="M79.993,139.604c-2.104,8.316 -6.691,18.113 -5.907,23.394c0.784,5.281 3.254,10.163 8.129,12.139c4.874,1.976 10.089,8.268 13.827,11.468c3.737,3.199 3.424,9.056 10.154,8.715c6.73,-0.341 15.094,-3.176 16.506,-12.785c1.411,-9.61 0.379,-18.196 5.018,-21.995c4.64,-3.799 12.546,-9.468 4.718,-11.656c-7.828,-2.188 -50.341,-17.596 -52.445,-9.28Z" style="fill:#fff;"/><path d="M123.238,183.499c2.287,13.844 2.679,31.217 1.503,42.073c-1.177,10.856 -0.641,9.233 -1.046,11.621c-0.405,2.387 13.971,5.692 13.971,5.692l6.73,-1.152c0,-0 -2.601,-7.622 -2.836,-18.584c-0.235,-10.962 5.933,-21.336 7.123,-25.735c1.189,-4.399 4.822,-16.867 2.038,-20.266" style="fill:none;stroke:#000;stroke-width:2.21px;"/><path d="M95.61,195.191c2.287,9.844 2.719,25.088 2.313,31.334c-0.405,6.245 -2.849,9.903 -2.849,9.903" style="fill:none;stroke:#000;stroke-width:2.21px;"/><g><path d="M66.163,157.682c1.743,13.322 32.659,17.491 32.659,17.491l-19.42,-19.286c0,-0 -14.111,-4.859 -13.239,1.795Z" style="fill:#ea461f;stroke:#000;stroke-width:1.3px;"/><path d="M119.512,155.134c-2.609,4.03 -14.203,17.465 -17.872,18.896c-3.669,1.432 25.922,2.06 39.873,-11.991c13.951,-14.05 22.866,-19.449 20.452,-24.861c-2.413,-5.411 -20.913,-0.74 -23.312,2.65c-2.4,3.39 -16.532,11.275 -19.141,15.306Z" style="fill:#ea461f;stroke:#000;stroke-width:1.3px;"/><path d="M98.013,176.742c-3.837,0.201 -8.552,2.687 -10.24,7.107c-1.688,4.42 -0.698,9.945 -2.972,12.079c-2.274,2.135 16.212,-11.564 16.044,-16.549c-0.167,-4.985 1.005,-2.837 -2.832,-2.637Z" style="fill:#ea461f;stroke:#000;stroke-width:1.3px;"/><path d="M103.621,175.914c0,-0 12.905,-0.754 13.756,3.327c0.851,4.081 2.777,8.563 2.777,8.563c-0,0 -17.063,-3.465 -18.472,-9.781c-1.409,-6.316 1.939,-2.109 1.939,-2.109Z" style="fill:#ea461f;stroke:#000;stroke-width:1.3px;"/><path d="M99.366,169.786c-3.822,2.185 -4.897,7.634 -2.539,9.38c2.358,1.745 5.455,1.142 6.655,-1.306c1.2,-2.449 -0.293,-10.258 -4.116,-8.074Z" style="fill:#ea461f;stroke:#000;stroke-width:1.3px;"/></g></g><path id="Body2" serif:id="Body" d="M131.358,247.07c-17.111,-0.248 -48.137,-0.656 -53.155,-0.728c-6.843,-0.097 1.202,-31.416 -3.49,-43.389c-4.692,-11.974 -14.493,-34.545 -9.161,-50.224c5.332,-15.678 36.057,-2.94 51.491,-6.092c15.434,-3.153 29.661,-8.871 40.716,-8.015c3.141,0.243 4.914,8.456 7.199,12.113c2.639,4.225 10.21,12.671 17.207,19.367c11.662,11.159 23.014,28.569 22.217,44.965c-0.797,16.397 -2.604,32.465 -26.072,32.358c-18.528,-0.085 -36.571,-0.204 -46.952,-0.355Z" style="fill:none;stroke:#000;stroke-width:2.21px;"/><path id="Left-Leg" serif:id="Left Leg" d="M125.941,232.589l-73.556,-1.265c0,0 -6.189,1.58 -6.051,7.852c0.137,6.273 6.701,8.347 6.701,8.347l71.75,0.596l5.515,-13.428l-4.359,-2.102Z" style="fill:#fd9203;"/><clipPath id="_clip4"><path id="Left-Leg1" serif:id="Left Leg" d="M125.941,232.589l-73.556,-1.265c0,0 -6.189,1.58 -6.051,7.852c0.137,6.273 6.701,8.347 6.701,8.347l71.75,0.596l5.515,-13.428l-4.359,-2.102Z"/></clipPath><g clip-path="url(#_clip4)"><path d="M44.448,244.454c-0,0 49.986,1.428 55.032,0.157c5.046,-1.27 8.718,-2.827 9.542,-5.811c0.825,-2.985 0.219,-8.049 0.219,-8.049l-62.801,-3.507l-4.478,12.404l2.486,4.806Z" style="fill:#ffaf32;"/><path d="M56.045,240.952l-12.728,0.04" style="fill:none;stroke:#000;stroke-width:2.21px;"/><path d="M56.726,236.591l-12.728,0.039" style="fill:none;stroke:#000;stroke-width:2.21px;"/></g><path id="Left-Leg2" serif:id="Left Leg" d="M125.941,232.589l-73.556,-1.265c0,0 -6.189,1.58 -6.051,7.852c0.137,6.273 6.701,8.347 6.701,8.347l71.75,0.596l5.515,-13.428l-4.359,-2.102Z" style="fill:none;stroke:#000;stroke-width:2.21px;"/><path id="Right-Lef" serif:id="Right Lef" d="M186.022,198.193c-5.573,-0.342 -17.7,2.782 -20.656,12.76c-2.955,9.978 -1.55,20.306 -5.119,22.11c-3.569,1.805 -29.326,0.502 -31.827,1.185c-2.501,0.683 -7.33,3.452 -8.403,6.26c-1.072,2.807 -1.25,7.377 -1.25,7.377c-0,-0 66.534,1.568 67.616,1.138c1.082,-0.43 9.789,-1.193 13.134,-8.486c3.344,-7.292 6.927,-16.929 2.815,-27.59c-4.113,-10.661 -10.736,-14.413 -16.31,-14.754Z" style="fill:#fd9203;"/><clipPath id="_clip5"><path id="Right-Lef1" serif:id="Right Lef" d="M186.022,198.193c-5.573,-0.342 -17.7,2.782 -20.656,12.76c-2.955,9.978 -1.55,20.306 -5.119,22.11c-3.569,1.805 -29.326,0.502 -31.827,1.185c-2.501,0.683 -7.33,3.452 -8.403,6.26c-1.072,2.807 -1.25,7.377 -1.25,7.377c-0,-0 66.534,1.568 67.616,1.138c1.082,-0.43 9.789,-1.193 13.134,-8.486c3.344,-7.292 6.927,-16.929 2.815,-27.59c-4.113,-10.661 -10.736,-14.413 -16.31,-14.754Z"/></clipPath><g clip-path="url(#_clip5)"><path d="M119.027,244.952c0.72,1.613 14.526,1.424 19.185,1.278c4.659,-0.146 45.565,0.214 47.295,-5.16c1.73,-5.373 -6.639,-7.385 -10.598,-7.008c-3.96,0.376 -21.046,0.534 -24.081,0.798c-3.036,0.264 -20.778,-1.878 -23.301,-0.86c-2.523,1.017 -10.375,6.756 -8.5,10.952Z" style="fill:#ffaf32;"/><path d="M144.776,234.077l22.406,0.193" style="fill:none;stroke:#000;stroke-width:2.21px;"/><path d="M123.479,247.994c0,0 -0.801,-3.123 1.058,-5.576c1.86,-2.454 6.642,-3.997 6.642,-3.997" style="fill:none;stroke:#000;stroke-width:2.21px;"/></g><path id="Right-Lef2" serif:id="Right Lef" d="M186.022,198.193c-5.573,-0.342 -17.7,2.782 -20.656,12.76c-2.955,9.978 -1.55,20.306 -5.119,22.11c-3.569,1.805 -29.326,0.502 -31.827,1.185c-2.501,0.683 -7.33,3.452 -8.403,6.26c-1.072,2.807 -1.25,7.377 -1.25,7.377c-0,-0 66.534,1.568 67.616,1.138c1.082,-0.43 9.789,-1.193 13.134,-8.486c3.344,-7.292 6.927,-16.929 2.815,-27.59c-4.113,-10.661 -10.736,-14.413 -16.31,-14.754Z" style="fill:none;stroke:#000;stroke-width:2.21px;"/><path d="M75.099,193.267c1.813,-0 3.285,1.42 3.285,3.169c-0,1.749 -1.472,3.169 -3.285,3.169c-1.812,0 -3.284,-1.42 -3.284,-3.169c0,-1.749 1.472,-3.169 3.284,-3.169Zm0,1.406c-1.008,-0 -1.827,0.79 -1.827,1.763c0,0.973 0.819,1.763 1.827,1.763c1.009,0 1.828,-0.79 1.828,-1.763c-0,-0.973 -0.819,-1.763 -1.828,-1.763Z" style="fill:#c5c5c5;stroke:#000;stroke-width:0.78px;"/><path d="M138.421,199.676c1.813,-0 3.284,1.42 3.284,3.169c0,1.749 -1.471,3.169 -3.284,3.169c-1.813,-0 -3.284,-1.42 -3.284,-3.169c-0,-1.749 1.471,-3.169 3.284,-3.169Zm-0,1.405c-1.009,0 -1.827,0.79 -1.827,1.764c-0,0.973 0.818,1.763 1.827,1.763c1.008,0 1.827,-0.79 1.827,-1.763c0,-0.974 -0.819,-1.764 -1.827,-1.764Z" style="fill:#c5c5c5;stroke:#000;stroke-width:0.78px;"/><path d="M73.746,196.086c-1.992,-3.955 -9.805,-34.194 -10.487,-39.6c-0.682,-5.406 3.527,-5.887 3.527,-5.887c-0,-0 2.216,9.061 2.798,15.806c0.581,6.746 4.1,24.206 5.456,28.579c1.356,4.374 0.698,5.058 -1.294,1.102Z" style="fill:#542900;stroke:#000;stroke-width:0.78px;"/><path d="M142.047,199.164c1.992,-4.947 9.805,-42.769 10.487,-49.53c0.682,-6.762 -3.527,-7.364 -3.527,-7.364c0,-0 -2.216,11.333 -2.798,19.77c-0.581,8.437 -4.1,30.275 -5.456,35.746c-1.357,5.47 -0.698,6.325 1.294,1.378Z" style="fill:#542900;stroke:#000;stroke-width:0.88px;"/><g id="Head"><g id="Face"><path id="Face-Colors" serif:id="Face Colors" d="M103.608,162.823c32.634,0.454 57.466,-16.763 59.076,-42.151c1.076,-16.972 -3.47,-24.196 -3.233,-24.72c2.783,-6.138 6.348,-10.263 5.782,-21.48c-0.481,-9.525 -1.16,-24.911 -6.34,-26.52c-5.696,-1.769 -28.332,18.393 -28.332,18.393c0,0 -10.648,-3.729 -26.191,-4.182c-10.442,-0.305 -27.518,3.803 -27.518,3.803c0,0 -20.407,-21.15 -28.524,-18.179c-5.239,1.918 -4.117,18.723 -3.879,27.977c0.189,7.357 2.781,16.673 2.791,19.579c0.009,2.906 -3.238,7.915 -2.964,23.902c0.494,28.882 26.698,43.124 59.332,43.578Z" style="fill:#ffaf32;"/><clipPath id="_clip6"><path id="Face-Colors1" serif:id="Face Colors" d="M103.608,162.823c32.634,0.454 57.466,-16.763 59.076,-42.151c1.076,-16.972 -3.47,-24.196 -3.233,-24.72c2.783,-6.138 6.348,-10.263 5.782,-21.48c-0.481,-9.525 -1.16,-24.911 -6.34,-26.52c-5.696,-1.769 -28.332,18.393 -28.332,18.393c0,0 -10.648,-3.729 -26.191,-4.182c-10.442,-0.305 -27.518,3.803 -27.518,3.803c0,0 -20.407,-21.15 -28.524,-18.179c-5.239,1.918 -4.117,18.723 -3.879,27.977c0.189,7.357 2.781,16.673 2.791,19.579c0.009,2.906 -3.238,7.915 -2.964,23.902c0.494,28.882 26.698,43.124 59.332,43.578Z"/></clipPath><g clip-path="url(#_clip6)"><path d="M117.799,49.804l-0.402,27.607" style="fill:none;stroke:#e87f00;stroke-width:11.03px;"/><path d="M90.163,49.697l-0.403,27.607" style="fill:none;stroke:#e87f00;stroke-width:11.03px;"/><path d="M103.794,55.889l-0.403,27.606" style="fill:none;stroke:#e87f00;stroke-width:11.03px;"/><path d="M41.741,128.449c0,0 12.25,8.818 22.66,7.83c10.411,-0.988 25.432,-8.62 39.722,-8.077c14.289,0.544 23.09,8.876 35.586,8.497c12.497,-0.378 28.78,-6.603 28.78,-6.603c0,0 -14.362,21.728 -20.098,25.976c-5.736,4.249 -47.25,12.153 -54.871,10.251c-7.62,-1.902 -38.148,-12.795 -44.304,-20.921c-6.157,-8.126 -7.475,-16.953 -7.475,-16.953Z" style="fill:#fff;"/><path d="M103.153,67.844c27.655,-0.099 42.719,9.411 42.009,8.505c-3.195,-4.073 -8.874,-4.265 -9.286,-7.756c-0.376,-3.192 6.596,-9.23 10.191,-11.197c3.595,-1.968 9.78,-6.068 12.167,-4.891c2.388,1.177 3.403,10.028 5.023,12.087c1.619,2.058 4.885,-9.164 4.885,-9.164c-0,-0 -0.842,-18.171 -11.307,-13.552c-10.466,4.619 -23.85,22.798 -26.997,21.686c-3.147,-1.111 -18.845,-4.66 -24.654,-4.273c-5.809,0.387 -26.072,3.565 -26.072,3.565c-0,0 -23.895,-18.031 -28.652,-17.627c-4.757,0.403 -6.871,0.436 -6.871,4.273c0,3.837 1.665,16.598 1.665,16.598c0,0 2.114,-14.63 4.181,-15.141c2.068,-0.51 11.344,3.886 13.311,5.796c1.967,1.911 10.447,8.571 9.807,11.008c-0.641,2.437 -8.7,5.928 -11.07,7.896c-2.369,1.968 -10.575,11.337 -12.185,15.709c-1.61,4.372 -5.37,14.261 -5.297,19.332c0.073,5.072 1.134,9.032 1.134,9.032c0,0 1.226,-24.963 14.491,-36.128c13.265,-11.164 24.069,-15.689 43.527,-15.758Z" style="fill:#ffc783;"/><clipPath id="_clip7"><path d="M103.153,67.844c27.655,-0.099 42.719,9.411 42.009,8.505c-3.195,-4.073 -8.874,-4.265 -9.286,-7.756c-0.376,-3.192 6.596,-9.23 10.191,-11.197c3.595,-1.968 9.78,-6.068 12.167,-4.891c2.388,1.177 3.403,10.028 5.023,12.087c1.619,2.058 4.885,-9.164 4.885,-9.164c-0,-0 -0.842,-18.171 -11.307,-13.552c-10.466,4.619 -23.85,22.798 -26.997,21.686c-3.147,-1.111 -18.845,-4.66 -24.654,-4.273c-5.809,0.387 -26.072,3.565 -26.072,3.565c-0,0 -23.895,-18.031 -28.652,-17.627c-4.757,0.403 -6.871,0.436 -6.871,4.273c0,3.837 1.665,16.598 1.665,16.598c0,0 2.114,-14.63 4.181,-15.141c2.068,-0.51 11.344,3.886 13.311,5.796c1.967,1.911 10.447,8.571 9.807,11.008c-0.641,2.437 -8.7,5.928 -11.07,7.896c-2.369,1.968 -10.575,11.337 -12.185,15.709c-1.61,4.372 -5.37,14.261 -5.297,19.332c0.073,5.072 1.134,9.032 1.134,9.032c0,0 1.226,-24.963 14.491,-36.128c13.265,-11.164 24.069,-15.689 43.527,-15.758Z"/></clipPath><g clip-path="url(#_clip7)"><path d="M103.794,55.889l-0.403,27.606" style="fill:none;stroke:#ffaf32;stroke-width:11.03px;"/><path d="M90.163,49.697l-0.403,27.607" style="fill:none;stroke:#ffaf32;stroke-width:11.03px;"/><path d="M117.799,49.804l-0.402,27.607" style="fill:none;stroke:#ffaf32;stroke-width:11.03px;"/></g></g><path d="M140.139,71.689c1.507,-3.579 9.986,-12.692 15.836,-14.672c-0,-0 4.464,9.649 3.915,14.136c-0.549,4.488 -3.385,17.62 -3.385,17.62c0,-0 -6.907,-9.202 -9.102,-11.412c-3.33,-3.351 -7.264,-5.672 -7.264,-5.672Z" style="fill:#f66978;"/><clipPath id="_clip8"><path d="M140.139,71.689c1.507,-3.579 9.986,-12.692 15.836,-14.672c-0,-0 4.464,9.649 3.915,14.136c-0.549,4.488 -3.385,17.62 -3.385,17.62c0,-0 -6.907,-9.202 -9.102,-11.412c-3.33,-3.351 -7.264,-5.672 -7.264,-5.672Z"/></clipPath><g clip-path="url(#_clip8)"><path d="M156.084,57.214l-7.126,5.517c0,-0 -1.884,6.578 0.43,8.217c2.315,1.638 4.812,3.326 4.812,3.326c-0,-0 -0.887,2.165 1.171,3.491c2.058,1.325 4.071,0.37 4.071,0.37c-0,0 0.841,-8.06 0.064,-11.847c-0.778,-3.788 -3.422,-9.074 -3.422,-9.074Z" style="fill:#ff969f;"/></g><path d="M67.559,70.594c-1.507,-3.579 -9.711,-11.91 -15.561,-13.89c-0,-0 -3.833,10.637 -3.897,14.4c-0.077,4.52 2.296,15.232 2.296,15.232c-0,-0 7.702,-7.86 9.898,-10.07c3.33,-3.351 7.264,-5.672 7.264,-5.672Z" style="fill:#f66978;"/><clipPath id="_clip9"><path d="M67.559,70.594c-1.507,-3.579 -9.711,-11.91 -15.561,-13.89c-0,-0 -3.833,10.637 -3.897,14.4c-0.077,4.52 2.296,15.232 2.296,15.232c-0,-0 7.702,-7.86 9.898,-10.07c3.33,-3.351 7.264,-5.672 7.264,-5.672Z"/></clipPath><g clip-path="url(#_clip9)"><path d="M59.782,59.882c-0,0 1.033,6.331 -0.632,8.744c-1.665,2.412 -4.729,4.396 -4.729,4.396c-0,0 1.171,2.767 -1.51,4.101c-2.68,1.333 -4.821,3.392 -5.69,1.103c-0.869,-2.289 1.702,-19.159 4.172,-21.72c2.47,-2.56 8.389,3.376 8.389,3.376Z" style="fill:#ff969f;"/></g><g id="Face-Outline" serif:id="Face Outline"><path id="Face1" serif:id="Face" d="M139.442,71.061c15.357,9.45 21.733,25.456 23.381,41.591c2.918,28.588 -21.358,50.693 -59.215,50.171c-42.239,-0.583 -60.87,-21.447 -59.215,-50.171c1.207,-20.96 9.396,-35.041 24.065,-42.823" style="fill:none;stroke:#000;stroke-width:2.33px;"/><path d="M68.458,69.829c0,0 -12.996,-13.014 -15.653,-13.086c-2.657,-0.073 -4.377,11.243 -4.237,16.328c0.139,5.085 2.116,13.384 2.116,13.384" style="fill:none;stroke:#000;stroke-width:2.33px;"/><path d="M139.442,71.061c0,0 14.469,-14.964 16.166,-13.956c1.698,1.008 4.999,11.501 4.355,17.58c-0.644,6.08 -3.231,14.64 -3.231,14.64" style="fill:none;stroke:#000;stroke-width:2.33px;"/><path d="M131.276,67.021c0,-0 20.145,-21.415 28.606,-18.492c2.269,0.784 3.73,8.887 4.384,15.176c0.542,5.204 0.381,18.054 -0.388,22.046c-0.768,3.991 -4.178,10.571 -4.178,10.571" style="fill:none;stroke:#000;stroke-width:2.33px;"/><path d="M77.385,66.115c0,-0 -19.145,-20.778 -29.257,-18.376c-3.688,0.876 -3.212,12.608 -3.908,20.083c-0.898,9.651 3.475,25.489 3.475,25.489" style="fill:none;stroke:#000;stroke-width:2.33px;"/><path d="M77.385,66.115c7.518,-2.394 16.273,-3.589 26.223,-3.633c11.032,-0.049 20.158,1.61 27.668,4.539" style="fill:none;stroke:#000;stroke-width:2.33px;"/></g></g><g id="Grin"><path d="M117.91,136.207c-1.253,3.824 -2.433,4.653 -7.53,4.521c-5.097,-0.133 -6.741,-1.303 -6.833,-3.145l-0.001,-1.705" style="fill:none;stroke:#000;stroke-width:2.21px;"/><path d="M89.219,136.276c1.254,3.824 2.433,4.653 7.53,4.521c5.097,-0.133 6.61,-1.377 6.703,-3.218" style="fill:none;stroke:#000;stroke-width:2.21px;"/><path d="M107.463,131.854c0.587,0 1.15,0.234 1.565,0.649c0.415,0.415 0.648,0.978 0.648,1.565l0,0.206c0,0.587 -0.233,1.15 -0.648,1.565c-0.415,0.415 -0.978,0.649 -1.565,0.649l-8.035,-0c-0.587,-0 -1.151,-0.234 -1.566,-0.649c-0.415,-0.415 -0.648,-0.978 -0.648,-1.565c-0,-0.069 -0,-0.137 -0,-0.206c-0,-0.587 0.233,-1.15 0.648,-1.565c0.415,-0.415 0.979,-0.649 1.566,-0.649c2.266,0 5.768,0 8.035,0Z"/></g><g id="Glasses"><path d="M107.531,111.703c-1.102,-0.967 -2.845,-1.759 -4.742,-1.772c-1.896,-0.014 -3.65,0.752 -4.766,1.703c0.023,-3.197 2.172,-5.776 4.796,-5.757c2.624,0.019 4.735,2.629 4.712,5.826Z" style="fill:#575759;stroke:#000;stroke-width:2.21px;"/><g id="Left-Lens" serif:id="Left Lens"><ellipse cx="77.73" cy="114.045" rx="22.331" ry="20.373" style="fill:#575759;"/><clipPath id="_clip10"><ellipse cx="77.73" cy="114.045" rx="22.331" ry="20.373"/></clipPath><g clip-path="url(#_clip10)"><path d="M71.3,129.398c4.177,0.223 13.006,0.965 17.584,-3.288c3.775,-3.507 6.017,-9.486 6.852,-15.456c1.972,5.263 1.143,10.295 -3.966,15.675c-6.12,6.445 -17.592,5.277 -20.47,3.069Z" style="fill:#959a9e;"/><path d="M87.042,95.756c-7.537,0.277 -15.066,-2.111 -24.023,5.74c-3.876,3.397 -6.36,12.498 -6.047,18.517c-2.935,-4.793 -1.532,-11.571 2.86,-17.55c8.382,-11.408 23.965,-8.329 27.21,-6.707Z" style="fill:#959a9e;"/></g><ellipse cx="77.73" cy="114.045" rx="22.331" ry="20.373" style="fill:none;stroke:#000;stroke-width:2.21px;"/><ellipse cx="77.744" cy="114.461" rx="16.856" ry="14.989" style="fill:#404042;"/><clipPath id="_clip11"><ellipse cx="77.744" cy="114.461" rx="16.856" ry="14.989"/></clipPath><g clip-path="url(#_clip11)"><path d="M88.877,99.643l-12.765,34.535l-6.52,-2.41l12.766,-34.535l6.519,2.41Z" style="fill:#fff;"/><path d="M96.311,101.162l-12.766,34.536l-3.449,-1.275l12.765,-34.536l3.45,1.275Z" style="fill:#fff;"/></g><ellipse cx="77.744" cy="114.461" rx="16.856" ry="14.989" style="fill:none;stroke:#000;stroke-width:2.21px;"/></g><g id="Right-Lens" serif:id="Right Lens"><ellipse cx="128.045" cy="114.416" rx="22.331" ry="20.373" style="fill:#575759;"/><clipPath id="_clip12"><ellipse cx="128.045" cy="114.416" rx="22.331" ry="20.373"/></clipPath><g clip-path="url(#_clip12)"><path d="M121.615,129.768c4.177,0.223 13.006,0.965 17.583,-3.287c3.776,-3.508 6.018,-9.487 6.853,-15.456c1.972,5.263 1.142,10.294 -3.966,15.674c-6.12,6.445 -17.592,5.278 -20.47,3.069Z" style="fill:#959a9e;"/><path d="M137.357,96.126c-7.537,0.277 -15.066,-2.111 -24.023,5.74c-3.876,3.397 -6.36,12.498 -6.047,18.517c-2.935,-4.793 -1.532,-11.57 2.86,-17.549c8.382,-11.408 23.965,-8.33 27.21,-6.708Z" style="fill:#959a9e;"/></g><ellipse cx="128.045" cy="114.416" rx="22.331" ry="20.373" style="fill:none;stroke:#000;stroke-width:2.21px;"/><ellipse cx="128.096" cy="114.045" rx="16.856" ry="14.989" style="fill:#404042;"/><clipPath id="_clip13"><ellipse cx="128.096" cy="114.045" rx="16.856" ry="14.989"/></clipPath><g clip-path="url(#_clip13)"><path d="M139.229,99.228l-12.766,34.535l-6.519,-2.41l12.765,-34.535l6.52,2.41Z" style="fill:#fff;"/><path d="M146.662,100.747l-12.766,34.535l-3.449,-1.275l12.766,-34.535l3.449,1.275Z" style="fill:#fff;"/></g><ellipse cx="128.096" cy="114.045" rx="16.856" ry="14.989" style="fill:none;stroke:#000;stroke-width:2.21px;"/></g></g></g></g><g><path d="M85.736,63.957c5.53,-0.382 45.765,7.822 51.985,10.728c7.151,3.341 10.969,3.798 10.969,3.798c0,0 3.715,-5.65 -2.668,-8.224c-6.383,-2.574 -21.276,-1.287 -33.605,-6.812c-12.329,-5.524 -20.2,-3.919 -24.798,-3.507c-3.398,0.303 -5.813,4.29 -1.883,4.017Z" style="fill:#ea461f;stroke:#000;stroke-width:1.3px;"/><path d="M90.487,59.893c1.117,-4.772 5.625,-8.499 8.833,-9.52c1.65,-0.524 10.145,0.718 19.76,2.06c1.328,0.185 3.456,-1.488 4.812,-1.303c1.859,0.253 2.979,2.365 4.843,2.599c6.075,0.762 11.781,1.351 14.549,1.306c8.72,-0.141 23.301,10.719 23.072,18.219c-0.192,6.27 -0.968,19.799 -11.606,13.898c-10.638,-5.902 -17.639,-14.711 -22.296,-17.631c-4.656,-2.919 -8.693,-1.451 -8.693,-1.451" style="fill:#ea461f;stroke:#000;stroke-width:1.3px;"/></g><g><path d="M102.503,186.612l-0.19,1.807l-8.098,-0.854l0.19,-1.807l8.098,0.854Z" style="fill:#ababab;stroke:#000;stroke-width:0.58px;"/><path d="M136.324,189.285l-0.272,2.58l-6.582,-0.694l0.272,-2.579l6.582,0.693Z" style="fill:#484848;stroke:#000;stroke-width:0.55px;"/><path d="M87.945,185.616l-0.154,1.458l-8.029,-0.847l0.154,-1.457l8.029,0.846Z" style="fill:#989898;stroke:#000;stroke-width:0.55px;"/><path d="M86.624,184.256l-0.123,1.163l-5.265,-0.555l0.122,-1.163l5.266,0.555Z" style="fill:#989898;stroke:#000;stroke-width:0.55px;"/><path d="M136.522,192.043c0.866,0.092 1.66,0.523 2.208,1.2c0.548,0.677 0.804,1.543 0.713,2.409c-0.726,6.887 -2.407,22.834 -3.132,29.721c-0.092,0.866 -0.523,1.66 -1.2,2.207c-0.677,0.548 -1.543,0.805 -2.409,0.713c-10.965,-1.155 -46.395,-4.889 -57.359,-6.045c-0.866,-0.091 -1.66,-0.522 -2.208,-1.199c-0.548,-0.677 -0.804,-1.544 -0.713,-2.41c0.726,-6.887 2.406,-22.833 3.132,-29.72c0.091,-0.866 0.523,-1.66 1.2,-2.208c0.676,-0.548 1.543,-0.804 2.409,-0.713c10.965,1.156 46.395,4.89 57.359,6.045Z" style="fill:#d4d4d4;"/><clipPath id="_clip14"><path d="M136.522,192.043c0.866,0.092 1.66,0.523 2.208,1.2c0.548,0.677 0.804,1.543 0.713,2.409c-0.726,6.887 -2.407,22.834 -3.132,29.721c-0.092,0.866 -0.523,1.66 -1.2,2.207c-0.677,0.548 -1.543,0.805 -2.409,0.713c-10.965,-1.155 -46.395,-4.889 -57.359,-6.045c-0.866,-0.091 -1.66,-0.522 -2.208,-1.199c-0.548,-0.677 -0.804,-1.544 -0.713,-2.41c0.726,-6.887 2.406,-22.833 3.132,-29.72c0.091,-0.866 0.523,-1.66 1.2,-2.208c0.676,-0.548 1.543,-0.804 2.409,-0.713c10.965,1.156 46.395,4.89 57.359,6.045Z"/></clipPath><g clip-path="url(#_clip14)"><path d="M144.901,201.212l-2.566,24.345l-73.27,-7.722l2.565,-24.345l73.271,7.722Z" style="fill:#545454;"/></g><path d="M136.522,192.043c0.866,0.092 1.66,0.523 2.208,1.2c0.548,0.677 0.804,1.543 0.713,2.409c-0.726,6.887 -2.407,22.834 -3.132,29.721c-0.092,0.866 -0.523,1.66 -1.2,2.207c-0.677,0.548 -1.543,0.805 -2.409,0.713c-10.965,-1.155 -46.395,-4.889 -57.359,-6.045c-0.866,-0.091 -1.66,-0.522 -2.208,-1.199c-0.548,-0.677 -0.804,-1.544 -0.713,-2.41c0.726,-6.887 2.406,-22.833 3.132,-29.72c0.091,-0.866 0.523,-1.66 1.2,-2.208c0.676,-0.548 1.543,-0.804 2.409,-0.713c10.965,1.156 46.395,4.89 57.359,6.045Z" style="fill:none;stroke:#000;stroke-width:0.52px;"/><path d="M99.605,200.225l6.23,-13.729l19.612,2.067l3.512,14.319l-29.354,-2.657Z" style="fill:#ababab;stroke:#000;stroke-width:0.55px;"/><path d="M124.6,191.247c0.652,0.069 1.126,0.654 1.057,1.306c-0.069,0.652 -0.654,1.126 -1.306,1.057c-0.652,-0.068 -1.126,-0.654 -1.057,-1.306c0.069,-0.652 0.654,-1.126 1.306,-1.057Z" style="fill:#eaeaea;stroke:#000;stroke-width:0.55px;"/><path d="M105.762,186.488l2.751,-3.064l14.909,1.572l2.032,3.606l-19.692,-2.114Z" style="fill:#ababab;stroke:#000;stroke-width:0.55px;"/><path d="M115.161,193.548c9.485,1 16.375,9.512 15.375,18.997c-1,9.486 -9.512,16.375 -18.997,15.375c-9.486,-0.999 -16.375,-9.512 -15.375,-18.997c0.999,-9.485 9.512,-16.375 18.997,-15.375Z" style="fill:#c5c5c5;stroke:#000;stroke-width:0.59px;"/><path d="M114.889,196.133c8.058,0.849 13.911,8.081 13.062,16.14c-0.849,8.059 -8.081,13.912 -16.14,13.063c-8.059,-0.85 -13.912,-8.082 -13.063,-16.141c0.85,-8.058 8.082,-13.912 16.141,-13.062Z" style="fill:#c5c5c5;stroke:#000;stroke-width:0.5px;"/><path d="M114.61,198.776c6.6,0.696 11.393,6.619 10.698,13.218c-0.696,6.6 -6.619,11.394 -13.218,10.698c-6.6,-0.696 -11.394,-6.618 -10.698,-13.218c0.696,-6.6 6.618,-11.393 13.218,-10.698Z" style="fill:#1b1b1b;stroke:#000;stroke-width:0.41px;"/><path d="M109.796,201.948c-0.892,1.822 -2.903,4.677 -3.244,7.917c-0.342,3.239 1.04,6.358 1.532,8.326c-2.306,-0.243 -4.929,-4.152 -4.457,-8.634c0.473,-4.483 3.863,-7.852 6.169,-7.609Z" style="fill:#fff;stroke:#000;stroke-width:0.55px;"/><path d="M114.577,218.844c1.318,-0.649 4.217,-1.007 5.872,-2.701c1.654,-1.695 1.806,-4.461 2.423,-5.794c1.168,1.14 0.853,4.503 -1.436,6.847c-2.29,2.345 -5.692,2.788 -6.859,1.648Z" style="fill:#fff;stroke:#000;stroke-width:0.39px;"/><path d="M83.742,206.692c1.637,0.103 4.096,10.586 -1.134,9.946c-5.168,-0.633 -0.738,-10.063 1.134,-9.946Z" style="fill:#989898;stroke:#000;stroke-width:0.55px;"/><path d="M83.16,212.323c0.792,0.083 1.368,0.795 1.284,1.587c-0.083,0.792 -0.795,1.368 -1.587,1.284c-0.792,-0.083 -1.368,-0.794 -1.284,-1.587c0.083,-0.792 0.794,-1.368 1.587,-1.284Z" style="fill:#575757;stroke:#000;stroke-width:0.55px;"/></g></g></svg>