<?xml version="1.0" encoding="UTF-8" standalone="no"?><!DOCTYPE svg PUBLIC "-//W3C//DTD SVG 1.1//EN" "http://www.w3.org/Graphics/SVG/1.1/DTD/svg11.dtd"><svg width="100%" height="100%" viewBox="0 0 250 250" version="1.1" xmlns="http://www.w3.org/2000/svg" xmlns:xlink="http://www.w3.org/1999/xlink" xml:space="preserve" xmlns:serif="http://www.serif.com/" style="fill-rule:evenodd;clip-rule:evenodd;stroke-linecap:round;stroke-linejoin:round;stroke-miterlimit:1.5;"><rect id="zeek-coffee" x="0" y="0" width="250" height="250" style="fill:none;"/><g id="Sweater-Zeek" serif:id="Sweater Zeek"><path id="Tail" d="M206.871,231.683c-0,-0 11.269,-9.157 10.167,-23.353c-1.103,-14.197 -7.37,-21.592 -9.688,-27.395c-2.317,-5.804 -5.97,-15.153 -5.289,-24.233c0.912,-12.161 6.535,-22.632 11.021,-29.038c2.528,-3.611 5.985,-10.734 0.784,-15.412c-3.45,-3.103 -8.995,-2.838 -12.128,0.257c-3.134,3.095 -12.888,15.759 -13.794,31.151c-1.183,20.098 1.752,33.307 5.104,37.702c3.351,4.396 12.751,21.445 12.321,26.833c-0.43,5.388 1.502,23.488 1.502,23.488Z" style="fill:#fd9203;"/><clipPath id="_clip1"><path id="Tail1" serif:id="Tail" d="M206.871,231.683c-0,-0 11.269,-9.157 10.167,-23.353c-1.103,-14.197 -7.37,-21.592 -9.688,-27.395c-2.317,-5.804 -5.97,-15.153 -5.289,-24.233c0.912,-12.161 6.535,-22.632 11.021,-29.038c2.528,-3.611 5.985,-10.734 0.784,-15.412c-3.45,-3.103 -8.995,-2.838 -12.128,0.257c-3.134,3.095 -12.888,15.759 -13.794,31.151c-1.183,20.098 1.752,33.307 5.104,37.702c3.351,4.396 12.751,21.445 12.321,26.833c-0.43,5.388 1.502,23.488 1.502,23.488Z"/></clipPath><g clip-path="url(#_clip1)"><path d="M188.303,170.988c3.714,3.449 6.89,5.396 10.705,2.086c3.814,-3.31 5.74,-12.065 6.625,-15.137c0.885,-3.072 6.534,-20.18 10.504,-24.533c3.969,-4.353 9.107,-29.469 0.766,-30.816c-8.341,-1.347 -20.277,1.248 -26.811,10.603c-6.534,9.355 -5.503,54.347 -1.789,57.797Z" style="fill:#ffaf32;"/><path d="M192.41,123.203l19.383,11.425c-0,-0 17.467,-23.17 6.361,-27.391c-11.107,-4.222 -18.526,1.996 -21.583,5.733c-3.057,3.737 -4.161,10.233 -4.161,10.233Z" style="fill:#e77f00;"/><path d="M208.27,139.578l-1.747,3.935l-21.733,-9.647l1.747,-3.935l21.733,9.647Z" style="fill:#e77f00;"/><g><path d="M211.869,125.133l-0.409,-5.387l-1.822,2.112l-4.704,-0.366l2.877,2.483l-1.331,1.542l5.389,-0.384Z" style="fill:#ffaf32;"/><path d="M201.656,116.32l0.409,5.387l1.811,-2.099l4.718,0.349l-2.877,-2.483l1.332,-1.542l-5.393,0.388Z" style="fill:#ffaf32;"/></g></g><path id="Tail2" serif:id="Tail" d="M206.871,231.683c-0,-0 11.269,-9.157 10.167,-23.353c-1.103,-14.197 -7.37,-21.592 -9.688,-27.395c-2.317,-5.804 -5.97,-15.153 -5.289,-24.233c0.912,-12.161 6.535,-22.632 11.021,-29.038c2.528,-3.611 5.985,-10.734 0.784,-15.412c-3.45,-3.103 -8.995,-2.838 -12.128,0.257c-3.134,3.095 -12.888,15.759 -13.794,31.151c-1.183,20.098 1.752,33.307 5.104,37.702c3.351,4.396 12.751,21.445 12.321,26.833c-0.43,5.388 1.502,23.488 1.502,23.488Z" style="fill:none;stroke:#040200;stroke-width:2.2px;"/><g id="Sweater"><path d="M73.379,183.539c-2.585,1.369 -6.733,5.32 -4.999,8.797c1.734,3.477 9.562,5.676 9.055,9.108c-0.507,3.431 -5.465,6.242 -7.605,9.874c-2.139,3.632 -1.916,8.478 -0.892,11.754c1.024,3.276 6.824,8.97 6.824,8.97l61.477,10.276l52.281,-10.33l18.607,-10.148c-0,-0 0.283,-20.908 -2.647,-29.933c-2.93,-9.025 -14.033,-11.836 -17.004,-14.081c-2.971,-2.245 0.345,-5.247 -1.491,-7.41c-1.835,-2.163 -16.457,-12.101 -20.584,-13.452c-4.126,-1.35 -17.754,-13.588 -17.754,-13.588l-83.755,3.139c0,0 -4.056,7.593 -0.051,12.402c4.006,4.81 7.626,0.374 8.112,4.965c0.487,4.59 -0.973,8.706 -0.172,13.296c0.801,4.59 3.184,4.992 0.598,6.361Z" style="fill:#9c59cd;"/><clipPath id="_clip2"><path d="M73.379,183.539c-2.585,1.369 -6.733,5.32 -4.999,8.797c1.734,3.477 9.562,5.676 9.055,9.108c-0.507,3.431 -5.465,6.242 -7.605,9.874c-2.139,3.632 -1.916,8.478 -0.892,11.754c1.024,3.276 6.824,8.97 6.824,8.97l61.477,10.276l52.281,-10.33l18.607,-10.148c-0,-0 0.283,-20.908 -2.647,-29.933c-2.93,-9.025 -14.033,-11.836 -17.004,-14.081c-2.971,-2.245 0.345,-5.247 -1.491,-7.41c-1.835,-2.163 -16.457,-12.101 -20.584,-13.452c-4.126,-1.35 -17.754,-13.588 -17.754,-13.588l-83.755,3.139c0,0 -4.056,7.593 -0.051,12.402c4.006,4.81 7.626,0.374 8.112,4.965c0.487,4.59 -0.973,8.706 -0.172,13.296c0.801,4.59 3.184,4.992 0.598,6.361Z"/></clipPath><g clip-path="url(#_clip2)"><path d="M157.662,157.571c5.665,2.516 22.661,10.132 24.107,12.891c1.445,2.76 1.482,7.556 4.417,9.422c2.934,1.866 9.439,3.437 11.097,7.478c1.657,4.041 6.103,12.333 6.3,19.573c0.197,7.241 6.855,12.077 8.301,5.743c1.445,-6.334 -7.104,-30.928 -11.214,-34.206c-4.11,-3.279 -11.637,-16.046 -15.58,-17.938c-3.942,-1.892 -33.093,-5.48 -27.428,-2.963Z" style="fill:#7d40a9;"/><path d="M78.107,160.698c-2.015,5.27 -3.183,9.856 -2.541,14.679c0.643,4.823 6.958,11.748 6.162,13.851c-0.796,2.102 -7.366,-1.4 -7.68,2.142c-0.187,2.103 7.063,3.499 6.446,9.481c-0.961,9.321 -8.519,12.57 -8.432,16.597c0.139,6.433 6.629,13.904 8.593,15.533c1.964,1.63 -9.63,5.165 -9.63,5.165l-9.432,-43.524l6.162,-38.543c-0,0 12.367,-0.65 10.352,4.619Z" style="fill:#7d40a9;"/></g><path d="M73.379,183.539c-2.585,1.369 -6.733,5.32 -4.999,8.797c1.734,3.477 9.562,5.676 9.055,9.108c-0.507,3.431 -5.465,6.242 -7.605,9.874c-2.139,3.632 -1.916,8.478 -0.892,11.754c1.024,3.276 6.824,8.97 6.824,8.97l61.477,10.276l52.281,-10.33l18.607,-10.148c-0,-0 0.283,-20.908 -2.647,-29.933c-2.93,-9.025 -14.033,-11.836 -17.004,-14.081c-2.971,-2.245 0.345,-5.247 -1.491,-7.41c-1.835,-2.163 -16.457,-12.101 -20.584,-13.452c-4.126,-1.35 -17.754,-13.588 -17.754,-13.588l-83.755,3.139c0,0 -4.056,7.593 -0.051,12.402c4.006,4.81 7.626,0.374 8.112,4.965c0.487,4.59 -0.973,8.706 -0.172,13.296c0.801,4.59 3.184,4.992 0.598,6.361Z" style="fill:none;stroke:#2c2322;stroke-width:2.08px;"/><path d="M86.851,211.864c4.859,2.82 17.562,4.66 21.802,2.538c6.09,-3.049 19.638,-14.357 19.638,-14.357c0,0 -4.119,5.72 1.32,10.817c2.961,2.774 2.294,13.075 2.276,15.375c-0.018,2.3 -0.685,6.193 -1.971,7.671c-1.287,1.479 -38,-1.445 -38,-1.445c-0,-0 -7.366,-21.935 -5.065,-20.599Z" style="fill:#ac6dda;"/><path d="M73.039,161.46c1.192,6.373 -1.412,9.537 -0.256,15.404c1.156,5.868 5.869,10.783 5.869,10.783" style="fill:none;stroke:#2c2322;stroke-width:2.08px;"/><path d="M164.86,130.518c2.88,4.061 8.862,9.582 7.717,15.797c-1.146,6.214 -3.57,12.137 -8.285,14.354c-4.715,2.218 -22.267,11.609 -27.509,10.304c-5.242,-1.305 -9.562,-5.449 -12.046,-6.389c-2.484,-0.939 -2.352,-5.84 -2.352,-5.84c-0,-0 39.596,-32.287 42.475,-28.226Z" style="fill:#b078d9;"/><clipPath id="_clip3"><path d="M164.86,130.518c2.88,4.061 8.862,9.582 7.717,15.797c-1.146,6.214 -3.57,12.137 -8.285,14.354c-4.715,2.218 -22.267,11.609 -27.509,10.304c-5.242,-1.305 -9.562,-5.449 -12.046,-6.389c-2.484,-0.939 -2.352,-5.84 -2.352,-5.84c-0,-0 39.596,-32.287 42.475,-28.226Z"/></clipPath><g clip-path="url(#_clip3)"><path d="M119.621,166.068c8.75,0.031 28.724,-3.265 33.994,-15.338c5.27,-12.074 -15.594,-1.664 -15.594,-1.664c0,0 -27.149,16.971 -18.4,17.002Z" style="fill:#7d40a9;"/></g><path d="M164.86,130.518c2.88,4.061 8.862,9.582 7.717,15.797c-1.146,6.214 -3.57,12.137 -8.285,14.354c-4.715,2.218 -22.267,11.609 -27.509,10.304c-5.242,-1.305 -9.562,-5.449 -12.046,-6.389c-2.484,-0.939 -2.352,-5.84 -2.352,-5.84c-0,-0 39.596,-32.287 42.475,-28.226Z" style="fill:none;stroke:#2c2322;stroke-width:2.08px;"/><path d="M63.634,148.486c0.639,7.017 1.238,11.431 4.921,12.409c3.684,0.979 18.142,1.049 22.509,0.146c4.367,-0.904 -28.068,-19.571 -27.43,-12.555Z" style="fill:#7d40a9;stroke:#2c2322;stroke-width:2.08px;"/><path d="M88.477,184.041c-1.125,5.849 -3.995,20.624 -2.433,27.842c1.561,7.219 5.546,22.751 9.399,25.151" style="fill:none;stroke:#2c2322;stroke-width:2.08px;"/><path d="M105.766,218.29c4.086,0.219 20.908,0.538 25.025,10.111" style="fill:none;stroke:#2c2322;stroke-width:2.08px;"/><path d="M149.747,188.731c-4.102,-4.47 -20.471,-10.234 -21.333,-4.722c-0.862,5.512 -4.399,13.354 -2.615,17.47c1.785,4.116 6.001,12.354 14.112,15.219" style="fill:none;stroke:#2c2322;stroke-width:2.08px;"/><path d="M143.221,184.575c2.905,-1.351 6.433,-3.61 8.01,-2.837" style="fill:none;stroke:#000;stroke-width:1.67px;"/><path d="M164.292,187.053c1.474,6.87 4.296,20.902 0.639,27.27c-3.658,6.368 -25.39,2.268 -25.39,2.268" style="fill:none;stroke:#2c2322;stroke-width:1.76px;"/><path d="M164.162,178.019c3.397,7.09 3.999,15.62 2.446,19.135" style="fill:none;stroke:#2c2322;stroke-width:2.08px;"/><ellipse cx="101.803" cy="177.736" rx="4.027" ry="3.999" style="fill:#523785;stroke:#2c2322;stroke-width:2.08px;"/><ellipse cx="115.047" cy="174.543" rx="4.027" ry="3.999" style="fill:#523785;stroke:#2c2322;stroke-width:2.08px;"/><path d="M101.679,173.198l-0.001,-12.356" style="fill:none;stroke:#2c2322;stroke-width:2.08px;"/><path d="M115.048,170.44l-0.193,-8.867" style="fill:none;stroke:#2c2322;stroke-width:2.08px;"/></g><path id="Left-Leg" serif:id="Left Leg" d="M130.318,231.582l-73.376,-1.262c0,0 -6.173,1.576 -6.036,7.833c0.137,6.257 6.684,8.326 6.684,8.326l71.575,0.594l5.501,-13.394l-4.348,-2.097Z" style="fill:#fd9203;"/><clipPath id="_clip4"><path id="Left-Leg1" serif:id="Left Leg" d="M130.318,231.582l-73.376,-1.262c0,0 -6.173,1.576 -6.036,7.833c0.137,6.257 6.684,8.326 6.684,8.326l71.575,0.594l5.501,-13.394l-4.348,-2.097Z"/></clipPath><g clip-path="url(#_clip4)"><path d="M49.024,243.418c0,-0 49.864,1.424 54.898,0.157c5.034,-1.267 8.697,-2.821 9.519,-5.798c0.822,-2.977 0.218,-8.029 0.218,-8.029l-62.647,-3.499l-4.467,12.375l2.479,4.794Z" style="fill:#ffaf32;"/><path d="M60.593,239.925l-12.696,0.039" style="fill:none;stroke:#000;stroke-width:2.2px;"/><path d="M61.272,235.574l-12.696,0.039" style="fill:none;stroke:#000;stroke-width:2.2px;"/></g><path id="Left-Leg2" serif:id="Left Leg" d="M130.318,231.582l-73.376,-1.262c0,0 -6.173,1.576 -6.036,7.833c0.137,6.257 6.684,8.326 6.684,8.326l71.575,0.594l5.501,-13.394l-4.348,-2.097Z" style="fill:none;stroke:#000;stroke-width:2.2px;"/><path id="Right-Lef" serif:id="Right Lef" d="M190.253,197.27c-5.561,-0.341 -17.657,2.775 -20.606,12.729c-2.948,9.953 -1.546,20.256 -5.107,22.056c-3.56,1.8 -29.254,0.5 -31.749,1.182c-2.495,0.681 -7.312,3.444 -8.382,6.244c-1.07,2.801 -1.247,7.359 -1.247,7.359c-0,0 66.371,1.565 67.45,1.136c1.08,-0.429 9.766,-1.19 13.102,-8.465c3.336,-7.275 6.91,-16.888 2.808,-27.523c-4.102,-10.635 -10.709,-14.378 -16.269,-14.718Z" style="fill:#fd9203;"/><clipPath id="_clip5"><path id="Right-Lef1" serif:id="Right Lef" d="M190.253,197.27c-5.561,-0.341 -17.657,2.775 -20.606,12.729c-2.948,9.953 -1.546,20.256 -5.107,22.056c-3.56,1.8 -29.254,0.5 -31.749,1.182c-2.495,0.681 -7.312,3.444 -8.382,6.244c-1.07,2.801 -1.247,7.359 -1.247,7.359c-0,0 66.371,1.565 67.45,1.136c1.08,-0.429 9.766,-1.19 13.102,-8.465c3.336,-7.275 6.91,-16.888 2.808,-27.523c-4.102,-10.635 -10.709,-14.378 -16.269,-14.718Z"/></clipPath><g clip-path="url(#_clip5)"><path d="M123.421,243.914c0.719,1.609 14.491,1.421 19.139,1.276c4.647,-0.146 45.453,0.213 47.178,-5.148c1.726,-5.36 -6.622,-7.367 -10.572,-6.991c-3.949,0.375 -20.994,0.532 -24.022,0.796c-3.028,0.263 -20.727,-1.873 -23.244,-0.858c-2.517,1.015 -10.349,6.74 -8.479,10.925Z" style="fill:#ffaf32;"/><path d="M149.108,233.066l22.351,0.193" style="fill:none;stroke:#000;stroke-width:2.2px;"/><path d="M127.862,246.949c0,0 -0.799,-3.115 1.056,-5.563c1.855,-2.447 6.625,-3.986 6.625,-3.986" style="fill:none;stroke:#000;stroke-width:2.2px;"/></g><path id="Right-Lef2" serif:id="Right Lef" d="M190.253,197.27c-5.561,-0.341 -17.657,2.775 -20.606,12.729c-2.948,9.953 -1.546,20.256 -5.107,22.056c-3.56,1.8 -29.254,0.5 -31.749,1.182c-2.495,0.681 -7.312,3.444 -8.382,6.244c-1.07,2.801 -1.247,7.359 -1.247,7.359c-0,0 66.371,1.565 67.45,1.136c1.08,-0.429 9.766,-1.19 13.102,-8.465c3.336,-7.275 6.91,-16.888 2.808,-27.523c-4.102,-10.635 -10.709,-14.378 -16.269,-14.718Z" style="fill:none;stroke:#000;stroke-width:2.2px;"/><g id="Head"><g id="Face"><path id="Face-Colors" serif:id="Face Colors" d="M108.04,161.986c32.554,0.453 57.325,-16.722 58.931,-42.047c1.074,-16.931 -3.462,-24.137 -3.225,-24.66c2.776,-6.123 6.333,-10.238 5.768,-21.428c-0.48,-9.502 -1.157,-24.849 -6.324,-26.455c-5.682,-1.765 -28.263,18.349 -28.263,18.349c0,-0 -10.622,-3.721 -26.127,-4.173c-10.417,-0.303 -27.451,3.795 -27.451,3.795c0,-0 -20.357,-21.099 -28.454,-18.135c-5.226,1.913 -4.106,18.677 -3.869,27.908c0.189,7.34 2.774,16.632 2.783,19.531c0.009,2.9 -3.229,7.896 -2.956,23.843c0.492,28.812 26.632,43.02 59.187,43.472Z" style="fill:#ffaf32;"/><clipPath id="_clip6"><path id="Face-Colors1" serif:id="Face Colors" d="M108.04,161.986c32.554,0.453 57.325,-16.722 58.931,-42.047c1.074,-16.931 -3.462,-24.137 -3.225,-24.66c2.776,-6.123 6.333,-10.238 5.768,-21.428c-0.48,-9.502 -1.157,-24.849 -6.324,-26.455c-5.682,-1.765 -28.263,18.349 -28.263,18.349c0,-0 -10.622,-3.721 -26.127,-4.173c-10.417,-0.303 -27.451,3.795 -27.451,3.795c0,-0 -20.357,-21.099 -28.454,-18.135c-5.226,1.913 -4.106,18.677 -3.869,27.908c0.189,7.34 2.774,16.632 2.783,19.531c0.009,2.9 -3.229,7.896 -2.956,23.843c0.492,28.812 26.632,43.02 59.187,43.472Z"/></clipPath><g clip-path="url(#_clip6)"><path d="M122.197,49.244l-0.402,27.539" style="fill:none;stroke:#e87f00;stroke-width:11px;"/><path d="M94.628,49.137l-0.402,27.539" style="fill:none;stroke:#e87f00;stroke-width:11px;"/><path d="M108.225,55.314l-0.402,27.539" style="fill:none;stroke:#e87f00;stroke-width:11px;"/><path d="M46.325,127.697c-0,-0 12.219,8.796 22.604,7.811c10.385,-0.986 25.37,-8.6 39.624,-8.058c14.255,0.543 23.034,8.854 35.5,8.476c12.466,-0.377 28.71,-6.587 28.71,-6.587c-0,0 -14.328,21.675 -20.05,25.913c-5.722,4.238 -47.135,12.123 -54.736,10.226c-7.602,-1.898 -38.055,-12.764 -44.197,-20.87c-6.141,-8.107 -7.455,-16.911 -7.455,-16.911Z" style="fill:#fff;"/><path d="M107.586,67.239c27.587,-0.098 42.615,9.388 41.906,8.485c-3.187,-4.064 -8.852,-4.255 -9.263,-7.737c-0.375,-3.185 6.58,-9.207 10.166,-11.17c3.587,-1.963 9.756,-6.053 12.138,-4.879c2.381,1.175 3.394,10.004 5.01,12.057c1.615,2.053 4.873,-9.141 4.873,-9.141c-0,-0 -0.84,-18.127 -11.28,-13.519c-10.44,4.607 -23.791,22.742 -26.93,21.633c-3.139,-1.108 -18.799,-4.648 -24.594,-4.262c-5.795,0.386 -26.008,3.556 -26.008,3.556c-0,0 -23.837,-17.987 -28.582,-17.584c-4.746,0.402 -6.854,0.435 -6.854,4.262c0,3.828 1.661,16.558 1.661,16.558c0,0 2.108,-14.595 4.17,-15.104c2.063,-0.509 11.316,3.877 13.279,5.782c1.962,1.906 10.421,8.55 9.782,10.981c-0.638,2.431 -8.678,5.914 -11.042,7.877c-2.363,1.963 -10.549,11.309 -12.155,15.671c-1.607,4.361 -5.357,14.225 -5.284,19.284c0.073,5.059 1.131,9.01 1.131,9.01c0,0 1.223,-24.902 14.456,-36.04c13.232,-11.137 24.01,-15.65 43.42,-15.72Z" style="fill:#ffc783;"/><clipPath id="_clip7"><path d="M107.586,67.239c27.587,-0.098 42.615,9.388 41.906,8.485c-3.187,-4.064 -8.852,-4.255 -9.263,-7.737c-0.375,-3.185 6.58,-9.207 10.166,-11.17c3.587,-1.963 9.756,-6.053 12.138,-4.879c2.381,1.175 3.394,10.004 5.01,12.057c1.615,2.053 4.873,-9.141 4.873,-9.141c-0,-0 -0.84,-18.127 -11.28,-13.519c-10.44,4.607 -23.791,22.742 -26.93,21.633c-3.139,-1.108 -18.799,-4.648 -24.594,-4.262c-5.795,0.386 -26.008,3.556 -26.008,3.556c-0,0 -23.837,-17.987 -28.582,-17.584c-4.746,0.402 -6.854,0.435 -6.854,4.262c0,3.828 1.661,16.558 1.661,16.558c0,0 2.108,-14.595 4.17,-15.104c2.063,-0.509 11.316,3.877 13.279,5.782c1.962,1.906 10.421,8.55 9.782,10.981c-0.638,2.431 -8.678,5.914 -11.042,7.877c-2.363,1.963 -10.549,11.309 -12.155,15.671c-1.607,4.361 -5.357,14.225 -5.284,19.284c0.073,5.059 1.131,9.01 1.131,9.01c0,0 1.223,-24.902 14.456,-36.04c13.232,-11.137 24.01,-15.65 43.42,-15.72Z"/></clipPath><g clip-path="url(#_clip7)"><path d="M108.225,55.314l-0.402,27.539" style="fill:none;stroke:#ffaf32;stroke-width:11px;"/><path d="M94.628,49.137l-0.402,27.539" style="fill:none;stroke:#ffaf32;stroke-width:11px;"/><path d="M122.197,49.244l-0.402,27.539" style="fill:none;stroke:#ffaf32;stroke-width:11px;"/></g></g><path d="M144.482,71.075c1.502,-3.57 9.961,-12.661 15.796,-14.636c0,-0 4.454,9.626 3.906,14.102c-0.547,4.476 -3.376,17.576 -3.376,17.576c-0,0 -6.89,-9.179 -9.08,-11.383c-3.322,-3.343 -7.246,-5.659 -7.246,-5.659Z" style="fill:#f66978;"/><clipPath id="_clip8"><path d="M144.482,71.075c1.502,-3.57 9.961,-12.661 15.796,-14.636c0,-0 4.454,9.626 3.906,14.102c-0.547,4.476 -3.376,17.576 -3.376,17.576c-0,0 -6.89,-9.179 -9.08,-11.383c-3.322,-3.343 -7.246,-5.659 -7.246,-5.659Z"/></clipPath><g clip-path="url(#_clip8)"><path d="M160.388,56.636l-7.109,5.503c0,-0 -1.88,6.562 0.429,8.197c2.309,1.634 4.8,3.318 4.8,3.318c0,-0 -0.885,2.16 1.168,3.482c2.053,1.323 4.061,0.37 4.061,0.37c0,-0 0.84,-8.041 0.064,-11.819c-0.776,-3.778 -3.413,-9.051 -3.413,-9.051Z" style="fill:#ff969f;"/></g><path d="M72.079,69.983c-1.503,-3.571 -9.687,-11.881 -15.523,-13.856c-0,-0 -3.824,10.611 -3.888,14.365c-0.077,4.509 2.291,15.194 2.291,15.194c-0,0 7.684,-7.841 9.874,-10.045c3.322,-3.342 7.246,-5.658 7.246,-5.658Z" style="fill:#f66978;"/><clipPath id="_clip9"><path d="M72.079,69.983c-1.503,-3.571 -9.687,-11.881 -15.523,-13.856c-0,-0 -3.824,10.611 -3.888,14.365c-0.077,4.509 2.291,15.194 2.291,15.194c-0,0 7.684,-7.841 9.874,-10.045c3.322,-3.342 7.246,-5.658 7.246,-5.658Z"/></clipPath><g clip-path="url(#_clip9)"><path d="M64.321,59.297c-0,0 1.031,6.316 -0.63,8.723c-1.661,2.406 -4.718,4.385 -4.718,4.385c0,0 1.168,2.76 -1.506,4.091c-2.674,1.33 -4.809,3.383 -5.676,1.1c-0.867,-2.283 1.697,-19.112 4.161,-21.666c2.464,-2.555 8.369,3.367 8.369,3.367Z" style="fill:#ff969f;"/></g><g id="Face-Outline" serif:id="Face Outline"><path id="Face1" serif:id="Face" d="M143.786,70.449c15.32,9.427 21.68,25.393 23.324,41.489c2.911,28.519 -21.306,50.569 -59.07,50.048c-42.136,-0.581 -60.721,-21.394 -59.07,-50.048c1.204,-20.908 9.373,-34.956 24.006,-42.718" style="fill:none;stroke:#000;stroke-width:2.32px;"/><path d="M72.976,69.22c0,0 -12.965,-12.982 -15.615,-13.054c-2.65,-0.073 -4.366,11.216 -4.227,16.288c0.139,5.073 2.111,13.351 2.111,13.351" style="fill:none;stroke:#000;stroke-width:2.32px;"/><path d="M143.786,70.449c0,-0 14.433,-14.927 16.127,-13.922c1.694,1.005 4.986,11.472 4.344,17.537c-0.642,6.065 -3.223,14.604 -3.223,14.604" style="fill:none;stroke:#000;stroke-width:2.32px;"/><path d="M135.64,66.418c0,0 20.096,-21.362 28.537,-18.446c2.263,0.782 3.72,8.865 4.373,15.139c0.54,5.191 0.379,18.01 -0.387,21.992c-0.767,3.981 -4.169,10.545 -4.169,10.545" style="fill:none;stroke:#000;stroke-width:2.32px;"/><path d="M81.881,65.515c0,-0 -19.098,-20.727 -29.185,-18.331c-3.679,0.874 -3.204,12.577 -3.899,20.033c-0.896,9.628 3.467,25.427 3.467,25.427" style="fill:none;stroke:#000;stroke-width:2.32px;"/><path d="M81.881,65.515c7.5,-2.389 16.233,-3.58 26.159,-3.624c11.005,-0.049 20.109,1.606 27.6,4.527" style="fill:none;stroke:#000;stroke-width:2.32px;"/></g></g><g id="Grin"><path d="M122.307,135.435c-1.25,3.815 -2.427,4.642 -7.511,4.51c-5.085,-0.132 -6.725,-1.299 -6.817,-3.136l-0.001,-1.702" style="fill:none;stroke:#000;stroke-width:2.2px;"/><path d="M93.686,135.504c1.251,3.815 2.428,4.642 7.512,4.51c5.084,-0.132 6.594,-1.373 6.686,-3.21" style="fill:none;stroke:#000;stroke-width:2.2px;"/><path d="M111.88,131.094c0.587,-0 1.15,0.233 1.565,0.648c0.415,0.415 0.648,0.978 0.648,1.565c0,0.065 0,0.13 0,0.195c0,0.587 -0.233,1.15 -0.648,1.565c-0.415,0.415 -0.978,0.648 -1.565,0.648l-8.005,0c-0.587,0 -1.15,-0.233 -1.565,-0.648c-0.415,-0.415 -0.649,-0.978 -0.649,-1.565c0,-0.065 0,-0.13 0,-0.195c0,-0.587 0.234,-1.15 0.649,-1.565c0.415,-0.415 0.978,-0.648 1.565,-0.648c2.259,-0 5.746,-0 8.005,-0Z"/></g><g id="Glasses"><path d="M111.953,110.991c-1.099,-0.965 -2.838,-1.754 -4.73,-1.768c-1.891,-0.013 -3.641,0.751 -4.755,1.699c0.023,-3.188 2.167,-5.762 4.785,-5.743c2.617,0.019 4.723,2.623 4.7,5.812Z" style="fill:#575759;stroke:#000;stroke-width:2.2px;"/><g id="Left-Lens" serif:id="Left Lens"><ellipse cx="82.226" cy="113.328" rx="22.276" ry="20.324" style="fill:#575759;"/><clipPath id="_clip10"><ellipse cx="82.226" cy="113.328" rx="22.276" ry="20.324"/></clipPath><g clip-path="url(#_clip10)"><path d="M75.811,128.643c4.166,0.223 12.974,0.963 17.54,-3.279c3.767,-3.5 6.004,-9.464 6.836,-15.419c1.968,5.25 1.14,10.269 -3.956,15.636c-6.105,6.43 -17.549,5.265 -20.42,3.062Z" style="fill:#959a9e;"/><path d="M91.514,95.083c-7.518,0.276 -15.029,-2.106 -23.964,5.726c-3.866,3.389 -6.344,12.468 -6.032,18.472c-2.928,-4.781 -1.528,-11.543 2.853,-17.507c8.361,-11.38 23.906,-8.309 27.143,-6.691Z" style="fill:#959a9e;"/></g><ellipse cx="82.226" cy="113.328" rx="22.276" ry="20.324" style="fill:none;stroke:#000;stroke-width:2.2px;"/><ellipse cx="82.239" cy="113.742" rx="16.814" ry="14.952" style="fill:#404042;"/><clipPath id="_clip11"><ellipse cx="82.239" cy="113.742" rx="16.814" ry="14.952"/></clipPath><g clip-path="url(#_clip11)"><path d="M93.345,98.961l-12.734,34.451l-6.504,-2.404l12.735,-34.451l6.503,2.404Z" style="fill:#fff;"/><path d="M100.76,100.477l-12.734,34.45l-3.441,-1.272l12.734,-34.45l3.441,1.272Z" style="fill:#fff;"/></g><ellipse cx="82.239" cy="113.742" rx="16.814" ry="14.952" style="fill:none;stroke:#000;stroke-width:2.2px;"/></g><g id="Right-Lens" serif:id="Right Lens"><ellipse cx="132.417" cy="113.697" rx="22.276" ry="20.324" style="fill:#575759;"/><clipPath id="_clip12"><ellipse cx="132.417" cy="113.697" rx="22.276" ry="20.324"/></clipPath><g clip-path="url(#_clip12)"><path d="M126.003,129.012c4.166,0.223 12.974,0.963 17.54,-3.279c3.767,-3.499 6.003,-9.464 6.836,-15.418c1.968,5.25 1.14,10.269 -3.956,15.636c-6.105,6.429 -17.549,5.264 -20.42,3.061Z" style="fill:#959a9e;"/><path d="M141.706,95.453c-7.518,0.276 -15.029,-2.106 -23.964,5.726c-3.866,3.389 -6.344,12.467 -6.032,18.472c-2.928,-4.782 -1.529,-11.543 2.853,-17.507c8.361,-11.38 23.906,-8.309 27.143,-6.691Z" style="fill:#959a9e;"/></g><ellipse cx="132.417" cy="113.697" rx="22.276" ry="20.324" style="fill:none;stroke:#000;stroke-width:2.2px;"/><ellipse cx="132.468" cy="113.328" rx="16.814" ry="14.952" style="fill:#404042;"/><clipPath id="_clip13"><ellipse cx="132.468" cy="113.328" rx="16.814" ry="14.952"/></clipPath><g clip-path="url(#_clip13)"><path d="M143.574,98.547l-12.735,34.45l-6.503,-2.404l12.734,-34.45l6.504,2.404Z" style="fill:#fff;"/><path d="M150.989,100.062l-12.735,34.451l-3.441,-1.272l12.735,-34.451l3.441,1.272Z" style="fill:#fff;"/></g><ellipse cx="132.468" cy="113.328" rx="16.814" ry="14.952" style="fill:none;stroke:#000;stroke-width:2.2px;"/></g></g></g></g><g><path d="M105.561,166.087l-16.213,-2.371l-15.244,2.468l15.525,3.686l15.932,-3.783Z" style="fill:#dab27e;"/><path d="M72.21,165.841c0,-0 0,27.296 0,34.937c0,1.196 0.768,2.257 1.904,2.63c11.425,3.727 21.636,3.55 30.817,0.053c1.056,-0.415 1.75,-1.433 1.75,-2.567c0.01,-7.477 0.01,-35.053 0.01,-35.053c-11.388,2.568 -22.886,2.465 -34.481,-0Z" style="fill:#84d2e3;"/><clipPath id="_clip14"><path d="M72.21,165.841c0,-0 0,27.296 0,34.937c0,1.196 0.768,2.257 1.904,2.63c11.425,3.727 21.636,3.55 30.817,0.053c1.056,-0.415 1.75,-1.433 1.75,-2.567c0.01,-7.477 0.01,-35.053 0.01,-35.053c-11.388,2.568 -22.886,2.465 -34.481,-0Z"/></clipPath><g clip-path="url(#_clip14)"><path d="M104.319,208.631c4.08,-5.811 5.908,-13.762 5.658,-20.907c-0.25,-7.145 -1.116,-24.623 -1.116,-24.623l-16.465,-0.606l-7.564,1.195c-0,-0 5.543,3.56 6.544,6.253c1,2.694 4.224,32.539 2.213,34.297c-2.011,1.758 -3.474,4.209 -3.474,4.209c-0,0 10.123,5.994 14.204,0.182Z" style="fill:#b5ebf6;"/></g><path d="M72.21,165.841c0,-0 0,27.296 0,34.937c0,1.196 0.768,2.257 1.904,2.63c11.425,3.727 21.636,3.55 30.817,0.053c1.056,-0.415 1.75,-1.433 1.75,-2.567c0.01,-7.477 0.01,-35.053 0.01,-35.053c-11.388,2.568 -22.886,2.465 -34.481,-0Z" style="fill:none;stroke:#000;stroke-width:1.53px;"/><path d="M106.828,174.431c0,0 9.382,-1.333 11.6,0.609c2.217,1.941 3.723,16.341 -1.182,19.592c-4.905,3.251 -10.264,1.017 -10.264,1.017l-0.291,-3.875c0,-0 4.102,1.762 7.003,-1.511c1.789,-2.018 1.172,-10.131 -0.882,-11.309c-2.735,-1.569 -5.701,-0.108 -5.701,-0.108l-0.283,-4.415Z" style="fill:#89e8fe;"/><clipPath id="_clip15"><path d="M106.828,174.431c0,0 9.382,-1.333 11.6,0.609c2.217,1.941 3.723,16.341 -1.182,19.592c-4.905,3.251 -10.264,1.017 -10.264,1.017l-0.291,-3.875c0,-0 4.102,1.762 7.003,-1.511c1.789,-2.018 1.172,-10.131 -0.882,-11.309c-2.735,-1.569 -5.701,-0.108 -5.701,-0.108l-0.283,-4.415Z"/></clipPath><g clip-path="url(#_clip15)"><path d="M104.694,173.607l0.539,2.451c-0,-0 8.353,-0.537 10.066,1.16c1.713,1.698 3.859,11.675 1.443,14.343c-2.415,2.667 -2.887,5.569 -0.298,6.227c2.589,0.658 6.178,-11.753 6.178,-11.753l-3.06,-12.896l-7.612,-0.875l-7.256,1.343Z" style="fill:#c9f5ff;"/></g><path d="M106.828,174.431c0,0 9.382,-1.333 11.6,0.609c2.217,1.941 3.723,16.341 -1.182,19.592c-4.905,3.251 -10.264,1.017 -10.264,1.017l-0.291,-3.875c0,-0 4.102,1.762 7.003,-1.511c1.789,-2.018 1.172,-10.131 -0.882,-11.309c-2.735,-1.569 -5.701,-0.108 -5.701,-0.108l-0.283,-4.415Z" style="fill:none;stroke:#000;stroke-width:1.72px;"/><path d="M106.691,165.841c-11.46,-2.242 -22.952,-2.319 -34.481,-0" style="fill:none;stroke:#000;stroke-width:1.72px;"/><g><path d="M89.071,175.858l-0,7.607l-6.249,2.817l6.249,-10.424Z" style="fill:#23247c;"/><path d="M89.068,175.858l0,7.607l6.249,2.817l-6.249,-10.424Z" style="fill:#5153bc;"/><path d="M95.317,186.282l-6.249,-2.817l-6.25,2.791l6.25,3.712l6.249,-3.686Z" style="fill:#00014f;"/><path d="M95.317,187.469l-6.249,8.805l0.003,-5.138l6.246,-3.667Z" style="fill:#5153bc;"/><path d="M82.821,187.469l6.25,8.805l-0.003,-5.138l-6.247,-3.667Z" style="fill:#23247c;"/></g></g><path d="M124.597,180.428c-6.075,-2.226 -9.463,-3.066 -11.124,1.318c-1.661,4.384 -5.413,13.027 0.495,15.589c5.907,2.561 11.772,5.375 13.107,-0.387c1.334,-5.761 3.597,-14.295 -2.478,-16.52Z" style="fill:#ffaf32;stroke:#000;stroke-width:1.67px;"/><path d="M112.749,183.638c0,-0 3.318,4.323 5.166,3.198" style="fill:none;stroke:#000;stroke-width:1.67px;"/><path d="M111.756,189.297c-0,-0 0.849,2.78 3.229,2.427" style="fill:none;stroke:#000;stroke-width:1.67px;"/></svg>