<?xml version="1.0" encoding="UTF-8" standalone="no"?><!DOCTYPE svg PUBLIC "-//W3C//DTD SVG 1.1//EN" "http://www.w3.org/Graphics/SVG/1.1/DTD/svg11.dtd"><svg width="100%" height="100%" viewBox="0 0 250 250" version="1.1" xmlns="http://www.w3.org/2000/svg" xmlns:xlink="http://www.w3.org/1999/xlink" xml:space="preserve" xmlns:serif="http://www.serif.com/" style="fill-rule:evenodd;clip-rule:evenodd;stroke-linecap:round;stroke-linejoin:round;stroke-miterlimit:1.5;"><rect id="zeek-dj" x="0" y="0" width="250" height="250" style="fill:none;"/><g id="Sweater"><path d="M83.036,175.475c-2.36,1.249 -6.145,4.855 -4.563,8.028c1.583,3.173 8.727,5.181 8.264,8.312c-0.463,3.132 -4.988,5.697 -6.94,9.011c-1.953,3.315 -1.749,7.738 -0.815,10.728c0.935,2.99 6.228,8.187 6.228,8.187l56.107,9.377l47.713,-9.427l16.981,-9.262c-0,0 0.259,-19.08 -2.416,-27.317c-2.674,-8.237 -12.807,-10.802 -15.519,-12.851c-2.711,-2.049 0.315,-4.789 -1.36,-6.763c-1.675,-1.974 -15.019,-11.043 -18.785,-12.276c-3.767,-1.233 -16.204,-12.401 -16.204,-12.401l-76.437,2.865c0,-0 -3.702,6.929 -0.046,11.318c3.655,4.389 6.959,0.342 7.403,4.531c0.444,4.189 -0.889,7.945 -0.157,12.135c0.731,4.189 2.905,4.555 0.546,5.805Z" style="fill:#1b07cd;"/><clipPath id="_clip1"><path d="M83.036,175.475c-2.36,1.249 -6.145,4.855 -4.563,8.028c1.583,3.173 8.727,5.181 8.264,8.312c-0.463,3.132 -4.988,5.697 -6.94,9.011c-1.953,3.315 -1.749,7.738 -0.815,10.728c0.935,2.99 6.228,8.187 6.228,8.187l56.107,9.377l47.713,-9.427l16.981,-9.262c-0,0 0.259,-19.08 -2.416,-27.317c-2.674,-8.237 -12.807,-10.802 -15.519,-12.851c-2.711,-2.049 0.315,-4.789 -1.36,-6.763c-1.675,-1.974 -15.019,-11.043 -18.785,-12.276c-3.767,-1.233 -16.204,-12.401 -16.204,-12.401l-76.437,2.865c0,-0 -3.702,6.929 -0.046,11.318c3.655,4.389 6.959,0.342 7.403,4.531c0.444,4.189 -0.889,7.945 -0.157,12.135c0.731,4.189 2.905,4.555 0.546,5.805Z"/></clipPath><g clip-path="url(#_clip1)"><path d="M159.955,151.775c5.17,2.297 20.681,9.247 22,11.765c1.32,2.519 1.353,6.896 4.031,8.599c2.679,1.703 8.615,3.137 10.128,6.824c1.512,3.688 5.57,11.256 5.75,17.864c0.18,6.608 6.256,11.022 7.575,5.241c1.32,-5.781 -6.482,-28.226 -10.234,-31.218c-3.751,-2.992 -10.62,-14.643 -14.218,-16.37c-3.598,-1.727 -30.203,-5.001 -25.032,-2.705Z" style="fill:#5e51d7;"/><path d="M87.35,154.63c-1.839,4.809 -2.905,8.994 -2.318,13.396c0.586,4.401 6.349,10.722 5.623,12.641c-0.726,1.918 -6.723,-1.278 -7.009,1.954c-0.17,1.92 6.446,3.194 5.883,8.653c-0.877,8.507 -7.775,11.472 -7.696,15.148c0.127,5.87 6.05,12.688 7.843,14.175c1.792,1.487 -8.789,4.714 -8.789,4.714l-8.608,-39.721l5.623,-35.176c0,0 11.287,-0.594 9.448,4.216Z" style="fill:#5e51d7;"/></g><path d="M83.036,175.475c-2.36,1.249 -6.145,4.855 -4.563,8.028c1.583,3.173 8.727,5.181 8.264,8.312c-0.463,3.132 -4.988,5.697 -6.94,9.011c-1.953,3.315 -1.749,7.738 -0.815,10.728c0.935,2.99 6.228,8.187 6.228,8.187l56.107,9.377l47.713,-9.427l16.981,-9.262c-0,0 0.259,-19.08 -2.416,-27.317c-2.674,-8.237 -12.807,-10.802 -15.519,-12.851c-2.711,-2.049 0.315,-4.789 -1.36,-6.763c-1.675,-1.974 -15.019,-11.043 -18.785,-12.276c-3.767,-1.233 -16.204,-12.401 -16.204,-12.401l-76.437,2.865c0,-0 -3.702,6.929 -0.046,11.318c3.655,4.389 6.959,0.342 7.403,4.531c0.444,4.189 -0.889,7.945 -0.157,12.135c0.731,4.189 2.905,4.555 0.546,5.805Z" style="fill:none;stroke:#2c2322;stroke-width:1.9px;"/><path d="M95.33,201.325c4.435,2.574 16.028,4.253 19.897,2.316c5.558,-2.782 17.923,-13.102 17.923,-13.102c0,-0 -3.759,5.22 1.205,9.871c2.702,2.532 2.093,11.934 2.077,14.032c-0.017,2.099 -0.625,5.652 -1.799,7.001c-1.175,1.35 -34.68,-1.319 -34.68,-1.319c-0,0 -6.723,-20.018 -4.623,-18.799Z" style="fill:#161681;"/><path d="M82.725,155.324c1.088,5.817 -1.288,8.704 -0.234,14.059c1.055,5.356 5.357,9.841 5.357,9.841" style="fill:none;stroke:#2c2322;stroke-width:1.9px;"/><path d="M166.524,127.086c2.628,3.706 8.088,8.745 7.042,14.417c-1.045,5.671 -3.257,11.076 -7.56,13.1c-4.303,2.024 -20.322,10.594 -25.106,9.403c-4.784,-1.191 -8.726,-4.972 -10.993,-5.83c-2.268,-0.858 -2.147,-5.33 -2.147,-5.33c-0,-0 36.136,-29.466 38.764,-25.76Z" style="fill:#161681;"/><clipPath id="_clip2"><path d="M166.524,127.086c2.628,3.706 8.088,8.745 7.042,14.417c-1.045,5.671 -3.257,11.076 -7.56,13.1c-4.303,2.024 -20.322,10.594 -25.106,9.403c-4.784,-1.191 -8.726,-4.972 -10.993,-5.83c-2.268,-0.858 -2.147,-5.33 -2.147,-5.33c-0,-0 36.136,-29.466 38.764,-25.76Z"/></clipPath><g clip-path="url(#_clip2)"><path d="M125.238,159.53c7.985,0.028 26.214,-2.98 31.023,-13.998c4.81,-11.019 -14.231,-1.518 -14.231,-1.518c0,-0 -24.777,15.488 -16.792,15.516Z" style="fill:#1b07cd;"/></g><path d="M166.524,127.086c2.628,3.706 8.088,8.745 7.042,14.417c-1.045,5.671 -3.257,11.076 -7.56,13.1c-4.303,2.024 -20.322,10.594 -25.106,9.403c-4.784,-1.191 -8.726,-4.972 -10.993,-5.83c-2.268,-0.858 -2.147,-5.33 -2.147,-5.33c-0,-0 36.136,-29.466 38.764,-25.76Z" style="fill:none;stroke:#2c2322;stroke-width:1.9px;"/><path d="M74.142,143.484c0.583,6.404 1.13,10.433 4.491,11.326c3.362,0.892 16.556,0.957 20.542,0.132c3.986,-0.824 -25.616,-17.861 -25.033,-11.458Z" style="fill:#161681;stroke:#2c2322;stroke-width:1.9px;"/><path d="M110.39,178.419c5.475,8.254 -3.431,17.802 4.789,23.211" style="fill:none;stroke:#2c2322;stroke-width:1.9px;"/><path d="M112.592,207.189c3.73,0.2 19.082,0.492 22.839,9.228" style="fill:none;stroke:#2c2322;stroke-width:1.9px;"/><path d="M133.46,170.536c0.824,5.205 1.508,10.402 0.722,15.432c-0.787,5.031 -3.517,8.129 -1.888,11.885c1.629,3.756 12.123,8.795 10.679,14.917" style="fill:none;stroke:#2c2322;stroke-width:1.9px;"/><path d="M133.562,223.88c-0,-0 4.773,-10.821 2.025,-22.309" style="fill:none;stroke:#2c2322;stroke-width:1.9px;"/><path d="M152.005,172.843c5.247,5.546 14.343,14.966 15.842,24.794c1.5,9.827 2.194,22.72 2.194,22.72" style="fill:none;stroke:#2c2322;stroke-width:1.9px;"/><path d="M160.343,167.946c3.1,6.471 3.649,14.255 2.232,17.463" style="fill:none;stroke:#2c2322;stroke-width:1.9px;"/><ellipse cx="108.976" cy="170.178" rx="3.675" ry="3.649" style="fill:#523785;stroke:#2c2322;stroke-width:1.9px;"/><ellipse cx="121.063" cy="167.265" rx="3.675" ry="3.649" style="fill:#523785;stroke:#2c2322;stroke-width:1.9px;"/><path d="M108.863,166.037l-0.001,-11.276" style="fill:none;stroke:#2c2322;stroke-width:1.9px;"/><path d="M121.064,163.52l-0.177,-8.092" style="fill:none;stroke:#2c2322;stroke-width:1.9px;"/></g><g id="Zeek"><g id="Head"><path d="M59.767,63.65c3.856,1.364 30.483,-16.029 59.091,-16.803c25.884,-0.701 54.912,18.445 59.507,16.99c4.427,-1.402 1.663,-5.238 -2.164,-7.45c-6.089,-1.179 -28.413,-17.632 -56.786,-16.849c-29.91,0.825 -52.208,15.859 -57.482,16.778c-3.457,3.411 -6.009,5.974 -2.166,7.334Z" style="fill:#13362c;"/><clipPath id="_clip3"><path d="M59.767,63.65c3.856,1.364 30.483,-16.029 59.091,-16.803c25.884,-0.701 54.912,18.445 59.507,16.99c4.427,-1.402 1.663,-5.238 -2.164,-7.45c-6.089,-1.179 -28.413,-17.632 -56.786,-16.849c-29.91,0.825 -52.208,15.859 -57.482,16.778c-3.457,3.411 -6.009,5.974 -2.166,7.334Z"/></clipPath><g clip-path="url(#_clip3)"><path d="M52.905,60.08c-0,0 1.249,4.498 9.855,0.325c8.606,-4.172 34.244,-16.927 51.568,-16.753c17.323,0.175 31.773,3.598 38.949,6.184c7.177,2.586 24.111,14.005 30.136,10.519c6.024,-3.485 -18.323,-22.024 -31.01,-24.098c-12.687,-2.074 -47.334,-7.046 -61.409,-2.062c-14.075,4.985 -38.089,25.885 -38.089,25.885Z" style="fill:#3d7968;"/></g><path d="M59.767,63.65c3.856,1.364 30.483,-16.029 59.091,-16.803c25.884,-0.701 54.912,18.445 59.507,16.99c4.427,-1.402 1.663,-5.238 -2.164,-7.45c-6.089,-1.179 -28.413,-17.632 -56.786,-16.849c-29.91,0.825 -52.208,15.859 -57.482,16.778c-3.457,3.411 -6.009,5.974 -2.166,7.334Z" style="fill:none;stroke:#000;stroke-width:1.9px;"/><g id="Face"><path id="Face-Colors" serif:id="Face Colors" d="M119.098,156.561c29.71,0.413 52.317,-15.261 53.782,-38.374c0.98,-15.452 -2.859,-21.107 -2.643,-21.583c2.534,-5.589 5.48,-10.266 4.964,-20.478c-0.438,-8.672 -1.056,-22.679 -5.772,-24.144c-5.185,-1.611 -25.793,16.745 -25.793,16.745c-0,0 -9.695,-3.395 -23.845,-3.807c-9.506,-0.277 -25.052,3.463 -25.052,3.463c0,-0 -18.579,-19.256 -25.968,-16.551c-4.77,1.746 -3.748,17.045 -3.531,25.47c0.172,6.699 2.531,15.179 2.54,17.825c0.008,2.646 -2.948,7.206 -2.699,21.76c0.45,26.295 24.306,39.261 54.017,39.674Z" style="fill:#ffaf32;"/><clipPath id="_clip4"><path id="Face-Colors1" serif:id="Face Colors" d="M119.098,156.561c29.71,0.413 52.317,-15.261 53.782,-38.374c0.98,-15.452 -2.859,-21.107 -2.643,-21.583c2.534,-5.589 5.48,-10.266 4.964,-20.478c-0.438,-8.672 -1.056,-22.679 -5.772,-24.144c-5.185,-1.611 -25.793,16.745 -25.793,16.745c-0,0 -9.695,-3.395 -23.845,-3.807c-9.506,-0.277 -25.052,3.463 -25.052,3.463c0,-0 -18.579,-19.256 -25.968,-16.551c-4.77,1.746 -3.748,17.045 -3.531,25.47c0.172,6.699 2.531,15.179 2.54,17.825c0.008,2.646 -2.948,7.206 -2.699,21.76c0.45,26.295 24.306,39.261 54.017,39.674Z"/></clipPath><g clip-path="url(#_clip4)"><path d="M132.018,53.669l-0.367,25.133" style="fill:none;stroke:#e87f00;stroke-width:10.04px;"/><path d="M106.857,53.571l-0.366,25.133" style="fill:none;stroke:#e87f00;stroke-width:10.04px;"/><path d="M119.267,59.208l-0.367,25.133" style="fill:none;stroke:#e87f00;stroke-width:10.04px;"/><path d="M62.774,125.267c0,0 11.152,8.028 20.63,7.129c9.478,-0.9 23.153,-7.848 36.162,-7.354c13.01,0.495 21.022,8.081 32.398,7.736c11.377,-0.345 26.202,-6.012 26.202,-6.012c-0,0 -13.076,19.781 -18.298,23.649c-5.222,3.868 -43.017,11.064 -49.954,9.332c-6.938,-1.731 -34.73,-11.648 -40.335,-19.046c-5.605,-7.399 -6.805,-15.434 -6.805,-15.434Z" style="fill:#fff;"/><path d="M118.684,70.092c25.177,-0.09 38.891,8.567 38.244,7.743c-2.909,-3.709 -8.079,-3.883 -8.453,-7.061c-0.343,-2.907 6.005,-8.403 9.278,-10.194c3.273,-1.792 8.903,-5.525 11.077,-4.453c2.173,1.072 3.098,9.13 4.572,11.004c1.474,1.874 4.447,-8.343 4.447,-8.343c0,0 -0.766,-16.543 -10.294,-12.338c-9.528,4.205 -21.712,20.756 -24.577,19.744c-2.865,-1.012 -17.157,-4.243 -22.445,-3.89c-5.289,0.352 -23.737,3.245 -23.737,3.245c0,0 -21.754,-16.415 -26.085,-16.048c-4.33,0.367 -6.254,0.397 -6.254,3.89c-0,3.493 1.516,15.112 1.516,15.112c-0,-0 1.923,-13.32 3.806,-13.785c1.882,-0.465 10.327,3.538 12.118,5.277c1.79,1.739 9.511,7.803 8.928,10.022c-0.583,2.218 -7.921,5.397 -10.078,7.188c-2.157,1.791 -9.627,10.322 -11.093,14.302c-1.466,3.98 -4.889,12.982 -4.822,17.6c0.066,4.617 1.032,8.222 1.032,8.222c0,0 1.116,-22.727 13.193,-32.891c12.076,-10.164 21.912,-14.283 39.627,-14.346Z" style="fill:#ffc783;"/><clipPath id="_clip5"><path d="M118.684,70.092c25.177,-0.09 38.891,8.567 38.244,7.743c-2.909,-3.709 -8.079,-3.883 -8.453,-7.061c-0.343,-2.907 6.005,-8.403 9.278,-10.194c3.273,-1.792 8.903,-5.525 11.077,-4.453c2.173,1.072 3.098,9.13 4.572,11.004c1.474,1.874 4.447,-8.343 4.447,-8.343c0,0 -0.766,-16.543 -10.294,-12.338c-9.528,4.205 -21.712,20.756 -24.577,19.744c-2.865,-1.012 -17.157,-4.243 -22.445,-3.89c-5.289,0.352 -23.737,3.245 -23.737,3.245c0,0 -21.754,-16.415 -26.085,-16.048c-4.33,0.367 -6.254,0.397 -6.254,3.89c-0,3.493 1.516,15.112 1.516,15.112c-0,-0 1.923,-13.32 3.806,-13.785c1.882,-0.465 10.327,3.538 12.118,5.277c1.79,1.739 9.511,7.803 8.928,10.022c-0.583,2.218 -7.921,5.397 -10.078,7.188c-2.157,1.791 -9.627,10.322 -11.093,14.302c-1.466,3.98 -4.889,12.982 -4.822,17.6c0.066,4.617 1.032,8.222 1.032,8.222c0,0 1.116,-22.727 13.193,-32.891c12.076,-10.164 21.912,-14.283 39.627,-14.346Z"/></clipPath><g clip-path="url(#_clip5)"><path d="M119.267,59.208l-0.367,25.133" style="fill:none;stroke:#ffaf32;stroke-width:10.04px;"/><path d="M106.857,53.571l-0.366,25.133" style="fill:none;stroke:#ffaf32;stroke-width:10.04px;"/><path d="M132.018,53.669l-0.367,25.133" style="fill:none;stroke:#ffaf32;stroke-width:10.04px;"/></g></g><path d="M152.356,73.592c1.371,-3.258 9.09,-11.555 14.416,-13.357c0,-0 4.065,8.785 3.565,12.87c-0.5,4.085 -3.082,16.041 -3.082,16.041c0,-0 -6.288,-8.378 -8.286,-10.389c-3.032,-3.051 -6.613,-5.165 -6.613,-5.165Z" style="fill:#f66978;"/><clipPath id="_clip6"><path d="M152.356,73.592c1.371,-3.258 9.09,-11.555 14.416,-13.357c0,-0 4.065,8.785 3.565,12.87c-0.5,4.085 -3.082,16.041 -3.082,16.041c0,-0 -6.288,-8.378 -8.286,-10.389c-3.032,-3.051 -6.613,-5.165 -6.613,-5.165Z"/></clipPath><g clip-path="url(#_clip6)"><path d="M166.872,60.415l-6.488,5.022c0,-0 -1.715,5.989 0.392,7.48c2.107,1.492 4.381,3.029 4.381,3.029c-0,-0 -0.808,1.971 1.066,3.178c1.874,1.207 3.706,0.337 3.706,0.337c-0,0 0.766,-7.338 0.058,-10.786c-0.708,-3.448 -3.115,-8.26 -3.115,-8.26Z" style="fill:#ff969f;"/></g><path d="M86.278,72.595c-1.371,-3.258 -8.84,-10.842 -14.166,-12.645c-0,0 -3.49,9.684 -3.548,13.11c-0.07,4.115 2.09,13.867 2.09,13.867c0,-0 7.013,-7.156 9.012,-9.167c3.031,-3.051 6.612,-5.165 6.612,-5.165Z" style="fill:#f66978;"/><clipPath id="_clip7"><path d="M86.278,72.595c-1.371,-3.258 -8.84,-10.842 -14.166,-12.645c-0,0 -3.49,9.684 -3.548,13.11c-0.07,4.115 2.09,13.867 2.09,13.867c0,-0 7.013,-7.156 9.012,-9.167c3.031,-3.051 6.612,-5.165 6.612,-5.165Z"/></clipPath><g clip-path="url(#_clip7)"><path d="M79.198,62.843c0,0 0.941,5.764 -0.574,7.961c-1.516,2.196 -4.306,4.002 -4.306,4.002c-0,0 1.066,2.519 -1.375,3.733c-2.44,1.215 -4.389,3.088 -5.18,1.005c-0.791,-2.084 1.549,-17.443 3.798,-19.774c2.249,-2.331 7.637,3.073 7.637,3.073Z" style="fill:#ff969f;"/></g><g id="Face-Outline" serif:id="Face Outline"><path id="Face1" serif:id="Face" d="M151.721,73.021c13.981,8.603 19.786,23.175 21.286,37.864c2.657,26.027 -19.445,46.151 -53.909,45.676c-38.455,-0.531 -55.416,-19.526 -53.91,-45.676c1.1,-19.082 8.555,-31.902 21.909,-38.986" style="fill:none;stroke:#000;stroke-width:2.12px;"/><path d="M87.097,71.899c0,0 -11.832,-11.848 -14.25,-11.914c-2.419,-0.065 -3.985,10.237 -3.858,14.866c0.126,4.629 1.926,12.184 1.926,12.184" style="fill:none;stroke:#000;stroke-width:2.12px;"/><path d="M151.721,73.021c0,-0 13.172,-13.623 14.718,-12.706c1.546,0.918 4.551,10.47 3.964,16.005c-0.586,5.535 -2.941,13.328 -2.941,13.328" style="fill:none;stroke:#000;stroke-width:2.12px;"/><path d="M144.287,69.342c-0,0 18.34,-19.495 26.043,-16.834c2.066,0.713 4.469,9.978 4.974,15.712c1.767,20.082 -5.157,28.713 -5.157,28.713" style="fill:none;stroke:#000;stroke-width:2.12px;"/><path d="M95.224,68.518c0,-0 -17.43,-18.916 -26.635,-16.73c-3.358,0.798 -2.924,11.479 -3.558,18.284c-0.818,8.786 3.164,23.205 3.164,23.205" style="fill:none;stroke:#000;stroke-width:2.12px;"/><path d="M95.224,68.518c6.845,-2.18 14.815,-3.268 23.874,-3.308c10.043,-0.044 18.352,1.466 25.189,4.132" style="fill:none;stroke:#000;stroke-width:2.12px;"/></g></g><g id="Grin"><path d="M132.119,132.329c-1.141,3.482 -2.216,4.237 -6.856,4.116c-4.64,-0.12 -6.137,-1.185 -6.221,-2.862l-0.001,-1.553" style="fill:none;stroke:#000;stroke-width:2.01px;"/><path d="M105.998,132.392c1.141,3.482 2.215,4.237 6.856,4.116c4.64,-0.12 6.017,-1.253 6.102,-2.93" style="fill:none;stroke:#000;stroke-width:2.01px;"/><path d="M122.514,128.367c0.56,0 1.096,0.222 1.491,0.618c0.395,0.395 0.617,0.931 0.617,1.49c0,0.001 0,0.001 0,0.002c0,0.559 -0.222,1.095 -0.617,1.491c-0.395,0.395 -0.931,0.617 -1.491,0.617c-2.034,0 -5.096,0 -7.13,0c-0.559,0 -1.095,-0.222 -1.49,-0.617c-0.395,-0.396 -0.618,-0.932 -0.618,-1.491c0,-0.001 0,-0.001 0,-0.002c0,-0.559 0.223,-1.095 0.618,-1.49c0.395,-0.396 0.931,-0.618 1.49,-0.618c2.034,0 5.096,0 7.13,0Z"/></g><g id="Glasses"><path d="M122.669,110.021c-1.003,-0.881 -2.59,-1.601 -4.317,-1.613c-1.726,-0.013 -3.323,0.684 -4.339,1.55c0.021,-2.91 1.977,-5.258 4.366,-5.241c2.389,0.017 4.311,2.394 4.29,5.304Z" style="fill:#575759;stroke:#000;stroke-width:2.01px;"/><g id="Left-Lens" serif:id="Left Lens"><ellipse cx="95.539" cy="112.153" rx="20.33" ry="18.548" style="fill:#575759;"/><clipPath id="_clip8"><ellipse cx="95.539" cy="112.153" rx="20.33" ry="18.548"/></clipPath><g clip-path="url(#_clip8)"><path d="M89.685,126.13c3.802,0.204 11.84,0.879 16.008,-2.992c3.437,-3.194 5.478,-8.637 6.238,-14.071c1.796,4.791 1.04,9.371 -3.611,14.269c-5.571,5.868 -16.015,4.805 -18.635,2.794Z" style="fill:#959a9e;"/><path d="M104.016,95.503c-6.862,0.252 -13.716,-1.922 -21.871,5.226c-3.528,3.092 -5.789,11.378 -5.504,16.858c-2.672,-4.364 -1.396,-10.535 2.603,-15.978c7.631,-10.386 21.818,-7.583 24.772,-6.106Z" style="fill:#959a9e;"/></g><ellipse cx="95.539" cy="112.153" rx="20.33" ry="18.548" style="fill:none;stroke:#000;stroke-width:2.01px;"/><ellipse cx="95.551" cy="112.532" rx="15.345" ry="13.646" style="fill:#404042;"/><clipPath id="_clip9"><ellipse cx="95.551" cy="112.532" rx="15.345" ry="13.646"/></clipPath><g clip-path="url(#_clip9)"><path d="M105.687,99.042l-11.622,31.441l-5.935,-2.194l11.621,-31.441l5.936,2.194Z" style="fill:#fff;"/><path d="M112.454,100.425l-11.622,31.441l-3.14,-1.161l11.622,-31.441l3.14,1.161Z" style="fill:#fff;"/></g><ellipse cx="95.551" cy="112.532" rx="15.345" ry="13.646" style="fill:none;stroke:#000;stroke-width:2.01px;"/></g><g id="Right-Lens" serif:id="Right Lens"><ellipse cx="141.345" cy="112.491" rx="20.33" ry="18.548" style="fill:#575759;"/><clipPath id="_clip10"><ellipse cx="141.345" cy="112.491" rx="20.33" ry="18.548"/></clipPath><g clip-path="url(#_clip10)"><path d="M135.491,126.468c3.803,0.203 11.841,0.879 16.008,-2.993c3.438,-3.193 5.479,-8.637 6.239,-14.071c1.796,4.791 1.04,9.372 -3.611,14.27c-5.571,5.867 -16.015,4.804 -18.636,2.794Z" style="fill:#959a9e;"/><path d="M149.823,95.84c-6.862,0.252 -13.717,-1.922 -21.871,5.226c-3.528,3.093 -5.789,11.378 -5.505,16.858c-2.672,-4.364 -1.395,-10.534 2.604,-15.977c7.63,-10.386 21.818,-7.584 24.772,-6.107Z" style="fill:#959a9e;"/></g><ellipse cx="141.345" cy="112.491" rx="20.33" ry="18.548" style="fill:none;stroke:#000;stroke-width:2.01px;"/><ellipse cx="141.391" cy="112.153" rx="15.345" ry="13.646" style="fill:#404042;"/><clipPath id="_clip11"><ellipse cx="141.391" cy="112.153" rx="15.345" ry="13.646"/></clipPath><g clip-path="url(#_clip11)"><path d="M151.527,98.664l-11.622,31.441l-5.935,-2.194l11.621,-31.441l5.936,2.194Z" style="fill:#fff;"/><path d="M158.294,100.047l-11.622,31.441l-3.14,-1.161l11.622,-31.441l3.14,1.161Z" style="fill:#fff;"/></g><ellipse cx="141.391" cy="112.153" rx="15.345" ry="13.646" style="fill:none;stroke:#000;stroke-width:2.01px;"/></g></g></g></g><path d="M57.814,74.26c0.319,-4.997 -3.623,-8.42 0.833,-9.87c4.456,-1.449 0.888,-0.112 2.054,3.573c1.166,3.686 2.291,3.261 0.833,6.072c-1.457,2.811 -4.039,5.222 -3.72,0.225Z" style="fill:#737373;stroke:#000;stroke-width:1.9px;"/><path d="M59.814,76.009c-5.247,-2.274 -10.355,0.349 -12.729,2.648c-2.373,2.299 -3.026,32.131 0.32,34.443c3.345,2.311 10.605,5.896 13.353,3.123c2.748,-2.774 4.303,-37.941 -0.944,-40.214Z" style="fill:#23ca9b;"/><clipPath id="_clip12"><path d="M59.814,76.009c-5.247,-2.274 -10.355,0.349 -12.729,2.648c-2.373,2.299 -3.026,32.131 0.32,34.443c3.345,2.311 10.605,5.896 13.353,3.123c2.748,-2.774 4.303,-37.941 -0.944,-40.214Z"/></clipPath><g clip-path="url(#_clip12)"><path d="M40.387,90.522c3.7,5.826 8.055,17.851 10.756,15.195c2.7,-2.655 1.725,-10.044 5.889,-11.029c4.164,-0.985 2.82,16.03 3.129,20.035c0.31,4.005 -5.009,13.256 -11.243,2.698c-6.235,-10.558 -12.231,-32.724 -8.531,-26.899Z" style="fill:#1d8366;"/></g><path d="M59.814,76.009c-5.247,-2.274 -10.355,0.349 -12.729,2.648c-2.373,2.299 -3.026,32.131 0.32,34.443c3.345,2.311 10.605,5.896 13.353,3.123c2.748,-2.774 4.303,-37.941 -0.944,-40.214Z" style="fill:none;stroke:#000;stroke-width:1.9px;"/><path d="M45.736,85.136c1.074,-2.983 2.336,-5.559 3.97,-3.142c1.635,2.417 1.354,24.417 -0.447,27.275c-1.801,2.858 -3.477,-3.27 -3.477,-3.27" style="fill:none;stroke:#000;stroke-width:1.9px;"/><path d="M64.416,73.248c3.407,-0 6.17,2.762 6.17,6.17c-0,8.948 -0,25.434 -0,34.383c-0,3.407 -2.763,6.17 -6.17,6.17c-0,-0 -0,-0 -0,-0c-3.408,-0 -6.17,-2.763 -6.17,-6.17l-0,-34.383c-0,-3.408 2.762,-6.17 6.17,-6.17l-0,-0Z" style="fill:#303c4e;"/><clipPath id="_clip13"><path d="M64.416,73.248c3.407,-0 6.17,2.762 6.17,6.17c-0,8.948 -0,25.434 -0,34.383c-0,3.407 -2.763,6.17 -6.17,6.17c-0,-0 -0,-0 -0,-0c-3.408,-0 -6.17,-2.763 -6.17,-6.17l-0,-34.383c-0,-3.408 2.762,-6.17 6.17,-6.17l-0,-0Z"/></clipPath><g clip-path="url(#_clip13)"><path d="M56.235,90.715c3.248,10.301 3.76,23.172 10.018,15.805c6.258,-7.367 6.913,-12.389 10.256,-15.216c3.343,-2.827 -0.714,25.817 -4.724,28.73c-4.009,2.913 -13.337,11.361 -15.526,3.384c-2.189,-7.978 -3.272,-43.004 -0.024,-32.703Z"/></g><path d="M64.416,73.248c3.407,-0 6.17,2.762 6.17,6.17c-0,8.948 -0,25.434 -0,34.383c-0,3.407 -2.763,6.17 -6.17,6.17c-0,-0 -0,-0 -0,-0c-3.408,-0 -6.17,-2.763 -6.17,-6.17l-0,-34.383c-0,-3.408 2.762,-6.17 6.17,-6.17l-0,-0Z" style="fill:none;stroke:#000;stroke-width:1.9px;"/><path d="M141.91,201.058c-4.511,-0.047 -7.676,2.137 -8.627,-1.557c-0.952,-3.694 -1.785,-7.132 1.261,-10.408c3.046,-3.277 7.698,-2.367 7.65,-5.868c-0.048,-3.502 16.621,1.509 20.012,4.775c3.391,3.266 7.555,7.153 6.306,10.377c-1.249,3.223 -1.654,3.833 -1.654,3.833c0,0 -20.438,-1.104 -24.948,-1.152Z" style="fill:#1b07cd;"/><path d="M141.357,201.063c-0.89,0.334 -4.232,1.018 -5.765,0.583c-1.533,-0.436 -2.181,-0.41 -2.932,-4.863c-0.751,-4.452 0.519,-5.796 1.96,-7.523c1.441,-1.728 3.07,-3.942 3.489,-5.096" style="fill:none;stroke:#2c2322;stroke-width:1.9px;"/><g><path d="M99.199,185.679c-8.828,0.019 -13.377,6.962 -12.534,11.459c0.69,3.679 22.393,3.242 25.079,-0.534c2.686,-3.776 -3.716,-10.944 -12.545,-10.925Z" style="fill:#ffaf32;stroke:#000;stroke-width:1.9px;"/><path d="M103.158,199.19c0.626,-3.378 0.966,-4.152 0.146,-6.119" style="fill:none;stroke:#000;stroke-width:1.9px;"/><path d="M93.741,199.256c0,0 -0.506,-4.341 0.72,-6.548" style="fill:none;stroke:#000;stroke-width:1.9px;"/></g><path d="M181.533,74.26c-0.319,-4.997 3.623,-8.42 -0.832,-9.87c-4.456,-1.449 -0.889,-0.112 -2.055,3.573c-1.166,3.686 -2.29,3.261 -0.833,6.072c1.458,2.811 4.04,5.222 3.72,0.225Z" style="fill:#737373;stroke:#000;stroke-width:1.9px;"/><path d="M178.902,76.009c5.247,-2.274 10.355,0.349 12.729,2.648c2.373,2.299 3.026,32.131 -0.32,34.443c-3.345,2.311 -10.605,5.896 -13.353,3.123c-2.749,-2.774 -4.303,-37.941 0.944,-40.214Z" style="fill:#23ca9b;"/><clipPath id="_clip14"><path d="M178.902,76.009c5.247,-2.274 10.355,0.349 12.729,2.648c2.373,2.299 3.026,32.131 -0.32,34.443c-3.345,2.311 -10.605,5.896 -13.353,3.123c-2.749,-2.774 -4.303,-37.941 0.944,-40.214Z"/></clipPath><g clip-path="url(#_clip14)"><path d="M179.437,95.727c3.689,1.07 3.332,11.896 7.282,10.579c3.95,-1.317 7.031,-9.476 11.279,-7.153c4.248,2.324 2.451,17.754 -6.413,19.157c-8.864,1.403 -14.634,7.731 -14.682,-0.182c-0.048,-7.913 -1.154,-23.472 2.534,-22.401Z" style="fill:#1d8366;"/></g><path d="M178.902,76.009c5.247,-2.274 10.355,0.349 12.729,2.648c2.373,2.299 3.026,32.131 -0.32,34.443c-3.345,2.311 -10.605,5.896 -13.353,3.123c-2.749,-2.774 -4.303,-37.941 0.944,-40.214Z" style="fill:none;stroke:#000;stroke-width:1.9px;"/><path d="M192.83,82.903c-1.976,-2.108 -2.736,-2.923 -3.756,1.396c-1.021,4.319 -0.677,21.943 0.957,23.527c1.635,1.583 3.13,-1.774 3.005,-1.727" style="fill:none;stroke:#000;stroke-width:1.9px;"/><path d="M174.3,73.248c-3.407,-0 -6.17,2.762 -6.17,6.17l0,34.383c0,3.407 2.763,6.17 6.17,6.17l0,-0c3.408,-0 6.17,-2.763 6.17,-6.17l0,-34.383c0,-3.408 -2.762,-6.17 -6.17,-6.17l0,-0Z" style="fill:#303c4e;"/><clipPath id="_clip15"><path d="M174.3,73.248c-3.407,-0 -6.17,2.762 -6.17,6.17l0,34.383c0,3.407 2.763,6.17 6.17,6.17l0,-0c3.408,-0 6.17,-2.763 6.17,-6.17l0,-34.383c0,-3.408 -2.762,-6.17 -6.17,-6.17l0,-0Z"/></clipPath><g clip-path="url(#_clip15)"><path d="M168.13,102.473c2.872,3.822 3.074,13.031 7.286,9.337c4.212,-3.694 5.806,-8.245 8.899,-8.331c3.094,-0.085 6.854,15.216 -2.391,17.444c-9.245,2.227 -15.943,1.788 -16.3,-3.673c-0.357,-5.461 -0.365,-18.6 2.506,-14.777Z"/></g><path d="M174.3,73.248c-3.407,-0 -6.17,2.762 -6.17,6.17l0,34.383c0,3.407 2.763,6.17 6.17,6.17l0,-0c3.408,-0 6.17,-2.763 6.17,-6.17l0,-34.383c0,-3.408 -2.762,-6.17 -6.17,-6.17l0,-0Z" style="fill:none;stroke:#000;stroke-width:1.9px;"/><path d="M159.955,184.801c1.384,1.745 2.677,4.219 4.373,5.469c1.696,1.249 3.93,3.049 4.244,5.415c0.315,2.366 -0.781,5.087 -1.332,5.732" style="fill:none;stroke:#2c2322;stroke-width:1.9px;"/><g id="Board"><ellipse cx="124.949" cy="208.408" rx="1.495" ry="1.051" style="fill:#769e01;stroke:#000;stroke-width:0.67px;"/><ellipse cx="130.548" cy="208.408" rx="1.495" ry="1.051" style="fill:#4ed4d0;stroke:#000;stroke-width:0.67px;"/><ellipse cx="136.222" cy="208.408" rx="1.495" ry="1.051" style="fill:#dc81d0;stroke:#000;stroke-width:0.67px;"/><path d="M25.22,223.035c-0,-0 -0.485,9.501 1.223,12.699c2.144,3.154 58.638,10.085 98.874,9.699c38.673,-0.371 101.14,-3.764 103.963,-11.098c0.399,-5.035 0.598,-11.364 0.598,-11.364" style="fill:#e1ebff;stroke:#000;stroke-width:1.9px;"/><path d="M24.951,222.987c1.795,2.564 80.049,10.894 80.049,10.894c-0,-0 1.749,3.357 2.941,3.678c1.192,0.32 38.033,1.323 39.333,0.014c1.3,-1.31 3.328,-3.831 3.328,-3.831c0,-0 78.435,-6.128 78.986,-11.213c0.187,-1.733 -27.885,-24.21 -29.281,-25.455c0,-0 -55.29,4.081 -59.188,4.498c-1.034,1.023 -2.095,3.401 -2.095,3.401c-0,-0 -21.765,1.128 -23.266,0.251c-0.838,-1.456 -1.703,-4.57 -1.703,-4.57c0,0 -54.503,-4.138 -57.677,-5.224c-3.168,2.207 -31.674,27.056 -31.427,27.557Z" style="fill:#e1ebff;stroke:#000;stroke-width:1.9px;"/><path d="M150.602,233.742l-9.43,-32.167" style="fill:none;stroke:#000;stroke-width:1.9px;"/><path d="M105,233.881l9.055,-33.227" style="fill:none;stroke:#000;stroke-width:1.9px;"/><g id="Disc"><ellipse cx="178.695" cy="207.156" rx="27.25" ry="10.24" style="fill:#382a71;stroke:#000;stroke-width:1.9px;"/><path d="M152.547,204.266c0,0 -4.335,5.251 -3.314,8.348c1.02,3.096 10.465,11.27 33.153,10.224c19.928,-0.92 24.187,-7.449 25.027,-8.863c0.84,-1.414 -2.244,-9.427 -2.244,-9.427" style="fill:none;stroke:#000;stroke-width:1.9px;"/></g><g id="Disc1" serif:id="Disc"><ellipse cx="76.9" cy="207.156" rx="27.25" ry="10.24" style="fill:#382a71;stroke:#000;stroke-width:1.9px;"/><path d="M50.751,204.266c0,0 -4.335,5.251 -3.314,8.348c1.02,3.096 10.465,11.27 33.154,10.224c19.927,-0.92 24.187,-7.449 25.026,-8.863c0.84,-1.414 -2.244,-9.427 -2.244,-9.427" style="fill:none;stroke:#000;stroke-width:1.9px;"/></g><ellipse cx="178.209" cy="205.644" rx="11.413" ry="3.484" style="fill:#e1ebff;stroke:#000;stroke-width:0.67px;"/><ellipse cx="76.632" cy="205.654" rx="11.413" ry="3.484" style="fill:#e1ebff;stroke:#000;stroke-width:0.67px;"/><path d="M118.851,211.964l-3.978,19.805l1.021,-0.02l2.957,-19.785Z" style="fill:none;stroke:#000;stroke-width:1.9px;"/><path d="M127.673,212.236l-0.641,19.407l1.021,-0.02l-0.38,-19.387Z" style="fill:none;stroke:#000;stroke-width:1.9px;"/><path d="M136.148,212.236l3.134,19.424l1.02,-0.021l-4.154,-19.403Z" style="fill:none;stroke:#000;stroke-width:1.9px;"/><path d="M134.578,213.637l0.297,2.574c-0,0.449 0.365,0.815 0.815,0.815l2.303,-0.033c0.45,0 0.815,-0.365 0.815,-0.815l-0.731,-2.61c0,-0.45 -0.365,-0.815 -0.815,-0.815l-1.87,0.069c-0.449,-0 -0.814,0.365 -0.814,0.815Z" style="fill:#a9cf3a;stroke:#000;stroke-width:0.67px;"/><path d="M120.662,213.354l-0.297,2.574c-0,0.449 -0.366,0.814 -0.815,0.814l-2.304,-0.032c-0.45,0 -0.815,-0.365 -0.815,-0.815l0.731,-2.61c0,-0.45 0.365,-0.815 0.815,-0.815l1.87,0.069c0.45,-0 0.815,0.365 0.815,0.815Z" style="fill:#de1369;stroke:#000;stroke-width:0.67px;"/><path d="M129.609,219.158l0.232,3.21c-0,0.45 -0.365,0.815 -0.815,0.815l-2.986,-0.018c-0.45,0 -0.815,-0.365 -0.815,-0.815l0.362,-3.178c-0,-0.45 0.365,-0.815 0.815,-0.815l2.392,-0.014c0.45,0 0.815,0.366 0.815,0.815Z" style="fill:#ff8c4f;stroke:#000;stroke-width:0.67px;"/><g id="Button"><ellipse cx="158.17" cy="224.717" rx="4.148" ry="1.613" style="fill:none;stroke:#000;stroke-width:0.67px;"/><path d="M154.021,224.717l-0.052,3.997c0,0 1.074,1.602 4.122,1.522c3.103,-0.081 4.192,-1.34 4.192,-1.34l0.176,-4.272" style="fill:none;stroke:#000;stroke-width:0.67px;"/></g><g id="Button1" serif:id="Button"><ellipse cx="178.489" cy="203.007" rx="2.522" ry="0.756" style="fill:none;stroke:#000;stroke-width:0.67px;"/><path d="M175.967,203.007l-0.032,1.872c-0,0 0.652,0.751 2.506,0.714c1.886,-0.038 2.548,-0.628 2.548,-0.628l0.107,-2.001" style="fill:none;stroke:#000;stroke-width:0.67px;"/></g><g id="Button2" serif:id="Button"><ellipse cx="76.912" cy="203.017" rx="2.522" ry="0.756" style="fill:none;stroke:#000;stroke-width:0.67px;"/><path d="M74.39,203.017l-0.032,1.873c-0,-0 0.653,0.75 2.506,0.713c1.886,-0.038 2.548,-0.628 2.548,-0.628l0.108,-2.001" style="fill:none;stroke:#000;stroke-width:0.67px;"/></g><ellipse cx="222.684" cy="231.332" rx="1.615" ry="1.478" style="fill:#3a4355;stroke:#000;stroke-width:0.67px;"/><g id="Button3" serif:id="Button"><ellipse cx="96.918" cy="224.697" rx="4.148" ry="1.613" style="fill:none;stroke:#000;stroke-width:0.67px;"/><path d="M92.769,224.697l-0.052,3.997c0,-0 1.074,1.602 4.122,1.522c3.103,-0.081 4.192,-1.34 4.192,-1.34l0.176,-4.272" style="fill:none;stroke:#000;stroke-width:0.67px;"/></g><g id="arm"><g id="Button4" serif:id="Button"><ellipse cx="210.606" cy="218.234" rx="5.684" ry="1.806" style="fill:none;stroke:#000;stroke-width:0.67px;"/><path d="M204.922,218.234l-0.072,4.475c0,-0 1.471,1.794 5.648,1.704c4.251,-0.091 5.743,-1.5 5.743,-1.5l0.002,-4.781" style="fill:none;stroke:#000;stroke-width:0.67px;"/></g><path d="M205.059,218.752c0,-0 -6.376,0.611 -8.261,-0.758c-1.885,-1.368 -3.398,-4.499 -5.55,-5.25c-2.153,-0.751 -9.098,-0.454 -9.098,-0.454l0.016,2.317c0,0 5.855,-0.681 7.536,0.482c1.68,1.163 2.313,5.522 4.967,6.05c2.655,0.527 10.269,0.347 10.269,0.347l0.121,-2.734Z" style="fill:#e1ebff;stroke:#000;stroke-width:0.67px;"/><path d="M176.071,211.457c0.995,-0.769 4.572,-0.551 5.435,0.34c0.864,0.891 1.3,2.749 0.575,3.097c-0.724,0.348 -6.47,0.287 -6.781,-0.378c-0.311,-0.664 -0.224,-2.29 0.771,-3.059Z" style="fill:#e1ebff;stroke:#000;stroke-width:0.67px;"/></g><g id="arm1" serif:id="arm"><g id="Button5" serif:id="Button"><ellipse cx="44.623" cy="218.29" rx="5.684" ry="1.806" style="fill:none;stroke:#000;stroke-width:0.67px;"/><path d="M50.307,218.29l0.072,4.475c-0,-0 -1.471,1.794 -5.648,1.704c-4.251,-0.091 -5.743,-1.5 -5.743,-1.5l-0.002,-4.781" style="fill:none;stroke:#000;stroke-width:0.67px;"/></g><path d="M50.169,218.808c0,-0 6.376,0.61 8.261,-0.758c1.885,-1.368 3.399,-4.5 5.551,-5.251c2.152,-0.751 9.098,-0.454 9.098,-0.454l-0.016,2.318c-0,0 -5.856,-0.682 -7.536,0.482c-1.681,1.163 -2.313,5.522 -4.967,6.049c-2.655,0.528 -10.27,0.348 -10.27,0.348l-0.121,-2.734Z" style="fill:#e1ebff;stroke:#000;stroke-width:0.67px;"/><path d="M79.158,211.513c-0.995,-0.769 -4.573,-0.551 -5.436,0.34c-0.863,0.891 -1.299,2.749 -0.575,3.097c0.725,0.348 6.471,0.286 6.782,-0.378c0.311,-0.665 0.223,-2.29 -0.771,-3.059Z" style="fill:#e1ebff;stroke:#000;stroke-width:0.67px;"/></g></g><g><path d="M154.685,193.956c8.829,0.019 13.378,6.962 12.535,11.459c-0.69,3.68 -22.394,3.242 -25.08,-0.534c-2.685,-3.776 3.717,-10.943 12.545,-10.925Z" style="fill:#ffaf32;stroke:#000;stroke-width:1.9px;"/><path d="M150.726,207.467c-0.625,-3.378 -0.965,-4.151 -0.146,-6.118" style="fill:none;stroke:#000;stroke-width:1.9px;"/><path d="M160.144,207.534c-0,-0 0.506,-4.342 -0.72,-6.549" style="fill:none;stroke:#000;stroke-width:1.9px;"/></g></svg>