<?xml version="1.0" encoding="UTF-8" standalone="no"?><!DOCTYPE svg PUBLIC "-//W3C//DTD SVG 1.1//EN" "http://www.w3.org/Graphics/SVG/1.1/DTD/svg11.dtd"><svg width="100%" height="100%" viewBox="0 0 250 250" version="1.1" xmlns="http://www.w3.org/2000/svg" xmlns:xlink="http://www.w3.org/1999/xlink" xml:space="preserve" xmlns:serif="http://www.serif.com/" style="fill-rule:evenodd;clip-rule:evenodd;stroke-linecap:round;stroke-linejoin:round;stroke-miterlimit:1.5;"><rect id="zeek-banker" x="0" y="0" width="250" height="250" style="fill:none;"/><g id="Zeek"><path id="Tail" d="M209.219,231.689c0,-0 11.439,-9.294 10.32,-23.703c-1.119,-14.41 -7.481,-21.917 -9.833,-27.807c-2.352,-5.89 -6.06,-15.38 -5.369,-24.597c0.926,-12.342 6.633,-22.971 11.186,-29.473c2.567,-3.665 6.076,-10.895 0.796,-15.643c-3.501,-3.15 -9.129,-2.881 -12.31,0.261c-3.181,3.141 -13.081,15.995 -14,31.618c-1.201,20.399 1.778,33.807 5.18,38.268c3.402,4.462 12.942,21.767 12.506,27.236c-0.436,5.469 1.524,23.84 1.524,23.84Z" style="fill:#fd9203;"/><clipPath id="_clip1"><path id="Tail1" serif:id="Tail" d="M209.219,231.689c0,-0 11.439,-9.294 10.32,-23.703c-1.119,-14.41 -7.481,-21.917 -9.833,-27.807c-2.352,-5.89 -6.06,-15.38 -5.369,-24.597c0.926,-12.342 6.633,-22.971 11.186,-29.473c2.567,-3.665 6.076,-10.895 0.796,-15.643c-3.501,-3.15 -9.129,-2.881 -12.31,0.261c-3.181,3.141 -13.081,15.995 -14,31.618c-1.201,20.399 1.778,33.807 5.18,38.268c3.402,4.462 12.942,21.767 12.506,27.236c-0.436,5.469 1.524,23.84 1.524,23.84Z"/></clipPath><g clip-path="url(#_clip1)"><path d="M190.373,170.083c3.77,3.501 6.993,5.477 10.865,2.117c3.872,-3.359 5.826,-12.246 6.725,-15.364c0.898,-3.118 6.632,-20.482 10.661,-24.901c4.03,-4.418 9.245,-29.911 0.778,-31.278c-8.466,-1.367 -20.581,1.267 -27.214,10.762c-6.632,9.495 -5.585,55.163 -1.815,58.664Z" style="fill:#ffaf32;"/><path d="M194.541,121.581l19.674,11.596c0,0 17.729,-23.517 6.456,-27.802c-11.272,-4.285 -18.803,2.026 -21.906,5.819c-3.103,3.793 -4.224,10.387 -4.224,10.387Z" style="fill:#e77f00;"/><path d="M210.639,138.202l-1.773,3.994l-22.059,-9.792l1.773,-3.994l22.059,9.792Z" style="fill:#e77f00;"/><g><path d="M214.312,123.114l-0.414,-5.468l-1.85,2.143l-4.774,-0.371l2.92,2.52l-1.351,1.565l5.469,-0.389Z" style="fill:#ffaf32;"/><path d="M203.947,114.168l0.414,5.468l1.839,-2.131l4.789,0.355l-2.92,-2.52l1.351,-1.566l-5.473,0.394Z" style="fill:#ffaf32;"/></g></g><path id="Tail2" serif:id="Tail" d="M209.219,231.689c0,-0 11.439,-9.294 10.32,-23.703c-1.119,-14.41 -7.481,-21.917 -9.833,-27.807c-2.352,-5.89 -6.06,-15.38 -5.369,-24.597c0.926,-12.342 6.633,-22.971 11.186,-29.473c2.567,-3.665 6.076,-10.895 0.796,-15.643c-3.501,-3.15 -9.129,-2.881 -12.31,0.261c-3.181,3.141 -13.081,15.995 -14,31.618c-1.201,20.399 1.778,33.807 5.18,38.268c3.402,4.462 12.942,21.767 12.506,27.236c-0.436,5.469 1.524,23.84 1.524,23.84Z" style="fill:none;stroke:#040200;stroke-width:2.23px;"/><path id="Body" d="M137.003,246.249c-17.326,-0.251 -48.74,-0.664 -53.822,-0.737c-6.928,-0.099 1.218,-31.81 -3.533,-43.933c-4.75,-12.124 -14.675,-34.978 -9.276,-50.853c5.399,-15.875 36.509,-2.977 52.136,-6.169c15.628,-3.191 30.032,-8.981 41.226,-8.115c3.181,0.246 4.976,8.562 7.29,12.265c2.672,4.278 10.337,12.829 17.422,19.609c11.808,11.299 23.303,28.928 22.495,45.529c-0.807,16.602 -2.636,32.871 -26.399,32.763c-18.759,-0.086 -37.029,-0.207 -47.539,-0.359Z" style="fill:#535351;"/><clipPath id="_clip2"><path id="Body1" serif:id="Body" d="M137.003,246.249c-17.326,-0.251 -48.74,-0.664 -53.822,-0.737c-6.928,-0.099 1.218,-31.81 -3.533,-43.933c-4.75,-12.124 -14.675,-34.978 -9.276,-50.853c5.399,-15.875 36.509,-2.977 52.136,-6.169c15.628,-3.191 30.032,-8.981 41.226,-8.115c3.181,0.246 4.976,8.562 7.29,12.265c2.672,4.278 10.337,12.829 17.422,19.609c11.808,11.299 23.303,28.928 22.495,45.529c-0.807,16.602 -2.636,32.871 -26.399,32.763c-18.759,-0.086 -37.029,-0.207 -47.539,-0.359Z"/></clipPath><g clip-path="url(#_clip2)"><path d="M66.484,144.955c-2.594,5.636 -6.855,21.175 -3.816,28.961c3.038,7.787 4.26,13.439 10.467,19.524c6.206,6.086 6.78,19.674 7.058,24.576c0.278,4.902 -2.631,13.722 1.259,13.205c3.891,-0.517 8.874,3.368 10.541,-5.802c1.668,-9.17 2.965,-13.222 0.593,-24.893c-2.371,-11.671 -0.759,-14.722 3.742,-19.907c4.502,-5.186 23.428,9.587 26.548,4.902c6.012,-9.029 7.91,0.018 7.428,3.017c0,0 2.001,22.142 1.167,26.41c-0.833,4.269 -0.518,14.656 3.502,11.221c4.02,-3.434 5.52,-13.271 7.873,-19.79c2.353,-6.52 1.334,-17.874 6.002,-21.442c4.669,-3.568 6.929,-2.884 7.855,-8.57c0.926,-5.685 2.798,10.766 9.853,9.612c9.617,-1.573 15.694,1.692 20.788,6.194c5.095,4.502 12.264,11.538 16.988,14.356c4.724,2.817 8.726,12.804 8.726,12.804c-0,0 6.187,-24.942 -2.927,-37.731c-9.115,-12.788 -28.733,-43.049 -36.588,-47.934c-7.855,-4.886 -19.47,0.116 -19.47,0.116c-0,0 -84.996,5.536 -87.589,11.171Z" style="fill:#747474;"/><path d="M101.898,160.738c-1.108,2.14 4.294,30.122 4.294,30.122c1.57,5.921 4.069,11.552 7.326,16.945c0,0 3.196,-9.457 4.822,-11.926c1.626,-2.468 8.931,-20.766 9.643,-26.027c0.712,-5.261 5.586,-13.77 0.153,-14.913c-5.432,-1.143 -25.131,3.659 -26.238,5.799Z" style="fill:#fff;"/><path d="M112.721,172.614c-0.919,1.814 -2.147,7.36 -3.155,11.984c-0.81,3.716 -2.093,9.887 -0.72,13.239c1.374,3.353 4.736,9.956 4.736,9.956c-0.477,-0.778 5.257,-13.422 6.628,-15.8c1.897,-3.291 -3.639,-17.288 -3.678,-19.118c-0.038,-1.829 -2.893,-2.074 -3.811,-0.261Z" style="fill:#d81000;stroke:#000;stroke-width:1.06px;"/><path d="M128.781,181.882c2.315,14.017 2.712,31.607 1.521,42.599c-1.191,10.993 -0.648,9.349 -1.058,11.767c-0.41,2.417 14.145,5.764 14.145,5.764l6.815,-1.167c0,-0 -2.633,-7.718 -2.871,-18.817c-0.239,-11.099 6.007,-21.603 7.211,-26.057c1.205,-4.455 4.883,-17.078 2.065,-20.52" style="fill:none;stroke:#000;stroke-width:2.23px;"/><path d="M100.807,193.72c2.316,9.968 2.752,25.402 2.342,31.726c-0.41,6.324 -2.884,10.028 -2.884,10.028" style="fill:none;stroke:#000;stroke-width:2.23px;"/><path d="M115.736,165.913c1.939,-1.251 5.026,-2.907 6.905,-0.771c1.879,2.136 4.417,4.331 4.417,4.331l2.478,-12.756l-12.987,2.531c-0,0 -2.753,7.916 -0.813,6.665Z" style="fill:none;stroke:#000;stroke-width:1.06px;"/><path d="M114.119,165.857c-3.344,-0.898 -4.668,-2.431 -6.773,-0.112c-2.104,2.319 -4.406,4.149 -4.406,4.149l-1.604,-11.842l9.34,1.008c-0,0 1.849,3.818 3.443,6.797Z" style="fill:none;stroke:#000;stroke-width:1.06px;"/><path d="M112.901,166.482c-1.824,1.014 -3.972,4.242 -2.038,5.35c1.933,1.107 5.664,1.988 6.927,-0.391c1.264,-2.378 0.984,-5.28 -0.143,-6.047c-1.126,-0.766 -2.922,0.074 -4.746,1.088Z" style="fill:#d81000;stroke:#000;stroke-width:1.06px;"/><path d="M80.332,151.039l-8.482,9.111l13.873,2.967l-6.416,9.915c-0,0 25.837,16.015 28.43,22.172c-3.299,-15.923 -1.826,-29.41 -6.411,-36.491c-4.586,-7.08 -20.994,-7.674 -20.994,-7.674Z" style="fill:#535351;stroke:#000;stroke-width:1.06px;"/><path d="M149.256,144.114l8.483,9.111l-13.874,2.966l6.417,9.916c-0,-0 -25.744,16.186 -28.337,22.344c2.489,-7.004 3.97,-29.505 6.318,-36.663c2.628,-8.016 20.993,-7.674 20.993,-7.674Z" style="fill:#535351;stroke:#000;stroke-width:1.06px;"/><circle cx="117.447" cy="210.479" r="1.992" style="stroke:#000;stroke-width:0.69px;"/></g><path id="Body2" serif:id="Body" d="M137.003,246.249c-17.326,-0.251 -48.74,-0.664 -53.822,-0.737c-6.928,-0.099 1.218,-31.81 -3.533,-43.933c-4.75,-12.124 -14.675,-34.978 -9.276,-50.853c5.399,-15.875 36.509,-2.977 52.136,-6.169c15.628,-3.191 30.032,-8.981 41.226,-8.115c3.181,0.246 4.976,8.562 7.29,12.265c2.672,4.278 10.337,12.829 17.422,19.609c11.808,11.299 23.303,28.928 22.495,45.529c-0.807,16.602 -2.636,32.871 -26.399,32.763c-18.759,-0.086 -37.029,-0.207 -47.539,-0.359Z" style="fill:none;stroke:#000;stroke-width:2.23px;"/><path d="M121.979,188.28c-2.417,5.458 -9.826,18.864 -8.522,23.887c1.304,5.024 6.771,16.711 8.178,19.348" style="fill:none;stroke:#000;stroke-width:1.06px;"/><path d="M107.72,195.034c0.835,3.165 5.869,13.249 5.869,13.249" style="fill:none;stroke:#000;stroke-width:1.06px;"/><path id="Left-Leg" serif:id="Left Leg" d="M131.517,231.586l-74.476,-1.28c-0,-0 -6.267,1.599 -6.128,7.95c0.139,6.351 6.785,8.451 6.785,8.451l72.65,0.604l5.583,-13.596l-4.414,-2.129Z" style="fill:#fd9203;"/><clipPath id="_clip3"><path id="Left-Leg1" serif:id="Left Leg" d="M131.517,231.586l-74.476,-1.28c-0,-0 -6.267,1.599 -6.128,7.95c0.139,6.351 6.785,8.451 6.785,8.451l72.65,0.604l5.583,-13.596l-4.414,-2.129Z"/></clipPath><g clip-path="url(#_clip3)"><path d="M49.004,243.6c-0,0 50.612,1.446 55.721,0.159c5.11,-1.286 8.828,-2.862 9.662,-5.884c0.835,-3.022 0.222,-8.15 0.222,-8.15l-63.588,-3.551l-4.534,12.56l2.517,4.866Z" style="fill:#ffaf32;"/><path d="M60.746,240.055l-12.887,0.039" style="fill:none;stroke:#000;stroke-width:2.23px;"/><path d="M61.435,235.638l-12.887,0.04" style="fill:none;stroke:#000;stroke-width:2.23px;"/></g><path id="Left-Leg2" serif:id="Left Leg" d="M131.517,231.586l-74.476,-1.28c-0,-0 -6.267,1.599 -6.128,7.95c0.139,6.351 6.785,8.451 6.785,8.451l72.65,0.604l5.583,-13.596l-4.414,-2.129Z" style="fill:none;stroke:#000;stroke-width:2.23px;"/><path id="Right-Lef" serif:id="Right Lef" d="M192.352,196.759c-5.644,-0.345 -17.922,2.818 -20.915,12.921c-2.992,10.103 -1.57,20.56 -5.183,22.387c-3.614,1.827 -29.693,0.508 -32.226,1.199c-2.533,0.692 -7.422,3.496 -8.508,6.338c-1.086,2.843 -1.266,7.47 -1.266,7.47c-0,-0 67.367,1.588 68.463,1.152c1.095,-0.435 9.912,-1.208 13.298,-8.592c3.386,-7.384 7.014,-17.141 2.85,-27.936c-4.164,-10.794 -10.87,-14.593 -16.513,-14.939Z" style="fill:#fd9203;"/><clipPath id="_clip4"><path id="Right-Lef1" serif:id="Right Lef" d="M192.352,196.759c-5.644,-0.345 -17.922,2.818 -20.915,12.921c-2.992,10.103 -1.57,20.56 -5.183,22.387c-3.614,1.827 -29.693,0.508 -32.226,1.199c-2.533,0.692 -7.422,3.496 -8.508,6.338c-1.086,2.843 -1.266,7.47 -1.266,7.47c-0,-0 67.367,1.588 68.463,1.152c1.095,-0.435 9.912,-1.208 13.298,-8.592c3.386,-7.384 7.014,-17.141 2.85,-27.936c-4.164,-10.794 -10.87,-14.593 -16.513,-14.939Z"/></clipPath><g clip-path="url(#_clip4)"><path d="M124.517,244.104c0.729,1.633 14.709,1.442 19.426,1.294c4.717,-0.147 46.135,0.217 47.887,-5.224c1.751,-5.441 -6.722,-7.478 -10.731,-7.097c-4.009,0.382 -21.31,0.541 -24.383,0.808c-3.073,0.268 -21.038,-1.9 -23.592,-0.87c-2.555,1.03 -10.505,6.841 -8.607,11.089Z" style="fill:#ffaf32;"/><path d="M150.589,233.093l22.687,0.196" style="fill:none;stroke:#000;stroke-width:2.23px;"/><path d="M129.025,247.184c-0,0 -0.811,-3.162 1.071,-5.646c1.883,-2.484 6.725,-4.046 6.725,-4.046" style="fill:none;stroke:#000;stroke-width:2.23px;"/></g><path id="Right-Lef2" serif:id="Right Lef" d="M192.352,196.759c-5.644,-0.345 -17.922,2.818 -20.915,12.921c-2.992,10.103 -1.57,20.56 -5.183,22.387c-3.614,1.827 -29.693,0.508 -32.226,1.199c-2.533,0.692 -7.422,3.496 -8.508,6.338c-1.086,2.843 -1.266,7.47 -1.266,7.47c-0,-0 67.367,1.588 68.463,1.152c1.095,-0.435 9.912,-1.208 13.298,-8.592c3.386,-7.384 7.014,-17.141 2.85,-27.936c-4.164,-10.794 -10.87,-14.593 -16.513,-14.939Z" style="fill:none;stroke:#000;stroke-width:2.23px;"/><g id="Head"><g id="Face"><path id="Face-Colors" serif:id="Face Colors" d="M108.905,160.946c33.043,0.46 58.186,-16.973 59.816,-42.678c1.089,-17.185 -3.514,-24.5 -3.273,-25.03c2.817,-6.215 6.427,-10.392 5.854,-21.75c-0.488,-9.644 -1.174,-25.222 -6.419,-26.852c-5.767,-1.791 -28.687,18.624 -28.687,18.624c-0,0 -10.782,-3.776 -26.52,-4.235c-10.572,-0.308 -27.862,3.852 -27.862,3.852c0,-0 -20.663,-21.416 -28.881,-18.407c-5.305,1.942 -4.168,18.957 -3.928,28.327c0.192,7.45 2.816,16.882 2.825,19.824c0.01,2.943 -3.277,8.015 -3.001,24.201c0.501,29.245 27.033,43.665 60.076,44.124Z" style="fill:#ffaf32;"/><clipPath id="_clip5"><path id="Face-Colors1" serif:id="Face Colors" d="M108.905,160.946c33.043,0.46 58.186,-16.973 59.816,-42.678c1.089,-17.185 -3.514,-24.5 -3.273,-25.03c2.817,-6.215 6.427,-10.392 5.854,-21.75c-0.488,-9.644 -1.174,-25.222 -6.419,-26.852c-5.767,-1.791 -28.687,18.624 -28.687,18.624c-0,0 -10.782,-3.776 -26.52,-4.235c-10.572,-0.308 -27.862,3.852 -27.862,3.852c0,-0 -20.663,-21.416 -28.881,-18.407c-5.305,1.942 -4.168,18.957 -3.928,28.327c0.192,7.45 2.816,16.882 2.825,19.824c0.01,2.943 -3.277,8.015 -3.001,24.201c0.501,29.245 27.033,43.665 60.076,44.124Z"/></clipPath><g clip-path="url(#_clip5)"><path d="M123.274,46.512l-0.407,27.952" style="fill:none;stroke:#e87f00;stroke-width:11.17px;"/><path d="M95.291,46.404l-0.407,27.952" style="fill:none;stroke:#e87f00;stroke-width:11.17px;"/><path d="M109.093,52.673l-0.408,27.952" style="fill:none;stroke:#e87f00;stroke-width:11.17px;"/><path d="M46.264,126.142c-0,0 12.402,8.929 22.943,7.928c10.541,-1 25.751,-8.728 40.219,-8.178c14.469,0.55 23.38,8.987 36.033,8.603c12.652,-0.383 29.14,-6.685 29.14,-6.685c0,-0 -14.542,22 -20.35,26.301c-5.808,4.302 -47.842,12.305 -55.558,10.379c-7.716,-1.926 -38.626,-12.955 -44.86,-21.183c-6.234,-8.228 -7.567,-17.165 -7.567,-17.165Z" style="fill:#fff;"/><path d="M108.444,64.777c28.002,-0.1 43.255,9.529 42.535,8.612c-3.235,-4.124 -8.985,-4.318 -9.402,-7.853c-0.381,-3.232 6.679,-9.345 10.319,-11.338c3.64,-1.992 9.902,-6.144 12.32,-4.951c2.417,1.192 3.445,10.153 5.085,12.238c1.639,2.084 4.946,-9.279 4.946,-9.279c0,-0 -0.852,-18.399 -11.449,-13.722c-10.596,4.677 -24.148,23.084 -27.334,21.958c-3.186,-1.125 -19.081,-4.718 -24.963,-4.326c-5.882,0.392 -26.399,3.61 -26.399,3.61c-0,-0 -24.194,-18.257 -29.011,-17.849c-4.817,0.409 -6.956,0.442 -6.956,4.327c-0,3.885 1.685,16.806 1.685,16.806c0,0 2.14,-14.814 4.234,-15.331c2.093,-0.517 11.485,3.935 13.477,5.869c1.991,1.934 10.578,8.678 9.93,11.146c-0.649,2.468 -8.809,6.002 -11.208,7.995c-2.399,1.992 -10.708,11.479 -12.338,15.906c-1.631,4.426 -5.438,14.439 -5.364,19.574c0.075,5.135 1.149,9.145 1.149,9.145c0,-0 1.241,-25.276 14.672,-36.581c13.431,-11.304 24.371,-15.885 44.072,-15.956Z" style="fill:#ffc783;"/><clipPath id="_clip6"><path d="M108.444,64.777c28.002,-0.1 43.255,9.529 42.535,8.612c-3.235,-4.124 -8.985,-4.318 -9.402,-7.853c-0.381,-3.232 6.679,-9.345 10.319,-11.338c3.64,-1.992 9.902,-6.144 12.32,-4.951c2.417,1.192 3.445,10.153 5.085,12.238c1.639,2.084 4.946,-9.279 4.946,-9.279c0,-0 -0.852,-18.399 -11.449,-13.722c-10.596,4.677 -24.148,23.084 -27.334,21.958c-3.186,-1.125 -19.081,-4.718 -24.963,-4.326c-5.882,0.392 -26.399,3.61 -26.399,3.61c-0,-0 -24.194,-18.257 -29.011,-17.849c-4.817,0.409 -6.956,0.442 -6.956,4.327c-0,3.885 1.685,16.806 1.685,16.806c0,0 2.14,-14.814 4.234,-15.331c2.093,-0.517 11.485,3.935 13.477,5.869c1.991,1.934 10.578,8.678 9.93,11.146c-0.649,2.468 -8.809,6.002 -11.208,7.995c-2.399,1.992 -10.708,11.479 -12.338,15.906c-1.631,4.426 -5.438,14.439 -5.364,19.574c0.075,5.135 1.149,9.145 1.149,9.145c0,-0 1.241,-25.276 14.672,-36.581c13.431,-11.304 24.371,-15.885 44.072,-15.956Z"/></clipPath><g clip-path="url(#_clip6)"><path d="M109.093,52.673l-0.408,27.952" style="fill:none;stroke:#ffaf32;stroke-width:11.17px;"/><path d="M95.291,46.404l-0.407,27.952" style="fill:none;stroke:#ffaf32;stroke-width:11.17px;"/><path d="M123.274,46.512l-0.407,27.952" style="fill:none;stroke:#ffaf32;stroke-width:11.17px;"/></g></g><path d="M145.894,68.671c1.525,-3.624 10.11,-12.851 16.034,-14.856c-0,-0 4.52,9.77 3.964,14.314c-0.556,4.543 -3.427,17.84 -3.427,17.84c-0,-0 -6.993,-9.317 -9.217,-11.555c-3.371,-3.393 -7.354,-5.743 -7.354,-5.743Z" style="fill:#f66978;"/><clipPath id="_clip7"><path d="M145.894,68.671c1.525,-3.624 10.11,-12.851 16.034,-14.856c-0,-0 4.52,9.77 3.964,14.314c-0.556,4.543 -3.427,17.84 -3.427,17.84c-0,-0 -6.993,-9.317 -9.217,-11.555c-3.371,-3.393 -7.354,-5.743 -7.354,-5.743Z"/></clipPath><g clip-path="url(#_clip7)"><path d="M162.039,54.015l-7.216,5.585c0,0 -1.908,6.661 0.436,8.32c2.343,1.659 4.872,3.368 4.872,3.368c-0,0 -0.899,2.193 1.185,3.535c2.084,1.342 4.122,0.375 4.122,0.375c0,0 0.852,-8.161 0.065,-11.996c-0.787,-3.835 -3.464,-9.187 -3.464,-9.187Z" style="fill:#ff969f;"/></g><path d="M72.404,67.562c-1.525,-3.624 -9.832,-12.059 -15.756,-14.064c0,0 -3.881,10.771 -3.946,14.581c-0.078,4.576 2.325,15.422 2.325,15.422c0,0 7.799,-7.958 10.023,-10.195c3.371,-3.393 7.354,-5.744 7.354,-5.744Z" style="fill:#f66978;"/><clipPath id="_clip8"><path d="M72.404,67.562c-1.525,-3.624 -9.832,-12.059 -15.756,-14.064c0,0 -3.881,10.771 -3.946,14.581c-0.078,4.576 2.325,15.422 2.325,15.422c0,0 7.799,-7.958 10.023,-10.195c3.371,-3.393 7.354,-5.744 7.354,-5.744Z"/></clipPath><g clip-path="url(#_clip8)"><path d="M64.53,56.716c-0,0 1.046,6.411 -0.639,8.853c-1.686,2.443 -4.789,4.452 -4.789,4.452c-0,0 1.185,2.801 -1.529,4.152c-2.714,1.35 -4.881,3.434 -5.761,1.117c-0.88,-2.318 1.723,-19.399 4.224,-21.992c2.501,-2.593 8.494,3.418 8.494,3.418Z" style="fill:#ff969f;"/></g><g id="Face-Outline" serif:id="Face Outline"><path id="Face1" serif:id="Face" d="M145.188,68.035c15.549,9.569 22.006,25.775 23.673,42.112c2.956,28.947 -21.625,51.328 -59.956,50.799c-42.768,-0.59 -61.632,-21.715 -59.957,-50.799c1.223,-21.222 9.514,-35.48 24.367,-43.359" style="fill:none;stroke:#000;stroke-width:2.36px;"/><path d="M73.315,66.788c0,0 -13.159,-13.177 -15.849,-13.25c-2.69,-0.074 -4.432,11.384 -4.291,16.533c0.141,5.148 2.143,13.551 2.143,13.551" style="fill:none;stroke:#000;stroke-width:2.36px;"/><path d="M145.188,68.035c0,0 14.65,-15.151 16.369,-14.131c1.719,1.021 5.061,11.645 4.409,17.8c-0.652,6.156 -3.271,14.824 -3.271,14.824" style="fill:none;stroke:#000;stroke-width:2.36px;"/><path d="M136.92,63.944c-0,0 20.397,-21.683 28.964,-18.723c2.298,0.794 3.777,8.998 4.439,15.366c0.548,5.269 0.386,18.28 -0.393,22.322c-0.778,4.041 -4.231,10.704 -4.231,10.704" style="fill:none;stroke:#000;stroke-width:2.36px;"/><path d="M82.354,63.027c-0,-0 -19.386,-21.038 -29.623,-18.606c-3.735,0.887 -3.253,12.766 -3.958,20.334c-0.909,9.772 3.519,25.808 3.519,25.808" style="fill:none;stroke:#000;stroke-width:2.36px;"/><path d="M82.354,63.027c7.612,-2.424 16.477,-3.634 26.551,-3.679c11.17,-0.049 20.411,1.631 28.015,4.596" style="fill:none;stroke:#000;stroke-width:2.36px;"/></g></g><g id="Grin"><path d="M123.387,133.997c-1.269,3.872 -2.464,4.711 -7.625,4.577c-5.16,-0.134 -6.825,-1.318 -6.919,-3.183l-0.001,-1.727" style="fill:none;stroke:#000;stroke-width:2.23px;"/><path d="M94.336,134.067c1.269,3.872 2.464,4.711 7.624,4.577c5.161,-0.134 6.693,-1.393 6.787,-3.258" style="fill:none;stroke:#000;stroke-width:2.23px;"/><path d="M112.836,129.59c0.587,0 1.15,0.233 1.565,0.648c0.415,0.416 0.649,0.979 0.649,1.566c-0,0.088 -0,0.176 -0,0.263c-0,0.588 -0.234,1.151 -0.649,1.566c-0.415,0.415 -0.978,0.648 -1.565,0.648c-2.303,0 -5.888,0 -8.191,0c-0.588,0 -1.151,-0.233 -1.566,-0.648c-0.415,-0.415 -0.648,-0.978 -0.648,-1.566c-0,-0.087 -0,-0.175 -0,-0.263c-0,-0.587 0.233,-1.15 0.648,-1.566c0.415,-0.415 0.978,-0.648 1.566,-0.648c2.303,0 5.888,0 8.191,0Z"/></g><g id="Glasses"><path d="M112.877,109.186c-1.116,-0.979 -2.881,-1.78 -4.801,-1.794c-1.92,-0.014 -3.696,0.761 -4.826,1.724c0.023,-3.236 2.199,-5.848 4.856,-5.829c2.657,0.019 4.795,2.662 4.771,5.899Z" style="fill:#575759;stroke:#000;stroke-width:2.23px;"/><g id="Left-Lens" serif:id="Left Lens"><ellipse cx="82.703" cy="111.558" rx="22.61" ry="20.629" style="fill:#575759;"/><clipPath id="_clip9"><ellipse cx="82.703" cy="111.558" rx="22.61" ry="20.629"/></clipPath><g clip-path="url(#_clip9)"><path d="M76.192,127.103c4.229,0.226 13.169,0.977 17.804,-3.329c3.823,-3.552 6.093,-9.606 6.938,-15.65c1.998,5.329 1.157,10.423 -4.015,15.871c-6.197,6.526 -17.812,5.343 -20.727,3.108Z" style="fill:#959a9e;"/><path d="M92.131,93.039c-7.631,0.28 -15.254,-2.137 -24.324,5.812c-3.924,3.44 -6.439,12.655 -6.122,18.749c-2.972,-4.853 -1.552,-11.716 2.896,-17.769c8.486,-11.551 24.265,-8.434 27.55,-6.792Z" style="fill:#959a9e;"/></g><ellipse cx="82.703" cy="111.558" rx="22.61" ry="20.629" style="fill:none;stroke:#000;stroke-width:2.23px;"/><ellipse cx="82.717" cy="111.978" rx="17.067" ry="15.177" style="fill:#404042;"/><clipPath id="_clip10"><ellipse cx="82.717" cy="111.978" rx="17.067" ry="15.177"/></clipPath><g clip-path="url(#_clip10)"><path d="M93.99,96.975l-12.925,34.968l-6.602,-2.44l12.926,-34.968l6.601,2.44Z" style="fill:#fff;"/><path d="M101.516,98.513l-12.925,34.968l-3.493,-1.291l12.926,-34.967l3.492,1.29Z" style="fill:#fff;"/></g><ellipse cx="82.717" cy="111.978" rx="17.067" ry="15.177" style="fill:none;stroke:#000;stroke-width:2.23px;"/></g><g id="Right-Lens" serif:id="Right Lens"><ellipse cx="133.649" cy="111.933" rx="22.61" ry="20.629" style="fill:#575759;"/><clipPath id="_clip11"><ellipse cx="133.649" cy="111.933" rx="22.61" ry="20.629"/></clipPath><g clip-path="url(#_clip11)"><path d="M127.138,127.478c4.229,0.226 13.169,0.977 17.803,-3.329c3.824,-3.552 6.094,-9.606 6.939,-15.649c1.997,5.328 1.156,10.423 -4.016,15.87c-6.196,6.526 -17.812,5.344 -20.726,3.108Z" style="fill:#959a9e;"/><path d="M143.077,93.414c-7.632,0.281 -15.255,-2.137 -24.324,5.812c-3.925,3.44 -6.439,12.655 -6.123,18.749c-2.971,-4.853 -1.551,-11.716 2.896,-17.769c8.486,-11.551 24.265,-8.434 27.551,-6.792Z" style="fill:#959a9e;"/></g><ellipse cx="133.649" cy="111.933" rx="22.61" ry="20.629" style="fill:none;stroke:#000;stroke-width:2.23px;"/><ellipse cx="133.699" cy="111.558" rx="17.067" ry="15.177" style="fill:#404042;"/><clipPath id="_clip12"><ellipse cx="133.699" cy="111.558" rx="17.067" ry="15.177"/></clipPath><g clip-path="url(#_clip12)"><path d="M144.972,96.555l-12.925,34.967l-6.602,-2.44l12.926,-34.968l6.601,2.441Z" style="fill:#fff;"/><path d="M152.498,98.093l-12.925,34.967l-3.492,-1.29l12.925,-34.968l3.492,1.291Z" style="fill:#fff;"/></g><ellipse cx="133.699" cy="111.558" rx="17.067" ry="15.177" style="fill:none;stroke:#000;stroke-width:2.23px;"/></g></g></g></g><path d="M116.149,220.708c-0.3,2.557 -0.762,10.495 -0.762,10.495" style="fill:none;stroke:#000;stroke-width:1.06px;"/><path d="M75.16,60.652c0.996,-1.826 3.354,-5.71 5.476,-5.906c-0.022,-2.453 3.352,-3.913 5.835,-4.338c2.153,-3.244 4.9,-2.631 4.9,-2.631c0,0 2.093,-2.648 4.088,-4.796c3.082,-3.318 24.101,-3.095 25.788,-0.85c1.182,1.573 3.637,3.708 5.098,7.031c3.22,-0.89 4.362,1.651 4.362,1.651c0,0 8.758,2.607 10.669,7.384c0.62,1.547 0.801,2.688 0.723,3.528c0.706,0.262 1.349,0.608 1.904,1.034c1.878,1.444 6.372,4.015 8.361,6.072c1.989,2.057 6.615,7.901 10.373,7.911c3.757,0.01 -2.077,1.691 -2.077,1.691c-0,-0 2.67,2.502 4.329,3.975c1.659,1.474 -4.873,2.685 -4.873,2.685c-0,0 -6.433,-8.821 -11.839,-11.827c-4.974,-2.766 -9.109,-1.954 -13.28,-1.645c-0.682,0.884 -1.393,1.892 -2.043,2.975c-2.241,3.738 -8.757,4.49 -8.757,4.49c0,-0 2.791,-9.395 0.44,-5.894c-2.352,3.5 -14.977,9.048 -14.977,9.048c0,0 -18.492,-5.201 -20.755,-10.403c-0.491,-1.127 0.472,5.37 0.472,5.37c0,-0 -3.857,-2.581 -5.648,-4.856c-0.017,-0.022 -0.034,-0.044 -0.051,-0.066c-0.207,0.11 -0.427,0.209 -0.663,0.294c-3.615,1.295 -4.417,-1.167 -7.274,-0.782c-2.856,0.386 -6.839,1.439 -10.52,4.445c-3.681,3.007 -7.197,6.013 -9.384,10.641c-2.186,4.628 -3.774,8.677 -3.774,8.677l-0.989,-6.991c0,0 1.642,-6.456 5.499,-9.167c2.434,-1.711 1.901,-3.659 1.901,-3.659c0,0 -4.087,-1.592 -0.615,-2.403c3.472,-0.811 4.549,-2.225 6.384,-5.053c1.835,-2.828 7.548,-5.874 10.185,-7.249c0.251,-0.131 0.494,-0.26 0.732,-0.386Z" style="fill:#79452a;"/><clipPath id="_clip13"><path d="M75.16,60.652c0.996,-1.826 3.354,-5.71 5.476,-5.906c-0.022,-2.453 3.352,-3.913 5.835,-4.338c2.153,-3.244 4.9,-2.631 4.9,-2.631c0,0 2.093,-2.648 4.088,-4.796c3.082,-3.318 24.101,-3.095 25.788,-0.85c1.182,1.573 3.637,3.708 5.098,7.031c3.22,-0.89 4.362,1.651 4.362,1.651c0,0 8.758,2.607 10.669,7.384c0.62,1.547 0.801,2.688 0.723,3.528c0.706,0.262 1.349,0.608 1.904,1.034c1.878,1.444 6.372,4.015 8.361,6.072c1.989,2.057 6.615,7.901 10.373,7.911c3.757,0.01 -2.077,1.691 -2.077,1.691c-0,-0 2.67,2.502 4.329,3.975c1.659,1.474 -4.873,2.685 -4.873,2.685c-0,0 -6.433,-8.821 -11.839,-11.827c-4.974,-2.766 -9.109,-1.954 -13.28,-1.645c-0.682,0.884 -1.393,1.892 -2.043,2.975c-2.241,3.738 -8.757,4.49 -8.757,4.49c0,-0 2.791,-9.395 0.44,-5.894c-2.352,3.5 -14.977,9.048 -14.977,9.048c0,0 -18.492,-5.201 -20.755,-10.403c-0.491,-1.127 0.472,5.37 0.472,5.37c0,-0 -3.857,-2.581 -5.648,-4.856c-0.017,-0.022 -0.034,-0.044 -0.051,-0.066c-0.207,0.11 -0.427,0.209 -0.663,0.294c-3.615,1.295 -4.417,-1.167 -7.274,-0.782c-2.856,0.386 -6.839,1.439 -10.52,4.445c-3.681,3.007 -7.197,6.013 -9.384,10.641c-2.186,4.628 -3.774,8.677 -3.774,8.677l-0.989,-6.991c0,0 1.642,-6.456 5.499,-9.167c2.434,-1.711 1.901,-3.659 1.901,-3.659c0,0 -4.087,-1.592 -0.615,-2.403c3.472,-0.811 4.549,-2.225 6.384,-5.053c1.835,-2.828 7.548,-5.874 10.185,-7.249c0.251,-0.131 0.494,-0.26 0.732,-0.386Z"/></clipPath><g clip-path="url(#_clip13)"><path d="M52.033,98.103c-2.132,-3.446 -6.758,-10.274 -3.61,-15.313c3.148,-5.038 6.258,-6.897 6.258,-6.897c-0,-0 2.17,-5.147 7.587,-11.832c5.416,-6.685 10.377,-7.377 13.388,-9.39c3.011,-2.012 6.988,-5.182 10.065,-8.178c3.076,-2.996 3.862,-6.403 11.987,-7.812c8.126,-1.409 9.911,-1.098 12.894,-0.168c2.984,0.929 3.599,1.359 1.116,2.689c-2.484,1.33 -5.34,4.752 -3.577,5.884c1.764,1.133 1.44,3.313 -2.582,5.874c-4.021,2.562 -17.234,6.769 -18.965,7.14c-1.73,0.371 1.791,1.736 1.791,1.736c0,-0 0.775,1.058 0.379,2.798c-0.395,1.741 -2.126,2.032 -1.576,3.585c0.549,1.553 2.719,0.841 2.719,0.841c0,-0 -4.032,3.599 -2.236,5.058c1.797,1.458 4.115,3.792 0.566,3.753c-3.549,-0.04 -3.401,-5.692 -5.906,-5.256c-2.505,0.435 -8.779,1.265 -11.762,4.064c-2.983,2.799 -16.405,24.871 -18.536,21.424Z" style="fill:#966146;"/></g><path d="M75.16,60.652c0.996,-1.826 3.354,-5.71 5.476,-5.906c-0.022,-2.453 3.352,-3.913 5.835,-4.338c2.153,-3.244 4.9,-2.631 4.9,-2.631c0,0 2.093,-2.648 4.088,-4.796c3.082,-3.318 24.101,-3.095 25.788,-0.85c1.182,1.573 3.637,3.708 5.098,7.031c3.22,-0.89 4.362,1.651 4.362,1.651c0,0 8.758,2.607 10.669,7.384c0.62,1.547 0.801,2.688 0.723,3.528c0.706,0.262 1.349,0.608 1.904,1.034c1.878,1.444 6.372,4.015 8.361,6.072c1.989,2.057 6.615,7.901 10.373,7.911c3.757,0.01 -2.077,1.691 -2.077,1.691c-0,-0 2.67,2.502 4.329,3.975c1.659,1.474 -4.873,2.685 -4.873,2.685c-0,0 -6.433,-8.821 -11.839,-11.827c-4.974,-2.766 -9.109,-1.954 -13.28,-1.645c-0.682,0.884 -1.393,1.892 -2.043,2.975c-2.241,3.738 -8.757,4.49 -8.757,4.49c0,-0 2.791,-9.395 0.44,-5.894c-2.352,3.5 -14.977,9.048 -14.977,9.048c0,0 -18.492,-5.201 -20.755,-10.403c-0.491,-1.127 0.472,5.37 0.472,5.37c0,-0 -3.857,-2.581 -5.648,-4.856c-0.017,-0.022 -0.034,-0.044 -0.051,-0.066c-0.207,0.11 -0.427,0.209 -0.663,0.294c-3.615,1.295 -4.417,-1.167 -7.274,-0.782c-2.856,0.386 -6.839,1.439 -10.52,4.445c-3.681,3.007 -7.197,6.013 -9.384,10.641c-2.186,4.628 -3.774,8.677 -3.774,8.677l-0.989,-6.991c0,0 1.642,-6.456 5.499,-9.167c2.434,-1.711 1.901,-3.659 1.901,-3.659c0,0 -4.087,-1.592 -0.615,-2.403c3.472,-0.811 4.549,-2.225 6.384,-5.053c1.835,-2.828 7.548,-5.874 10.185,-7.249c0.251,-0.131 0.494,-0.26 0.732,-0.386Z" style="fill:none;stroke:#000;stroke-width:1.06px;"/><path d="M84.842,62.069c0.91,1.773 2.497,2.414 4.981,2.465c4.645,0.096 14.188,-3.006 18.012,-3.296c3.824,-0.29 5.619,-1.015 6.461,0.112c0.842,1.127 -3.201,-5.023 0.769,-6.606c3.97,-1.582 3.208,-1.582 -0.835,-2.597c-4.043,-1.015 2.593,-2.604 -0.835,-3.475c-3.428,-0.87 -10.805,-1.041 -16.247,3.139c-5.443,4.179 -5.89,7.99 -8.204,7.838c-2.315,-0.151 -3.333,-0.296 -3.333,-0.296c0.564,1.179 1.669,1.879 3.157,2.241c-0,0 -2.145,0.283 -3.926,0.475Z" style="fill:#966146;"/><path d="M130.707,50.813c0.528,1.756 1.481,4.505 0.763,6.74" style="fill:none;stroke:#000;stroke-width:1.06px;"/><path d="M135.718,68.134c1.509,-2.888 2.22,-5.057 2.11,-6.52" style="fill:none;stroke:#000;stroke-width:1.06px;"/><path d="M80.875,53.953c0.212,1.642 -0.029,1.978 1.538,3.066" style="fill:none;stroke:#000;stroke-width:1.06px;"/><path d="M101.203,79.181c3.137,-2.639 9.484,-8.77 9.47,-12.264c-0.015,-3.494 -4.776,-5.103 -4.776,-5.103" style="fill:none;stroke:#000;stroke-width:1.06px;"/><path d="M89.52,61.731c-2.544,-0.331 -3.741,-1.341 -3.894,-2.211c-0.154,-0.871 1.686,1.369 4.279,-0.416c2.593,-1.785 5.662,-7.431 9.013,-8.593c3.352,-1.162 8.873,-3.305 14.372,-1.876" style="fill:none;stroke:#000;stroke-width:1.06px;"/><path d="M109.476,81.787c3.67,-5.696 8.757,-10.851 7.505,-15.756c-1.253,-4.905 -4.718,-6.26 -11.992,-4.856c-7.274,1.404 -13.375,3.863 -17.001,3.065c-3.626,-0.797 -3.348,-2.459 -3.348,-2.459c0,0 5.882,1.774 10.614,-1.246c4.732,-3.019 11.039,-9.39 14.043,-9.568c3.003,-0.178 13.61,3.909 13.61,3.909" style="fill:none;stroke:#000;stroke-width:1.06px;"/></svg>