<?xml version="1.0" encoding="UTF-8" standalone="no"?><!DOCTYPE svg PUBLIC "-//W3C//DTD SVG 1.1//EN" "http://www.w3.org/Graphics/SVG/1.1/DTD/svg11.dtd"><svg width="100%" height="100%" viewBox="0 0 100 100" version="1.1" xmlns="http://www.w3.org/2000/svg" xmlns:xlink="http://www.w3.org/1999/xlink" xml:space="preserve" xmlns:serif="http://www.serif.com/" style="fill-rule:evenodd;clip-rule:evenodd;stroke-linejoin:round;stroke-miterlimit:2;"><rect id="_48x48-ico" serif:id="48x48 ico" x="0" y="0" width="100" height="100" style="fill:none;"/><clipPath id="_clip1"><rect x="0" y="0" width="100" height="100"/></clipPath><g clip-path="url(#_clip1)"><g id="ZKLogo"><path d="M-0,12.5c-0,-6.904 5.596,-12.5 12.5,-12.5l75,-0c6.904,-0 12.5,5.596 12.5,12.5l0,75c0,6.904 -5.596,12.5 -12.5,12.5l-75,0c-6.904,0 -12.5,-5.596 -12.5,-12.5l-0,-75Z" style="fill:#f2f2f2;fill-rule:nonzero;"/><path d="M31.25,25l-25,25l25,25l-0,-18.75l25,-18.75l-25,-0l-0,-12.5Z" style="fill-rule:nonzero;"/><path d="M93.75,50l-25,-25l0,18.75l-25,18.75l25,0l0,12.5l25,-25Z" style="fill-rule:nonzero;"/></g></g></svg>