<?xml version="1.0" encoding="UTF-8" standalone="no"?><!DOCTYPE svg PUBLIC "-//W3C//DTD SVG 1.1//EN" "http://www.w3.org/Graphics/SVG/1.1/DTD/svg11.dtd"><svg width="100%" height="100%" viewBox="0 0 313 313" version="1.1" xmlns="http://www.w3.org/2000/svg" xmlns:xlink="http://www.w3.org/1999/xlink" xml:space="preserve" xmlns:serif="http://www.serif.com/" style="fill-rule:evenodd;clip-rule:evenodd;stroke-linejoin:round;stroke-miterlimit:2;"><rect id="_150x150" serif:id="150x150" x="0" y="0" width="312.5" height="312.5" style="fill:none;"/><clipPath id="_clip1"><rect x="0" y="0" width="312.5" height="312.5"/></clipPath><g clip-path="url(#_clip1)"><g id="ZKLogo"><path d="M0,39.063c0,-21.574 17.489,-39.063 39.063,-39.063l234.375,-0c21.573,-0 39.062,17.489 39.062,39.063l0,234.375c0,21.573 -17.489,39.062 -39.062,39.062l-234.375,0c-21.574,0 -39.063,-17.489 -39.063,-39.063l0,-234.375Z" style="fill:#f2f2f2;fill-rule:nonzero;"/><path d="M97.656,78.125l-78.125,78.125l78.125,78.125l0,-58.594l78.125,-58.594l-78.125,0l0,-39.062Z" style="fill-rule:nonzero;"/><path d="M292.969,156.25l-78.125,-78.125l-0,58.594l-78.125,58.594l78.125,-0l-0,39.062l78.125,-78.125Z" style="fill-rule:nonzero;"/></g></g></svg>