<?xml version="1.0" encoding="UTF-8" standalone="no"?><!DOCTYPE svg PUBLIC "-//W3C//DTD SVG 1.1//EN" "http://www.w3.org/Graphics/SVG/1.1/DTD/svg11.dtd"><svg width="100%" height="100%" viewBox="0 0 313 313" version="1.1" xmlns="http://www.w3.org/2000/svg" xmlns:xlink="http://www.w3.org/1999/xlink" xml:space="preserve" xmlns:serif="http://www.serif.com/" style="fill-rule:evenodd;clip-rule:evenodd;stroke-linejoin:round;stroke-miterlimit:2;"><rect id="_150x150" serif:id="150x150" x="0" y="0" width="312.5" height="312.5" style="fill:none;"/><clipPath id="_clip1"><rect x="0" y="0" width="312.5" height="312.5"/></clipPath><g clip-path="url(#_clip1)"><g id="ZKLogo"><path d="M-20.833,23.438c-0,-24.451 19.82,-44.271 44.271,-44.271l265.625,-0c24.449,-0 44.27,19.82 44.27,44.271l0,265.625c0,24.449 -19.821,44.27 -44.27,44.27l-265.625,0c-24.451,0 -44.271,-19.821 -44.271,-44.27l-0,-265.625Z" style="fill:#f2f2f2;fill-rule:nonzero;"/><path d="M103.906,86.458l-69.791,69.792l69.791,69.792l0,-52.344l69.792,-52.344l-69.792,0l0,-34.896Z" style="fill-rule:nonzero;"/><path d="M278.385,156.25l-69.791,-69.792l-0,52.344l-69.792,52.344l69.792,-0l-0,34.896l69.791,-69.792Z" style="fill-rule:nonzero;"/></g></g></svg>