<?xml version="1.0" encoding="UTF-8" standalone="no"?><!DOCTYPE svg PUBLIC "-//W3C//DTD SVG 1.1//EN" "http://www.w3.org/Graphics/SVG/1.1/DTD/svg11.dtd"><svg width="100%" height="100%" viewBox="0 0 100 100" version="1.1" xmlns="http://www.w3.org/2000/svg" xmlns:xlink="http://www.w3.org/1999/xlink" xml:space="preserve" xmlns:serif="http://www.serif.com/" style="fill-rule:evenodd;clip-rule:evenodd;stroke-linejoin:round;stroke-miterlimit:2;"><rect id="_48x48" serif:id="48x48" x="0" y="0" width="100" height="100" style="fill:none;"/><clipPath id="_clip1"><rect x="0" y="0" width="100" height="100"/></clipPath><g clip-path="url(#_clip1)"><g id="ZKLogo"><path d="M-10.417,4.688c0,-8.342 6.763,-15.105 15.105,-15.105l90.624,0c8.342,0 15.105,6.763 15.105,15.105l-0,90.625c-0,8.341 -6.763,15.104 -15.105,15.104l-90.624,-0c-8.342,-0 -15.105,-6.763 -15.105,-15.104l0,-90.625Z" style="fill:#f2f2f2;fill-rule:nonzero;"/><path d="M34.821,29.762l-20.238,20.238l20.238,20.238l0,-15.178l20.239,-15.179l-20.239,-0l0,-10.119Z" style="fill-rule:nonzero;"/><path d="M85.417,50l-20.238,-20.238l-0,15.178l-20.239,15.179l20.239,0l-0,10.119l20.238,-20.238Z" style="fill-rule:nonzero;"/></g></g></svg>